<svg id="Layer_1" xmlns="http://www.w3.org/2000/svg" viewBox="0 0 38 38" fill="#00B688">
  <title>external-link-icon</title>
  <g>
    <path class="cls-1" d="M32.54,33.29H5.46a0.75,0.75,0,0,1-.75-0.75V5.46a0.75,0.75,0,0,1,.75-0.75H15.82A0.75,0.75,0,0,0,16.57,4V1.46A0.75,0.75,0,0,0,15.82.71H1.46a0.75,0.75,0,0,0-.75.75V36.54a0.75,0.75,0,0,0,.75.75H36.54a0.75,0.75,0,0,0,.75-0.75V22.18a0.75,0.75,0,0,0-.75-0.75H34a0.75,0.75,0,0,0-.75.75V32.54A0.75,0.75,0,0,1,32.54,33.29Z"/>
    <path class="cls-1" d="M23.87,1.46V4a0.75,0.75,0,0,0,.75.75h4A0.75,0.75,0,0,1,29.18,6L18.12,17.06a0.75,0.75,0,0,0,0,1.06l1.77,1.77a0.75,0.75,0,0,0,1.06,0L32,8.82a0.75,0.75,0,0,1,1.28.53v2.82a0.75,0.75,0,0,0,.75.75h2.5a0.75,0.75,0,0,0,.75-0.75V1.46A0.75,0.75,0,0,0,36.54.71H24.62A0.75,0.75,0,0,0,23.87,1.46Z"/>
  </g>
</svg>
