<svg xmlns="http://www.w3.org/2000/svg" viewBox="0 0 32 32">
  <path d="M32,16A16,16,0,1,0,3.12,25.48C2,26.68,1,27.73.21,28.5a.72.72,0,0,0,0,1,.7.7,0,0,0,.51.22.71.71,0,0,0,.51-.21c.37-.37,1.42-1.44,2.81-2.92a16,16,0,0,0,17.12,4.54.72.72,0,0,0-.46-1.37A14.51,14.51,0,0,1,5,25.54c1.16-1.26,2.47-2.73,3.76-4.28.37.92.8,1.87,1.28,2.86.12.29.72,1.65,1.88,1.67h0c1.25,0,2-1.57,2.52-2.76l.88-2.21a5.86,5.86,0,0,1,.46-1c.09.23.17.51.21.65l.06.19.4,3.48c.11.86.5,1.39,1.07,1.43.87.07,1.39-.8,2.17-3.44l.69-2.39.13,3.42,0,.19c.07.21.46,1.28,1.35,1.32S23.4,23.53,23.61,23l1.18-3.55-.24,3.68c-.06.73-.14,3.14,1.23,3.7S28.35,26,29.24,25l0,0s0,0,0,0A16,16,0,0,0,32,16ZM9,10.15a5.31,5.31,0,0,1,2.85-3,2.28,2.28,0,0,1,2,.29A2.15,2.15,0,0,1,14.38,9v.11c.11,1.94-2.2,5.54-5.09,9.21C8.05,14.29,8.39,11.71,9,10.15ZM26.33,25.54A3.65,3.65,0,0,1,26,23.28l.25-3.88c0-.49.15-1.78-.7-2.18a1.42,1.42,0,0,0-1.56.41l-.13.12-1.59,4.78A4,4,0,0,1,22,23l0,0-.17-4.44,0-.22c-.27-.75-.67-1.13-1.18-1.13h0c-.76,0-1.14.87-1.31,1.4l-.91,3.13c-.19.67-.36,1.16-.5,1.52l-.32-2.82-.11-.37c-.24-.81-.57-1.91-1.5-1.95s-1.45,1-1.89,2.18l-.88,2.21C12.44,24.24,12,24.34,12,24.34s-.42-.39-.56-.77l0-.06A36.59,36.59,0,0,1,9.84,20c3.22-4,6.08-8.32,6-10.88a3.57,3.57,0,0,0-1-2.72,3.63,3.63,0,0,0-3.28-.63l-.08,0A6.7,6.7,0,0,0,7.73,9.55c-1.11,2.63-1,6,.47,10.14-1.35,1.64-2.76,3.25-4.08,4.7a14.55,14.55,0,1,1,24-.32C26.83,25.58,26.35,25.54,26.33,25.54Z" fill="#332e44"/>
</svg>
