<?xml version="1.0" encoding="utf-8"?>
<!-- Generator: Adobe Illustrator 18.1.1, SVG Export Plug-In . SVG Version: 6.00 Build 0)  -->
<svg version="1.1" id="Layer_1" xmlns="http://www.w3.org/2000/svg" xmlns:xlink="http://www.w3.org/1999/xlink" x="0px" y="0px"
	 viewBox="0 0 340.7 340.7" enable-background="new 0 0 340.7 340.7" xml:space="preserve">
<g>
	<g>
		<g>
			<path fill="#00A887" d="M24.6,269.3L24.6,269.3L24.6,269.3C24.6,269.2,24.6,269.2,24.6,269.3L24.6,269.3c0.1-0.2,0.1-0.2,0.1-0.3
				V269l0,0v-0.1c0,0,0-0.1,0.1-0.1v-0.1c0,0,0,0,0-0.1c0,0,0,0,0-0.1v-0.1c0-0.1,0.1-0.1,0.1-0.2c0,0,0,0,0-0.1
				c0-0.1,0.1-0.1,0.1-0.2l0,0v-0.1v-0.1v-0.1c0,0,0,0,0-0.1v-0.1l0,0l0.1-0.1l0,0c0,0,0,0,0-0.1l0,0l0,0v-0.1l0,0
				c0,0,0.1-0.1,0.1-0.2v-0.1V267l0,0l0.1-0.1c0,0,0,0,0-0.1c0.1,0,0.1-0.1,0.1-0.2c0,0,0,0,0-0.1l0,0v-0.1l0,0v-0.1l0,0v-0.1
				c0,0,0.1-0.1,0-0.1l0,0c0.1-0.1,0.1-0.1,0.1-0.2c0-0.1,0.1-0.1,0.1-0.2c0,0,0,0,0.1-0.1l0,0c0,0,0,0,0-0.1l0.1-0.1l0,0v-0.1l0,0
				c0,0,0,0,0-0.1l0,0c0-0.1,0.1-0.1,0.1-0.2c0,0,0,0,0-0.1s0-0.1,0.1-0.2c0,0,0,0,0-0.1s0.1-0.1,0.1-0.2c0,0,0,0,0-0.1
				c0,0,0-0.1,0.1-0.1l0.1-0.1l0,0l0,0l0,0c0,0,0.1-0.1,0.1-0.2l0,0l0,0v-0.1v-0.1c0,0,0-0.1,0.1-0.1l0,0c0-0.1,0.1-0.1,0.1-0.2l0,0
				l0.1-0.1l0.1-0.1l0.1-0.1c0,0,0.1,0,0.1-0.1v-0.1l0,0l0.1-0.1l0,0l0.1-0.1c0,0,0,0,0-0.1c0,0,0,0,0-0.1c0,0,0-0.1,0.1-0.1
				c0,0,0.1,0,0.1-0.1l0.1-0.1c0.1,0,0.1-0.1,0.1-0.2c0,0,0,0,0-0.1l0,0l0.1-0.1c0,0,0,0,0.1-0.1c0.1-0.1,0.1-0.1,0.2-0.2l0.1-0.1
				c0,0,0,0,0.1-0.1l0.1-0.1c0,0,0,0,0-0.1c0.1-0.1,0.1-0.1,0.2-0.2l0,0c0.1-0.1,0.2-0.2,0.2-0.2l0,0l0.1-0.1l0,0
				c0-0.1,0.1-0.1,0.1-0.1l0.1-0.1c0,0,0.1,0,0.1-0.1l0,0c0,0,0-0.1,0.1-0.1l0,0c0,0,0,0,0-0.1c0,0,0,0,0.1-0.1c0,0,0-0.1,0.1-0.1
				c0.1-0.1,0.2-0.2,0.3-0.3c0,0,0.1,0,0.1-0.1l0.1-0.1l0,0c0.1-0.1,0.1-0.1,0.1-0.1s0.1,0,0.1-0.1l0,0l0.1-0.1l0,0l0,0l0,0l0.1-0.1
				l0.1-0.1l0.1-0.1l0.1-0.1l0.1-0.1l0,0l0.1-0.1c0,0,0.1,0,0.1-0.1h0.1l0,0c0,0,0,0,0.1,0l0.1-0.1c0,0,0,0,0.1,0h0.1l0,0h0.1h0.1
				l0,0h0.1l0,0c0.1,0,0.1,0,0.1,0h0.1H31c0.1-0.1,0.2-0.1,0.3-0.1l0,0h0.1c0,0,0.1,0,0.1-0.1h0.1h0.1c0.1,0,0.1-0.1,0.2-0.1
				c0.1,0,0.2-0.1,0.3-0.1c0,0,0.1,0,0.1-0.1c0,0,0.1,0,0.1-0.1h0.1h0.1c0.1,0,0.1,0,0.2,0c0.1,0,0.2,0,0.2-0.1l0,0
				c0.1,0,0.1,0,0.2-0.1H33l0,0c0,0,0.1,0,0.1-0.1h0.1h0.1h0.1c0,0,0,0,0-0.1l0,0c0.1,0,0.1,0,0.2,0l0,0l0,0c0.1,0,0.1,0,0.2,0
				c0,0,0,0,0.1,0c0,0,0,0,0.1,0h0.1l0,0c0.1,0,0.1,0,0.2,0l0,0c0.1,0,0.1,0,0.2,0l0,0c0.1,0,0.1,0,0.2,0c0.1,0,0.1,0,0.2,0
				c0,0,0,0,0.1,0s0.2,0,0.3,0h0.1c0,0,0,0,0.1,0c0.1,0,0.1,0,0.2,0h0.1l0,0c0.1,0,0.1,0,0.2,0c0,0,0,0,0.1,0c0.3,0,0.5,0,0.8,0l0,0
				c0.1,0,0.2,0,0.2,0h0.1h0.1c0.1,0,0.2,0,0.3,0h0.1h0.1h0.1l0,0c0.1,0,0.2,0,0.2,0h0.1h0.1h0.1h0.1h0.1c0,0,0,0,0.1,0h0.1h0.1h0.1
				h0.1c0.1,0,0.2,0,0.2,0s0.1,0,0.2,0h0.1h0.1c0,0,0,0,0.1,0c0,0,0,0,0.1,0l0,0c0.1,0,0.1,0,0.2,0c0.1,0,0.2,0,0.3,0.1l0,0
				c0.1,0,0.1,0,0.1,0h0.1h0.1c0,0,0,0,0.1,0c0,0,0,0,0.1,0c0,0,0,0,0.1,0h0.1l0,0h0.1l0,0c0.1,0,0.1,0,0.2,0.1c0.1,0,0.1,0,0.2,0.1
				c0.1,0,0.1,0,0.1,0s0,0,0.1,0h0.1h0.1l0,0c0,0,0.1,0,0.1,0.1h0.1h0.1h0.1c0,0,0,0,0.1,0l0,0l0,0c0.1,0,0.2,0.1,0.3,0.1
				c0.1,0,0.1,0,0.2,0.1h0.1c0,0,0.1,0,0.1,0.1l0,0c0.1,0,0.1,0.1,0.2,0.1c0,0,0.1,0,0.1,0.1c0,0,0.1,0.1,0.1,0h0.1h0.1h0.1l0,0
				c0,0.1,0,0.1,0.1,0.1l0.1,0.1c0,0,0.1,0,0.1,0.1l0,0l0,0c0,0,0,0,0.1,0c0,0,0.1,0,0.1,0.1l0.1,0.1l0,0c0,0,0.1,0,0.1,0.1l0.1,0.1
				c0,0,0.1,0,0.1,0.1c0.1,0.1,0.2,0.1,0.2,0.2l0,0c0,0,0.1,0,0.1,0.1c0,0,0.1,0,0.1,0.1c0,0,0,0,0.1,0.1c0,0,0.1,0,0.1,0.1
				c0,0,0.1,0,0.1,0.1l0,0c0,0,0.1,0,0.1,0.1c0,0.1,0.1,0.1,0.2,0.1l0,0c0.1,0.1,0.1,0.1,0.2,0.2c0,0,0,0,0.1,0.1c0,0,0.1,0,0.1,0.1
				c0,0,0,0,0.1,0c0,0,0,0,0.1,0c0.1,0.1,0.1,0.1,0.2,0.2c0,0,0,0,0.1,0.1c0.1,0,0.1,0.1,0.1,0.1s0,0,0.1,0.1c0,0,0.1,0,0.1,0.1l0,0
				c0,0,0.1,0,0.1,0.1c0,0,0.1,0,0.1,0.1l0,0h0.1l0.1,0.1l0,0c0,0.1,0.1,0.1,0.2,0.1l0.1,0.1l0.1,0.1l0,0l0.1,0.1c0,0,0,0,0.1,0.1
				l0.1,0.1l0.1,0.1c0,0,0.1,0,0.1,0.1c0,0,0.1,0,0.1,0.1c0.1,0,0.1,0.1,0.2,0.1c0,0,0,0,0.1,0l0,0c0,0,0,0,0,0.1c0,0,0.1,0,0.1,0.1
				h0.1l0.1,0.1l0.1,0.1c0,0,0,0,0.1,0c0,0,0.1,0,0.1,0.1c0.1,0.1,0.1,0.1,0.2,0.2l0,0c0,0,0,0,0.1,0.1c0,0,0,0,0.1,0l0,0
				c0,0.1,0.1,0.1,0.1,0.1l0,0l0.1,0.1l0,0c0.1,0,0.1,0.1,0.2,0.1l0,0c0.1,0,0.1,0.1,0.1,0.1s0,0,0.1,0.1c0,0,0,0,0.1,0.1
				c0,0,0.1,0,0.1,0.1c0,0,0,0,0.1,0l0.1,0.1c0,0.1,0,0.1,0.1,0.2c0,0,0,0,0.1,0.1l0,0c0.1,0,0.1,0.1,0.1,0.2c0,0,0,0,0,0.1l0.1,0.1
				c0,0,0,0.1,0.1,0.1c0,0,0,0,0,0.1v0.1c0,0,0,0.1,0.1,0.1c0,0,0,0.1,0.1,0.1c0,0,0,0,0,0.1s0.1,0.1,0.1,0.2c0,0,0,0,0,0.1
				c0,0,0,0.1,0.1,0.1c0,0,0,0,0,0.1c0,0,0,0,0,0.1c0,0,0,0,0.1,0.1c0,0,0,0,0,0.1l0,0c0,0.1,0.1,0.1,0.1,0.2l0.1,0.1
				c0,0.1,0,0.1,0.1,0.2c0,0,0,0.1,0.1,0.1c0,0,0,0,0,0.1c0.1,0,0.1,0.1,0.1,0.1s0,0,0,0.1v0.1l0.1,0.1c0,0.1,0,0.1,0.1,0.1
				c0,0,0,0.1,0.1,0.1v0.1c0,0,0,0,0.1,0.1l0,0c0,0.1,0.1,0.2,0.1,0.2l0,0v0.1c0,0,0,0.1,0.1,0.1c0,0,0,0,0,0.1v0.1c0,0,0,0,0,0.1
				v0.1l0,0c0,0,0,0,0,0.1s0.1,0.1,0.1,0.2l0,0c0,0.1,0,0.1,0.1,0.2l0,0c0,0,0,0,0,0.1l0.1,0.1c0,0,0.1,0.1,0.1,0.2l0,0
				c0,0,0.1,0.1,0.1,0.2c0,0,0,0,0,0.1l0,0l0.1,0.1c0,0,0,0,0,0.1c0,0,0,0,0,0.1s0,0.1,0,0.2l0,0c0,0,0,0.1,0.1,0.1
				c0,0.1,0,0.1,0.1,0.2l0.1,0.1c0,0,0,0,0,0.1c0,0,0,0,0,0.1l0,0c0,0,0,0,0,0.1c0,0,0,0.1,0.1,0.1l0,0l0,0c0,0.1,0,0.1,0,0.2l0,0
				c0,0,0,0.1,0.1,0.1l0,0c0,0,0,0,0,0.1v0.1l0,0c0,0,0,0,0,0.1v0.1c0,0,0,0,0,0.1c0,0,0,0.1,0.1,0.1c0,0,0,0,0,0.1v0.1
				c0,0,0,0.1,0.1,0.1c0.1,0.1,0.1,0.2,0.1,0.2c0,0.1,0,0.1,0.1,0.2c0,0,0,0.1,0.1,0.1l0,0c0,0.1,0.1,0.1,0.1,0.2c0,0,0,0,0,0.1
				c0,0,0,0,0,0.1l0,0c0,0,0,0,0,0.1v0.1l0,0v0.1c0,0,0,0.1,0.1,0.1l0,0c0,0.1,0,0.1,0.1,0.2l0.1,0.1v0.1c0,0,0,0,0,0.1
				c0,0.1,0,0.1,0,0.2v0.1v0.1c0,0,0,0,0,0.1c0,0.1,0,0.1,0,0.2c0,0,0,0,0,0.1l0,0l0,0c0,0,0,0,0,0.1v0.1v0.1v0.1l0,0v0.1v0.1
				c0,0,0,0,0,0.1s0,0.2,0,0.3v0.1v0.1c0,0.2,0,0.3,0,0.4c0,0.1,0,0.1,0,0.2l0,0c0,0,0,0,0,0.1v0.1l0,0v0.1c0,0.2,0,0.3,0,0.4v0.1
				v0.1c0,0.1,0,0.1,0,0.2v0.1v0.1v0.1l0,0c0,0.1,0,0.1,0,0.2v0.1v0.1l0,0c0,0.1,0,0.1,0,0.2l0,0v0.1c0,0.1,0,0.2,0,0.3v0.1
				c0,0.1,0,0.1,0,0.2l0,0v0.1v0.1c0,0,0,0,0,0.1s0,0.2,0,0.3v0.1c0,0,0,0,0,0.1v0.1l0,0c0,0.1,0,0.2,0,0.2l0,0c0,0.1,0,0.2,0,0.2
				s0,0,0,0.1c0,0,0,0.1-0.1,0.1c0,0,0,0.1-0.1,0.1l-0.1,0.1l-0.1,0.1c0,0,0,0,0,0.1v0.1v0.1v0.1c0,0,0,0.1-0.1,0.1v0.1v0.1v0.1
				c0,0,0,0,0,0.1v0.1l0,0c0,0.1,0,0.1,0,0.1v0.1c0,0.1,0,0.1-0.1,0.2c0,0,0,0,0,0.1c0,0,0,0.1-0.1,0.1v0.1v0.1v0.1
				c0,0,0,0.1-0.1,0.1c0,0,0,0,0,0.1v0.1v0.1v0.1c0,0,0,0,0,0.1l0,0c0,0,0,0,0,0.1s0,0.1-0.1,0.2c0,0.1,0,0.1-0.1,0.2l0,0
				c0,0.1-0.1,0.2-0.1,0.2c0,0.1-0.1,0.2-0.1,0.3v0.1l0,0v0.1v0.1l0,0l-0.1,0.1v0.1l0,0c0,0-0.1,0-0.1,0.1l0,0v0.1l0,0
				c0,0,0,0.1-0.1,0.1l0,0c0,0,0,0-0.1,0.1v0.1v0.1l0,0l0,0c0,0.1,0,0.1-0.1,0.1l-0.1,0.1c0,0-0.1,0.1,0,0.1l-0.1,0.1
				c0,0,0,0.1-0.1,0.1c0,0,0,0,0,0.1v0.1c0,0,0,0.1-0.1,0.1l0,0c0,0,0,0,0,0.1c0,0,0,0,0,0.1s-0.1,0.1-0.1,0.2l0,0
				c0,0,0,0.1-0.1,0.1c0,0,0,0.1-0.1,0.1l0,0v0.1c0,0-0.1,0-0.1,0.1c0,0,0,0.1-0.1,0.1v0.1c0,0,0,0,0,0.1c0,0.1-0.1,0.1-0.1,0.2
				c0,0,0,0,0,0.1l0,0c0,0,0,0.1-0.1,0.1c0,0,0,0.1-0.1,0.1l-0.1,0.1l-0.1,0.1l0,0c0,0.1-0.1,0.1-0.1,0.2c0,0,0,0,0,0.1l0,0
				l-0.1,0.1c0,0,0,0,0,0.1c0,0,0,0,0,0.1l-0.1,0.1l-0.1,0.1c0,0,0,0,0,0.1l-0.1,0.1c0,0,0,0.1-0.1,0.1c0,0,0,0,0,0.1
				c0,0,0,0.1-0.1,0.1l0,0c0,0.1,0,0.1-0.1,0.1c0,0,0,0.1-0.1,0.1l0,0c0,0,0,0.1-0.1,0.1c0,0,0,0.1-0.1,0.1l0,0l-0.1,0.1l0,0
				c-0.1,0.1-0.1,0.1-0.2,0.1c0,0-0.1,0-0.1,0.1c0,0-0.1,0-0.1,0.1l-0.1,0.1l0,0c0,0.1-0.1,0.1-0.1,0.1l0,0c-0.1,0-0.1,0-0.1,0.1
				c-0.1,0.1-0.1,0.1-0.2,0.2c0,0,0,0,0,0.1c0,0,0,0-0.1,0s-0.1,0.1-0.2,0.1c-0.1,0.1-0.2,0.1-0.3,0.2l-0.1,0.1l-0.1,0.1l-0.1,0.1
				c0,0,0,0-0.1,0c0,0-0.1,0-0.1,0.1c0,0,0,0-0.1,0c0,0-0.1,0-0.1,0.1l0,0l-0.1,0.1c-0.1,0-0.1,0.1-0.1,0.1l0,0h-0.1
				c-0.1,0-0.1,0-0.1,0l0,0l-0.1,0.1l0,0c0,0.1-0.1,0.1-0.2,0.2c-0.1,0-0.1,0.1-0.2,0.1c0,0,0,0.1-0.1,0.1l0,0l-0.1,0.1l-0.1,0.1
				c0,0,0,0-0.1,0c0,0,0,0-0.1,0s-0.1,0.1-0.2,0.1h-0.1c0,0,0,0-0.1,0h-0.1c-0.1,0-0.2,0-0.2,0l0,0c-0.1,0-0.2,0-0.2,0.1
				c-0.1,0-0.1,0.1-0.2,0.1c0,0,0,0-0.1,0s-0.2,0.1-0.2,0.1s0,0-0.1,0c0,0,0,0-0.1,0c0,0,0,0-0.1,0s-0.2,0-0.2,0h-0.1l0,0
				c0,0,0,0-0.1,0h-0.1h-0.1h-0.1c-0.1,0.1-0.1,0.1-0.2,0.1h-0.1c0,0,0,0-0.1,0c0,0,0,0-0.1,0c0,0,0,0-0.1,0c0,0-0.1,0-0.1,0.1h-0.1
				h-0.1h-0.1l0,0h-0.1c-0.1,0-0.1,0-0.2,0.1h-0.1c0,0,0,0-0.1,0h-0.1h-0.1h-0.1h-0.1h-0.1l0,0h-0.1c-0.1,0-0.1,0-0.2,0.1H41h-0.1
				l0,0c-0.1,0-0.1,0-0.2,0s-0.1,0-0.2,0l0,0c-0.1,0-0.1,0-0.2,0l0,0h-0.1c0,0,0,0-0.1,0l0,0h-0.1H40h-0.1h-0.1c-0.1,0-0.2,0-0.3,0
				h-0.1l0,0h-0.1c0,0,0,0-0.1,0c0,0,0,0-0.1,0h-0.1c-0.1,0-0.1,0-0.2,0h-0.1c-0.1,0-0.1,0-0.2,0h-0.1c-0.1,0-0.2,0-0.3,0l0,0h-0.1
				h-0.1H38l0,0c0,0,0,0-0.1,0h-0.1c-0.1,0-0.2,0-0.3,0c-0.1,0-0.1,0-0.2,0l0,0h-0.1h-0.1l0,0h-0.1h-0.1l0,0c0,0,0,0-0.1,0
				c0,0,0,0-0.1,0c-0.1,0-0.2,0-0.3,0h-0.1h-0.1c-0.1,0-0.1,0-0.2,0c-0.1,0-0.1,0-0.2,0H36h-0.1h-0.1c-0.1,0-0.1,0-0.2,0
				s-0.1,0-0.2,0l0,0h-0.1h-0.1h-0.1h-0.1h-0.1H35h-0.1l0,0h-0.1h-0.1h-0.1h-0.1h-0.1h-0.1l0,0c-0.1,0-0.2,0-0.3,0H34h-0.1l0,0
				c0,0-0.1,0-0.2,0l0,0c-0.1,0-0.1,0-0.2,0h-0.1l0,0c0,0,0,0-0.1,0c0,0,0,0-0.1,0h-0.1h-0.1c0,0,0,0-0.1,0s-0.1,0-0.2,0l0,0
				c0,0,0,0-0.1,0c0,0,0,0-0.1,0l0,0h-0.1c-0.1,0-0.1,0-0.2,0l0,0h-0.1c0,0,0,0-0.1,0h-0.1c0,0,0,0-0.1,0H32c0,0-0.1,0-0.2,0l0,0
				h-0.1h-0.1l0,0c0,0-0.1,0-0.1-0.1h-0.1c0,0-0.1,0-0.1-0.1c0,0-0.1,0-0.1-0.1l0,0c0,0-0.1,0-0.1-0.1h-0.1c0,0,0,0-0.1-0.1
				c0,0,0,0-0.1,0l0,0c0,0,0,0-0.1-0.1c-0.1,0-0.1-0.1-0.2-0.1c0,0,0,0-0.1,0c0,0,0,0-0.1,0h-0.1c0,0-0.1,0-0.1-0.1l0,0
				c0,0-0.1,0-0.1-0.1l-0.1-0.1c0,0-0.1,0-0.1-0.1H30c0,0,0,0-0.1-0.1c0,0,0,0-0.1,0l0,0l-0.1-0.1c0,0-0.1,0-0.1-0.1l-0.1-0.1
				c-0.1,0-0.1,0-0.1-0.1l0,0c-0.1-0.1-0.2-0.1-0.3-0.2l0,0c0-0.1-0.1-0.1-0.2-0.1c0,0-0.1,0-0.1-0.1l0,0c-0.1,0-0.1-0.1-0.1-0.1
				l0,0c0,0,0,0-0.1,0l0,0l0,0c0,0-0.1-0.1-0.2-0.1c-0.1,0-0.1-0.1-0.2-0.1l0,0c-0.1,0-0.2-0.1-0.2-0.2c0,0-0.1,0-0.1-0.1
				c0,0-0.1,0-0.1-0.1c0,0-0.1,0-0.1-0.1c0,0-0.1,0-0.1-0.1l-0.1-0.1c0,0-0.1,0-0.1-0.1l-0.1-0.1c0,0-0.1,0-0.1-0.1l-0.1-0.1
				c0,0,0-0.1-0.1-0.1c0,0,0-0.1-0.1-0.1l-0.1-0.1c0,0-0.1,0-0.1-0.1c0,0-0.1,0-0.1-0.1c0,0-0.1,0-0.1-0.1l0,0
				c-0.1,0-0.1-0.1-0.1-0.1l0,0l-0.1-0.1l0,0l-0.1-0.1l0,0l-0.1-0.1c0,0-0.1,0-0.1-0.1c0,0-0.1,0-0.1-0.1c0,0,0-0.1-0.1-0.1l0,0l0,0
				l-0.1-0.1l-0.1-0.1l-0.1-0.1c0,0,0-0.1-0.1-0.1l-0.1-0.1c0,0,0,0,0-0.1c0,0,0,0,0-0.1l0,0l0,0c-0.1,0-0.1-0.1-0.1-0.1l-0.1-0.1
				c0,0,0,0,0-0.1c0,0,0,0-0.1-0.1l0,0c0,0,0,0-0.1-0.1c0,0,0,0,0-0.1l0,0c-0.1-0.1-0.1-0.1-0.2-0.2l0,0l0,0c0,0,0-0.1-0.1-0.1
				c0,0,0,0-0.1-0.1l-0.1-0.1l0,0l0,0c0,0,0-0.1-0.1-0.1l0,0l-0.1-0.1l0,0c0,0-0.1,0-0.1-0.1l0,0l-0.1-0.1l-0.1-0.1l0,0l-0.1-0.1
				c0,0,0,0-0.1,0l0,0c0,0,0-0.1-0.1-0.1c0,0-0.1-0.1-0.1-0.2l0,0l0,0c-0.1,0-0.1-0.1-0.1-0.1l0,0l-0.1-0.1l0,0c0,0,0,0,0-0.1l0,0
				c0,0,0,0,0-0.1l0,0v-0.1l-0.1-0.1l-0.1-0.1l0,0c0-0.1-0.1-0.1-0.1-0.2l-0.1-0.1l0,0v-0.1l-0.1-0.1l0,0c0,0,0,0-0.1-0.1
				c0,0,0,0-0.1-0.1c0,0,0,0-0.1-0.1c0,0,0,0-0.1-0.1c0,0,0,0-0.1-0.1l0,0c0,0,0-0.1-0.1-0.1l0,0c0-0.1,0-0.1-0.1-0.2
				c0-0.1-0.1-0.1-0.1-0.1s0-0.1-0.1-0.1l0,0c0,0,0-0.1-0.1-0.1c0,0,0,0,0-0.1s0-0.1-0.1-0.2c0-0.1-0.1-0.2-0.1-0.2V281l0,0v-0.1
				c0-0.1-0.1-0.1-0.1-0.2c0-0.1,0-0.1-0.1-0.2v-0.1l0,0c0,0,0-0.1-0.1-0.1v-0.1v-0.1l0,0c0-0.1,0-0.1,0-0.2l0,0
				c0-0.1,0-0.1-0.1-0.2c0-0.1,0-0.1-0.1-0.2c0,0,0-0.1-0.1-0.1v-0.1l0,0c0-0.1-0.1-0.2-0.1-0.2c0-0.1,0-0.1-0.1-0.2v-0.1V279l0,0
				v-0.1c0-0.1,0-0.1,0-0.1c0-0.1,0-0.1-0.1-0.2v-0.1c0,0,0,0,0-0.1v-0.1c0-0.1,0-0.1,0-0.2c0,0,0,0,0-0.1s0-0.2,0-0.3v-0.1v-0.1
				v-0.1l0,0v-0.1v-0.1v-0.1v-0.1v-0.1l0,0c0-0.1,0-0.1,0-0.2c0,0,0,0,0-0.1c0-0.1,0-0.2,0-0.3v-0.1l0,0v-0.1c0-0.1,0-0.2,0-0.3l0,0
				c0-0.1,0-0.1,0-0.2c0,0,0,0,0-0.1l0,0c0,0,0,0,0-0.1c0-0.1,0-0.1,0-0.2v-0.1v-0.1c0-0.1,0-0.1,0-0.2c0,0,0,0,0-0.1v-0.1V275
				c0,0,0,0,0-0.1v-0.1l0,0c0-0.1,0-0.1,0-0.2l0,0c0-0.1,0-0.1,0-0.2v-0.1v-0.1v-0.1c0,0,0,0,0-0.1V274c0,0,0,0,0-0.1
				c0-0.1,0-0.1,0-0.2c0,0,0,0,0-0.1v-0.1v-0.1v-0.1l0,0v-0.1l0,0c0-0.1,0-0.1,0-0.2v-0.1c0-0.1,0-0.1,0-0.2s0-0.1,0-0.2l0,0
				c0-0.1,0-0.2,0-0.2s0,0,0-0.1l0,0c0-0.1,0-0.1,0-0.2c0,0,0,0,0-0.1c0,0,0,0,0-0.1V272c0-0.1,0-0.1,0-0.2v-0.1c0,0,0-0.1,0-0.2
				v-0.1v-0.1c0,0,0,0,0-0.1c0,0,0-0.1,0.1-0.1c0,0,0,0,0-0.1c0-0.1,0-0.1,0-0.2c0,0,0,0,0-0.1v-0.1v-0.1c0-0.1,0.1-0.2,0.1-0.2
				s0,0,0-0.1s0.1-0.1,0.1-0.2l0,0v-0.1c0-0.1,0-0.1,0.1-0.2c0,0,0,0,0-0.1s0.1-0.2,0.1-0.3c0,0,0-0.1,0.1-0.1v-0.1c0,0,0,0,0-0.1
				l0,0C24.5,269.4,24.6,269.4,24.6,269.3C24.5,269.4,24.6,269.3,24.6,269.3L24.6,269.3L24.6,269.3L24.6,269.3z M45.6,289.1
				C45.7,289.1,45.7,289.1,45.6,289.1C45.7,289.1,45.7,289,45.6,289.1C45.7,289,45.7,289,45.6,289.1C45.7,289,45.6,289,45.6,289.1
				L45.6,289.1C45.7,289.1,45.7,289.1,45.6,289.1C45.7,289.1,45.7,289.1,45.6,289.1C45.7,289.2,45.7,289.2,45.6,289.1L45.6,289.1
				C45.8,289.1,45.7,289.1,45.6,289.1C45.7,289.1,45.7,289.1,45.6,289.1z M24.4,270.8L24.4,270.8L24.4,270.8L24.4,270.8L24.4,270.8
				C24.5,270.8,24.5,270.8,24.4,270.8L24.4,270.8z M25.7,268C25.7,268,25.6,268,25.7,268C25.6,268,25.6,268,25.7,268
				C25.6,268,25.6,268,25.7,268C25.6,268,25.6,268,25.7,268C25.6,268,25.7,268,25.7,268z M45.5,289.2
				C45.4,289.2,45.4,289.2,45.5,289.2C45.4,289.2,45.4,289.2,45.5,289.2C45.5,289.2,45.5,289.2,45.5,289.2L45.5,289.2z M31.9,260.8
				L31.9,260.8L31.9,260.8C31.9,260.8,31.9,260.8,31.9,260.8C31.9,260.8,31.9,260.8,31.9,260.8L31.9,260.8L31.9,260.8z M25,270.2
				C25,270.2,24.9,270.3,25,270.2C24.9,270.3,24.9,270.3,25,270.2C25,270.3,25,270.3,25,270.2C25,270.3,25,270.3,25,270.2
				C25,270.3,25,270.2,25,270.2z M26.7,265.7L26.7,265.7C26.7,265.7,26.6,265.7,26.7,265.7C26.6,265.7,26.6,265.7,26.7,265.7
				C26.6,265.7,26.6,265.7,26.7,265.7C26.6,265.7,26.6,265.7,26.7,265.7L26.7,265.7z M24.7,271.1L24.7,271.1L24.7,271.1L24.7,271.1
				C24.7,271.2,24.7,271.2,24.7,271.1C24.7,271.2,24.7,271.2,24.7,271.1C24.7,271.2,24.7,271.1,24.7,271.1z M32.1,259.9L32.1,259.9
				L32.1,259.9L32.1,259.9L32.1,259.9L32.1,259.9z M24.6,273.7L24.6,273.7L24.6,273.7L24.6,273.7L24.6,273.7L24.6,273.7L24.6,273.7z
				 M23.9,272.6L23.9,272.6L23.9,272.6L23.9,272.6L23.9,272.6L23.9,272.6C23.8,272.6,23.9,272.6,23.9,272.6L23.9,272.6z M25.5,268.5
				L25.5,268.5C25.5,268.6,25.5,268.6,25.5,268.5C25.5,268.6,25.5,268.5,25.5,268.5L25.5,268.5z M24.6,269.8
				C24.6,269.8,24.6,269.8,24.6,269.8C24.6,269.8,24.6,269.8,24.6,269.8C24.6,269.8,24.6,269.8,24.6,269.8
				C24.6,269.8,24.6,269.8,24.6,269.8z M31.3,261.3C31.3,261.4,31.3,261.4,31.3,261.3C31.3,261.4,31.3,261.4,31.3,261.3
				C31.3,261.4,31.3,261.4,31.3,261.3C31.3,261.4,31.3,261.4,31.3,261.3z M26,268.9L26,268.9L26,268.9L26,268.9L26,268.9L26,268.9z
				 M25.6,268.5L25.6,268.5L25.6,268.5L25.6,268.5L25.6,268.5z M34.1,264.7L34.1,264.7L34.1,264.7L34.1,264.7L34.1,264.7z M24.9,272
				C24.9,272,24.8,272,24.9,272C24.8,272,24.8,272,24.9,272C24.8,272,24.8,272,24.9,272C24.8,272,24.8,272,24.9,272z M24.9,269.3
				L24.9,269.3L24.9,269.3L24.9,269.3L24.9,269.3z"/>
			<path fill="#00A887" d="M30.5,260.4L30.5,260.4L30.5,260.4L30.5,260.4L30.5,260.4L30.5,260.4L30.5,260.4z"/>
			<path fill="#00A887" d="M30.5,260.4L30.5,260.4L30.5,260.4L30.5,260.4L30.5,260.4L30.5,260.4z"/>
		</g>
	</g>
	<path fill="#0082CA" d="M302.2,256.3c-0.4,0-0.9,0-1.3,0c-0.3,0-0.4,0-0.7,0c-0.2,0-0.4-0.1-0.6-0.1c-0.1,0-0.2,0-0.3,0
		c-0.3,0-0.5-0.1-0.8-0.1c-0.3,0-0.5-0.1-0.8-0.1c-0.3-0.1-0.7-0.1-1-0.1c-0.1,0-0.1,0-0.2,0c-0.2-0.1-0.4-0.2-0.6-0.3
		c-0.3-0.2-0.7-0.3-1-0.5c-0.2-0.1-0.4-0.2-0.6-0.3c-0.2-0.2-0.4-0.3-0.6-0.3c-0.2-0.1-0.3-0.2-0.4-0.3c-0.1-0.1-0.3-0.2-0.4-0.3
		c-0.1-0.1-0.3-0.2-0.3-0.3c-0.2-0.1-0.3-0.2-0.5-0.3c-0.2-0.2-0.3-0.3-0.5-0.3c-0.2-0.1-0.3-0.2-0.4-0.3c-0.2-0.1-0.3-0.2-0.4-0.3
		c-0.3-0.1-0.4-0.3-0.7-0.4c-0.2-0.2-0.4-0.3-0.6-0.4c-0.2-0.2-0.4-0.3-0.6-0.5c-0.3-0.3-0.8-0.6-1.1-1c-0.1-0.1-0.2-0.2-0.3-0.3
		c-0.1-0.1-0.2-0.3-0.3-0.3c-0.3-0.4-0.4-0.8-0.6-1.2c-0.1-0.3-0.3-0.5-0.3-0.8c-0.1-0.2-0.2-0.4-0.3-0.6c-0.1-0.2-0.1-0.3-0.2-0.4
		c-0.1-0.1-0.1-0.2-0.1-0.3c0-0.1,0-0.2-0.1-0.3c-0.1-0.2-0.1-0.3-0.2-0.4c0-0.1-0.1-0.2-0.1-0.2c-0.1-0.2-0.1-0.3-0.2-0.5
		s-0.1-0.3-0.2-0.6c0-0.1,0-0.1-0.1-0.2c-0.2-0.7-0.3-1.3-0.5-2c0-0.2-0.1-0.3-0.1-0.6c0-0.1,0-0.1,0-0.2c-0.1-0.3-0.1-0.4-0.1-0.7
		c0-0.2-0.1-0.4-0.1-0.6s0-0.4-0.1-0.6c0-0.3-0.1-0.6-0.1-0.9c0-0.2,0-0.4,0-0.6c0-0.1,0.1-0.3,0.1-0.3c0.2-1,0.3-1.7,0.6-2.5
		c0.1-0.2,0.1-0.4,0.2-0.6c0-0.1,0-0.2,0.1-0.3c0.1-0.2,0.2-0.4,0.2-0.6s0.1-0.3,0.2-0.6c0.1-0.3,0.3-0.8,0.4-1.1
		c0-0.1,0.1-0.2,0.1-0.2c0-0.1,0.1-0.2,0.1-0.2c0.1-0.3,0.2-0.4,0.3-0.6c0.1-0.2,0.2-0.4,0.3-0.6c0.2-0.3,0.4-0.8,0.7-1.1
		c0.3-0.3,0.4-0.6,0.6-1s0.4-0.6,0.6-1c0.2-0.3,0.3-0.4,0.6-0.6c0.1-0.1,0.2-0.1,0.2-0.2c0.2-0.2,0.3-0.3,0.5-0.5
		c0.1-0.1,0.2-0.1,0.3-0.2c0.3-0.2,0.4-0.3,0.7-0.5c0.2-0.1,0.3-0.3,0.6-0.3c0.2-0.1,0.3-0.2,0.5-0.3c0.3-0.2,0.7-0.3,1-0.5
		c0.2-0.1,0.3-0.2,0.5-0.2c0.2,0,0.3-0.1,0.4-0.1c0.1,0,0.3-0.1,0.4-0.1c0.2,0,0.4-0.1,0.6-0.2c0,0,0,0,0.1,0c0.2,0,0.4-0.1,0.6-0.1
		c0.2-0.1,0.4-0.1,0.6-0.1s0.4,0,0.6-0.1h0.1c0.1,0,0.2,0,0.3,0c0.3-0.1,0.5-0.1,0.8-0.1c0.2,0,0.3,0,0.4-0.1c0.1,0,0.1,0,0.2,0
		c0.2,0,0.3,0,0.5,0c0.1,0,0.1,0,0.2,0c0.3,0,0.7,0,1,0s0.4,0,0.7,0c0.2,0,0.4,0,0.6,0.1c0.1,0,0.2,0,0.3,0c0.2,0,0.3,0,0.5,0
		c0.4,0,0.9,0,1.3,0.1c0.3,0.1,0.6,0.1,0.9,0.1c0.3,0.1,0.5,0.1,0.7,0.2c0.3,0.1,0.5,0.1,0.7,0.1c0.2,0,0.4,0.1,0.6,0.1
		c0.2,0.1,0.4,0.1,0.6,0.1c0.2,0.1,0.3,0,0.4,0.1c0.2,0.1,0.3,0.1,0.4,0.1c0.1,0,0.3,0.1,0.3,0.1c0.1,0,0.3,0,0.3,0.1
		c0.3,0.1,0.5,0.1,0.7,0.2c0.3,0.1,0.5,0.1,0.7,0.2c0.3,0.1,0.6,0.2,0.9,0.3c0.3,0.1,0.5,0.2,0.8,0.2c0.3,0.1,0.4,0.2,0.7,0.3
		c0.3,0.1,0.4,0.2,0.7,0.3c0.3,0.1,0.7,0.2,1,0.3c0.1,0,0.1,0,0.2,0.1c0.1,0.2,0.3,0.3,0.4,0.5c0.3,0.3,0.5,0.7,0.8,1.1
		c0.1,0.2,0.2,0.3,0.3,0.5c0.1,0.1,0.1,0.2,0.2,0.3c0.1,0.2,0.3,0.3,0.3,0.5s0.2,0.3,0.3,0.6c0,0,0,0.1,0.1,0.1
		c0.1,0.2,0.3,0.3,0.3,0.6c0.1,0.2,0.2,0.3,0.3,0.6c0.1,0.2,0.2,0.3,0.3,0.6c0,0,0,0,0,0.1c0.1,0.2,0.2,0.3,0.2,0.4
		c0.1,0.2,0.1,0.3,0.2,0.5c0.1,0.2,0.1,0.3,0.2,0.5c0.1,0.2,0.1,0.3,0.1,0.6v0.1c0.1,0.2,0.2,0.3,0.2,0.5c0,0.1,0.1,0.2,0.1,0.3
		c0.1,0.3,0.2,0.6,0.2,1c0,0.3,0,0.4,0,0.7v0.1c0,0.2,0.1,0.3,0.1,0.4c0,0.2,0,0.3,0,0.4c0,0.2,0,0.3,0,0.5c0,0.3,0,0.6,0.1,1
		c0,0.1,0,0.2,0,0.3c0,0.3,0,0.5,0,0.8v0.1c-0.1,0.3,0,0.7,0,1c0,0.2,0,0.3,0,0.5c0,0.2,0,0.3,0,0.5s0,0.3-0.1,0.5
		c-0.1,0.2-0.1,0.3-0.2,0.5c0,0.2-0.1,0.3-0.1,0.4c0,0.2-0.2,0.3-0.2,0.5s-0.1,0.3-0.2,0.4c-0.1,0.2-0.2,0.4-0.3,0.6
		c0,0.1-0.1,0.2-0.1,0.3c0,0.1,0,0.2-0.1,0.2c-0.2,0.2-0.3,0.4-0.3,0.7c-0.1,0.2-0.2,0.3-0.3,0.4c-0.1,0.2-0.2,0.3-0.3,0.3l-0.1,0.1
		c-0.2,0.3-0.3,0.5-0.4,0.7c-0.2,0.2-0.3,0.4-0.4,0.6s-0.3,0.4-0.4,0.6c-0.1,0.2-0.3,0.3-0.3,0.5c-0.1,0.1-0.1,0.2-0.2,0.3
		c-0.3,0.3-0.4,0.5-0.6,0.8c-0.1,0.1-0.2,0.2-0.2,0.3c-0.3,0.3-0.6,0.6-0.8,0.9c-0.1,0.2-0.3,0.3-0.3,0.3c-0.2,0.2-0.3,0.3-0.4,0.4
		c-0.1,0.2-0.3,0.3-0.3,0.3s-0.2,0.2-0.3,0.3c-0.2,0.2-0.3,0.3-0.4,0.5c-0.1,0.1-0.2,0.2-0.3,0.3c-0.1,0.1-0.2,0.2-0.3,0.3
		c-0.2,0.2-0.4,0.4-0.6,0.6c-0.1,0.1-0.2,0.2-0.3,0.2c-0.2,0.1-0.3,0.2-0.4,0.3c-0.3,0.2-0.6,0.3-1,0.4c-0.2,0.1-0.3,0.1-0.5,0.1
		c-0.2,0.1-0.3,0.1-0.5,0.1c-0.1,0-0.1,0-0.2,0c-0.3,0.1-0.5,0.2-0.8,0.2c-0.1,0-0.3,0-0.3,0.1c-0.3,0.1-0.8,0.2-1,0.2
		c-0.2,0-0.3,0-0.4,0s-0.2,0-0.3,0c-0.3,0-0.6,0-1,0C302.9,256.3,302.6,256.3,302.2,256.3L302.2,256.3z"/>
	<path fill="#FF4338" d="M179.4,87.1c-0.4,0-0.9,0-1.4,0c-0.3,0-0.5,0-0.8,0c-0.3,0-0.4-0.1-0.7-0.1c-0.1,0-0.2,0-0.3,0
		c-0.3,0-0.6-0.1-0.9-0.1s-0.5-0.1-0.8-0.1c-0.3-0.1-0.8-0.1-1.1-0.1c-0.1,0-0.1,0-0.2,0c-0.3-0.1-0.4-0.2-0.7-0.3
		c-0.3-0.2-0.8-0.3-1.1-0.5c-0.3-0.1-0.4-0.2-0.7-0.3c-0.2-0.2-0.4-0.3-0.6-0.3c-0.2-0.1-0.3-0.2-0.4-0.3c-0.1-0.1-0.3-0.2-0.4-0.3
		c-0.2-0.1-0.3-0.2-0.4-0.3c-0.2-0.1-0.3-0.2-0.5-0.3c-0.2-0.2-0.3-0.3-0.6-0.3c-0.2-0.1-0.3-0.2-0.5-0.3s-0.3-0.3-0.4-0.3
		c-0.3-0.2-0.5-0.3-0.7-0.5c-0.2-0.2-0.4-0.3-0.6-0.5s-0.4-0.3-0.7-0.5c-0.4-0.3-0.9-0.7-1.2-1c-0.1-0.1-0.2-0.2-0.3-0.3
		c-0.1-0.1-0.3-0.3-0.3-0.4c-0.3-0.4-0.5-0.9-0.7-1.4c-0.1-0.3-0.3-0.6-0.4-0.9c-0.1-0.3-0.3-0.4-0.3-0.7c-0.1-0.2-0.2-0.3-0.3-0.4
		c-0.1-0.1-0.1-0.2-0.1-0.3s0-0.2-0.1-0.3c-0.1-0.2-0.1-0.3-0.2-0.5c-0.1-0.1-0.1-0.2-0.1-0.3c-0.1-0.2-0.1-0.4-0.2-0.6
		s-0.1-0.4-0.2-0.6c0-0.1,0-0.1-0.1-0.2c-0.3-0.7-0.4-1.4-0.5-2.2c-0.1-0.2-0.1-0.4-0.1-0.6c0-0.1,0-0.1,0-0.2
		c-0.1-0.3-0.1-0.5-0.1-0.8c0-0.3-0.1-0.4-0.1-0.7s0-0.4-0.1-0.7c0-0.3-0.1-0.6-0.1-1c0-0.2,0-0.4,0-0.6c0-0.1,0.1-0.3,0.1-0.3
		c0.2-1,0.4-1.9,0.6-2.8c0.1-0.2,0.2-0.4,0.2-0.7c0-0.1,0-0.2,0.1-0.3c0.1-0.3,0.2-0.4,0.2-0.7c0-0.2,0.1-0.4,0.2-0.6
		c0.1-0.4,0.3-0.8,0.4-1.2c0-0.1,0.1-0.2,0.1-0.3s0.1-0.2,0.1-0.3c0.1-0.3,0.2-0.4,0.3-0.7c0.1-0.3,0.3-0.4,0.3-0.7
		c0.2-0.4,0.4-0.8,0.7-1.2c0.3-0.3,0.4-0.7,0.7-1c0.3-0.3,0.4-0.7,0.7-1c0.2-0.3,0.3-0.4,0.6-0.6c0.1-0.1,0.2-0.1,0.3-0.2
		c0.2-0.2,0.3-0.4,0.6-0.5c0.1-0.1,0.2-0.1,0.3-0.2c0.3-0.2,0.4-0.4,0.8-0.5c0.3-0.1,0.4-0.3,0.6-0.4c0.2-0.1,0.4-0.3,0.6-0.3
		c0.3-0.2,0.7-0.4,1.1-0.6c0.2-0.1,0.3-0.2,0.6-0.3c0.2-0.1,0.3-0.1,0.4-0.2c0.2,0,0.3-0.1,0.4-0.1c0.3-0.1,0.4-0.1,0.7-0.2
		c0,0,0,0,0.1,0c0.3,0,0.4-0.1,0.7-0.1c0.3-0.1,0.4-0.1,0.7-0.1c0.3-0.1,0.4,0,0.7-0.1h0.1c0.1,0,0.2,0,0.3,0
		c0.3-0.1,0.5-0.1,0.8-0.1c0.2,0,0.3,0,0.4-0.1c0.1,0,0.1,0,0.2,0c0.2,0,0.3,0,0.5,0c0.1,0,0.1,0,0.2,0c0.3,0,0.7,0,1,0
		c0.3,0,0.5,0,0.7,0c0.3,0,0.4,0,0.7,0.1c0.1,0,0.2,0,0.3,0c0.2,0,0.3,0,0.5,0c0.4,0,1,0.1,1.4,0.1c0.3,0.1,0.6,0.1,1,0.2
		c0.3,0.1,0.5,0.1,0.8,0.2c0.3,0.1,0.5,0.1,0.8,0.2c0.3,0,0.4,0.1,0.7,0.2c0.3,0.1,0.4,0.1,0.7,0.2c0.2,0.1,0.3,0,0.4,0.1
		c0.2,0.1,0.3,0.1,0.5,0.1c0.1,0,0.3,0.1,0.3,0.1s0.3,0,0.3,0.1c0.3,0.1,0.5,0.2,0.8,0.2c0.3,0.1,0.5,0.1,0.8,0.2
		c0.3,0.1,0.6,0.2,1,0.3c0.3,0.1,0.5,0.2,0.9,0.3c0.3,0.1,0.5,0.2,0.8,0.3c0.3,0.1,0.5,0.2,0.8,0.3c0.3,0.2,0.7,0.3,1,0.4
		c0.1,0,0.1,0,0.2,0.1c0.2,0.2,0.3,0.3,0.5,0.6c0.3,0.3,0.6,0.8,0.8,1.2c0.1,0.2,0.2,0.3,0.3,0.5c0.1,0.1,0.2,0.2,0.2,0.3
		c0.1,0.2,0.3,0.3,0.3,0.6c0.1,0.2,0.2,0.4,0.3,0.6c0,0,0,0.1,0.1,0.1c0.1,0.2,0.3,0.4,0.3,0.6c0.1,0.3,0.2,0.4,0.3,0.6
		c0.1,0.2,0.2,0.4,0.3,0.6c0,0,0,0,0,0.1c0.1,0.2,0.2,0.3,0.2,0.4c0.1,0.2,0.2,0.3,0.3,0.5c0.1,0.2,0.2,0.4,0.3,0.6
		c0.1,0.2,0.1,0.4,0.2,0.6v0.1c0.1,0.2,0.2,0.3,0.3,0.5c0,0.1,0.1,0.2,0.1,0.3c0.1,0.3,0.2,0.6,0.2,1c0,0.3,0,0.5,0,0.8v0.1
		c0,0.2,0.1,0.3,0.1,0.5c0,0.2,0,0.3,0,0.5c0,0.2,0,0.3,0,0.6c0,0.3,0,0.7,0.1,1c0,0.1,0,0.2,0,0.3c0,0.3,0,0.6,0,0.9v0.1
		c-0.1,0.3,0,0.7,0,1.1c0,0.2,0,0.3-0.1,0.6c0,0.2,0,0.3,0,0.6c0,0.2,0,0.3-0.1,0.6c-0.1,0.2-0.1,0.3-0.2,0.5c0,0.2-0.1,0.3-0.1,0.5
		s-0.2,0.3-0.2,0.5c0,0.2-0.1,0.3-0.2,0.5c-0.1,0.3-0.2,0.4-0.3,0.7c-0.1,0.1-0.1,0.2-0.1,0.3s-0.1,0.2-0.1,0.3
		c-0.2,0.3-0.3,0.5-0.3,0.7c-0.1,0.2-0.2,0.3-0.3,0.5c-0.1,0.2-0.2,0.3-0.3,0.4l-0.1,0.1c-0.2,0.3-0.3,0.5-0.4,0.8s-0.3,0.4-0.4,0.7
		c-0.2,0.3-0.3,0.4-0.4,0.7c-0.2,0.2-0.3,0.3-0.3,0.5c-0.1,0.1-0.2,0.2-0.3,0.3c-0.3,0.3-0.4,0.5-0.7,0.9c-0.1,0.1-0.2,0.2-0.3,0.3
		c-0.3,0.3-0.6,0.6-0.9,1c-0.1,0.2-0.3,0.3-0.3,0.4c-0.2,0.2-0.3,0.3-0.4,0.4c-0.1,0.2-0.3,0.3-0.3,0.4c-0.1,0.1-0.2,0.2-0.3,0.3
		c-0.2,0.2-0.3,0.3-0.5,0.5c-0.1,0.1-0.2,0.3-0.3,0.3c-0.1,0.1-0.2,0.2-0.3,0.3c-0.2,0.3-0.4,0.4-0.6,0.7c-0.1,0.1-0.2,0.2-0.3,0.3
		c-0.2,0.1-0.3,0.2-0.4,0.3c-0.3,0.3-0.7,0.3-1,0.5c-0.2,0.1-0.4,0.1-0.6,0.2c-0.2,0.1-0.3,0.1-0.5,0.1c-0.1,0-0.1,0-0.2,0
		c-0.3,0.1-0.5,0.2-0.9,0.2c-0.1,0-0.3,0-0.3,0.1c-0.3,0.1-0.8,0.2-1.1,0.2c-0.2,0-0.3,0-0.5,0.1c-0.1,0-0.2,0-0.3,0
		c-0.3,0-0.7,0-1,0C180,87.1,179.7,87.1,179.4,87.1L179.4,87.1z"/>
</g>
</svg>
