<?xml version="1.0" encoding="utf-8"?>
<!-- Generator: Adobe Illustrator 18.1.1, SVG Export Plug-In . SVG Version: 6.00 Build 0)  -->
<svg version="1.1" id="Layer_1" xmlns="http://www.w3.org/2000/svg" xmlns:xlink="http://www.w3.org/1999/xlink" x="0px" y="0px"
	 viewBox="0 0 1149.9 450" enable-background="new 0 0 1149.9 450" xml:space="preserve">
<g>
	<g>
		<path fill="#FF4338" d="M1092.3,1.4c0.5-0.3,0.9-0.2,1,0c0.4,0.5,0.7,1,1.1,1.4c0.4,0.6,0.7,1.2,1.3,1.8c0.6,1,1.3,1.9,2,2.8
			c0.4,0.8,1.1,1.5,1.6,2.2c0.4,0.5,0.8,1,1.1,1.4c0.3,0.4,0.7,0.8,0.9,1.4c0.5,0.5,0.8,1.2,1.2,1.8c0.2,0.3,0.4,0.6,0.6,0.9
			c0.7,0.9,1.4,1.8,2.1,2.8c0.6,0.6,0.9,1.3,1.5,1.8c0.4,0.6,0.8,1.2,1.2,1.8c0.7,1,1.4,2,2.1,2.9c0.5,0.4,0.6,1,1.1,1.5
			c0.4,0.4,0.7,1,1,1.5c0.7,0.8,1.1,1.7,1.9,2.5c0.5,0.7,1,1.4,1.5,2.1c0.5,0.7,1,1.4,1.5,2.1c0.4,0.6,0.8,1.2,1.3,1.7
			c0.1,0.1,0.2,0.2,0.2,0.3c0.1,0.5,0.6,0.9,0.9,1.4c0.3,0.4,0.6,0.8,0.9,1.2c0.2,0.3,0.4,0.6,0.6,0.9c0.1,0.3,0.3,0.6,0.5,1
			c0.1,0.2,0.2,0.5,0.4,0.6c0.5,0.4,0.7,1,1.1,1.4c0.9,1.1,1.8,2.3,2.7,3.4c0.2,0.2,0.4,0.5,0.5,0.7c0.2,0.4,0.5,0.7,0.8,1
			c0.2,0.2,0.3,0.4,0.5,0.6c0.6,0.7,1,1.5,1.6,2.2c0.6,0.7,1.1,1.5,1.7,2.2c0.1,0.2,0.3,0.4,0.4,0.6c0.4,0.8,1.1,1.5,1.6,2.2
			c0.6,0.8,1.2,1.5,1.7,2.3c0.3,0.4,0.8,0.7,0.9,1.1c0.3,0.4,0.7,0.9,1,1.3c0.3,0.4,0.6,0.8,0.9,1.2c0,0,0.1,0.1,0.1,0.1
			c0.4,0.6,0.7,1.1,1.2,1.6c0.5,0.5,0.8,1.1,1.2,1.6c0.3,0.4,0.4,0.9,0.7,1.2c0.3,0.4,0.7,0.7,0.9,1.1c0.4,0.7,1,1.4,1.5,2
			c0.5,0.7,1,1.4,1.6,2c0.2,0.3,0.4,0.6,0.6,0.9c0.2,0.4,0.5,0.8,0.8,1.2c0.4,0.5,0.8,0.9,1.1,1.4c0.3,0.4,0.6,0.9,0.9,1.3
			c0.4,0.5,0.8,1,1.1,1.4c0.4,0.5,0.7,1.1,1.1,1.6c0.4,0.5,0.8,1,1.1,1.5c0.4,0.6,1,1.2,1.4,1.9c0.5,0.7,1.1,1.3,1.5,2.1
			c0.5,0.6,1,1.3,1.4,1.9c0.4,0.6,1,1.1,1.3,1.7c0.1,0.2,0.3,0.4,0.5,0.5c0.2,0.2,0.4,0.4,0.6,0.7c0.2,0.3,0.4,0.6,0.6,0.9
			c0.7,0.8,1.1,1.7,1.9,2.5c0.5,0.9,1.4,1.7,1.9,2.7c0.1,0.2,0.2,0.3,0.3,0.4c1,1.1,1.8,2.3,2.7,3.5c0.3,0.4,0.6,0.9,1,1.3
			c0.3,0.3,0.5,0.7,0.8,1c0.7,0.9,1.3,1.9,2,2.8c0.2,0.2,0.3,0.4,0.4,0.6c0.1,0.2,0.2,0.4,0.4,0.6c0.4,0.5,0.7,1,1.1,1.5
			c0.2,0.6,0.6,1,1,1.5c0.3,0.5,0.7,1,1,1.5c1.1,1.5,2.2,3.1,3.3,4.6c0.6,0.8,1.3,1.5,1.8,2.3c0.3,0.4,0.6,0.8,0.8,1.2
			c0.3,0.4,0.5,0.8,0.9,1.2c0.2,0.2,0.3,0.4,0.4,0.6c0.8,1.3,1.7,2.5,2.7,3.7c0.3,0.4,0.5,0.8,0.8,1.2c0.3,0.4,0.6,0.9,1,1.3
			c0.2,0.2,0.4,0.4,0.5,0.6c0.5,0.8,1.2,1.5,1.7,2.4c0.1,0.1,0,0.4-0.1,0.5c-0.1,0.1-0.2,0.2-0.3,0.2c-0.2,0.1-0.4,0.3-0.7,0.4
			c-1.2,0.6-2.5,1.2-3.6,1.9c-0.8,0.3-1.5,0.7-2.3,1.1c-2,1-4,2.1-6,3.2c-0.9,0.5-1.8,1-2.7,1.4c-1,0.5-2.1,1.1-3.1,1.6
			c-0.2,0.1-0.4,0.2-0.5,0.3c-0.6,0.5-1.4,0.9-2,1.5c-0.1,0.1-0.3,0.2-0.5,0.3c-1.6,0.8-3,1.8-4.4,2.8c-0.3,0.2-0.6,0.3-0.8,0.5
			c-0.2,0.1-0.4,0.1-0.5-0.1c0,0-0.1-0.1-0.1-0.1c-0.4-0.6-0.9-1.2-1.3-1.8c-0.5-0.8-1.1-1.5-1.6-2.2c-0.6-0.8-1.2-1.6-1.7-2.3
			c-1-1.4-2-2.7-3-4.1c-0.1-0.2-0.3-0.4-0.5-0.6c-0.3-0.3-0.6-0.7-0.7-1c-0.1-0.2-0.3-0.4-0.4-0.6c-0.9-1-1.6-2.1-2.4-3.2
			c-0.6-0.8-1.2-1.7-1.9-2.5c-0.5-0.6-1-1.2-1.4-1.9c-0.4-0.7-0.9-1.3-1.4-1.9c-0.2-0.4-0.5-0.7-0.8-1c-0.2-0.2-0.4-0.5-0.5-0.7
			c-0.2-0.3-0.4-0.6-0.6-0.9c-1.1-1.3-2.1-2.7-3.1-4.1c-0.5-0.7-1-1.4-1.5-2c-0.7-0.9-1.3-1.8-1.9-2.6c-0.1-0.4-0.5-0.7-0.7-1
			c-0.4-0.7-0.9-1.3-1.3-1.9c-0.4-0.6-1-1.1-1.2-1.8c-0.6-0.8-1.2-1.5-1.8-2.3c-0.6-0.8-1.1-1.6-1.7-2.4c-0.4-0.5-0.7-1-1.1-1.5
			c-0.3-0.5-0.7-1-1-1.5c-0.5-0.6-1-1.1-1.3-1.8c0-0.1-0.1-0.2-0.2-0.3c-0.7-0.7-1.2-1.6-1.7-2.3c-0.2-0.2-0.4-0.5-0.5-0.7
			c-0.5-0.8-1.2-1.5-1.7-2.4c-0.5-0.8-1.1-1.5-1.6-2.2c-0.5-0.8-1.2-1.6-1.7-2.4c-0.3-0.5-0.7-1-1.1-1.5c-0.1-0.1-0.3-0.3-0.3-0.4
			c-0.4-0.9-1.1-1.6-1.7-2.4c-0.5-0.8-1.1-1.6-1.7-2.4c-0.6-0.8-1.1-1.6-1.8-2.3c-0.7-1.3-1.8-2.3-2.4-3.6c-0.2-0.4-0.5-0.7-0.8-1
			c-0.2-0.2-0.4-0.5-0.6-0.7c-0.5-0.8-1.1-1.6-1.7-2.4c-0.4-0.4-0.7-0.9-1-1.3c-0.6-1-1.3-1.9-2-2.8c-0.1-0.1-0.2-0.2-0.2-0.3
			c-0.2-0.7-0.8-1.3-1.2-2c-0.3-0.6-0.8-1.2-1.1-1.8c-0.3-0.6-0.8-1.1-1.2-1.6c-0.5-0.6-0.9-1.3-1.3-2c-0.4-0.7-0.7-1.4-1.4-1.9
			c-0.3-0.5-0.5-0.9-0.9-1.3c-0.3-0.7-0.8-1.3-1.3-2c-1.3-2.2-2.7-4.3-4.2-6.3c-0.3-0.3-0.5-0.7-0.7-1c-0.4-0.5-0.6-1.2-1-1.7
			c-0.4-0.5-0.8-1.1-1.1-1.6c-0.2-0.4-0.4-0.7-0.6-1.1c-0.2-0.3-0.4-0.6-0.6-0.9c-0.1-0.2-0.2-0.4-0.4-0.6c-0.5-0.8-1-1.5-1.5-2.3
			c-0.4-0.5-0.7-1.1-1.2-1.6c-0.3-0.4-0.6-0.8-0.7-1.2c-0.1-0.3-0.3-0.6-0.6-0.9c-0.2-0.2-0.4-0.5-0.5-0.7c-0.3-0.7-0.8-1.3-1.2-2
			c-0.4-0.7-0.8-1.3-1.1-2c-0.1-0.2-0.3-0.4-0.4-0.6c-0.2-0.2-0.3-0.4-0.3-0.6c-0.1-0.2-0.2-0.4-0.4-0.6c-0.2-0.2-0.4-0.4-0.5-0.7
			c-0.1-0.4-0.3-0.6-0.5-0.9c-0.2-0.3-0.3-0.6-0.5-0.9c-0.2-0.2-0.4-0.5-0.5-0.8c-0.1-0.4-0.3-0.8-0.5-1.1c-0.3-0.6-0.7-1.1-1.1-1.7
			c-0.3-0.6-0.6-1.2-1-1.7c-0.2-0.2-0.3-0.5-0.4-0.8c0-0.2-0.1-0.3-0.2-0.5c-0.1-0.2-0.3-0.3-0.3-0.4c-0.2-0.4-0.5-0.8-0.9-1.2
			c-0.1-0.4-0.2-0.9-0.5-1.3c-0.1-0.2,0.1-0.6,0.3-0.8c0.5-0.3,1-0.6,1.5-0.9c0.9-0.5,1.9-0.9,2.7-1.5c0.8-0.4,1.6-0.9,2.3-1.4
			c0.5-0.2,0.9-0.4,1.3-0.8c0.1-0.1,0.3-0.2,0.5-0.3c0.6-0.3,1.2-0.6,1.7-0.9c0.6-0.3,1.3-0.7,1.8-1.1c0.5-0.3,1-0.6,1.5-0.9
			c1.1-0.5,2-1.1,3-1.7c0.4-0.3,0.8-0.6,1.4-0.7c0.3-0.2,0.7-0.4,1-0.6c0.5-0.3,0.9-0.7,1.5-0.9c0.3-0.1,0.4-0.4,0.8-0.6
			c0.2-0.1,0.5-0.2,0.7-0.3C1091.9,1.7,1092.2,1.5,1092.3,1.4z"/>
		<path fill="#00A887" d="M937.6,128.9c-0.1,0-0.3,0-0.4-0.1c-0.3-0.1-0.5-0.1-0.8,0c-0.2,0.1-0.5,0.2-0.7,0.3
			c-0.3,0.2-0.6,0.4-0.8,0.8c-0.2,0.3-0.2,0.4-0.6,0.3c-0.4,0-0.7,0-0.9,0.2c-0.4,0.2-0.8,0.5-1.1,0.7c-0.3,0.2-0.7,0.1-0.9-0.1
			c-0.2-0.2-0.3-0.4-0.5-0.5c-0.4-0.5-0.7-1-1.1-1.5c-0.3-0.4-0.7-0.8-1-1.3c-0.1-0.2-0.2-0.3-0.3-0.4c-0.6-0.6-1-1.4-1.5-2.1
			c-0.3-0.4-0.5-0.8-0.9-1.2c-0.5-0.5-0.9-1-1.3-1.6c-0.3-0.5-0.7-1-1.1-1.5c-0.7-0.8-1.3-1.6-2-2.4c-0.4-0.6-0.9-1.2-1.3-1.7
			c-0.4-0.4-0.7-0.8-1-1.3c-0.2-0.4-0.5-0.7-0.8-1c-0.7-0.8-1.4-1.6-2-2.4c-0.7-0.8-1.3-1.6-2-2.4c-0.1-0.1-0.2-0.2-0.2-0.3
			c-0.5-0.6-1-1.3-1.5-1.9c-0.5-0.6-1.1-1.2-1.5-1.8c-0.1-0.2-0.2-0.3-0.3-0.4c-0.6-0.5-1.1-1.2-1.6-1.8c-1.3-1.5-2.7-3.1-4-4.6
			c-0.6-0.5-1-1.1-1.5-1.6c-0.3-0.4-0.7-0.7-1.1-1c-0.3-0.2-0.4-0.4-0.6-0.7c-0.3-0.4-0.7-0.7-0.9-1.1c-0.2-0.4-0.5-0.7-0.8-1
			c-0.3-0.4-0.6-0.8-1-1.1c-0.7-0.7-1.4-1.4-2-2.2c-0.8-1-1.7-1.9-2.6-2.9c-0.5-0.5-0.9-1-1.4-1.5c-0.2-0.2-0.4-0.3-0.5-0.5
			c-0.7-0.9-1.5-1.7-2.3-2.4c-0.1-0.1-0.3-0.3-0.4-0.4c-0.4-0.8-1.1-1.3-1.7-1.9c-0.1-0.1-0.3-0.2-0.5-0.3c-0.2-0.1-0.3-0.2-0.4-0.3
			c-0.2-0.3-0.3-0.5-0.5-0.7c-0.1-0.2-0.3-0.4-0.5-0.6c-0.6-0.4-0.9-1-1.4-1.5c-0.3-0.5-0.7-0.9-1.1-1.2c-1.1-1-2.1-2.1-3.1-3.2
			c-0.2-0.2-0.4-0.4-0.7-0.7c-0.5-0.5-1.1-1-1.6-1.5c-0.6-0.5-1-1.1-1.6-1.6c-0.6-0.5-1.1-1-1.6-1.6c-0.5-0.6-1.1-1.2-1.7-1.7
			c-0.1-0.1-0.3-0.2-0.4-0.4c-0.7-0.8-1.5-1.5-2.3-2.2c-0.1-0.1-0.2-0.2-0.3-0.3c-0.6-0.8-1.4-1.4-2.1-2.1c-0.2-0.2-0.5-0.4-0.8-0.5
			c-0.3-0.1-0.4-0.3-0.5-0.5c-0.2-0.4-0.4-0.7-0.7-1c-0.6-0.5-1.2-1.1-1.7-1.7c-0.6-0.7-1.3-1.3-2-1.9c-0.5-0.5-1.1-1-1.6-1.6
			c-0.3-0.3-0.6-0.6-0.9-0.9c-0.5-0.5-1-0.9-1.4-1.5c-0.6-0.6-1.2-1.2-1.9-1.8c-0.2-0.2-0.5-0.4-0.7-0.6c-0.2-0.2-0.3-0.4-0.4-0.6
			c-0.4-0.4-0.8-0.7-1.2-1.2c-0.1-0.1-0.3-0.2-0.5-0.3c-0.5-0.2-0.7-0.5-0.9-0.9c-0.1-0.3-0.3-0.6-0.6-0.9c-0.2-0.2-0.3-0.4-0.5-0.5
			c-0.9-0.8-1.7-1.6-2.5-2.5c-0.8-0.9-1.7-1.8-2.6-2.6c-0.7-0.9-1.7-1.6-2.4-2.5c-0.2-0.3-0.6-0.6-1-0.9c-0.5-0.4-0.9-0.8-1.3-1.3
			c-0.8-0.9-1.6-1.8-2.6-2.7c-0.5-0.5-1-0.9-1.4-1.5c-1-0.9-1.7-1.9-2.9-2.7c-0.1,0-0.1-0.1-0.1-0.1c-0.2-0.5-0.8-0.8-1.1-1.2
			c-0.4-0.6-0.9-1-1.4-1.4c-0.4-0.3-0.7-0.7-1-1.1c-0.1-0.2-0.2-0.3-0.3-0.4c-0.5-0.4-0.9-0.8-1.5-1.2c-0.5-0.3-0.9-0.7-1.1-1.2
			c-0.1-0.2-0.2-0.3-0.3-0.5c-0.9-1.1-1.9-2.1-2.9-3.1c-0.3-0.3-0.6-0.5-0.9-0.7c-0.2-0.1-0.2-0.3-0.3-0.4c0-0.2-0.1-0.3-0.3-0.5
			c-0.3-0.4-0.7-0.7-1-1.1c-0.1-0.1-0.2-0.3-0.1-0.5c0-0.4,0.2-0.7,0.5-0.9c0.2-0.1,0.3-0.2,0.5-0.3c0.2-0.2,0.4-0.3,0.7-0.3
			c0.2,0,0.4-0.1,0.5-0.2c0.2-0.2,0.4-0.4,0.6-0.5c0.4-0.2,0.7-0.5,1.1-0.7c1-0.4,1.9-0.9,2.6-1.6c0.3-0.2,0.6-0.4,0.9-0.7
			c0.3-0.2,0.6-0.4,1-0.6c1-0.5,1.8-1.2,2.8-1.7c0.2-0.1,0.3-0.3,0.4-0.4c0.2-0.2,0.4-0.3,0.6-0.5c2.4-1.6,2.4-1.5,4.8-3.4
			c0.1-0.1,0.2-0.2,0.3-0.2c0.7-0.4,1.3-0.8,1.9-1.2c0.5-0.4,1.2-0.8,1.7-1.2c0.2-0.1,0.5-0.1,0.8,0c0.2,0.1,0.3,0.2,0.5,0.3
			c0.1,0.1,0.2,0.2,0.3,0.3c0.3,0.4,0.8,0.8,1.1,1.2c0.7,0.8,1.5,1.5,2.2,2.3c0.5,0.5,1.1,1,1.5,1.6c0.1,0.2,0.2,0.3,0.4,0.4
			c0.5,0.4,0.9,0.9,1.3,1.3c0.4,0.4,0.9,0.8,1.3,1.3c0.1,0.1,0.2,0.2,0.3,0.3c0.7,0.5,1.3,1.2,1.8,1.8c0.2,0.2,0.4,0.5,0.7,0.7
			c0.6,0.5,1.1,1,1.6,1.6c1,0.8,1.7,1.8,2.6,2.6c0.2,0.2,0.4,0.3,0.5,0.5c0.9,1.1,2,2,3.1,3c0.5,0.5,1.1,1,1.6,1.6
			c0.7,0.7,1.4,1.4,2.1,2.1c0.2,0.2,0.5,0.4,0.7,0.7c0.7,0.9,1.6,1.6,2.4,2.4c0.6,0.6,1.3,1.2,1.8,1.8c0.8,0.8,1.6,1.5,2.4,2.3
			c0.6,0.6,1.2,1.1,1.7,1.7c0.1,0.2,0.4,0.3,0.5,0.5c0.5,0.5,1,0.9,1.6,1.4c0.2,0.2,0.4,0.3,0.5,0.5c0.6,0.7,1.3,1.3,2,2
			c0.7,0.6,1.4,1.3,2,2c0.4,0.4,0.8,0.8,1.2,1.2c0.5,0.4,0.9,0.8,1.4,1.3c0.4,0.4,0.9,0.9,1.3,1.3c0.4,0.4,0.9,0.9,1.3,1.3
			c0.6,0.6,1.3,1.2,1.9,1.8c0,0,0.1,0.1,0.1,0.1c1,0.6,1.6,1.5,2.4,2.3c1,0.9,1.9,1.8,2.9,2.7c0.7,0.7,1.5,1.3,2.1,2.1
			c1.2,1,2,2.3,3.1,3.4c0.3,0.5,0.7,0.9,1,1.3c0.6,0.8,1.3,1.5,1.9,2.2c0.7,0.8,1.4,1.6,2,2.4c0.9,1,1.7,2.1,2.7,3.1
			c0.9,1,1.7,2.1,2.6,3.1c0.4,0.5,0.8,0.9,1.2,1.4c0.7,0.8,1.4,1.6,2,2.4c0.3,0.4,0.6,0.8,0.7,1.2c0.1,0.2,0.2,0.4,0.4,0.6
			c0.7,0.8,1.3,1.6,2.1,2.3c0.1,0.1,0.2,0.3,0.4,0.4c0.8,1.1,1.7,2.1,2.6,3.1c0.9,1,1.7,2.1,2.8,3c0.9,1.1,1.9,2.1,2.8,3.2
			c0.2,0.2,0.3,0.4,0.5,0.6c0.6,0.6,1,1.2,1.6,1.8c0.8,0.7,1.5,1.5,2.1,2.3c0.2,0.5,0.7,0.9,1.1,1.3c0.1,0.1,0.3,0.3,0.4,0.4
			c1.6,1.3,1.3,1.1,2.6,2.9c0.5,0.7,1,1.4,1.5,2.1c0.6,0.8,1.1,1.6,1.8,2.3c0.1,0.1,0.2,0.2,0.2,0.3c0.4,0.9,1.2,1.7,1.7,2.6
			c0.4,0.4,0.6,1,1,1.5c0.4,0.4,0.6,0.9,0.9,1.3c0.3,0.5,0.6,0.9,1,1.3c0.2,0.2,0.3,0.4,0.4,0.6c0.4,0.7,0.7,1.4,1.3,2
			c0.1,0.1,0.2,0.2,0.2,0.3c0.5,1.1,1.3,2,2,3c0.5,0.8,1.1,1.6,1.6,2.4c0.2,0.3,0.4,0.6,0.6,0.9c0.7,0.9,1.3,1.9,1.8,2.9
			c0.1,0.2,0.4,1.2,0.5,1.5c0,0.1-0.1,0.2-0.1,0.3c-0.1,0.1-0.2,0.2-0.3,0.3c-0.3,0.2-0.6,0.4-1,0.6c-0.7,0.4-1.4,0.9-2.2,1.3
			c-0.7,0.4-1.2,0.9-1.9,1.2c-0.3,0.2-0.7,0.4-1,0.6c-0.1,0.1-0.2,0.1-0.3,0.2c-0.7,0.4-1.2,0.9-1.9,1.3c-0.7,0.4-1.4,0.7-2,1.2
			c-0.3,0.3-0.8,0.5-1.2,0.7c-0.3,0.2-0.7,0.4-1,0.6c-0.3,0.2-0.5,0.4-0.5,0.7c0,0.2-0.1,0.3-0.1,0.5
			C937.9,128.8,937.8,128.9,937.6,128.9z"/>
		<path fill="#0082CA" d="M1060.8,73.2c0,0.2,0,0.3-0.1,0.4c-0.2,0.4-0.4,0.9-0.7,1.3c-0.4,0.7-0.8,1.5-1.2,2.2
			c-0.4,0.9-1,1.8-1.4,2.7c-0.2,0.3-0.3,0.6-0.5,1c-0.3,0.8-0.7,1.5-1.1,2.2c-0.7,1.2-1.3,2.4-1.9,3.7c-0.1,0.2-0.2,0.4-0.3,0.6
			c-0.7,1.1-1.2,2.2-1.7,3.3c-0.8,1.5-1.6,3-2.3,4.4c-0.3,0.5-0.6,1-0.8,1.6c-0.1,0.3-0.2,0.6-0.4,0.8c-0.4,0.6-0.7,1.3-1,1.9
			c-0.4,0.7-0.8,1.4-1.1,2c-0.3,0.6-0.7,1.3-1,1.9c-0.3,0.7-0.7,1.2-1,1.9c-0.5,0.9-1,1.9-1.5,2.9c-0.1,0.2-0.2,0.4-0.3,0.6
			c-0.9,1.3-1.4,2.6-2.1,4c-0.2,0.4-0.3,0.8-0.6,1.1c-0.7,1-1.1,2.1-1.7,3.2c-0.4,0.8-0.8,1.6-1.2,2.4c-0.5,1-1,1.9-1.4,2.9
			c-0.3,0.8-0.8,1.5-1.2,2.2c-0.5,1-0.9,1.9-1.4,2.9c-0.5,1-1,1.9-1.5,2.8c-0.6,1.2-1.2,2.4-1.9,3.7c-0.2,0.4-0.4,0.7-0.6,1.1
			c-0.5,0.8-0.9,1.7-1.3,2.5c-1,1.9-1.9,3.8-3,5.7c-0.8,1.5-1.7,3-2.5,4.6c0,0.1-0.1,0.1-0.1,0.2c-0.6,0.9-1,1.9-1.6,2.8
			c-0.5,0.9-1.1,1.9-1.6,2.8c-0.3,0.5-0.5,1-0.8,1.4c-0.3,0.4-0.5,0.8-0.7,1.3c-0.3,0.5-0.5,0.9-0.8,1.4c-1,1.7-1.9,3.5-2.9,5.2
			c-0.7,1.1-1.3,2.3-2,3.4c-0.3,0.5-0.6,1-0.9,1.6c-0.9,1.5-1.7,3-2.6,4.5c-0.5,0.9-1.1,1.7-1.6,2.6c-0.1,0.2-0.2,0.4-0.4,0.6
			c-0.9,1.2-1.5,2.6-2.4,3.8c-0.8,1.3-1.5,2.6-2.3,3.9c-0.7,1.2-1.4,2.4-2.2,3.5c-0.6,0.9-1.1,1.7-1.6,2.6c-1,1.9-2.3,3.7-3.4,5.5
			c-0.5,0.8-1,1.5-1.4,2.3c-0.4,0.6-0.8,1.2-1.1,1.8c-0.2,0.4-0.4,0.8-0.8,1.2c-0.5,0.5-0.8,1.1-1.1,1.6c-0.5,0.9-1.1,1.7-1.6,2.6
			c-0.5,0.9-1.1,1.7-1.6,2.6c-0.4,0.7-0.9,1.4-1.3,2.2c-0.3,0.5-0.6,0.9-0.8,1.4c-0.2,0.4-0.5,0.7-0.7,1c-0.1,0.1-0.4,0.2-0.5,0.1
			c-0.2-0.1-0.5-0.2-0.7-0.3c-1-0.6-2.1-1-3.1-1.6c-0.6-0.2-1.2-0.6-1.7-0.9c-0.6-0.3-1.1-0.6-1.7-0.9c-0.9-0.4-1.8-0.8-2.7-1.2
			c-0.6-0.3-1.2-0.7-1.9-0.9c-0.1,0-0.1,0-0.2-0.1c-1.4-0.9-3.1-1.4-4.5-2.3c-0.4-0.3-0.9-0.4-1.4-0.7c-0.2-0.1-0.4-0.3-0.6-0.4
			c-0.2-0.2-0.3-0.4-0.2-0.6c0.1-0.4,0.2-0.8,0.5-1.1c0.3-0.5,0.5-1,0.7-1.4c0-0.5,0.3-0.9,0.5-1.3c0.2-0.3,0.3-0.5,0.4-0.8
			c0.3-0.9,0.9-1.7,1.2-2.6c0.1-0.2,0.2-0.4,0.4-0.6c0.1-0.2,0.3-0.4,0.4-0.6c0.3-0.5,0.6-1,0.8-1.6c0.1-0.4,0.3-0.8,0.4-1.2
			c0.1-0.2,0.1-0.3,0.3-0.5c0.3-0.3,0.5-0.6,0.6-0.9c0.5-0.9,1-1.8,1.5-2.7c0.1-0.2,0.2-0.4,0.3-0.6c0.4-1,0.9-1.9,1.4-2.9
			c0.3-0.6,0.6-1.3,1-1.9c0.1-0.2,0.1-0.4,0.1-0.7c0-0.1-0.1-0.1-0.1-0.2c-0.1-0.3,0-0.6,0.3-0.8c0.1,0,0.1-0.1,0.2-0.1
			c0.3-0.1,0.4-0.2,0.6-0.5c0.2-0.4,0.4-0.7,0.5-1.1c0.2-0.5,0.4-1.1,0.9-1.5c0.2-0.2,0.2-0.4,0.3-0.7c0-0.2,0-0.4,0.2-0.5
			c0.5-0.7,0.9-1.4,1.2-2.2c0.4-0.9,0.9-1.7,1.3-2.5c0.3-0.6,0.6-1.2,0.9-1.7c0.4-0.8,0.8-1.6,1.2-2.4c0.1-0.3,0.2-0.5,0.3-0.8
			c0-0.2,0.1-0.5,0.3-0.6c0.2-0.2,0.4-0.4,0.6-0.7c1.1-2.2,2.4-4.4,3.7-6.6c0.1-0.2,0.3-0.4,0.4-0.6c0.8-1.7,1.9-3.3,2.7-5
			c0.4-0.7,0.7-1.5,1.1-2.2c0.1-0.1,0.1-0.2,0.1-0.3c0.5-0.8,0.8-1.6,1.1-2.4c0.1-0.2,0.2-0.4,0.4-0.6c0.3-0.3,0.5-0.6,0.6-0.9
			c0.2-0.5,0.5-0.9,0.8-1.4c0.8-1.3,1.7-2.7,2.3-4.1c0.1-0.3,0.3-0.6,0.5-0.9c0.4-0.6,0.8-1.1,1-1.7c0-0.1,0.1-0.2,0.2-0.3
			c0.5-0.3,0.7-0.7,0.9-1.2c0.3-0.6,0.6-1.2,0.8-1.8c0.2-0.5,0.5-1.1,0.8-1.6c0.3-0.5,0.4-1.1,0.6-1.7c0-0.2,0.1-0.3,0.2-0.5
			c0.4-0.3,0.5-0.7,0.7-1.1c0.1-0.4,0.3-0.8,0.6-1.1c0.3-0.5,0.5-0.9,0.7-1.4c0.4-1.1,1.1-2.1,1.4-3.2c0-0.1,0-0.1,0.1-0.2
			c0.8-1.2,1.2-2.5,1.8-3.7c0.6-1.3,1.2-2.7,1.8-4.1c0.1-0.2,0.2-0.4,0.4-0.6c0.2-0.3,0.3-0.5,0.4-0.8c0.1-0.3,0.3-0.7,0.5-1
			c0.3-0.5,0.5-1.1,0.5-1.7c0-0.1,0-0.2,0.1-0.3c0.1-0.1,0.2-0.2,0.2-0.3c0.5-0.5,0.9-1,1-1.7c0-0.2,1-1.9,1.2-2.2
			c0.2-0.4,0.5-0.7,0.5-1.1c0-0.3,0.3-0.5,0.4-0.8c0.2-0.5,0.4-1.1,0.6-1.7c0.1-0.3,0.3-0.7,0.6-0.9c0.2-0.2,0.2-0.4,0.3-0.6
			c0-0.2,0.1-0.4,0.2-0.5c0.5-0.6,0.9-1.3,1.1-2c0.4-1.2,1.1-2.3,1.5-3.4c0.1-0.3,0.3-0.6,0.5-0.9c0.2-0.4,0.6-0.8,0.7-1.2
			c0.3-0.8,0.8-1.6,1-2.5c0.1-0.4,0.2-0.7,0.4-1c0.2-0.3,0.4-0.6,0.6-0.9c0.3-0.4,0.5-0.8,0.6-1.3c0.1-0.2,0.1-0.4,0.2-0.7
			c0.2-0.3,0.2-0.7,0.2-1c0-0.2,0-0.3,0.2-0.5c0.1-0.1,0.1-0.2,0.2-0.3c0.3-0.4,0.7-0.7,0.8-1.2c0.3-0.3,0.6-0.7,0.8-1
			c0.2-0.2,0.3-0.5,0.4-0.8c0.1-0.2,0.1-0.5,0.2-0.7c0.4-0.5,0.5-1.1,0.8-1.6c0.3-0.5,0.4-1,0.7-1.4c0.3-0.5,0.5-1,0.6-1.5
			c0.2-0.7,0.6-1.3,0.9-1.9c0.4-0.9,0.7-1.9,1.4-2.7c0.1-0.3,0.3-0.6,0.5-1c0.4-0.7,0.7-1.5,1.1-2.3c0.1-0.2,0.2-0.4,0.2-0.7
			c0-0.4,0.3-0.8,0.5-1.1c0.2-0.3,0.4-0.6,0.5-1c0.1-0.5,0.5-0.8,0.5-1.3c0.7-1.4,1.4-2.7,2.6-3.9c0.1-0.1,0.2-0.1,0.4-0.1
			c0.5,0,0.8,0.3,1.3,0.4c0.4,0.2,0.8,0.4,1.2,0.6c0.4,0.2,0.8,0.4,1.2,0.6c0.6,0.3,1.1,0.6,1.8,0.8c0.3,0.1,0.5,0.2,0.7,0.3
			c0.4,0.3,0.8,0.5,1.2,0.6c0.7,0.2,1.4,0.5,1.9,0.9c0.2,0.1,0.3,0.2,0.5,0.3c0.9,0.3,1.7,0.7,2.5,1.1c1,0.4,2,0.9,3,1.4
			c1.2,0.6,2.5,1,3.7,1.7c0.8,0.2,1.4,0.6,2.2,0.9c0.7,0.3,1.3,0.5,2,0.8c0.5,0.2,0.9,0.5,1.4,0.7
			C1060.6,72.9,1060.7,73.1,1060.8,73.2z"/>
		<path fill="#FFFFFF" d="M865.3,273.3c-0.2-0.1-0.4-0.2-0.5-0.3c-0.2-0.2-0.3-0.5-0.4-0.8c0-0.8-0.5-1.6-0.7-2.4c-0.5-1-0.6-2-1-3
			c0-0.5-0.4-1-0.5-1.5c-0.1-0.5-0.3-1-0.5-1.5c-0.3-0.7-0.4-1.5-0.8-2.2c0-0.1,0-0.1,0-0.2c-0.1-1-0.6-1.8-0.9-2.7
			c-0.1-0.4-0.4-0.6-0.8-0.7c-0.1-0.1-0.2-0.4-0.2-0.5c0-0.1,0.1-0.2,0.2-0.3c0.2-0.3,0.2-0.6,0.1-0.8c-0.2-0.6-0.5-1.2-0.7-1.8
			c-0.4-1-0.6-2-1.1-3c0-0.4-0.2-0.8-0.4-1.2c-0.2-0.9-0.6-1.8-0.9-2.7c-0.3-0.8-0.7-1.5-0.7-2.4c-0.3-0.7-0.5-1.4-0.8-2.2
			c-0.2-0.5-0.3-1-0.5-1.5c-0.2-0.8-0.5-1.7-0.9-2.5c-0.2-0.4-0.3-0.8-0.4-1.2c-0.1-0.2-0.1-0.5-0.2-0.7c-0.3-0.6-0.5-1.2-0.6-1.8
			c-0.1-0.3-0.2-0.7-0.3-1c-0.4-0.9-0.7-1.9-1.1-2.8c-0.2-0.4-0.4-0.9-0.5-1.3c-0.2-1-0.7-2-1.1-3c-0.2-0.6-0.6-1.2-0.6-1.8
			c0-0.1-0.1-0.2-0.1-0.3c-0.3-0.7-0.6-1.4-0.8-2.2c-0.2-0.7-0.4-1.3-0.7-2c-0.2-0.6-0.4-1.1-0.6-1.6c-0.3-0.7-0.5-1.4-0.8-2.2
			c-0.1-0.7-0.4-1.3-0.7-2c-0.2-0.4-0.4-0.9-0.6-1.3c-0.1-0.2-0.2-0.3-0.2-0.5c0-0.6-0.3-1.1-0.5-1.7c-0.2-0.6-0.5-1.2-0.8-1.8
			c-0.4-0.9-0.7-1.9-1.1-2.8c-0.1-0.3-0.1-0.6-0.2-0.9c0-0.3-0.1-0.6-0.3-0.8c-0.3-0.5-0.5-1-0.7-1.5c-0.4-1-0.8-2-1.3-2.9
			c-0.2-0.4-0.3-0.8-0.4-1.2c0-0.2-0.1-0.3-0.2-0.5c-0.1-0.2-0.2-0.3-0.3-0.5c-0.5-0.8-0.8-1.7-1.2-2.6c-0.3-1-0.8-1.9-1.1-2.8
			c-0.1-0.4-0.4-0.9-0.6-1.3c-0.2-0.4-0.3-0.8-0.5-1.2c-0.1-0.3-0.3-0.6-0.4-1c-0.1-0.3-0.3-0.7-0.4-1c0-0.1-0.1-0.1-0.1-0.2
			c-0.4-0.6-0.4-1.3-0.8-2c-0.3-0.6-0.6-1.2-0.8-1.8c-0.3-0.9-0.6-1.8-1.1-2.6c-0.1-0.2-0.2-0.3-0.2-0.5c-0.1-0.6-0.4-1.2-0.7-1.8
			c-0.2-0.4-0.4-0.9-0.4-1.3c-0.1-0.8-0.4-1.6-0.8-2.3c-0.4-0.7-0.7-1.5-1-2.3c-0.2-0.7-0.6-1.3-0.9-1.9c-0.1-0.2-0.2-0.3-0.4-0.4
			c-0.1-0.1-0.2-0.3-0.2-0.5c0-0.3,0-0.6-0.1-0.9c0-0.2-0.1-0.5-0.2-0.7c-0.2-0.5-0.4-1-0.6-1.5c-0.5-1-0.8-2.1-1.2-3.1
			c-0.1-0.6-0.4-1.1-0.6-1.7c-0.3-0.6-0.6-1.2-0.7-1.8c-0.3-0.6-0.6-1.3-0.9-1.9c-0.3-0.6-0.3-1.3-0.6-1.8c-0.4-0.7-0.6-1.4-0.9-2.1
			c-0.3-0.7-0.6-1.4-0.8-2.1c-0.1-0.3-0.2-0.6-0.3-0.8c-0.3-0.5-0.6-1-0.7-1.6c-0.1-0.5-0.4-1-0.6-1.5c-0.1-0.4-0.3-0.9-0.6-1.3
			c-0.4-0.6-0.5-1.3-0.9-1.9c-0.1-0.1-0.1-0.2-0.1-0.3c0-0.6-0.3-1.1-0.6-1.7c-0.4-0.9-0.8-1.8-1.2-2.8c-0.2-0.6-0.4-1.2-0.8-1.8
			c-0.1-0.1-0.1-0.3-0.2-0.5c0-0.3-0.1-0.6-0.2-0.8c-0.2-0.4-0.4-0.7-0.6-1.1c-0.1-0.7-0.4-1.3-0.7-2c-0.3-0.6-0.5-1.2-0.7-1.8
			c-0.1-0.3-0.2-0.7-0.2-1c0-0.2,0.1-0.3,0.1-0.5c0.1-0.2,0.2-0.3,0.4-0.4c0.3-0.1,0.6-0.2,0.9-0.3c0.7-0.1,1.3-0.1,2-0.3
			c0.3-0.1,0.7-0.1,1-0.1c1.3-0.1,2.5-0.5,3.6-1c0.1-0.1,0.2-0.1,0.3-0.2c0.5-0.2,0.9-0.4,1.5-0.4c0.3,0,0.5,0,0.8-0.1
			c0.3,0,0.7-0.1,1-0.2c0.2-0.1,0.4-0.1,0.6-0.1c1.6-0.1,1.5-0.1,2.9-0.6c0.2-0.1,0.5-0.2,0.8-0.2c0.7-0.1,1.4-0.4,2.1-0.6
			c0.5-0.1,1-0.3,1.5-0.3c0.7,0,1.4-0.4,2.1-0.5c0.1,0,0.1,0,0.2-0.1c0.5-0.2,1-0.4,1.4-0.6c0.5,0,1-0.2,1.6-0.3
			c0.9-0.3,2-0.4,2.9-0.8c0.8-0.2,1.5-0.3,2.3-0.5c0.1,0,0.4,0.1,0.5,0.2c0,0.1,0.1,0.1,0.1,0.2c0.4,1.2,1,2.3,1.3,3.5
			c0.1,0.3,0.2,0.6,0.3,0.8c0.2,0.5,0.4,1,0.4,1.5c0.2,0.7,0.5,1.5,0.7,2.2c0.2,0.5,0.4,1,0.5,1.5c0,0.1,0,0.2,0.1,0.3
			c0.4,0.7,0.6,1.6,0.8,2.3c0.3,0.8,0.5,1.6,0.8,2.4c0.3,0.8,0.5,1.6,0.8,2.3c0,0.1,0,0.1,0.1,0.2c0.3,0.6,0.2,1.3,0.5,1.9
			c0.3,0.6,0.5,1.2,0.7,1.8c0.2,0.6,0.4,1.1,0.6,1.7c0.1,0.6,0.4,1.1,0.5,1.7c0.1,0.6,0.4,1.1,0.5,1.7c0.2,0.4,0.3,0.8,0.5,1.1
			c0.1,0.3,0.2,0.6,0.2,0.8c0.1,0.3,0.1,0.6,0.2,0.8c0.1,0.3,0.2,0.6,0.2,0.8c0.1,0.5,0.2,0.9,0.4,1.3c0.3,0.8,0.5,1.6,0.8,2.3
			c0.2,0.4,0.3,0.8,0.4,1.2c0.1,0.5,0.4,1,0.4,1.5c0,0.5,0.3,1,0.5,1.5c0.1,0.2,0.1,0.3,0.2,0.5c0.2,1,0.6,1.9,0.9,2.8
			c0.3,0.8,0.6,1.5,0.8,2.3c0.1,0.5,0.3,0.9,0.4,1.3c0.2,0.8,0.6,1.6,0.7,2.4c0,0.2,0.2,0.4,0.2,0.7c0.1,0.3,0.3,0.7,0.4,1
			c0.3,1.3,0.8,2.6,1.2,3.9c0.3,0.8,0.6,1.7,0.9,2.5c0.1,0.3,0.2,0.7,0.3,1c0.2,0.7,0.4,1.5,0.7,2.2c0.1,0.2,0.2,0.4,0.2,0.7
			c0.1,0.5,0.4,1,0.5,1.5c0.1,0.5,0.3,1,0.5,1.5c0.1,0.5,0.3,1,0.5,1.5c0.1,0.2,0.2,0.4,0.2,0.7c0.1,0.6,0.3,1.1,0.5,1.7
			c0,0.6,0.3,1.1,0.5,1.7c0.1,0.5,0.4,1,0.5,1.5c0.3,1,0.5,1.9,0.8,2.9c0.4,1.2,0.7,2.5,1.1,3.7c0.4,1.2,0.7,2.4,1.1,3.5
			c0.4,1.4,0.9,2.8,1.3,4.2c0.5,1.6,1,3.3,1.5,4.9c0.1,0.3,0.1,0.6,0.3,0.8c0.2,0.4,0.3,0.8,0.4,1.2c0.2,0.6,0.2,1.3,0.5,1.9
			c0.1,0.6,0.3,1.2,0.5,1.9c0.2,0.6,0.4,1.2,0.6,1.9c0.2,0.8,0.4,1.6,0.7,2.4c0.2,0.7,0.5,1.4,0.6,2.2c0,0.1,0,0.2,0.1,0.3
			c0.3,0.5,0.4,1,0.5,1.5c0.1,0.5,0.3,1,0.4,1.5c0.2,0.6,0.2,1.1,0.6,1.7c0.1,0.1,0.1,0.3,0.1,0.5c0.1,0.2,0.1,0.5,0.1,0.7
			c0.5,1.4,0.9,2.8,1.3,4.2c0.2,0.6,0.4,1.2,0.6,1.8c0,0.1,0.1,0.1,0.1,0.2c0.4,1.8,1.1,3.6,1.6,5.4c0.4,1.3,0.7,2.6,1.2,3.9
			c0.1,0.3,0.1,0.6,0.2,0.9c0.1,0.3,0.2,0.7,0.4,1c0.1,0.3,0.2,0.5,0.3,0.8c0.1,0.6,0.3,1.2,0.5,1.9c0.3,0.9,0.7,1.8,0.8,2.7
			c0.4,0.9,0.6,1.8,0.9,2.7c0.6,1.6,1.1,3.2,1.6,4.8c0.1,0.4,0.2,0.8,0.4,1.2c0.2,0.7,0.4,1.4,0.7,2c0.3,0.6,0.4,1.2,0.5,1.9
			c0,0.2-0.2,0.5-0.4,0.6c-0.1,0-0.2,0.1-0.4,0.1c-1.5,0.4-2.9,0.9-4.4,1.2c-0.1,0-0.1,0-0.2,0c-0.8,0.2-1.5,0.5-2.3,0.7
			c-0.7,0.1-1.4,0.3-2.1,0.6c-1.1,0.3-2.3,0.6-3.4,0.9c-0.4,0.1-0.9,0.2-1.3,0.4c-0.2,0.1-0.4,0.1-0.6,0.1c-0.1,0-0.3,0-0.4,0.1
			c-0.5,0.2-1,0.3-1.5,0.5c-0.5,0.1-1,0.2-1.6,0.3c-1,0.2-1.9,0.5-2.9,0.8C865.7,273.3,865.5,273.3,865.3,273.3z"/>
		<path fill="#0082CA" d="M880.1,315.2c0.2,0,0.4,0.1,0.6,0.1c0.1,0,0.3,0,0.4-0.1c0.2-0.1,0.5-0.2,0.7-0.4c0.4-0.3,0.9-0.5,1.4-0.7
			c0.2-0.1,0.5-0.2,0.7-0.3c0.6-0.4,1.3-0.6,1.9-0.9c0.9-0.4,1.8-0.8,2.6-1.3c0.6-0.3,1.1-0.6,1.8-0.8c0.3-0.1,0.6-0.3,0.9-0.4
			c0.9-0.5,1.9-0.9,2.8-1.4c0.4-0.2,0.8-0.4,1.2-0.5c0.9-0.3,1.7-0.7,2.5-1.1c0.6-0.3,1.2-0.5,1.8-0.8c0.6-0.3,1.3-0.6,2-0.9
			c0.6-0.3,1.2-0.6,1.8-0.8c0.6-0.2,1.2-0.6,1.8-0.8c0.5-0.2,1.1-0.5,1.6-0.8c0.4-0.2,0.8-0.4,1.2-0.6c1.3-0.6,2.6-1.2,3.9-1.8
			c0.1-0.1,0.2-0.1,0.4-0.2c0.6-0.3,1.1-0.6,1.7-0.9c0.6-0.2,1.1-0.5,1.6-0.7c2-0.8,3.9-1.8,5.8-2.7c0.9-0.4,1.9-0.9,2.8-1.3
			c0.9-0.5,1.8-0.9,2.8-1.4c0.9-0.4,1.8-0.8,2.6-1.2c0.6-0.3,1.1-0.6,1.7-0.9c0.4-0.2,0.8-0.4,1.2-0.6c0.4-0.1,0.6-0.4,1-0.5
			c0.1,0,0.3,0,0.4,0c0.1,0.1,0.2,0.1,0.3,0.2c1,1.2,1.9,2.4,2.8,3.6c0.2,0.3,0.4,0.6,0.7,0.9c1.7,2.2,3.4,4.4,5.1,6.7
			c0.4,0.5,0.9,1,1.2,1.6c0.6,0.5,0.9,1.1,1.4,1.7c0.4,0.5,0.8,1.1,1.2,1.6c0.2,0.3,0.4,0.6,0.6,0.9c0.1,0.2,0,0.7-0.3,0.8
			c-1.6,0.7-3.1,1.6-4.7,2.4c-1.5,0.7-3,1.5-4.5,2.3c-1.8,0.9-3.6,2-5.5,2.8c-0.3,0.1-0.6,0.3-0.9,0.4c-1.4,0.8-2.9,1.5-4.3,2.3
			c-0.7,0.4-1.4,0.9-2.2,1.2c-0.7,0.3-1.3,0.6-1.9,0.9c-0.5,0.2-1.1,0.5-1.6,0.8c-0.4,0.3-0.9,0.5-1.4,0.7c-0.4,0.2-0.7,0.3-1,0.6
			c-0.1,0.1-0.2,0.2-0.3,0.2c-1.3,0.5-2.5,1.3-3.8,1.9c-0.4,0.2-0.7,0.3-1,0.5c-1.6,0.8-3.2,1.6-4.9,2.4c-1.8,0.9-3.6,1.8-5.3,2.8
			c-0.7,0.4-1.5,0.8-2.3,1.1c-0.5,0.3-1.1,0.5-1.6,0.8c-1.5,0.9-3.1,1.7-4.6,2.4c-0.6,0.3-1.2,0.6-1.7,0.9c-0.5,0.2-0.9,0.4-1.4,0.7
			c-0.5,0.2-0.9,0.5-1.4,0.7c-0.5,0.2-0.9,0.5-1.4,0.7c-1,0.4-2,1-3,1.4c-1,0.5-1.9,1-2.9,1.5c-1.6,0.8-3.2,1.7-4.9,2.5
			c-1.2,0.6-2.4,1.2-3.6,1.9c-0.2,0.1-0.5,0.2-0.7,0.3c-1.4,0.6-2.6,1.4-4,2.1c-0.6,0.6-1.4,0.8-2.2,1.2c-0.6,0.3-1.3,0.6-1.9,1
			c-1.1,0.6-2.3,1.2-3.5,1.7c-0.2,0.1-0.5,0.2-0.7,0.4c-1.1,0.7-2.4,1.3-3.6,1.9c-0.5,0.2-0.9,0.5-1.4,0.7c-1.2,0.7-2.4,1.3-3.6,1.9
			c-0.2,0.1-0.4,0.2-0.5,0.3c-1.1,0.7-2.2,1.3-3.4,1.8c-1.3,0.7-2.6,1.5-4,2.1c-1.1,0.7-2.2,1.3-3.3,2c-0.3,0.2-0.5,0.4-0.8,0.5
			c-1.2,0.6-2.4,1.2-3.6,1.8c-0.6,0.3-1.3,0.7-1.9,0.9c-0.5,0.2-0.9,0.4-1.4,0.7c-0.2,0.2-0.5,0.3-0.8,0.5c-0.7,0.3-1.3,0.6-1.9,0.9
			c-0.8,0.4-1.6,0.9-2.4,1.3c-0.9,0.4-1.8,1-2.7,1.4c-0.8,0.5-1.7,0.9-2.6,1.4c-0.9,0.5-1.8,1-2.7,1.4c-1.1,0.5-2,1.1-3.1,1.7
			c-0.6,0.3-1.1,0.6-1.7,0.9c-0.6,0.3-1.1,0.6-1.7,0.9c-0.1,0.1-0.2,0.1-0.3,0.2c-0.8,0.6-1.7,1-2.5,1.4c-1.4,0.7-2.8,1.6-4.3,2.3
			c-0.7,0.3-1.4,0.7-2,1.1c-0.2,0.1-0.6,0-0.7-0.1c-0.1-0.1-0.2-0.2-0.3-0.3c-0.3-0.4-0.6-0.9-1-1.3c-0.5-0.6-0.9-1.3-1.4-1.9
			c-1.2-1.4-2.3-2.9-3.4-4.3c-0.6-0.7-1.1-1.4-1.8-2.1c-0.4-0.5-0.8-0.9-1.2-1.4c-0.3-0.4-0.6-0.7-1-1.1c-0.2-0.5-0.7-0.8-1-1.3
			c-0.3-0.4-0.7-0.7-0.9-1.1c-0.8-1.1-1.6-2.1-2.5-3.1c-0.1-0.1-0.2-0.2-0.2-0.3c-0.4-0.6-0.8-1.2-1.3-1.7c-0.2-0.2-0.2-0.5-0.2-0.8
			c0-0.1,0.1-0.2,0.2-0.3c0.3-0.2,0.6-0.5,1-0.6c0.7-0.3,1.4-0.7,2.1-1c0.7-0.3,1.4-0.5,2-0.8c1.1-0.3,2-0.9,3-1.4
			c0.2-0.1,0.3-0.2,0.5-0.3c1.4-0.4,2.5-1.2,3.7-1.6c0.3-0.1,0.6-0.2,0.9-0.4c1-0.6,2.1-1,3.2-1.5c1.7-0.8,3.4-1.6,5.1-2.4
			c0.6-0.4,1.2-0.7,1.9-1c0.6-0.3,1.3-0.6,1.9-0.9c2-0.9,4-1.9,5.9-2.9c1-0.5,1.9-1,2.9-1.5c0.9-0.4,1.9-0.9,2.8-1.4
			c0.5-0.2,1-0.6,1.5-0.8c1.3-0.6,2.5-1.3,3.8-1.9c0.6-0.3,1.1-0.7,1.7-0.9c0.6-0.2,1.1-0.6,1.7-1c1-0.6,2-1.1,3.1-1.7
			c1.2-0.6,2.4-1.2,3.6-1.8c1.3-0.6,2.5-1.3,3.8-2c0.4-0.3,0.9-0.5,1.3-0.8c0.4-0.3,0.8-0.4,1.2-0.6c0.5-0.2,0.9-0.5,1.4-0.7
			c0.7-0.3,1.4-0.7,2-1.1c0.3-0.2,0.6-0.3,0.9-0.4c0.7-0.4,1.4-0.7,2-1.1c0.8-0.5,1.6-0.8,2.4-1.3c0.7-0.4,1.5-0.8,2.2-1.2
			c0.3-0.1,0.6-0.3,0.9-0.4c1.4-0.6,2.7-1.2,4.1-1.9c0.2-0.1,0.4-0.2,0.5-0.2c1-0.5,2.1-0.8,3-1.3c0.9-0.5,1.9-0.9,2.8-1.3
			c0.9-0.4,1.8-0.7,2.7-1.2c0.2-0.1,0.4-0.2,0.5-0.2c0.5-0.2,0.9-0.5,1.2-0.9c0.1-0.2,0.4-0.3,0.7-0.2c0.1,0,0.1,0,0.2,0
			c0.2,0,0.4,0,0.6-0.1c1.2-0.6,2.3-1.1,3.5-1.7c0.2-0.1,0.3-0.3,0.2-0.6c0-0.1-0.1-0.1-0.1-0.2c0-0.2,0.2-0.4,0.3-0.3
			C879.7,315.2,879.9,315.2,880.1,315.2C880.1,315.2,880.1,315.2,880.1,315.2z"/>
		<path fill="#FF4338" d="M1041.3,254.1c0.4,0.2,0.9,0.3,1.2,0.6c0.3,0.2,0.6,0.3,0.8,0.5c0.9,0.6,1.8,1.2,2.8,1.6
			c0.8,0.4,1.5,0.9,2.3,1.4c0.5,0.4,1.1,0.6,1.7,1c0.5,0.4,1.1,0.6,1.7,0.9c0.3,0.2,0.7,0.3,1,0.6c0.9,0.6,1.9,1.1,2.8,1.7
			c0.5,0.4,1.2,0.5,1.7,0.9c0.8,0.4,1.5,1,2.3,1.4c0.2,0.1,0.3,0.3,0.4,0.6c0.1,0.2,0.1,0.3,0,0.5c-0.1,0.2-0.1,0.3-0.3,0.5
			c-1.1,1.5-2.1,3.1-3.2,4.7c-0.7,1.1-1.5,2.2-2.3,3.3c-0.8,1.1-1.5,2.2-2.3,3.3c-0.6,0.8-1,1.6-1.6,2.4c-0.6,0.8-1.1,1.6-1.6,2.4
			c-0.5,0.7-0.9,1.4-1.5,2.1c-0.2,0.2-0.3,0.4-0.4,0.6c-0.2,0.4-0.5,0.8-0.8,1.2c-0.1,0.1-0.2,0.2-0.2,0.3c-1,1.7-2.3,3.3-3.2,5
			c0,0.1-0.1,0.1-0.1,0.2c-1,1.4-1.8,2.8-2.8,4.2c-0.1,0.2-0.3,0.4-0.4,0.6c-0.7,1.2-1.5,2.3-2.2,3.5c-0.2,0.3-0.4,0.6-0.6,0.9
			c-0.5,0.9-1.1,1.7-1.6,2.6c-0.3,0.4-0.5,0.8-0.8,1.2c-1.8,2.7-3.3,5.4-5.1,8.1c-0.4,0.6-0.8,1.2-1.1,1.8c-0.9,1.6-2,3.1-2.9,4.8
			c-1.1,1.5-2,3.2-3,4.7c-0.2,0.3-0.3,0.5-0.5,0.8c-1.4,2.4-2.9,4.7-4.3,7.1c-0.7,1.2-1.4,2.4-2.1,3.6c-0.1,0.1-0.1,0.2-0.2,0.3
			c-0.8,1.1-1.4,2.4-2.1,3.6c-0.4,0.7-0.8,1.3-1.2,2c-0.3,0.5-0.6,0.9-0.8,1.4c-0.5,0.8-1.1,1.6-1.4,2.5c-0.5,0.8-0.9,1.6-1.4,2.3
			c-0.4,0.5-0.7,1-0.8,1.6c-0.5,0.9-0.9,1.8-1.4,2.7c-0.2,0.4-0.4,0.7-0.6,1.1c-0.3,0.6-0.6,1.2-1,1.7c-0.1,0.1-0.2,0.3-0.3,0.5
			c-0.5,1-1,1.9-1.5,2.8c-0.5,0.9-1,1.8-1.5,2.7c-0.5,0.9-1.1,1.9-1.6,2.8c-0.5,0.8-1,1.7-1.4,2.5c-0.4,0.9-1,1.7-1.4,2.5
			c-1,1.8-2.1,3.6-3.1,5.5c-0.5,0.9-1.1,1.9-1.7,2.8c-0.2,0.4-0.5,0.8-0.7,1.2c-0.3,0.5-0.5,0.9-0.8,1.4c-0.3,0.5-0.7,1-0.9,1.6
			c-0.2,0.5-0.5,0.9-0.8,1.4c-0.3,0.5-0.7,1-0.9,1.5c-0.2,0.5-0.6,0.9-0.8,1.4c-0.3,0.5-0.6,1-0.9,1.5c-0.3,0.5-0.6,0.9-0.8,1.4
			c-1,1.6-2,3.2-3,4.8c-0.2,0.3-0.6,0.4-1,0.2c-0.6-0.2-1.2-0.5-1.7-0.8c0,0-0.1-0.1-0.2-0.1c-0.6-0.3-1.3-0.5-1.9-1
			c-0.5-0.4-1.1-0.6-1.7-1c-0.6-0.3-1.2-0.7-1.9-1c-1-0.5-1.9-1-2.9-1.6c-0.5-0.3-1-0.5-1.6-0.8c-0.5-0.3-1-0.6-1.5-0.9
			c-0.8-0.5-1.8-0.8-2.5-1.4c-1.3-0.6-2.5-1.4-3.8-2c-0.4-0.2-0.8-0.4-1.1-0.7c-0.2-0.2-0.3-0.4-0.4-0.6c-0.1-0.2-0.1-0.3,0-0.5
			c0.1-0.2,0.2-0.3,0.3-0.5c0.6-0.8,1.2-1.7,1.6-2.6c0.2-0.5,0.6-1,0.9-1.5c0.4-0.5,0.8-1.1,1-1.7c0.6-1,1.1-2,1.8-2.9
			c0.1-0.1,0.2-0.3,0.3-0.5c0.3-0.7,0.7-1.3,1.1-1.9c0.1-0.2,0.3-0.4,0.3-0.6c0-0.2,0.1-0.4,0.3-0.6c0.3-0.3,0.5-0.5,0.7-0.9
			c0.2-0.4,0.4-0.7,0.6-1.1c0.1-0.2,0.2-0.4,0.3-0.6c0.1-0.3,0.2-0.6,0.4-0.8c0.4-0.5,0.8-1,1.1-1.7c0.1-0.3,0.4-0.6,0.6-0.9
			c0.1-0.2,0.3-0.4,0.4-0.6c0.3-0.7,0.6-1.3,1.1-1.8c0.1-0.1,0.2-0.3,0.3-0.5c0.3-0.7,0.7-1.4,1.2-2c0.5-0.7,0.9-1.4,1.2-2.2
			c0.1-0.2,0.1-0.3,0.2-0.5c0.4-0.5,0.8-1.1,1-1.7c0.3-0.6,0.7-1.1,1-1.7c0.2-0.3,0.4-0.5,0.5-0.7c0.3-0.5,0.6-0.9,0.8-1.4
			c0.3-0.8,0.7-1.5,1.1-2.2c0.5-0.6,0.7-1.4,1.3-2c0.1-0.1,0.1-0.2,0.2-0.3c0.4-0.6,0.6-1.3,1-1.9c0.4-0.5,0.7-1.1,1-1.7
			c0.3-0.5,0.6-1,0.9-1.6c0.1-0.2,0-0.4-0.1-0.6c-0.2-0.4-0.1-0.7,0.2-0.9c0.2-0.1,0.3-0.2,0.5-0.3c0.3-0.1,0.5-0.2,0.6-0.4
			c0.3-0.6,0.7-1.1,1.1-1.7c0.3-0.5,0.6-1,0.6-1.6c0-0.3,0.1-0.6,0.3-0.8c0.4-0.4,0.5-0.9,1-1.3c0.1-0.1,0.2-0.2,0.2-0.3
			c0.3-0.5,0.6-1,0.9-1.6c0.2-0.5,0.5-1.1,0.9-1.6c0.3-0.4,0.6-0.9,0.7-1.4c0.1-0.3,0.3-0.7,0.5-0.9c0.6-0.7,0.9-1.6,1.4-2.3
			c0.5-0.7,0.8-1.5,1.3-2.2c0.1-0.2,0.2-0.3,0.2-0.5c0.1-0.3,0.2-0.5,0.4-0.8c0.3-0.3,0.6-0.7,0.6-1.1c0.7-1,1.2-2.2,1.9-3.3
			c0.2-0.3,0.4-0.6,0.5-0.9c0.1-0.3,0.4-0.6,0.6-0.9c0.1-0.2,0.2-0.4,0.3-0.6c0.3-0.8,0.9-1.6,1.4-2.3c0.5-0.7,0.9-1.4,1.4-2.1
			c0.1-0.2,0.2-0.4,0.3-0.6c0.1-0.3,0.3-0.5,0.4-0.8c0.4-0.6,0.9-1.2,1.2-1.8c0.3-0.6,0.7-1.1,1-1.7c0.3-0.6,0.7-1.1,1.1-1.6
			c0.3-0.4,0.6-0.9,0.9-1.3c0.5-0.8,1-1.5,1.5-2.3c0.4-0.6,0.8-1.2,1.2-1.8c0.5-0.9,1-1.8,1.6-2.6c0.2-0.3,0.4-0.6,0.5-0.9
			c0.1-0.3,0.3-0.5,0.5-0.7c0.4-0.3,0.4-0.7,0.7-1c0.3-0.3,0.6-0.7,0.7-1.1c0.1-0.2,0.2-0.3,0.3-0.4c0.2-0.4,0.7-0.7,0.9-1.1
			c0.3-0.4,0.4-0.8,0.8-1.2c0.2-0.3,0.4-0.6,0.6-0.9c0.1-0.2,0.2-0.4,0.4-0.6c0.7-0.8,1.2-1.7,1.8-2.5c0.6-0.8,1.1-1.7,1.7-2.6
			c0.6-0.9,1.2-1.8,1.9-2.7c0.2-0.2,0.4-0.5,0.5-0.7c0.4-0.7,0.9-1.3,1.4-1.9c0.2-0.2,0.4-0.5,0.5-0.8c0.2-0.6,0.5-1,1-1.4
			c0.2-0.2,0.3-0.4,0.5-0.6c0.7-1,1.3-2,2.1-3c0.7-0.9,1.4-1.8,2-2.8c0.1-0.2,0.2-0.3,0.3-0.4c0.4-0.4,0.7-1,1.1-1.4
			c0.4-0.4,0.7-0.9,1-1.3c0.2-0.3,0.5-0.6,0.7-0.9c0.1-0.2,0.3-0.4,0.4-0.6c0.3-0.6,0.8-1.2,1.3-1.7c0.1-0.1,0.3-0.3,0.3-0.4
			c0.2-0.5,0.6-0.9,1-1.3c0.7-0.8,1.4-1.6,2.1-2.3c0.3-0.3,0.4-0.6,0.6-0.9c0.5-0.7,1-1.4,1.7-1.9c0.1-0.1,0.2-0.1,0.4-0.1
			C1041.2,254,1041.2,254.1,1041.3,254.1z"/>
		<path fill="#FFFFFF" d="M1055.4,179.1c0.1-0.3,0.2-0.6,0.4-0.8c1.2-1,2.4-2,3.6-3.1c0.8-0.7,1.5-1.3,2.3-2c0.7-0.7,1.5-1.3,2.3-2
			c0.4-0.4,0.8-0.7,1.2-1.2c0.3-0.3,0.6-0.6,1-0.8c0.1-0.1,0.4-0.1,0.6,0c0.1,0,0.1,0.1,0.2,0.1c1,0.8,2.1,1.6,3.2,2.4
			c0.6,0.4,1.2,1,1.8,1.4c0.6,0.4,1.1,0.8,1.6,1.3c1.9,1.4,3.9,2.8,5.8,4.2c0.6,0.4,1.1,0.8,1.7,1.2c0.6,0.3,1.1,0.7,1.6,1.1
			c0.7,0.6,1.4,1.1,2.1,1.6c0.3,0.2,0.6,0.5,0.9,0.7c0.3,0.2,0.7,0.4,1,0.6c0.5,0.4,1.1,0.7,1.5,1.1c0.7,0.6,1.5,1,2.1,1.6
			c0.2,0.2,0.4,0.3,0.6,0.4c0.6,0.4,0.9,0.5,1.5,1.1c0.1,0.1,0.2,0.2,0.3,0.2c1,0.6,1.8,1.3,2.8,1.9c0.8,0.5,1.4,1.1,2.2,1.6
			c1,0.7,1.9,1.4,2.9,2.1c0.7,0.5,1.5,1,2.2,1.5c1.3,0.8,2.5,1.8,3.8,2.5c0.1,0.1,0.2,0.1,0.3,0.2c0.9,0.7,1.7,1.3,2.7,1.9
			c1,0.7,2,1.4,3,2c0.7,0.4,1.4,0.9,2,1.4c0.4,0.3,0.7,0.5,1.1,0.8c1.2,0.9,2.4,1.7,3.5,2.6c1.1,0.8,2.2,1.5,3.2,2.3
			c1.6,1,3.1,2.2,4.6,3.3c0.1,0.1,0.2,0.2,0.3,0.2c1.1,0.7,2.1,1.5,3.1,2.2c1.4,1,2.8,2,4.1,3c0.6,0.4,1.1,0.8,1.7,1.2
			c0.9,0.6,1.7,1.1,2.4,1.8c0.2,0.2,0.4,0.3,0.6,0.4c0.8,0.6,1.6,1.1,2.3,1.7c0.5,0.5,1.1,0.9,1.7,1.3c1,0.7,1.9,1.5,2.9,2.2
			c1.3,1,2.6,2,4,2.9c0.7,0.7,1.6,1.2,2.4,1.9c0.3,0.3,0.7,0.5,1.1,0.8c0.3,0.2,0.6,0.5,0.9,0.7c0.6,0.5,1.2,0.9,1.8,1.4
			c0.8,0.7,1.8,1.2,2.5,2c0.9,0.4,1.5,1.1,2.3,1.7c0.6,0.4,1.3,0.8,1.8,1.4c0.2,0.2,0.5,0.4,0.8,0.6c0.8,0.6,1.6,1.1,2.3,1.7
			c0.2,0.2,0.4,0.3,0.6,0.4c1.4,1,2.9,2,4.2,3.2c0.1,0.1,0.3,0.3,0.4,0.4c0.6,0.4,1.3,0.8,1.8,1.4c0.7,0.4,1.2,0.9,1.8,1.4
			c0.1,0.1,0.3,0.3,0.4,0.4c0.8,0.5,1.4,1.1,2.1,1.6c0.7,0.5,1.3,1,1.9,1.6c0.2,0.2,0.5,0.4,0.7,0.6c0.4,0.3,0.8,0.6,1.2,0.9
			c0.5,0.4,1,0.9,1.6,1.3c0.1,0.1,0.2,0.1,0.3,0.2c1,0.9,2,1.7,3.1,2.5c1,0.8,2.1,1.7,3.1,2.5c0.5,0.4,1,0.8,1.5,1.1
			c0.4,0.4,0.9,0.7,1.3,1.1c0.4,0.4,1,0.6,1.4,1c0.4,0.3,0.7,0.7,1.1,1c0.5,0.4,1,0.7,1.5,1.1c0.4,0.4,0.9,0.7,1.4,1
			c0.4,0.4,0.8,0.8,1.3,1.1c0.5,0.5,1.1,1,1.6,1.5c0.1,0.1,0.1,0.4,0,0.5c-0.1,0.1-0.2,0.2-0.3,0.3c-0.5,0.3-0.9,0.7-1.3,1.1
			c-0.3,0.2-0.6,0.5-0.9,0.7c-0.7,0.5-1.3,1-1.9,1.6c-0.2,0.2-0.5,0.4-0.7,0.6c-0.3,0.2-0.5,0.4-0.7,0.6c-0.4,0.4-0.9,0.8-1.5,1.2
			c-0.5,0.3-0.9,0.7-1.3,1.1c-0.7,0.6-1.4,1.2-2.2,1.8c-0.3,0.2-0.5,0.4-0.7,0.6c-0.4,0.4-0.9,0.8-1.4,1.3c-0.4,0.4-0.9,0.7-1.3,1.1
			c-0.6,0.4-1.1,1-1.8,1.4c-0.2,0.1-0.4,0.3-0.6,0.5c-0.6,0.6-1.3,1.2-1.9,1.8c-0.1,0.1-0.3,0.2-0.5,0.3c-0.1,0.1-0.5,0.1-0.6,0
			c-0.7-0.5-1.4-0.9-2-1.4c-1.2-1-2.4-1.8-3.5-2.9c-0.3-0.3-0.6-0.4-0.9-0.7c-0.8-0.6-1.7-1.2-2.4-1.9c-0.4-0.4-0.9-0.7-1.3-1
			c-0.8-0.5-1.5-1.1-2.3-1.7c-0.4-0.4-0.9-0.7-1.4-1c-0.4-0.4-0.8-0.8-1.3-1.1c-1.2-0.8-2.1-1.8-3.3-2.6c-0.1-0.1-0.2-0.2-0.3-0.2
			c-0.5-0.3-0.8-0.8-1.3-1.1c-0.4-0.3-0.8-0.6-1.2-0.9c-0.5-0.3-0.8-0.8-1.3-1c-0.2-0.1-0.4-0.3-0.6-0.5c-0.6-0.4-1-0.9-1.5-1.4
			c-0.5-0.5-1.2-0.8-1.7-1.3c-0.5-0.5-1-0.9-1.6-1.3c-0.3-0.2-0.5-0.4-0.7-0.6c-0.7-0.6-1.5-1.2-2.1-1.8c-0.2-0.2-0.4-0.3-0.6-0.5
			c-0.8-0.6-1.5-1.1-2.2-1.8c-0.6-0.6-1.3-1-1.9-1.5c-0.7-0.5-1.4-1.1-2.1-1.7c-0.3-0.3-0.7-0.6-1-0.8c-0.7-0.6-1.4-1.1-2.1-1.6
			c-0.6-0.5-1.2-1.1-1.8-1.6c-0.7-0.6-1.4-1.3-2.2-1.8c-0.3-0.2-0.6-0.5-0.9-0.7c-0.5-0.4-0.9-0.8-1.5-1.2c-0.3-0.2-0.6-0.5-0.9-0.7
			c-1-0.9-2-1.7-3.1-2.5c-0.2-0.1-0.4-0.3-0.6-0.5c-0.9-0.8-1.8-1.6-2.7-2.3c-0.8-0.7-1.5-1.4-2.4-1.9c-0.6-0.6-1.3-1-1.8-1.6
			c-1.1-1-2.3-1.9-3.5-2.9c-0.5-0.4-1.1-0.9-1.5-1.4c-0.5-0.5-1.1-1-1.7-1.5c-1.3-1.1-2.6-2.3-4-3.5c-1.7-1.9-3.8-3.4-5.7-5.1
			c-0.6-0.5-1.1-1-1.6-1.6c-0.4-0.4-0.8-0.8-1.2-1.2c-0.1-0.1-0.2-0.2-0.3-0.3c-0.7-0.4-1.2-0.9-1.8-1.4c-0.7-0.6-1.4-1.2-2.1-1.9
			c-0.3-0.3-0.5-0.6-0.8-0.8c-0.7-0.4-1.3-1-1.9-1.5c-0.7-0.6-1.4-1.1-2.1-1.6c-0.6-0.5-1.1-1-1.7-1.5c-0.4-0.4-0.8-0.9-1.4-1.2
			c-0.1-0.1-0.2-0.1-0.3-0.2c-0.6-0.7-1.3-1.2-2-1.7c-0.4-0.3-0.7-0.7-1.1-1c-0.7-0.7-1.4-1.4-2.3-1.9c-0.2-0.1-0.4-0.3-0.6-0.5
			c-0.7-0.6-1.3-1.3-2.1-1.8c-0.4-0.3-0.7-0.7-1.1-1c-0.5-0.5-1-1-1.6-1.4c-0.2-0.1-0.3-0.2-0.4-0.4c-0.9-0.9-1.9-1.8-3-2.6
			c-0.6-0.5-1.2-1-1.7-1.5c-0.5-0.5-1.1-1-1.7-1.4c-0.2-0.1-0.3-0.2-0.4-0.4c-0.5-0.6-1.2-1-1.6-1.6c-0.2-0.3-0.5-0.5-0.8-0.7
			c-0.7-0.5-1.4-1-2-1.7c-0.2-0.2-0.4-0.4-0.7-0.6c-1.1-0.8-2.1-1.7-3.1-2.5c-1-0.8-2-1.7-3-2.6c-0.3-0.3-0.7-0.5-1.1-0.7
			c-0.1,0-0.2-0.1-0.3-0.2c0,0-0.1-0.1-0.1-0.1c-0.3-0.5-0.7-0.8-1.1-1.2c-0.1-0.1-0.3-0.2-0.5-0.3c-0.2-0.1-0.3-0.2-0.5-0.3
			c-0.9-0.9-1.9-1.8-2.8-2.7C1055.5,179.3,1055.5,179.2,1055.4,179.1z"/>
		<path fill="#00A887" d="M1095,290.6c0,0,0.1-0.1,0.1-0.1c0.2-0.1,0.3-0.2,0.5-0.3c0.7-0.2,1.4-0.5,2.1-0.6
			c0.7-0.1,1.2-0.5,1.9-0.6c1.5-0.6,3.1-1,4.7-1.5c0.6-0.3,1.3-0.3,1.9-0.6c0.7-0.3,1.4-0.5,2.1-0.7c0.6-0.2,1.2-0.4,1.9-0.6
			c0.6-0.2,1.2-0.4,1.9-0.6c0.5-0.2,1-0.3,1.5-0.4c0.2-0.1,0.5,0.1,0.7,0.3c0.1,0.1,0.2,0.2,0.2,0.3c0.1,0.2,0.2,0.4,0.3,0.7
			c0.7,2.1,1.7,4.2,2.4,6.3c0.3,0.8,0.7,1.5,0.9,2.3c0.2,0.8,0.6,1.5,0.9,2.3c0.2,0.5,0.3,1,0.6,1.5c0.1,0.1,0.1,0.2,0.1,0.3
			c0.5,1.8,1.4,3.5,2,5.3c0.5,1.4,1,2.9,1.7,4.3c0.5,1.5,1.2,3,1.8,4.5c0.2,0.6,0.4,1.2,0.7,1.8c0.4,1,0.8,2,1.1,3
			c0.7,1.5,1.1,3,1.8,4.4c0.2,0.3,0.3,0.6,0.4,1c0.4,1.3,1,2.5,1.4,3.8c0.7,1.5,1,3.1,1.8,4.6c0.4,1.1,0.8,2.2,1.3,3.3
			c0.4,1,0.7,2.1,1.1,3.2c0.4,0.9,0.7,1.8,1,2.6c0.4,0.9,0.8,1.8,1.1,2.8c0.3,0.9,0.8,1.9,1.1,2.8c0.3,0.9,0.6,1.8,1,2.6
			c0.2,0.4,0.3,0.8,0.5,1.1c0.2,0.4,0.4,0.9,0.5,1.3c0.1,0.2,0.1,0.3,0.2,0.5c0.5,1,0.8,2.1,1.2,3.1c0.2,0.4,0.3,0.9,0.6,1.3
			c0.2,0.3,0.2,0.5,0.3,0.8c0.3,0.8,0.6,1.6,1,2.3c0.2,0.3,0.2,0.5,0.3,0.8c0.1,0.4,0.2,0.8,0.5,1.1c0.1,0.1,0.1,0.2,0.1,0.3
			c0.2,0.6,0.4,1.2,0.7,1.8c0.2,0.6,0.6,1.2,0.8,1.8c0,0.1,0,0.1,0.1,0.2c0.7,1.3,1.3,2.7,1.8,4.1c0.1,0.3,0.3,0.5,0.4,0.8
			c0.2,0.7,0.6,1.4,0.9,2.1c0.4,0.8,0.7,1.6,1.1,2.4c0.3,0.8,0.7,1.6,1.1,2.4c0.3,0.6,0.5,1.3,0.9,1.9c0.2,0.4,0.4,0.9,0.7,1.3
			c0.3,0.4,0.3,0.9,0.5,1.3c0.3,0.7,0.7,1.4,1,2.1c0.2,0.4,0.4,0.7,0.5,1.1c0.5,1.2,1,2.4,1.5,3.6c0.2,0.6,0.7,1.1,0.9,1.8
			c0.2,0.6,0.5,1.1,0.7,1.6c0.5,1,1,2,1.5,3.1c0.4,1.4,1.2,2.6,1.8,3.9c0.6,1.3,1.2,2.6,1.8,3.9c0.7,1.4,1.3,2.8,2,4.2
			c0.6,1.3,1.2,2.6,1.8,3.9c0.6,1.3,1.3,2.6,1.8,3.9c0.2,0.4,0.4,0.9,0.6,1.3c0.4,0.7,0.8,1.3,1,2.1c0.8,1.2,1.2,2.5,1.8,3.7
			c0.2,0.3,0.3,0.6,0.4,1c0.1,0.2,0.1,0.3,0,0.5c0,0.2-0.1,0.3-0.3,0.4c-0.1,0.1-0.2,0.1-0.4,0.1c-1.5,0.4-2.9,0.9-4.4,1.3
			c-1.8,0.5-3.6,1-5.3,1.6c-0.6,0.2-1.1,0.3-1.7,0.5c-1.9,0.6-3.8,1.1-5.7,1.7c-1.8,0.5-3.5,1.1-5.3,1.6c-0.6,0.2-1.1,0.4-1.7,0.5
			c-0.2,0-0.6-0.1-0.7-0.2c0,0-0.1-0.1-0.1-0.1c-0.1-0.2-0.2-0.3-0.3-0.5c-0.4-0.8-0.7-1.6-1.1-2.4c-0.4-0.8-0.6-1.5-1-2.3
			c-0.3-0.5-0.4-1-0.6-1.5c-0.1-0.3-0.2-0.7-0.4-1c-0.5-0.7-0.7-1.5-1-2.3c-0.1-0.3-0.3-0.7-0.4-1c-0.2-0.3-0.3-0.6-0.5-1
			c-0.4-0.9-0.7-1.9-1.2-2.8c-0.4-0.9-0.8-1.7-1.2-2.6c-0.4-0.9-0.8-1.7-1.1-2.6c-0.3-0.7-0.6-1.3-0.9-2c-0.2-0.7-0.6-1.3-0.8-2
			c-0.1-0.2-0.2-0.3-0.2-0.5c-0.6-1.7-1.5-3.4-2.2-5c-0.1-0.2-0.2-0.4-0.3-0.7c-0.2-0.5-0.4-1-0.6-1.5c-0.2-0.4-0.3-0.9-0.5-1.3
			c-0.3-0.6-0.6-1.3-0.8-2c-0.9-2.4-1.8-4.9-2.7-7.3c-1.2-3.3-2.3-6.6-3.5-9.8c-0.3-0.8-0.7-1.6-0.9-2.5c-0.2-0.8-0.5-1.6-0.8-2.3
			c-0.3-0.8-0.5-1.6-0.8-2.3c-0.3-0.8-0.6-1.5-0.8-2.3c-0.1-0.5-0.3-1-0.6-1.5c-0.3-0.7-0.4-1.5-0.8-2.2c-0.4-1.4-1-2.8-1.5-4.2
			c-0.1-0.4-0.3-0.8-0.5-1.1c-0.2-0.7-0.5-1.3-0.7-2c-0.2-0.6-0.4-1.2-0.7-1.8c-0.3-0.6-0.5-1.2-0.7-1.8c-0.2-0.6-0.4-1.2-0.7-1.8
			c-0.5-1.5-1.1-3-1.6-4.5c-0.3-0.9-0.5-1.8-1-2.7c-0.2-0.9-0.6-1.7-0.9-2.5c-0.2-0.6-0.3-1.2-0.6-1.8c-0.3-0.6-0.5-1.2-0.7-1.8
			c-0.2-0.6-0.5-1.2-0.7-1.8c-0.2-0.5-0.4-1-0.5-1.5c-0.2-0.6-0.4-1.2-0.6-1.8c-0.1-0.2-0.2-0.4-0.3-0.7c-0.4-1.7-1.2-3.3-1.7-5
			c-0.2-0.7-0.5-1.3-0.7-2c-0.2-0.5-0.4-1-0.5-1.5c0-0.2-0.1-0.3-0.2-0.5c-0.6-1.6-1.1-3.2-1.7-4.8c-0.2-0.7-0.6-1.4-0.8-2.1
			c-0.2-0.7-0.4-1.3-0.7-2c-0.2-0.6-0.4-1.1-0.6-1.7c-0.3-0.8-0.5-1.7-0.8-2.5c-0.3-0.8-0.5-1.7-0.9-2.5c-1-3.1-2.1-6.1-3.1-9.2
			c-0.3-0.9-0.5-1.8-0.8-2.7c-0.5-1.6-1-3.3-1.5-4.9c-0.1-0.3-0.3-0.6-0.4-1C1095,290.8,1095,290.7,1095,290.6z"/>
		<path fill="#0082CA" d="M693.4,54.5c0-0.4,0.4-1,0.8-1.1c1-0.2,1.9-0.6,2.8-0.9c0.2-0.1,0.4-0.1,0.6-0.2c0.8-0.5,1.8-0.5,2.6-0.9
			c0.5,0,0.9-0.1,1.4-0.3c0.1,0,0.3,0,0.4,0c0.5,0.1,0.9-0.1,1.3-0.4c0.3-0.2,0.7-0.4,1.1-0.5c0.5-0.1,0.9-0.2,1.3-0.5
			c0.6-0.3,1.2-0.5,1.9-0.6c0.5-0.1,0.9-0.2,1.4-0.3c0.1,0,0.3-0.1,0.4-0.1c0.2-0.1,0.4-0.3,0.7-0.4c0.2,0,0.4-0.1,0.6-0.2
			c0.5-0.2,1-0.4,1.5-0.5c0.6-0.1,1.2-0.3,1.7-0.5c0.4-0.2,0.9-0.3,1.3-0.4c1-0.3,1.9-0.5,2.9-0.7c0.3-0.1,0.7,0.1,0.9,0.3
			c0.1,0.1,0.2,0.3,0.3,0.5c0.2,0.5,0.4,1.1,0.7,1.6c0.1,0.6,0.4,1.1,0.7,1.6c0.5,1.1,1,2.3,1.5,3.4c0.4,0.8,0.7,1.6,1,2.5
			c0.3,0.7,0.6,1.3,0.8,2c0.2,0.6,0.4,1.2,0.6,1.8c0.1,0.2,0.1,0.3,0.2,0.5c0.3,0.8,0.6,1.5,0.9,2.3c0.1,0.8,0.6,1.6,0.8,2.3
			c0.1,0.5,0.5,0.9,0.6,1.5c0.3,0.5,0.3,1,0.5,1.5c0.2,0.5,0.4,1,0.6,1.5c0.2,0.5,0.4,1,0.6,1.5c0.6,1.4,1.1,2.9,1.7,4.3
			c0.2,0.5,0.5,1.1,0.6,1.7c0.1,0.3,0.2,0.6,0.3,0.8c0.7,1.2,1,2.5,1.5,3.8c0.1,0.3,0.3,0.7,0.4,1c0.2,0.6,0.5,1.1,0.6,1.6
			c0.1,0.4,0.3,0.8,0.5,1.1c0.2,0.3,0.3,0.6,0.5,1c0.1,0.2,0.1,0.5,0.2,0.7c0.5,0.9,0.7,1.9,1.2,2.8c0.1,0.3,0.3,0.5,0.4,0.8
			c0.1,0.3,0.2,0.6,0.3,0.8c0.4,0.7,0.6,1.4,1,2.1c0.6,1,1,2,1.4,3.1c0.2,0.4,0.5,0.8,0.7,1.2c0.2,0.4,0.3,0.9,0.5,1.3
			c1.3,2.4,2.3,4.8,3.3,7.3c0.1,0.2,0.2,0.4,0.3,0.7c0.3,0.6,0.7,1.1,0.9,1.8c0.2,0.6,0.5,1.2,0.7,1.8c0.5,1.4,1.2,2.7,1.8,4.1
			c0.5,1.2,1.1,2.4,1.6,3.6c0.1,0.3,0.3,0.6,0.5,1c0.2,0.3,0.3,0.6,0.5,1c0.5,1,0.9,1.9,1.3,2.9c0.2,0.7,0.5,1.3,0.9,1.9
			c0.3,0.4,0.4,0.8,0.6,1.3c0.2,0.8,0.5,1.7,0.9,2.5c0.1,0.2,0.2,0.4,0.3,0.7c0.1,0.3,0.2,0.7,0.4,1c0.6,1.1,0.9,2.2,1.4,3.3
			c0.5,1,1,2,1.4,3.1c0.2,0.4,0.4,0.9,0.5,1.3c0.1,0.3,0.2,0.7,0.5,1c0.1,0.2,0.2,0.4,0.3,0.6c0.3,0.8,0.7,1.6,1,2.4
			c0.3,0.5,0.5,1.1,0.7,1.6c0.1,0.5,0.3,0.9,0.6,1.3c0.1,0.2,0.2,0.4,0.3,0.6c0.2,0.4,0.3,0.9,0.5,1.3c0.2,0.4,0.4,0.9,0.6,1.3
			c0.3,0.7,0.5,1.3,0.8,2c0.5,1.3,1.2,2.6,1.7,3.9c0.1,0.4,0.3,0.8,0.5,1.1c0.1,0.2,0.2,0.4,0.2,0.7c0.1,0.5,0.3,1,0.5,1.5
			c0.7,1.4,1.3,2.9,1.9,4.4c0.2,0.4,0.4,0.9,0.6,1.3c0.1,0.3,0.2,0.6,0.2,0.9c0,0.1-0.2,0.4-0.3,0.4c-1.2,0.4-2.4,0.8-3.6,1.1
			c-1.5,0.4-2.9,0.9-4.4,1.3c-1.4,0.4-2.8,0.8-4.1,1.3c-0.2,0.1-0.4,0.1-0.6,0.2c-1.6,0.4-3.2,0.9-4.7,1.5c-0.1,0-0.2,0.1-0.4,0.1
			c-1.4,0.3-2.7,0.7-4,1.1c-0.8,0.1-1.5,0.5-2.3,0.7c-0.7,0.2-1.4,0.4-2.1,0.7c-0.1,0-0.4,0-0.5-0.2c-0.1-0.1-0.2-0.2-0.2-0.3
			c-0.1-0.2-0.2-0.4-0.3-0.6c-0.3-0.8-0.6-1.7-0.9-2.5c-0.2-0.9-0.7-1.8-1-2.7c-0.3-0.9-0.7-1.8-1-2.6c-0.9-2.1-1.7-4.3-2.5-6.4
			c-0.3-0.7-0.6-1.4-0.9-2.1c-0.3-0.6-0.6-1.3-0.7-2c0-0.2-0.1-0.3-0.2-0.5c-0.4-1-0.8-2-1.3-2.9c-0.2-0.4-0.3-0.8-0.5-1.2
			c-0.2-0.4-0.4-0.7-0.5-1.1c-0.1-0.4-0.3-0.8-0.4-1.2c-0.3-0.9-0.7-1.8-1.1-2.6c-0.5-1.1-0.9-2.2-1.3-3.3c-0.1-0.3-0.3-0.7-0.4-1
			c-0.7-1.6-1.4-3.2-1.9-4.8c-0.2-0.4-0.4-0.9-0.6-1.3c-0.2-0.4-0.3-0.9-0.5-1.3c-0.2-0.5-0.5-1.1-0.6-1.7c-0.1-0.5-0.4-0.8-0.5-1.3
			c-0.1-0.4-0.3-0.8-0.5-1.1c-0.1-0.3-0.2-0.6-0.3-0.8c-0.3-0.5-0.4-1.1-0.7-1.6c-0.3-0.5-0.4-1-0.6-1.5c-0.4-0.8-0.7-1.5-1-2.3
			c-0.3-0.7-0.5-1.3-0.9-1.9c-0.4-1-0.8-2-1.2-3c-0.2-0.7-0.5-1.3-0.8-2c-0.3-0.7-0.6-1.3-0.8-2c0-0.2-0.1-0.3-0.2-0.5
			c-0.6-1.1-0.9-2.2-1.5-3.2c-0.1-0.2-0.2-0.3-0.2-0.5c-0.1-0.4-0.3-0.8-0.4-1.2c-0.1-0.3-0.4-0.6-0.4-1c0-0.2-0.1-0.4-0.3-0.7
			c-0.1-0.1-0.2-0.3-0.3-0.5c-0.5-1.4-1.3-2.7-1.7-4.1c-0.1-0.3-0.3-0.5-0.4-0.8c-0.1-0.2-0.2-0.4-0.2-0.7c0-0.5-0.2-1-0.5-1.5
			c-0.3-0.8-0.7-1.5-0.9-2.3c-0.1-0.4-0.3-0.8-0.5-1.1c-0.1-0.1-0.1-0.2-0.1-0.3c-0.1-0.6-0.3-1.1-0.6-1.7c-0.3-0.5-0.4-1.1-0.7-1.6
			c-0.2-0.3-0.2-0.7-0.4-1c-0.1-0.3-0.3-0.6-0.4-1c-0.1-0.3-0.3-0.7-0.3-1c-0.1-0.4-0.3-0.8-0.5-1.2c-0.2-0.4-0.4-0.7-0.5-1.1
			c-0.2-0.6-0.4-1.2-0.7-1.8c-0.3-0.5-0.3-1-0.6-1.5c-0.2-0.5-0.5-1-0.6-1.5c-0.1-0.3-0.2-0.7-0.4-1c-0.4-0.7-0.7-1.4-0.9-2.1
			c-0.1-0.3-0.2-0.6-0.3-0.8c-0.2-0.3-0.3-0.6-0.4-1c-0.1-0.5-0.3-0.9-0.5-1.3c-0.3-0.5-0.5-0.9-0.6-1.5c0-0.2-0.1-0.3-0.2-0.5
			c-0.3-0.6-0.5-1.3-0.9-2c-0.3-0.6-0.5-1.3-0.8-2c-0.2-0.6-0.5-1.2-0.8-1.8c-0.3-0.6-0.5-1.2-0.8-1.8c-0.3-0.4-0.4-0.9-0.5-1.3
			c-0.1-0.3-0.2-0.7-0.4-1c-0.2-0.4-0.3-0.8-0.6-1.1c-0.2-0.2-0.4-0.5-0.4-0.8c0-0.4-0.1-0.7-0.3-1c-0.5-0.8-0.8-1.7-1.1-2.6
			c-0.2-0.6-0.4-1.1-0.7-1.6c-0.2-0.4-0.3-0.8-0.5-1.1C693.4,54.7,693.5,54.6,693.4,54.5z"/>
		<path fill="#FF4338" d="M701.2,362.2c0,0,0-0.2,0.1-0.4c0.1-0.2,0.2-0.4,0.3-0.6c0.2-0.4,0.6-0.6,0.7-1c0.2-0.7,0.7-1.3,0.9-1.9
			c0.1-0.3,0.3-0.5,0.5-0.8c0.1-0.1,0.2-0.3,0.2-0.5c0-0.4,0.4-0.7,0.5-1.1c0.6-0.8,1-1.7,1.4-2.5c0.5-1,0.9-2,1.6-3
			c0.3-0.5,0.5-1.1,0.8-1.6c0.4-0.8,0.8-1.5,1.1-2.3c0.1-0.2,0.2-0.4,0.3-0.6c1.5-2.5,2.8-5.2,4-7.8c0.1-0.2,0.1-0.3,0.2-0.5
			c0.7-0.9,1.1-1.9,1.7-2.8c0.1-0.1,0.2-0.3,0.2-0.5c0.2-0.7,0.5-1.5,1-2.1c0.2-0.5,0.6-1.1,1-1.5c0.1-0.1,0.1-0.2,0.2-0.3
			c0.3-0.8,0.7-1.5,1.1-2.2c0.3-0.6,0.6-1.3,1-1.9c0.4-0.6,0.6-1.2,0.9-1.7c0.5-0.8,0.9-1.5,1.3-2.4c0.2-0.4,0.6-0.8,0.7-1.2
			c0.1-0.4,0.4-0.7,0.6-1.1c0.2-0.4,0.4-0.9,0.6-1.3c0.4-0.7,0.7-1.4,1.1-2.1c0.2-0.4,0.4-0.9,0.7-1.3c0.2-0.3,0.5-0.7,0.6-1.1
			c0.4-0.9,0.9-1.8,1.4-2.7c0.2-0.3,0.5-0.6,0.6-0.9c0.1-0.4,0.3-0.6,0.5-1c0.1-0.1,0.1-0.3,0.2-0.5c0.1-0.4,0.3-0.8,0.5-1.1
			c0.1-0.3,0.3-0.6,0.6-0.9c0.2-0.2,0.3-0.5,0.5-0.8c0.1-0.2,0.2-0.4,0.3-0.6c0.3-0.7,0.7-1.4,1-2.1c0.2-0.6,0.4-1.1,0.8-1.6
			c0.3-0.5,0.5-1,0.8-1.4c0.4-0.7,0.8-1.3,1.2-2c0.4-0.6,0.7-1.2,1-1.9c0.3-0.8,0.7-1.5,1.2-2.2c0.1-0.1,0.1-0.3,0.2-0.5
			c0-0.2,0.1-0.4,0.2-0.5c0.3-0.3,0.5-0.6,0.7-1c0.6-1.3,1.2-2.6,2-3.8c0.1-0.1,0.1-0.2,0.2-0.3c0.2-0.7,0.6-1.4,1.1-2.1
			c0.2-0.5,0.5-1,0.7-1.4c0.2-0.5,0.4-1.1,0.8-1.6c0.1-0.2,0.2-0.4,0.3-0.6c0.1-0.3,0.2-0.5,0.4-0.8c0.4-0.6,0.8-1.2,1.1-1.8
			c0.2-0.4,0.5-0.8,0.6-1.3c0.3-0.7,0.6-1.3,1-1.9c0.3-0.5,0.6-1,0.8-1.6c0.1-0.3,0.2-0.5,0.4-0.8c0.4-0.7,0.8-1.4,1.1-2.1
			c0.1-0.2,0.1-0.5,0.3-0.6c0.4-0.5,0.6-1.2,0.9-1.7c0.5-0.8,1-1.7,1.4-2.5c0.1-0.3,0.2-0.5,0.4-0.8c0.3-0.5,0.7-1,0.9-1.6
			c0.2-0.6,0.6-1.2,0.9-1.8c0.3-0.5,0.6-1.1,0.8-1.6c0.1-0.2,0.3-0.4,0.3-0.6c0.2-0.6,0.6-1.2,0.8-1.8c0.2-0.5,0.6-1,0.9-1.6
			c0.2-0.4,0.5-0.8,0.7-1.3c0.1-0.4,0.4-0.7,0.5-1.1c0.1-0.3,0.3-0.6,0.6-0.9c0.2-0.3,0.7-0.4,1.1-0.3c0.8,0.4,1.8,0.6,2.6,0.9
			c0.8,0.3,1.6,0.5,2.4,0.8c0.8,0.3,1.6,0.5,2.4,0.9c0.1,0,0.1,0,0.2,0.1c1,0.2,2,0.6,3,1c0.1,0,0.3,0.1,0.4,0.1
			c0.7,0,1.2,0.4,1.8,0.6c0.2,0.1,0.5,0.2,0.7,0.3c0.7,0.1,1.2,0.4,1.8,0.7c0.5,0.2,1,0.4,1.5,0.5c0.7,0.2,1.4,0.5,2,0.7
			c0.4,0.2,0.8,0.4,1.2,0.6c0.2,0.1,0.2,0.3,0.2,0.5c0,0.4-0.1,0.7-0.2,1c-0.2,0.4-0.4,0.9-0.6,1.3c-0.2,0.4-0.5,0.8-0.5,1.3
			c-0.5,1.2-1.1,2.4-1.6,3.6c-0.3,0.3-0.4,0.7-0.5,1.1c-0.3,0.8-0.7,1.6-1.1,2.4c-0.5,1-1,2-1.4,3.1c-0.5,1.2-1.1,2.4-1.6,3.6
			c-0.3,0.8-0.8,1.5-1,2.3c0,0.1-0.1,0.2-0.2,0.3c-0.3,0.4-0.5,0.9-0.7,1.4c-0.2,0.5-0.4,1.1-0.7,1.6c-0.2,0.4-0.4,0.7-0.6,1.1
			c-0.2,0.3-0.2,0.7-0.4,1c-0.4,0.7-0.7,1.4-1,2.1c-0.1,0.3-0.3,0.6-0.4,1c-0.3,0.6-0.6,1.2-0.8,1.8c-0.2,0.5-0.6,1-0.7,1.6
			c0,0.2-0.2,0.4-0.3,0.6c-0.3,0.5-0.6,1.1-0.8,1.6c-0.2,0.3-0.3,0.6-0.4,1c-0.1,0.3-0.2,0.5-0.4,0.8c-0.5,0.9-0.9,1.8-1.3,2.7
			c-0.3,0.7-0.5,1.4-0.9,2.1c-0.1,0.2-0.2,0.4-0.2,0.7c0,0.2-0.1,0.3-0.2,0.5c-0.3,0.3-0.5,0.7-0.6,1.1c-0.3,0.7-0.6,1.3-0.9,1.9
			c-0.4,0.7-0.6,1.5-1.1,2.3c-0.4,0.7-0.7,1.4-1.1,2.1c-0.7,1.5-1.5,3-2.2,4.5c-0.5,1.1-1.2,2.2-1.7,3.3c-0.4,0.6-0.5,1.2-0.9,1.8
			c-0.3,0.6-0.6,1.2-0.8,1.8c-0.2,0.5-0.5,1-0.7,1.4c-0.3,0.5-0.5,0.9-0.6,1.5c0,0.2-0.1,0.3-0.2,0.5c-0.3,0.4-0.5,0.9-0.6,1.5
			c0,0.3-0.2,0.5-0.4,0.8c-0.1,0.1-0.1,0.2-0.1,0.3c0,0.3-0.1,0.6-0.4,0.8c-0.3,0.2-0.5,0.6-0.7,0.9c-0.2,0.8-0.8,1.5-1,2.3
			c-0.4,0.6-0.6,1.1-0.8,1.8c0,0.2-0.2,0.3-0.3,0.5c-0.2,0.3-0.3,0.6-0.4,1c0,0.2-0.2,0.4-0.4,0.6c-0.2,0.2-0.3,0.4-0.4,0.6
			c-0.4,1-0.9,1.9-1.3,2.9c-0.2,0.5-0.5,1.1-0.7,1.6c-0.1,0.2-0.2,0.4-0.3,0.6c-0.1,0.1-0.2,0.2-0.2,0.3c-0.7,1.6-1.7,3.2-2.3,4.8
			c-0.2,0.4-0.4,0.9-0.6,1.3c-0.2,0.4-0.4,0.7-0.5,1.1c0,0.2-0.1,0.3-0.2,0.5c-0.8,1.1-1.1,2.4-1.8,3.5c-0.1,0.2-0.1,0.3-0.2,0.5
			c-0.1,0.2-0.2,0.4-0.3,0.7c-1.8,3.2-1.8,3.4-2.8,5.6c-0.1,0.2-0.1,0.3-0.2,0.5c-0.7,1.3-1.3,2.7-2,4c-0.3,0.5-0.4,1-0.6,1.5
			c-0.3,0.7-0.5,1.3-1,1.9c-0.2,0.2-0.3,0.5-0.3,0.8c0,0.2,0,0.4-0.1,0.5c-0.7,1-1.3,2.2-1.8,3.3c-0.1,0.2-0.3,0.4-0.4,0.6
			c-0.1,0.2-0.5,0.3-0.7,0.2c-0.2-0.1-0.4-0.1-0.5-0.2c-1-0.5-2.1-1-3.2-1.4c-0.2-0.1-0.5-0.2-0.7-0.3c-1.3-0.6-1.7-0.8-3.3-1.3
			c-0.3-0.1-0.6-0.2-0.9-0.4c-0.7-0.3-1.4-0.7-2.1-0.9c-0.4-0.1-0.8-0.4-1.2-0.6c-0.4-0.2-0.8-0.4-1.3-0.4c-0.4,0-0.6-0.2-0.9-0.4
			c-0.1-0.1-0.3-0.2-0.5-0.3c-0.5-0.1-0.9-0.3-1.3-0.5c-1.5-0.7-3-1.5-4.7-2c-0.5-0.2-1-0.4-1.5-0.5c-0.7-0.2-1.3-0.6-2-0.8
			c-0.3-0.1-0.4-0.3-0.4-0.5C701.2,362.4,701.2,362.4,701.2,362.2z"/>
	</g>
	<g>
		<g>
			<path fill="#00A887" d="M69.2,290.5C69.2,290.5,69.2,290.5,69.2,290.5C69.2,290.5,69.2,290.5,69.2,290.5c0-0.1,0-0.1,0-0.1
				c0,0,0,0,0,0c0.1-0.1,0.1-0.1,0.1-0.2c0,0,0-0.1,0-0.1c0,0,0,0,0,0c0,0,0-0.1,0-0.1c0,0,0-0.1,0.1-0.1c0,0,0-0.1,0-0.1
				c0,0,0,0,0-0.1c0,0,0,0,0-0.1c0,0,0-0.1,0-0.1c0-0.1,0.1-0.1,0.1-0.2c0,0,0,0,0-0.1c0-0.1,0.1-0.1,0.1-0.2c0,0,0,0,0,0
				c0,0,0-0.1,0-0.1c0,0,0-0.1,0-0.1c0,0,0-0.1,0-0.1c0,0,0,0,0-0.1c0,0,0-0.1,0-0.1c0,0,0,0,0,0c0,0,0.1-0.1,0.1-0.1c0,0,0,0,0,0
				c0,0,0,0,0-0.1c0,0,0,0,0,0c0,0,0,0,0,0c0,0,0-0.1,0-0.1c0,0,0,0,0,0c0,0,0.1-0.1,0.1-0.2c0,0,0-0.1,0-0.1c0,0,0-0.1,0-0.1
				c0,0,0,0,0,0c0,0,0.1-0.1,0.1-0.1c0,0,0,0,0-0.1c0.1,0,0.1-0.1,0.1-0.2c0,0,0,0,0-0.1c0,0,0,0,0,0c0,0,0-0.1,0-0.1c0,0,0,0,0,0
				c0,0,0-0.1,0-0.1c0,0,0,0,0,0c0,0,0-0.1,0-0.1c0,0,0.1-0.1,0-0.1c0,0,0,0,0,0c0.1-0.1,0.1-0.1,0.1-0.2c0-0.1,0.1-0.1,0.1-0.2
				c0,0,0,0,0.1-0.1c0,0,0,0,0,0c0,0,0,0,0-0.1c0,0,0.1-0.1,0.1-0.1c0,0,0,0,0,0c0,0,0-0.1,0-0.1c0,0,0,0,0,0c0,0,0,0,0-0.1
				c0,0,0,0,0,0c0-0.1,0.1-0.1,0.1-0.2c0,0,0,0,0-0.1c0-0.1,0-0.1,0.1-0.2c0,0,0,0,0-0.1c0-0.1,0.1-0.1,0.1-0.2c0,0,0,0,0-0.1
				c0,0,0-0.1,0.1-0.1c0,0,0.1-0.1,0.1-0.1c0,0,0,0,0,0c0,0,0,0,0,0c0,0,0,0,0,0c0,0,0.1-0.1,0.1-0.2c0,0,0,0,0,0c0,0,0,0,0,0
				c0,0,0-0.1,0-0.1c0,0,0-0.1,0-0.1c0,0,0-0.1,0.1-0.1c0,0,0,0,0,0c0-0.1,0.1-0.1,0.1-0.2c0,0,0,0,0,0c0,0,0.1-0.1,0.1-0.1
				c0,0,0.1-0.1,0.1-0.1c0,0,0.1-0.1,0.1-0.1c0,0,0.1,0,0.1-0.1c0,0,0-0.1,0-0.1c0,0,0,0,0,0c0,0,0.1-0.1,0.1-0.1c0,0,0,0,0,0
				c0,0,0.1-0.1,0.1-0.1c0,0,0,0,0-0.1c0,0,0,0,0-0.1c0,0,0-0.1,0.1-0.1c0,0,0.1,0,0.1-0.1c0,0,0.1-0.1,0.1-0.1
				c0.1,0,0.1-0.1,0.1-0.2c0,0,0,0,0-0.1c0,0,0,0,0,0c0,0,0.1-0.1,0.1-0.1c0,0,0,0,0.1-0.1c0.1-0.1,0.1-0.1,0.2-0.2
				c0,0,0.1-0.1,0.1-0.1c0,0,0,0,0.1-0.1c0,0,0.1-0.1,0.1-0.1c0,0,0,0,0-0.1c0.1-0.1,0.1-0.1,0.2-0.2c0,0,0,0,0,0
				c0.1-0.1,0.2-0.2,0.2-0.2c0,0,0,0,0,0c0,0,0.1-0.1,0.1-0.1c0,0,0,0,0,0c0-0.1,0.1-0.1,0.1-0.1c0,0,0.1-0.1,0.1-0.1
				c0,0,0.1,0,0.1-0.1c0,0,0,0,0,0c0,0,0-0.1,0.1-0.1c0,0,0,0,0,0c0,0,0,0,0-0.1c0,0,0,0,0.1-0.1c0,0,0-0.1,0.1-0.1
				c0.1-0.1,0.2-0.2,0.3-0.3c0,0,0.1,0,0.1-0.1c0,0,0.1-0.1,0.1-0.1c0,0,0,0,0,0c0.1-0.1,0.1-0.1,0.1-0.1c0,0,0.1,0,0.1-0.1
				c0,0,0,0,0,0c0,0,0.1-0.1,0.1-0.1c0,0,0,0,0,0c0,0,0,0,0,0c0,0,0,0,0,0c0,0,0.1-0.1,0.1-0.1c0,0,0.1-0.1,0.1-0.1
				c0,0,0.1-0.1,0.1-0.1c0,0,0.1-0.1,0.1-0.1c0,0,0.1-0.1,0.1-0.1c0,0,0,0,0,0c0,0,0.1-0.1,0.1-0.1c0,0,0.1,0,0.1-0.1
				c0,0,0.1,0,0.1,0c0,0,0,0,0,0c0,0,0,0,0.1,0c0,0,0.1-0.1,0.1-0.1c0,0,0,0,0.1,0c0,0,0.1,0,0.1,0c0,0,0,0,0,0c0,0,0.1,0,0.1,0
				c0,0,0.1,0,0.1,0c0,0,0,0,0,0c0,0,0.1,0,0.1,0c0,0,0,0,0,0c0.1,0,0.1,0,0.1,0c0,0,0.1,0,0.1,0c0,0,0.1,0,0.1,0
				c0.1-0.1,0.2-0.1,0.3-0.1c0,0,0,0,0,0c0,0,0.1,0,0.1,0c0,0,0.1,0,0.1-0.1c0,0,0.1,0,0.1,0c0,0,0.1,0,0.1,0c0.1,0,0.1-0.1,0.2-0.1
				c0.1,0,0.2-0.1,0.3-0.1c0,0,0.1,0,0.1-0.1c0,0,0.1,0,0.1-0.1c0,0,0.1,0,0.1,0c0,0,0.1,0,0.1,0c0.1,0,0.1,0,0.2,0
				c0.1,0,0.2,0,0.2-0.1c0,0,0,0,0,0c0.1,0,0.1,0,0.2-0.1c0,0,0.1,0,0.1,0c0,0,0,0,0,0c0,0,0.1,0,0.1-0.1c0,0,0.1,0,0.1,0
				c0,0,0.1,0,0.1,0c0,0,0.1,0,0.1,0c0,0,0,0,0-0.1c0,0,0,0,0,0c0.1,0,0.1,0,0.2,0c0,0,0,0,0,0c0,0,0,0,0,0c0.1,0,0.1,0,0.2,0
				c0,0,0,0,0.1,0c0,0,0,0,0.1,0c0,0,0.1,0,0.1,0c0,0,0,0,0,0c0.1,0,0.1,0,0.2,0c0,0,0,0,0,0c0.1,0,0.1,0,0.2,0c0,0,0,0,0,0
				c0.1,0,0.1,0,0.2,0c0.1,0,0.1,0,0.2,0c0,0,0,0,0.1,0c0.1,0,0.2,0,0.3,0c0,0,0.1,0,0.1,0c0,0,0,0,0.1,0c0.1,0,0.1,0,0.2,0
				c0,0,0.1,0,0.1,0c0,0,0,0,0,0c0.1,0,0.1,0,0.2,0c0,0,0,0,0.1,0c0.3,0,0.6,0,0.9,0c0,0,0,0,0,0c0.1,0,0.2,0,0.2,0c0,0,0.1,0,0.1,0
				c0,0,0.1,0,0.1,0c0.1,0,0.2,0,0.3,0c0,0,0.1,0,0.1,0c0,0,0.1,0,0.1,0c0,0,0.1,0,0.1,0c0,0,0,0,0,0c0.1,0,0.2,0,0.2,0
				c0,0,0.1,0,0.1,0c0,0,0.1,0,0.1,0c0,0,0.1,0,0.1,0c0,0,0.1,0,0.1,0c0,0,0.1,0,0.1,0c0,0,0,0,0.1,0c0,0,0.1,0,0.1,0
				c0,0,0.1,0,0.1,0c0,0,0.1,0,0.1,0c0,0,0.1,0,0.1,0c0.1,0,0.2,0,0.2,0c0,0,0.1,0,0.2,0c0,0,0.1,0,0.1,0c0,0,0.1,0,0.1,0
				c0,0,0,0,0.1,0c0,0,0,0,0.1,0c0,0,0,0,0,0c0.1,0,0.1,0,0.2,0c0.1,0,0.2,0,0.3,0.1c0,0,0,0,0,0c0.1,0,0.1,0,0.1,0c0,0,0.1,0,0.1,0
				c0,0,0.1,0,0.1,0c0,0,0,0,0.1,0c0,0,0,0,0.1,0c0,0,0,0,0.1,0c0,0,0.1,0,0.1,0c0,0,0,0,0,0c0,0,0.1,0,0.1,0c0,0,0,0,0,0
				c0.1,0,0.1,0,0.2,0.1c0.1,0,0.1,0,0.2,0.1c0.1,0,0.1,0,0.1,0c0,0,0,0,0.1,0c0,0,0.1,0,0.1,0c0,0,0.1,0,0.1,0c0,0,0,0,0,0
				c0,0,0.1,0,0.1,0.1c0,0,0.1,0,0.1,0c0,0,0.1,0,0.1,0c0,0,0.1,0,0.1,0c0,0,0,0,0.1,0c0,0,0,0,0,0c0,0,0,0,0,0
				c0.1,0,0.2,0.1,0.3,0.1c0.1,0,0.1,0,0.2,0.1c0,0,0.1,0,0.1,0c0,0,0.1,0,0.1,0.1c0,0,0,0,0,0c0.1,0,0.1,0.1,0.2,0.1
				c0,0,0.1,0,0.1,0.1c0,0,0.1,0.1,0.1,0c0,0,0.1,0,0.1,0c0,0,0.1,0,0.1,0c0,0,0.1,0,0.1,0c0,0,0,0,0,0c0,0.1,0,0.1,0.1,0.1
				c0,0,0.1,0.1,0.1,0.1c0,0,0.1,0,0.1,0.1c0,0,0,0,0,0c0,0,0,0,0,0c0,0,0,0,0.1,0c0,0,0.1,0,0.1,0.1c0,0,0.1,0.1,0.1,0.1
				c0,0,0,0,0,0c0,0,0.1,0,0.1,0.1c0,0,0.1,0.1,0.1,0.1c0,0,0.1,0,0.1,0.1c0.1,0.1,0.2,0.1,0.2,0.2c0,0,0,0,0,0c0,0,0.1,0,0.1,0.1
				c0,0,0.1,0,0.1,0.1c0,0,0,0,0.1,0.1c0,0,0.1,0,0.1,0.1c0,0,0.1,0,0.1,0.1c0,0,0,0,0,0c0,0,0.1,0,0.1,0.1c0,0.1,0.1,0.1,0.2,0.1
				c0,0,0,0,0,0c0.1,0.1,0.1,0.1,0.2,0.2c0,0,0,0,0.1,0.1c0,0,0.1,0,0.1,0.1c0,0,0,0,0.1,0c0,0,0,0,0.1,0c0.1,0.1,0.1,0.1,0.2,0.2
				c0,0,0,0,0.1,0.1c0.1,0,0.1,0.1,0.1,0.1c0,0,0,0,0.1,0.1c0,0,0.1,0,0.1,0.1c0,0,0,0,0,0c0,0,0.1,0,0.1,0.1c0,0,0.1,0,0.1,0.1
				c0,0,0,0,0,0c0,0,0.1,0,0.1,0c0,0,0.1,0.1,0.1,0.1c0,0,0,0,0,0c0,0.1,0.1,0.1,0.2,0.1c0,0,0.1,0.1,0.1,0.1c0,0,0.1,0.1,0.1,0.1
				c0,0,0,0,0,0c0,0,0.1,0.1,0.1,0.1c0,0,0,0,0.1,0.1c0,0,0.1,0.1,0.1,0.1c0,0,0.1,0.1,0.1,0.1c0,0,0.1,0,0.1,0.1c0,0,0.1,0,0.1,0.1
				c0.1,0,0.1,0.1,0.2,0.1c0,0,0,0,0.1,0c0,0,0,0,0,0c0,0,0,0,0,0.1c0,0,0.1,0,0.1,0.1c0,0,0.1,0,0.1,0c0,0,0.1,0.1,0.1,0.1
				c0,0,0.1,0.1,0.1,0.1c0,0,0,0,0.1,0c0,0,0.1,0,0.1,0.1c0.1,0.1,0.1,0.1,0.2,0.2c0,0,0,0,0,0c0,0,0,0,0.1,0.1c0,0,0,0,0.1,0
				c0,0,0,0,0,0c0,0.1,0.1,0.1,0.1,0.1c0,0,0,0,0,0c0,0,0.1,0.1,0.1,0.1c0,0,0,0,0,0c0.1,0,0.1,0.1,0.2,0.1c0,0,0,0,0,0
				c0.1,0,0.1,0.1,0.1,0.1c0,0,0,0,0.1,0.1c0,0,0,0,0.1,0.1c0,0,0.1,0,0.1,0.1c0,0,0,0,0.1,0c0,0,0.1,0.1,0.1,0.1
				c0,0.1,0,0.1,0.1,0.2c0,0,0,0,0.1,0.1c0,0,0,0,0,0c0.1,0,0.1,0.1,0.1,0.2c0,0,0,0,0,0.1c0,0,0.1,0.1,0.1,0.1c0,0,0,0.1,0.1,0.1
				c0,0,0,0,0,0.1c0,0,0,0.1,0,0.1c0,0,0,0.1,0.1,0.1c0,0,0,0.1,0.1,0.1c0,0,0,0,0,0.1c0,0.1,0.1,0.1,0.1,0.2c0,0,0,0,0,0.1
				c0,0,0,0.1,0.1,0.1c0,0,0,0,0,0.1c0,0,0,0,0,0.1c0,0,0,0,0.1,0.1c0,0,0,0,0,0.1c0,0,0,0,0,0c0,0.1,0.1,0.1,0.1,0.2
				c0,0,0.1,0.1,0.1,0.1c0,0.1,0,0.1,0.1,0.2c0,0,0,0.1,0.1,0.1c0,0,0,0,0,0.1c0.1,0,0.1,0.1,0.1,0.1c0,0,0,0,0,0.1c0,0,0,0.1,0,0.1
				c0,0,0.1,0.1,0.1,0.1c0,0.1,0,0.1,0.1,0.1c0,0,0,0.1,0.1,0.1c0,0,0,0.1,0,0.1c0,0,0,0,0.1,0.1c0,0,0,0,0,0c0,0.1,0.1,0.2,0.1,0.2
				c0,0,0,0,0,0c0,0,0,0.1,0,0.1c0,0,0,0.1,0.1,0.1c0,0,0,0,0,0.1c0,0,0,0.1,0,0.1c0,0,0,0,0,0.1c0,0,0,0.1,0,0.1c0,0,0,0,0,0
				c0,0,0,0,0,0.1c0,0.1,0.1,0.1,0.1,0.2c0,0,0,0,0,0c0,0.1,0,0.1,0.1,0.2c0,0,0,0,0,0c0,0,0,0,0,0.1c0,0,0.1,0.1,0.1,0.1
				c0,0,0.1,0.1,0.1,0.2c0,0,0,0,0,0c0,0,0.1,0.1,0.1,0.2c0,0,0,0,0,0.1c0,0,0,0,0,0c0,0,0.1,0.1,0.1,0.1c0,0,0,0,0,0.1
				c0,0,0,0,0,0.1c0,0.1,0,0.1,0,0.2c0,0,0,0,0,0c0,0,0,0.1,0.1,0.1c0,0.1,0,0.1,0.1,0.2c0,0,0.1,0.1,0.1,0.1c0,0,0,0,0,0.1
				c0,0,0,0,0,0.1c0,0,0,0,0,0c0,0,0,0,0,0.1c0,0,0,0.1,0.1,0.1c0,0,0,0,0,0c0,0,0,0,0,0c0,0.1,0,0.1,0,0.2c0,0,0,0,0,0
				c0,0,0,0.1,0.1,0.1c0,0,0,0,0,0c0,0,0,0,0,0.1c0,0,0,0.1,0,0.1c0,0,0,0,0,0c0,0,0,0,0,0.1c0,0,0,0.1,0,0.1c0,0,0,0,0,0.1
				c0,0,0,0.1,0.1,0.1c0,0,0,0,0,0.1c0,0,0,0.1,0,0.1c0,0,0,0.1,0.1,0.1c0.1,0.1,0.1,0.2,0.1,0.2c0,0.1,0,0.1,0.1,0.2
				c0,0,0,0.1,0.1,0.1c0,0,0,0,0,0c0,0.1,0.1,0.1,0.1,0.2c0,0,0,0,0,0.1c0,0,0,0,0,0.1c0,0,0,0,0,0c0,0,0,0,0,0.1c0,0,0,0.1,0,0.1
				c0,0,0,0,0,0c0,0,0,0.1,0,0.1c0,0,0,0.1,0.1,0.1c0,0,0,0,0,0c0,0.1,0,0.1,0.1,0.2c0,0,0.1,0.1,0.1,0.1c0,0,0,0.1,0,0.1
				c0,0,0,0,0,0.1c0,0.1,0,0.1,0,0.2c0,0,0,0.1,0,0.1c0,0,0,0.1,0,0.1c0,0,0,0,0,0.1c0,0.1,0,0.1,0,0.2c0,0,0,0,0,0.1c0,0,0,0,0,0
				c0,0,0,0,0,0c0,0,0,0,0,0.1c0,0,0,0.1,0,0.1c0,0,0,0.1,0,0.1c0,0,0,0.1,0,0.1c0,0,0,0,0,0c0,0,0,0.1,0,0.1c0,0,0,0.1,0,0.1
				c0,0,0,0,0,0.1c0,0.1,0,0.2,0,0.3c0,0,0,0.1,0,0.1c0,0,0,0.1,0,0.1c0,0.2,0,0.3,0,0.5c0,0.1,0,0.1,0,0.2c0,0,0,0,0,0
				c0,0,0,0,0,0.1c0,0,0,0.1,0,0.1c0,0,0,0,0,0c0,0,0,0.1,0,0.1c0,0.2,0,0.3,0,0.5c0,0,0,0.1,0,0.1c0,0,0,0.1,0,0.1
				c0,0.1,0,0.1,0,0.2c0,0,0,0.1,0,0.1c0,0,0,0.1,0,0.1c0,0,0,0.1,0,0.1c0,0,0,0,0,0c0,0.1,0,0.1,0,0.2c0,0,0,0.1,0,0.1
				c0,0,0,0.1,0,0.1c0,0,0,0,0,0c0,0.1,0,0.1,0,0.2c0,0,0,0,0,0c0,0,0,0.1,0,0.1c0,0.1,0,0.2,0,0.3c0,0,0,0.1,0,0.1
				c0,0.1,0,0.1,0,0.2c0,0,0,0,0,0c0,0,0,0.1,0,0.1c0,0,0,0.1,0,0.1c0,0,0,0,0,0.1c0,0.1,0,0.2,0,0.3c0,0,0,0.1,0,0.1c0,0,0,0,0,0.1
				c0,0,0,0.1,0,0.1c0,0,0,0,0,0c0,0.1,0,0.2,0,0.2c0,0,0,0,0,0c0,0.1,0,0.2,0,0.2c0,0,0,0,0,0.1c0,0,0,0.1-0.1,0.1
				c0,0,0,0.1-0.1,0.1c0,0-0.1,0.1-0.1,0.1c0,0-0.1,0.1-0.1,0.1c0,0,0,0,0,0.1c0,0,0,0.1,0,0.1c0,0,0,0.1,0,0.1c0,0,0,0.1,0,0.1
				c0,0,0,0.1-0.1,0.1c0,0,0,0.1,0,0.1c0,0,0,0.1,0,0.1c0,0,0,0.1,0,0.1c0,0,0,0,0,0.1c0,0,0,0.1,0,0.1c0,0,0,0,0,0
				c0,0.1,0,0.1,0,0.1c0,0,0,0.1,0,0.1c0,0.1,0,0.1-0.1,0.2c0,0,0,0,0,0.1c0,0,0,0.1-0.1,0.1c0,0,0,0.1,0,0.1c0,0,0,0.1,0,0.1
				c0,0,0,0.1,0,0.1c0,0,0,0.1-0.1,0.1c0,0,0,0,0,0.1c0,0,0,0.1,0,0.1c0,0,0,0.1,0,0.1c0,0,0,0.1,0,0.1c0,0,0,0,0,0.1c0,0,0,0,0,0
				c0,0,0,0,0,0.1c0,0.1,0,0.1-0.1,0.2c0,0.1,0,0.1-0.1,0.2c0,0,0,0,0,0c0,0.1-0.1,0.2-0.1,0.2c0,0.1-0.1,0.2-0.1,0.3
				c0,0,0,0.1,0,0.1c0,0,0,0,0,0c0,0,0,0.1,0,0.1c0,0,0,0.1,0,0.1c0,0,0,0,0,0c0,0-0.1,0.1-0.1,0.1c0,0,0,0.1,0,0.1c0,0,0,0,0,0
				c0,0-0.1,0-0.1,0.1c0,0,0,0,0,0c0,0,0,0.1,0,0.1c0,0,0,0,0,0c0,0,0,0.1-0.1,0.1c0,0,0,0,0,0c0,0,0,0-0.1,0.1c0,0,0,0.1,0,0.1
				c0,0,0,0.1,0,0.1c0,0,0,0,0,0c0,0,0,0,0,0c0,0.1,0,0.1-0.1,0.1c0,0-0.1,0.1-0.1,0.1c0,0-0.1,0.1,0,0.1c0,0-0.1,0.1-0.1,0.1
				c0,0,0,0.1-0.1,0.1c0,0,0,0,0,0.1c0,0,0,0.1,0,0.1c0,0,0,0.1-0.1,0.1c0,0,0,0,0,0c0,0,0,0,0,0.1c0,0,0,0,0,0.1
				c0,0.1-0.1,0.1-0.1,0.2c0,0,0,0,0,0c0,0,0,0.1-0.1,0.1c0,0,0,0.1-0.1,0.1c0,0,0,0,0,0c0,0,0,0.1,0,0.1c0,0-0.1,0-0.1,0.1
				c0,0,0,0.1-0.1,0.1c0,0,0,0.1,0,0.1c0,0,0,0,0,0.1c0,0.1-0.1,0.1-0.1,0.2c0,0,0,0,0,0.1c0,0,0,0,0,0c0,0,0,0.1-0.1,0.1
				c0,0,0,0.1-0.1,0.1c0,0-0.1,0.1-0.1,0.1c0,0-0.1,0.1-0.1,0.1c0,0,0,0,0,0c0,0.1-0.1,0.1-0.1,0.2c0,0,0,0,0,0.1c0,0,0,0,0,0
				c0,0-0.1,0.1-0.1,0.1c0,0,0,0,0,0.1c0,0,0,0,0,0.1c0,0-0.1,0.1-0.1,0.1c0,0-0.1,0.1-0.1,0.1c0,0,0,0,0,0.1c0,0-0.1,0.1-0.1,0.1
				c0,0,0,0.1-0.1,0.1c0,0,0,0,0,0.1c0,0,0,0.1-0.1,0.1c0,0,0,0,0,0c0,0.1,0,0.1-0.1,0.1c0,0,0,0.1-0.1,0.1c0,0,0,0,0,0
				c0,0,0,0.1-0.1,0.1c0,0,0,0.1-0.1,0.1c0,0,0,0,0,0c0,0-0.1,0.1-0.1,0.1c0,0,0,0,0,0c-0.1,0.1-0.1,0.1-0.2,0.1c0,0-0.1,0-0.1,0.1
				c0,0-0.1,0-0.1,0.1c0,0-0.1,0.1-0.1,0.1c0,0,0,0,0,0c0,0.1-0.1,0.1-0.1,0.1c0,0,0,0,0,0c-0.1,0-0.1,0-0.1,0.1
				c-0.1,0.1-0.1,0.1-0.2,0.2c0,0,0,0,0,0.1c0,0,0,0-0.1,0c-0.1,0-0.1,0.1-0.2,0.1c-0.1,0.1-0.2,0.1-0.3,0.2c0,0-0.1,0.1-0.1,0.1
				c0,0-0.1,0.1-0.1,0.1c0,0-0.1,0.1-0.1,0.1c0,0,0,0-0.1,0c0,0-0.1,0-0.1,0.1c0,0,0,0-0.1,0c0,0-0.1,0-0.1,0.1c0,0,0,0,0,0
				c0,0-0.1,0.1-0.1,0.1c-0.1,0-0.1,0.1-0.1,0.1c0,0,0,0,0,0c0,0-0.1,0-0.1,0c-0.1,0-0.1,0-0.1,0c0,0,0,0,0,0c0,0-0.1,0.1-0.1,0.1
				c0,0,0,0,0,0c0,0.1-0.1,0.1-0.2,0.2c-0.1,0-0.1,0.1-0.2,0.1c0,0,0,0.1-0.1,0.1c0,0,0,0,0,0c0,0-0.1,0.1-0.1,0.1
				c0,0-0.1,0.1-0.1,0.1c0,0,0,0-0.1,0c0,0,0,0-0.1,0c-0.1,0-0.1,0.1-0.2,0.1c0,0-0.1,0-0.1,0c0,0,0,0-0.1,0c0,0-0.1,0-0.1,0
				c-0.1,0-0.2,0-0.2,0c0,0,0,0,0,0c-0.1,0-0.2,0-0.2,0.1c-0.1,0-0.1,0.1-0.2,0.1c0,0,0,0-0.1,0c-0.1,0-0.2,0.1-0.2,0.1
				c0,0,0,0-0.1,0c0,0,0,0-0.1,0c0,0,0,0-0.1,0c-0.1,0-0.2,0-0.2,0c0,0-0.1,0-0.1,0c0,0,0,0,0,0c0,0,0,0-0.1,0c0,0-0.1,0-0.1,0
				c0,0-0.1,0-0.1,0c0,0-0.1,0-0.1,0c-0.1,0.1-0.1,0.1-0.2,0.1c0,0-0.1,0-0.1,0c0,0,0,0-0.1,0c0,0,0,0-0.1,0c0,0,0,0-0.1,0
				c0,0-0.1,0-0.1,0.1c0,0-0.1,0-0.1,0c0,0-0.1,0-0.1,0c0,0-0.1,0-0.1,0c0,0,0,0,0,0c0,0-0.1,0-0.1,0c-0.1,0-0.1,0-0.2,0.1
				c0,0-0.1,0-0.1,0c0,0,0,0-0.1,0c0,0-0.1,0-0.1,0c0,0-0.1,0-0.1,0c0,0-0.1,0-0.1,0c0,0-0.1,0-0.1,0c0,0-0.1,0-0.1,0c0,0,0,0,0,0
				c0,0-0.1,0-0.1,0c-0.1,0-0.1,0-0.2,0.1c0,0-0.1,0-0.1,0c0,0-0.1,0-0.1,0c0,0,0,0,0,0c-0.1,0-0.1,0-0.2,0c-0.1,0-0.1,0-0.2,0
				c0,0,0,0,0,0c-0.1,0-0.1,0-0.2,0c0,0,0,0,0,0c0,0-0.1,0-0.1,0c0,0,0,0-0.1,0c0,0,0,0,0,0c0,0-0.1,0-0.1,0c0,0-0.1,0-0.1,0
				c0,0-0.1,0-0.1,0c0,0-0.1,0-0.1,0c-0.1,0-0.2,0-0.4,0c0,0-0.1,0-0.1,0c0,0,0,0,0,0c0,0-0.1,0-0.1,0c0,0,0,0-0.1,0c0,0,0,0-0.1,0
				c0,0-0.1,0-0.1,0c-0.1,0-0.1,0-0.2,0c0,0-0.1,0-0.1,0c-0.1,0-0.1,0-0.2,0c0,0-0.1,0-0.1,0c-0.1,0-0.2,0-0.3,0c0,0,0,0,0,0
				c0,0-0.1,0-0.1,0c0,0-0.1,0-0.1,0c0,0-0.1,0-0.1,0c0,0,0,0,0,0c0,0,0,0-0.1,0c0,0-0.1,0-0.1,0c-0.1,0-0.2,0-0.3,0
				c-0.1,0-0.1,0-0.2,0c0,0,0,0,0,0c0,0-0.1,0-0.1,0c0,0-0.1,0-0.1,0c0,0,0,0,0,0c0,0-0.1,0-0.1,0c0,0-0.1,0-0.1,0c0,0,0,0,0,0
				c0,0,0,0-0.1,0c0,0,0,0-0.1,0c-0.1,0-0.2,0-0.3,0c0,0-0.1,0-0.1,0c0,0-0.1,0-0.1,0c-0.1,0-0.1,0-0.2,0c-0.1,0-0.1,0-0.2,0
				c0,0-0.1,0-0.1,0c0,0-0.1,0-0.1,0c0,0-0.1,0-0.1,0c-0.1,0-0.1,0-0.2,0c-0.1,0-0.1,0-0.2,0c0,0,0,0,0,0c0,0-0.1,0-0.1,0
				c0,0-0.1,0-0.1,0c0,0-0.1,0-0.1,0c0,0-0.1,0-0.1,0c0,0-0.1,0-0.1,0c0,0-0.1,0-0.1,0c0,0-0.1,0-0.1,0c0,0,0,0,0,0c0,0-0.1,0-0.1,0
				c0,0-0.1,0-0.1,0c0,0-0.1,0-0.1,0c0,0-0.1,0-0.1,0c0,0-0.1,0-0.1,0c0,0-0.1,0-0.1,0c0,0,0,0,0,0c-0.1,0-0.2,0-0.3,0
				c0,0-0.1,0-0.1,0c0,0-0.1,0-0.1,0c0,0,0,0,0,0c0,0-0.1,0-0.2,0c0,0,0,0,0,0c-0.1,0-0.1,0-0.2,0c0,0-0.1,0-0.1,0c0,0,0,0,0,0
				c0,0,0,0-0.1,0c0,0,0,0-0.1,0c0,0-0.1,0-0.1,0c0,0-0.1,0-0.1,0c0,0,0,0-0.1,0c-0.1,0-0.1,0-0.2,0c0,0,0,0,0,0c0,0,0,0-0.1,0
				c0,0,0,0-0.1,0c0,0,0,0,0,0c0,0-0.1,0-0.1,0c-0.1,0-0.1,0-0.2,0c0,0,0,0,0,0c0,0-0.1,0-0.1,0c0,0,0,0-0.1,0c0,0-0.1,0-0.1,0
				c0,0,0,0-0.1,0c0,0-0.1,0-0.1,0c0,0-0.1,0-0.2,0c0,0,0,0,0,0c0,0-0.1,0-0.1,0c0,0-0.1,0-0.1,0c0,0,0,0,0,0c0,0-0.1,0-0.1-0.1
				c0,0-0.1,0-0.1,0c0,0-0.1,0-0.1-0.1c0,0-0.1,0-0.1-0.1c0,0,0,0,0,0c0,0-0.1,0-0.1-0.1c0,0-0.1,0-0.1,0c0,0,0,0-0.1-0.1
				c0,0,0,0-0.1,0c0,0,0,0,0,0c0,0,0,0-0.1-0.1c-0.1,0-0.1-0.1-0.2-0.1c0,0,0,0-0.1,0c0,0,0,0-0.1,0c0,0-0.1,0-0.1,0
				c0,0-0.1,0-0.1-0.1c0,0,0,0,0,0c0,0-0.1,0-0.1-0.1c0,0-0.1-0.1-0.1-0.1c0,0-0.1,0-0.1-0.1c0,0-0.1,0-0.1,0c0,0,0,0-0.1-0.1
				c0,0,0,0-0.1,0c0,0,0,0,0,0c0,0-0.1-0.1-0.1-0.1c0,0-0.1,0-0.1-0.1c0,0-0.1-0.1-0.1-0.1c-0.1,0-0.1,0-0.1-0.1c0,0,0,0,0,0
				c-0.1-0.1-0.2-0.1-0.3-0.2c0,0,0,0,0,0c0-0.1-0.1-0.1-0.2-0.1c0,0-0.1,0-0.1-0.1c0,0,0,0,0,0c-0.1,0-0.1-0.1-0.1-0.1c0,0,0,0,0,0
				c0,0,0,0-0.1,0c0,0,0,0,0,0c0,0,0,0,0,0c0,0-0.1-0.1-0.2-0.1c-0.1,0-0.1-0.1-0.2-0.1c0,0,0,0,0,0c-0.1,0-0.2-0.1-0.2-0.2
				c0,0-0.1,0-0.1-0.1c0,0-0.1,0-0.1-0.1c0,0-0.1,0-0.1-0.1c0,0-0.1,0-0.1-0.1c0,0-0.1-0.1-0.1-0.1c0,0-0.1,0-0.1-0.1
				c0,0-0.1-0.1-0.1-0.1c0,0-0.1,0-0.1-0.1c0,0-0.1-0.1-0.1-0.1c0,0,0-0.1-0.1-0.1c0,0,0-0.1-0.1-0.1c0,0-0.1-0.1-0.1-0.1
				c0,0-0.1,0-0.1-0.1c0,0-0.1,0-0.1-0.1c0,0-0.1,0-0.1-0.1c0,0,0,0,0,0c-0.1,0-0.1-0.1-0.1-0.1c0,0,0,0,0,0c0,0-0.1-0.1-0.1-0.1
				c0,0,0,0,0,0c0,0-0.1-0.1-0.1-0.1c0,0,0,0,0,0c0,0-0.1-0.1-0.1-0.1c0,0-0.1,0-0.1-0.1c0,0-0.1,0-0.1-0.1c0,0,0-0.1-0.1-0.1
				c0,0,0,0,0,0c0,0,0,0,0,0c0,0-0.1-0.1-0.1-0.1c0,0-0.1-0.1-0.1-0.1c0,0-0.1-0.1-0.1-0.1c0,0,0-0.1-0.1-0.1c0,0-0.1-0.1-0.1-0.1
				c0,0,0,0,0-0.1c0,0,0,0,0-0.1c0,0,0,0,0,0c0,0,0,0,0,0c-0.1,0-0.1-0.1-0.1-0.1c0,0-0.1-0.1-0.1-0.1c0,0,0,0,0-0.1
				c0,0,0,0-0.1-0.1c0,0,0,0,0,0c0,0,0,0-0.1-0.1c0,0,0,0,0-0.1c0,0,0,0,0,0c-0.1-0.1-0.1-0.1-0.2-0.2c0,0,0,0,0,0c0,0,0,0,0,0
				c0,0,0-0.1-0.1-0.1c0,0,0,0-0.1-0.1c0,0-0.1-0.1-0.1-0.1c0,0,0,0,0,0c0,0,0,0,0,0c0,0,0-0.1-0.1-0.1c0,0,0,0,0,0
				c0,0-0.1-0.1-0.1-0.1c0,0,0,0,0,0c0,0-0.1,0-0.1-0.1c0,0,0,0,0,0c0,0-0.1-0.1-0.1-0.1c0,0-0.1-0.1-0.1-0.1c0,0,0,0,0,0
				c0,0-0.1-0.1-0.1-0.1c0,0,0,0-0.1,0c0,0,0,0,0,0c0,0,0-0.1-0.1-0.1c0,0-0.1-0.1-0.1-0.2c0,0,0,0,0,0c0,0,0,0,0,0
				c-0.1,0-0.1-0.1-0.1-0.1c0,0,0,0,0,0c0,0-0.1-0.1-0.1-0.1c0,0,0,0,0,0c0,0,0,0,0-0.1c0,0,0,0,0,0c0,0,0,0,0-0.1c0,0,0,0,0,0
				c0,0,0-0.1,0-0.1c0,0-0.1-0.1-0.1-0.1c0,0-0.1-0.1-0.1-0.1c0,0,0,0,0,0c0-0.1-0.1-0.1-0.1-0.2c0,0-0.1-0.1-0.1-0.1c0,0,0,0,0,0
				c0,0,0-0.1,0-0.1c0,0-0.1-0.1-0.1-0.1c0,0,0,0,0,0c0,0,0,0-0.1-0.1c0,0,0,0-0.1-0.1c0,0,0,0-0.1-0.1c0,0,0,0-0.1-0.1
				c0,0,0,0-0.1-0.1c0,0,0,0,0,0c0,0,0-0.1-0.1-0.1c0,0,0,0,0,0c0-0.1,0-0.1-0.1-0.2c0-0.1-0.1-0.1-0.1-0.1c0,0,0-0.1-0.1-0.1
				c0,0,0,0,0,0c0,0,0-0.1-0.1-0.1c0,0,0,0,0-0.1c0-0.1,0-0.1-0.1-0.2c0-0.1-0.1-0.2-0.1-0.2c0,0,0-0.1,0-0.1c0,0,0,0,0,0
				c0,0,0-0.1,0-0.1c0-0.1-0.1-0.1-0.1-0.2c0-0.1,0-0.1-0.1-0.2c0,0,0-0.1,0-0.1c0,0,0,0,0,0c0,0,0-0.1-0.1-0.1c0,0,0-0.1,0-0.1
				c0,0,0-0.1,0-0.1c0,0,0,0,0,0c0-0.1,0-0.1,0-0.2c0,0,0,0,0,0c0-0.1,0-0.1-0.1-0.2c0-0.1,0-0.1-0.1-0.2c0,0,0-0.1-0.1-0.1
				c0,0,0-0.1,0-0.1c0,0,0,0,0,0c0-0.1-0.1-0.2-0.1-0.2c0-0.1,0-0.1-0.1-0.2c0,0,0-0.1,0-0.1c0,0,0-0.1,0-0.1c0,0,0,0,0,0
				c0,0,0-0.1,0-0.1c0-0.1,0-0.1,0-0.1c0-0.1,0-0.1-0.1-0.2c0,0,0-0.1,0-0.1c0,0,0,0,0-0.1c0,0,0-0.1,0-0.1c0-0.1,0-0.1,0-0.2
				c0,0,0,0,0-0.1c0-0.1,0-0.2,0-0.3c0,0,0-0.1,0-0.1c0,0,0-0.1,0-0.1c0,0,0-0.1,0-0.1c0,0,0,0,0,0c0,0,0-0.1,0-0.1c0,0,0-0.1,0-0.1
				c0,0,0-0.1,0-0.1c0,0,0-0.1,0-0.1c0,0,0-0.1,0-0.1c0,0,0,0,0,0c0-0.1,0-0.1,0-0.2c0,0,0,0,0-0.1c0-0.1,0-0.2,0-0.4
				c0,0,0-0.1,0-0.1c0,0,0,0,0,0c0,0,0-0.1,0-0.1c0-0.1,0-0.2,0-0.3c0,0,0,0,0,0c0-0.1,0-0.1,0-0.2c0,0,0,0,0-0.1c0,0,0,0,0,0
				c0,0,0,0,0-0.1c0-0.1,0-0.1,0-0.2c0,0,0-0.1,0-0.1c0,0,0-0.1,0-0.1c0-0.1,0-0.1,0-0.2c0,0,0,0,0-0.1c0,0,0-0.1,0-0.1
				c0,0,0-0.1,0-0.1c0,0,0,0,0-0.1c0,0,0-0.1,0-0.1c0,0,0,0,0,0c0-0.1,0-0.1,0-0.2c0,0,0,0,0,0c0-0.1,0-0.1,0-0.2c0,0,0-0.1,0-0.1
				c0,0,0-0.1,0-0.1c0,0,0-0.1,0-0.1c0,0,0,0,0-0.1c0,0,0-0.1,0-0.1c0,0,0,0,0-0.1c0-0.1,0-0.1,0-0.2c0,0,0,0,0-0.1c0,0,0-0.1,0-0.1
				c0,0,0-0.1,0-0.1c0,0,0-0.1,0-0.1c0,0,0,0,0,0c0,0,0-0.1,0-0.1c0,0,0,0,0,0c0-0.1,0-0.1,0-0.2c0,0,0-0.1,0-0.1c0-0.1,0-0.1,0-0.2
				c0-0.1,0-0.1,0-0.2c0,0,0,0,0,0c0-0.1,0-0.2,0-0.2c0,0,0,0,0-0.1c0,0,0,0,0,0c0-0.1,0-0.1,0-0.2c0,0,0,0,0-0.1c0,0,0,0,0-0.1
				c0,0,0-0.1,0-0.1c0-0.1,0-0.1,0-0.2c0,0,0-0.1,0-0.1c0,0,0-0.1,0-0.2c0,0,0-0.1,0-0.1c0,0,0-0.1,0-0.1c0,0,0,0,0-0.1
				c0,0,0-0.1,0.1-0.1c0,0,0,0,0-0.1c0-0.1,0-0.1,0-0.2c0,0,0,0,0-0.1c0,0,0-0.1,0-0.1c0,0,0-0.1,0-0.1c0-0.1,0.1-0.2,0.1-0.2
				c0,0,0,0,0-0.1c0-0.1,0.1-0.1,0.1-0.2c0,0,0,0,0,0c0,0,0-0.1,0-0.1c0-0.1,0-0.1,0.1-0.2c0,0,0,0,0-0.1c0-0.1,0.1-0.2,0.1-0.3
				c0,0,0-0.1,0.1-0.1c0,0,0-0.1,0-0.1c0,0,0,0,0-0.1c0,0,0,0,0,0C69.1,290.6,69.2,290.6,69.2,290.5
				C69.1,290.6,69.2,290.5,69.2,290.5C69.2,290.5,69.2,290.5,69.2,290.5C69.2,290.5,69.2,290.5,69.2,290.5
				C69.2,290.5,69.2,290.5,69.2,290.5z M93.4,313.2C93.5,313.2,93.5,313.2,93.4,313.2C93.5,313.2,93.5,313.1,93.4,313.2
				C93.5,313.1,93.5,313.1,93.4,313.2C93.5,313.1,93.4,313.1,93.4,313.2C93.4,313.2,93.4,313.2,93.4,313.2
				C93.5,313.2,93.5,313.2,93.4,313.2C93.5,313.2,93.5,313.2,93.4,313.2c0.1,0.1,0.1,0.1,0.1,0.1c0,0,0,0,0,0
				C93.6,313.2,93.5,313.2,93.4,313.2C93.5,313.2,93.5,313.2,93.4,313.2z M69,292.2C69,292.2,69,292.2,69,292.2
				C69,292.2,69,292.2,69,292.2C69,292.2,69,292.2,69,292.2C69,292.2,69,292.2,69,292.2C69.1,292.2,69.1,292.2,69,292.2
				C69,292.2,69,292.2,69,292.2z M70.5,289C70.5,289,70.4,289,70.5,289C70.4,289,70.4,289,70.5,289C70.4,289,70.4,289,70.5,289
				C70.4,289,70.4,289,70.5,289C70.4,289,70.5,289,70.5,289z M93.3,313.3C93.2,313.3,93.2,313.3,93.3,313.3
				C93.2,313.3,93.2,313.4,93.3,313.3C93.3,313.4,93.3,313.3,93.3,313.3C93.3,313.3,93.3,313.3,93.3,313.3z M77.7,280.7
				C77.7,280.7,77.7,280.7,77.7,280.7C77.7,280.7,77.7,280.7,77.7,280.7C77.6,280.7,77.6,280.7,77.7,280.7
				C77.6,280.7,77.7,280.7,77.7,280.7C77.7,280.7,77.7,280.7,77.7,280.7C77.7,280.7,77.7,280.7,77.7,280.7z M69.7,291.5
				C69.7,291.5,69.6,291.6,69.7,291.5C69.6,291.6,69.6,291.6,69.7,291.5C69.7,291.6,69.7,291.6,69.7,291.5
				C69.7,291.6,69.7,291.6,69.7,291.5C69.7,291.6,69.7,291.5,69.7,291.5z M71.7,286.3C71.7,286.3,71.7,286.3,71.7,286.3
				C71.7,286.3,71.6,286.3,71.7,286.3C71.6,286.3,71.6,286.3,71.7,286.3C71.6,286.3,71.6,286.3,71.7,286.3
				C71.6,286.3,71.6,286.3,71.7,286.3C71.7,286.3,71.7,286.3,71.7,286.3z M69.4,292.5C69.4,292.5,69.4,292.5,69.4,292.5
				C69.4,292.5,69.4,292.5,69.4,292.5C69.4,292.5,69.4,292.5,69.4,292.5C69.4,292.6,69.4,292.6,69.4,292.5
				C69.4,292.6,69.4,292.6,69.4,292.5C69.4,292.6,69.4,292.5,69.4,292.5z M77.9,279.7C77.9,279.7,77.9,279.7,77.9,279.7
				C77.9,279.7,77.9,279.7,77.9,279.7C77.9,279.7,77.9,279.7,77.9,279.7C77.9,279.7,77.9,279.7,77.9,279.7
				C77.9,279.7,77.9,279.7,77.9,279.7z M69.3,295.5C69.3,295.5,69.3,295.5,69.3,295.5C69.3,295.5,69.3,295.5,69.3,295.5
				C69.3,295.5,69.3,295.5,69.3,295.5C69.3,295.5,69.3,295.5,69.3,295.5C69.3,295.5,69.3,295.5,69.3,295.5
				C69.3,295.5,69.3,295.5,69.3,295.5z M68.4,294.2C68.4,294.2,68.4,294.2,68.4,294.2C68.4,294.2,68.4,294.2,68.4,294.2
				C68.4,294.2,68.4,294.2,68.4,294.2C68.4,294.2,68.4,294.2,68.4,294.2C68.4,294.2,68.4,294.2,68.4,294.2
				C68.3,294.2,68.4,294.2,68.4,294.2C68.4,294.2,68.4,294.2,68.4,294.2z M70.3,289.5C70.3,289.5,70.3,289.5,70.3,289.5
				C70.3,289.6,70.3,289.6,70.3,289.5C70.3,289.6,70.3,289.5,70.3,289.5C70.3,289.5,70.3,289.5,70.3,289.5z M69.3,291
				C69.3,291,69.2,291,69.3,291C69.2,291,69.2,291,69.3,291C69.2,291,69.2,291,69.3,291C69.2,291,69.3,291,69.3,291z M77,281.3
				C77,281.4,77,281.4,77,281.3C77,281.4,77,281.4,77,281.3C77,281.4,77,281.4,77,281.3C77,281.4,77,281.4,77,281.3z M70.9,290
				C70.9,290,70.9,290,70.9,290C70.9,290,70.9,290,70.9,290C70.9,290,70.9,290,70.9,290C70.9,290,70.9,290,70.9,290
				C70.9,290,70.9,290,70.9,290z M70.4,289.5C70.4,289.5,70.4,289.5,70.4,289.5C70.4,289.5,70.4,289.5,70.4,289.5
				C70.4,289.5,70.4,289.5,70.4,289.5C70.4,289.5,70.4,289.5,70.4,289.5z M80.2,285.2C80.2,285.2,80.2,285.2,80.2,285.2
				C80.2,285.2,80.2,285.2,80.2,285.2C80.2,285.2,80.2,285.2,80.2,285.2C80.2,285.2,80.2,285.2,80.2,285.2z M69.6,293.6
				C69.6,293.6,69.5,293.6,69.6,293.6C69.5,293.6,69.5,293.6,69.6,293.6C69.5,293.6,69.5,293.6,69.6,293.6
				C69.5,293.6,69.5,293.6,69.6,293.6z M69.6,290.5C69.6,290.5,69.6,290.5,69.6,290.5C69.6,290.5,69.6,290.5,69.6,290.5
				C69.6,290.5,69.6,290.5,69.6,290.5C69.6,290.5,69.6,290.5,69.6,290.5z"/>
			<path fill="#00A887" d="M76,280.2C76,280.2,76,280.2,76,280.2C76,280.2,76,280.2,76,280.2C76,280.2,76,280.2,76,280.2
				C76,280.2,76,280.2,76,280.2C76,280.2,76,280.2,76,280.2L76,280.2z"/>
			<path fill="#00A887" d="M76,280.2C76,280.2,76,280.2,76,280.2C76,280.2,76,280.2,76,280.2C76,280.2,76,280.2,76,280.2
				C76,280.2,76,280.2,76,280.2C76,280.2,76,280.2,76,280.2z"/>
		</g>
	</g>
	<path fill="#0082CA" d="M388.5,275.5c-0.5,0-1,0-1.5,0c-0.3,0-0.5,0-0.8,0c-0.2,0-0.5-0.1-0.7-0.1c-0.1,0-0.2,0-0.3,0
		c-0.3,0-0.6-0.1-0.9-0.1c-0.3,0-0.6-0.1-0.9-0.1c-0.4-0.1-0.8-0.1-1.2-0.1c-0.1,0-0.1,0-0.2,0c-0.2-0.1-0.5-0.2-0.7-0.3
		c-0.4-0.2-0.8-0.4-1.2-0.6c-0.2-0.1-0.5-0.2-0.7-0.3c-0.2-0.2-0.5-0.3-0.7-0.4c-0.2-0.1-0.3-0.2-0.5-0.3c-0.1-0.1-0.3-0.2-0.5-0.3
		c-0.1-0.1-0.3-0.2-0.4-0.3c-0.2-0.1-0.4-0.2-0.6-0.3c-0.2-0.2-0.4-0.3-0.6-0.4c-0.2-0.1-0.4-0.2-0.5-0.3c-0.2-0.1-0.3-0.2-0.5-0.3
		c-0.3-0.1-0.5-0.3-0.8-0.5c-0.2-0.2-0.5-0.3-0.7-0.5c-0.2-0.2-0.5-0.4-0.7-0.6c-0.4-0.4-0.9-0.7-1.3-1.1c-0.1-0.1-0.2-0.2-0.3-0.3
		c-0.1-0.1-0.2-0.3-0.3-0.4c-0.3-0.5-0.5-0.9-0.7-1.4c-0.1-0.3-0.3-0.6-0.4-0.9c-0.1-0.2-0.2-0.5-0.3-0.7c-0.1-0.2-0.1-0.3-0.2-0.5
		c-0.1-0.1-0.1-0.2-0.1-0.3c0-0.1,0-0.2-0.1-0.3c-0.1-0.2-0.1-0.4-0.2-0.5c0-0.1-0.1-0.2-0.1-0.2c-0.1-0.2-0.1-0.4-0.2-0.6
		c-0.1-0.2-0.1-0.4-0.2-0.7c0-0.1,0-0.1-0.1-0.2c-0.2-0.8-0.4-1.5-0.6-2.3c0-0.2-0.1-0.4-0.1-0.7c0-0.1,0-0.1,0-0.2
		c-0.1-0.3-0.1-0.5-0.1-0.8c0-0.2-0.1-0.5-0.1-0.7c0-0.2,0-0.5-0.1-0.7c0-0.3-0.1-0.7-0.1-1c0-0.2,0-0.5,0-0.7
		c0-0.1,0.1-0.3,0.1-0.4c0.2-1.1,0.4-2,0.7-2.9c0.1-0.2,0.1-0.5,0.2-0.7c0-0.1,0-0.2,0.1-0.3c0.1-0.2,0.2-0.5,0.2-0.7
		c0-0.2,0.1-0.4,0.2-0.7c0.1-0.4,0.3-0.9,0.5-1.3c0-0.1,0.1-0.2,0.1-0.2c0-0.1,0.1-0.2,0.1-0.2c0.1-0.3,0.2-0.5,0.3-0.7
		c0.1-0.2,0.2-0.5,0.4-0.7c0.2-0.4,0.5-0.9,0.8-1.3c0.3-0.3,0.5-0.7,0.7-1.1c0.2-0.4,0.5-0.7,0.7-1.1c0.2-0.3,0.4-0.5,0.7-0.7
		c0.1-0.1,0.2-0.1,0.2-0.2c0.2-0.2,0.4-0.4,0.6-0.6c0.1-0.1,0.2-0.1,0.3-0.2c0.3-0.2,0.5-0.4,0.8-0.6c0.2-0.1,0.4-0.3,0.7-0.4
		c0.2-0.1,0.4-0.2,0.6-0.4c0.4-0.2,0.8-0.4,1.2-0.6c0.2-0.1,0.4-0.2,0.6-0.2c0.2,0,0.3-0.1,0.5-0.1c0.1,0,0.3-0.1,0.5-0.1
		c0.2,0,0.5-0.1,0.7-0.2c0,0,0,0,0.1,0c0.2,0,0.5-0.1,0.7-0.1c0.2-0.1,0.5-0.1,0.7-0.1c0.2,0,0.5,0,0.7-0.1c0,0,0.1,0,0.1,0
		c0.1,0,0.2,0,0.3,0c0.3-0.1,0.6-0.1,0.9-0.1c0.2,0,0.3,0,0.5-0.1c0.1,0,0.1,0,0.2,0c0.2,0,0.4,0,0.6,0c0.1,0,0.1,0,0.2,0
		c0.4,0,0.8,0,1.1,0c0.3,0,0.5,0,0.8,0c0.2,0,0.5,0,0.7,0.1c0.1,0,0.2,0,0.3,0c0.2,0,0.4,0,0.6,0c0.5,0,1,0,1.5,0.1
		c0.3,0.1,0.7,0.1,1,0.1c0.3,0.1,0.6,0.1,0.8,0.2c0.3,0.1,0.6,0.1,0.8,0.1c0.2,0,0.5,0.1,0.7,0.1c0.2,0.1,0.5,0.1,0.7,0.1
		c0.2,0.1,0.4,0,0.5,0.1c0.2,0.1,0.3,0.1,0.5,0.1c0.1,0,0.3,0.1,0.4,0.1c0.1,0,0.3,0,0.4,0.1c0.3,0.1,0.6,0.1,0.8,0.2
		c0.3,0.1,0.6,0.1,0.8,0.2c0.3,0.1,0.7,0.2,1,0.3c0.3,0.1,0.6,0.2,0.9,0.2c0.3,0.1,0.5,0.2,0.8,0.3c0.3,0.1,0.5,0.2,0.8,0.3
		c0.4,0.1,0.8,0.2,1.1,0.4c0.1,0,0.1,0,0.2,0.1c0.1,0.2,0.4,0.4,0.5,0.6c0.3,0.4,0.6,0.8,0.9,1.3c0.1,0.2,0.2,0.4,0.4,0.6
		c0.1,0.1,0.1,0.2,0.2,0.3c0.1,0.2,0.3,0.4,0.4,0.6c0.1,0.2,0.2,0.4,0.3,0.7c0,0,0,0.1,0.1,0.1c0.1,0.2,0.3,0.4,0.3,0.7
		c0.1,0.2,0.2,0.4,0.3,0.7c0.1,0.2,0.2,0.4,0.3,0.7c0,0,0,0,0,0.1c0.1,0.2,0.2,0.3,0.2,0.5c0.1,0.2,0.1,0.4,0.2,0.6
		c0.1,0.2,0.1,0.4,0.2,0.6c0.1,0.2,0.1,0.4,0.1,0.7c0,0,0,0.1,0,0.1c0.1,0.2,0.2,0.4,0.2,0.6c0,0.1,0.1,0.2,0.1,0.3
		c0.1,0.3,0.2,0.7,0.2,1.1c0,0.3,0,0.5,0,0.8c0,0,0,0.1,0,0.1c0,0.2,0.1,0.4,0.1,0.5c0,0.2,0,0.4,0,0.5c0,0.2,0,0.4,0,0.6
		c0,0.4,0,0.7,0.1,1.1c0,0.1,0,0.2,0,0.3c0,0.3,0,0.6,0,0.9c0,0,0,0.1,0,0.1c-0.1,0.4,0,0.8,0,1.2c0,0.2,0,0.4,0,0.6
		c0,0.2,0,0.4,0,0.6c0,0.2,0,0.4-0.1,0.6c-0.1,0.2-0.1,0.4-0.2,0.6c0,0.2-0.1,0.4-0.1,0.5c0,0.2-0.2,0.4-0.2,0.6
		c0,0.2-0.1,0.3-0.2,0.5c-0.1,0.2-0.2,0.5-0.3,0.7c0,0.1-0.1,0.2-0.1,0.3c0,0.1,0,0.2-0.1,0.2c-0.2,0.2-0.3,0.5-0.4,0.8
		c-0.1,0.2-0.2,0.4-0.3,0.5c-0.1,0.2-0.2,0.3-0.3,0.4c0,0-0.1,0.1-0.1,0.1c-0.2,0.3-0.3,0.6-0.5,0.8c-0.2,0.2-0.3,0.5-0.5,0.7
		c-0.2,0.2-0.3,0.5-0.5,0.7c-0.1,0.2-0.3,0.4-0.4,0.6c-0.1,0.1-0.1,0.2-0.2,0.3c-0.3,0.3-0.5,0.6-0.7,0.9c-0.1,0.1-0.2,0.2-0.2,0.3
		c-0.3,0.3-0.7,0.7-0.9,1c-0.1,0.2-0.3,0.3-0.4,0.4c-0.2,0.2-0.3,0.3-0.5,0.5c-0.1,0.2-0.3,0.3-0.4,0.4c-0.1,0.1-0.2,0.2-0.3,0.3
		c-0.2,0.2-0.4,0.4-0.5,0.6c-0.1,0.1-0.2,0.2-0.3,0.4c-0.1,0.1-0.2,0.2-0.3,0.3c-0.2,0.2-0.5,0.5-0.7,0.7c-0.1,0.1-0.2,0.2-0.3,0.2
		c-0.2,0.1-0.3,0.2-0.5,0.3c-0.4,0.2-0.7,0.4-1.1,0.5c-0.2,0.1-0.4,0.1-0.6,0.1c-0.2,0.1-0.4,0.1-0.6,0.1c-0.1,0-0.1,0-0.2,0
		c-0.3,0.1-0.6,0.2-0.9,0.2c-0.1,0-0.3,0-0.4,0.1c-0.4,0.1-0.9,0.2-1.2,0.2c-0.2,0-0.4,0-0.5,0c-0.1,0-0.2,0-0.3,0
		c-0.4,0-0.7,0-1.1,0C389.3,275.5,388.9,275.5,388.5,275.5L388.5,275.5z"/>
	<path fill="#FF4338" d="M247.3,81c-0.5,0-1,0-1.6,0c-0.3,0-0.6,0-0.9,0c-0.3,0-0.5-0.1-0.8-0.1c-0.1,0-0.2,0-0.3,0
		c-0.3,0-0.7-0.1-1-0.1c-0.3,0-0.6-0.1-0.9-0.1c-0.4-0.1-0.9-0.1-1.3-0.1c-0.1,0-0.1,0-0.2,0c-0.3-0.1-0.5-0.2-0.8-0.3
		c-0.4-0.2-0.9-0.4-1.3-0.6c-0.3-0.1-0.5-0.2-0.8-0.4c-0.2-0.2-0.5-0.3-0.7-0.4c-0.2-0.1-0.3-0.2-0.5-0.3c-0.1-0.1-0.3-0.2-0.5-0.3
		c-0.2-0.1-0.3-0.2-0.5-0.3c-0.2-0.1-0.4-0.2-0.6-0.3c-0.2-0.2-0.4-0.3-0.7-0.4c-0.2-0.1-0.4-0.2-0.6-0.3c-0.2-0.1-0.3-0.3-0.5-0.4
		c-0.3-0.2-0.6-0.3-0.8-0.6c-0.2-0.2-0.5-0.4-0.7-0.6c-0.2-0.2-0.5-0.4-0.8-0.6c-0.5-0.4-1-0.8-1.4-1.2c-0.1-0.1-0.2-0.2-0.3-0.3
		c-0.1-0.1-0.3-0.3-0.4-0.5c-0.3-0.5-0.6-1-0.8-1.6c-0.1-0.3-0.3-0.7-0.5-1c-0.1-0.3-0.3-0.5-0.4-0.8c-0.1-0.2-0.2-0.4-0.3-0.5
		c-0.1-0.1-0.1-0.2-0.1-0.3c0-0.1,0-0.2-0.1-0.3c-0.1-0.2-0.1-0.4-0.2-0.6c-0.1-0.1-0.1-0.2-0.1-0.3c-0.1-0.2-0.1-0.5-0.2-0.7
		c-0.1-0.2-0.1-0.5-0.2-0.7c0-0.1,0-0.1-0.1-0.2c-0.3-0.8-0.5-1.6-0.6-2.5c-0.1-0.2-0.1-0.5-0.1-0.7c0-0.1,0-0.1,0-0.2
		c-0.1-0.3-0.1-0.6-0.1-0.9c0-0.3-0.1-0.5-0.1-0.8c0-0.3,0-0.5-0.1-0.8c0-0.4-0.1-0.7-0.1-1.1c0-0.2,0-0.5,0-0.7
		c0-0.1,0.1-0.3,0.1-0.4c0.2-1.1,0.5-2.2,0.7-3.2c0.1-0.2,0.2-0.5,0.2-0.8c0-0.1,0-0.2,0.1-0.3c0.1-0.3,0.2-0.5,0.2-0.8
		c0-0.2,0.1-0.5,0.2-0.7c0.1-0.5,0.3-0.9,0.5-1.4c0-0.1,0.1-0.2,0.1-0.3c0-0.1,0.1-0.2,0.1-0.3c0.1-0.3,0.2-0.5,0.4-0.8
		c0.1-0.3,0.3-0.5,0.4-0.8c0.2-0.5,0.5-0.9,0.8-1.4c0.3-0.3,0.5-0.8,0.8-1.1c0.3-0.4,0.5-0.8,0.8-1.1c0.2-0.3,0.4-0.5,0.7-0.7
		c0.1-0.1,0.2-0.1,0.3-0.2c0.2-0.2,0.4-0.5,0.7-0.6c0.1-0.1,0.2-0.1,0.3-0.2c0.3-0.2,0.5-0.5,0.9-0.6c0.3-0.1,0.5-0.3,0.7-0.5
		c0.2-0.1,0.5-0.3,0.7-0.4c0.4-0.2,0.8-0.5,1.3-0.7c0.2-0.1,0.4-0.2,0.7-0.3c0.2-0.1,0.4-0.1,0.5-0.2c0.2,0,0.3-0.1,0.5-0.1
		c0.3-0.1,0.5-0.1,0.8-0.2c0,0,0,0,0.1,0c0.3,0,0.5-0.1,0.8-0.1c0.3-0.1,0.5-0.1,0.8-0.1c0.3-0.1,0.5,0,0.8-0.1c0,0,0.1,0,0.1,0
		c0.1,0,0.2,0,0.3,0c0.3-0.1,0.6-0.1,0.9-0.1c0.2,0,0.3,0,0.5-0.1c0.1,0,0.1,0,0.2,0c0.2,0,0.4,0,0.6,0c0.1,0,0.1,0,0.2,0
		c0.4,0,0.8,0,1.2,0c0.3,0,0.6,0,0.8,0c0.3,0,0.5,0,0.8,0.1c0.1,0,0.2,0,0.3,0c0.2,0,0.4,0,0.6,0c0.5,0,1.1,0.1,1.6,0.1
		c0.3,0.1,0.7,0.1,1.1,0.2c0.3,0.1,0.6,0.1,0.9,0.2c0.3,0.1,0.6,0.1,0.9,0.2c0.3,0,0.5,0.1,0.8,0.2c0.3,0.1,0.5,0.1,0.8,0.2
		c0.2,0.1,0.4,0,0.5,0.1c0.2,0.1,0.4,0.1,0.6,0.1c0.1,0,0.3,0.1,0.4,0.1c0.1,0,0.3,0,0.4,0.1c0.3,0.1,0.6,0.2,0.9,0.2
		c0.3,0.1,0.6,0.1,0.9,0.2c0.4,0.1,0.7,0.2,1.1,0.3c0.3,0.1,0.6,0.2,1,0.3c0.3,0.1,0.6,0.2,0.9,0.3c0.3,0.1,0.6,0.2,0.9,0.3
		c0.4,0.2,0.8,0.3,1.2,0.5c0.1,0,0.1,0,0.2,0.1c0.2,0.2,0.4,0.4,0.6,0.7c0.3,0.4,0.7,0.9,0.9,1.4c0.1,0.2,0.2,0.4,0.4,0.6
		c0.1,0.1,0.2,0.2,0.2,0.4c0.1,0.2,0.3,0.4,0.4,0.7c0.1,0.2,0.2,0.5,0.3,0.7c0,0,0,0.1,0.1,0.1c0.1,0.2,0.3,0.5,0.4,0.7
		c0.1,0.3,0.2,0.5,0.4,0.7c0.1,0.2,0.2,0.5,0.3,0.7c0,0,0,0,0,0.1c0.1,0.2,0.2,0.3,0.2,0.5c0.1,0.2,0.2,0.4,0.3,0.6
		c0.1,0.2,0.2,0.5,0.3,0.7c0.1,0.2,0.1,0.5,0.2,0.7c0,0,0,0.1,0,0.1c0.1,0.2,0.2,0.4,0.3,0.6c0,0.1,0.1,0.2,0.1,0.3
		c0.1,0.4,0.2,0.7,0.2,1.1c0,0.3,0,0.6,0,0.9c0,0,0,0.1,0,0.1c0,0.2,0.1,0.4,0.1,0.6c0,0.2,0,0.4,0,0.6c0,0.2,0,0.4,0,0.7
		c0,0.4,0,0.8,0.1,1.2c0,0.1,0,0.2,0,0.3c0,0.3,0,0.7,0,1c0,0,0,0.1,0,0.1c-0.1,0.4,0,0.8,0,1.3c0,0.2,0,0.4-0.1,0.7
		c0,0.2,0,0.4,0,0.7c0,0.2,0,0.4-0.1,0.7c-0.1,0.2-0.1,0.4-0.2,0.6c0,0.2-0.1,0.4-0.1,0.6c0,0.2-0.2,0.4-0.2,0.6
		c0,0.2-0.1,0.4-0.2,0.6c-0.1,0.3-0.2,0.5-0.3,0.8c-0.1,0.1-0.1,0.2-0.1,0.3c0,0.1-0.1,0.2-0.1,0.3c-0.2,0.3-0.3,0.6-0.4,0.8
		c-0.1,0.2-0.2,0.4-0.3,0.6c-0.1,0.2-0.2,0.3-0.3,0.5c0,0-0.1,0.1-0.1,0.1c-0.2,0.3-0.3,0.6-0.5,0.9c-0.2,0.3-0.3,0.5-0.5,0.8
		c-0.2,0.3-0.3,0.5-0.5,0.8c-0.2,0.2-0.3,0.4-0.4,0.6c-0.1,0.1-0.2,0.2-0.3,0.3c-0.3,0.3-0.5,0.6-0.8,1c-0.1,0.1-0.2,0.2-0.3,0.3
		c-0.3,0.4-0.7,0.7-1,1.1c-0.1,0.2-0.3,0.3-0.4,0.5c-0.2,0.2-0.4,0.3-0.5,0.5c-0.1,0.2-0.3,0.3-0.4,0.5c-0.1,0.1-0.2,0.2-0.3,0.3
		c-0.2,0.2-0.4,0.4-0.6,0.6c-0.1,0.1-0.2,0.3-0.3,0.4c-0.1,0.1-0.2,0.2-0.3,0.3c-0.2,0.3-0.5,0.5-0.7,0.8c-0.1,0.1-0.2,0.2-0.3,0.3
		c-0.2,0.1-0.4,0.2-0.5,0.3c-0.4,0.3-0.8,0.4-1.2,0.6c-0.2,0.1-0.5,0.1-0.7,0.2c-0.2,0.1-0.4,0.1-0.6,0.1c-0.1,0-0.1,0-0.2,0
		c-0.3,0.1-0.6,0.2-1,0.2c-0.1,0-0.3,0-0.4,0.1c-0.4,0.1-0.9,0.2-1.3,0.2c-0.2,0-0.4,0-0.6,0.1c-0.1,0-0.2,0-0.4,0
		c-0.4,0-0.8,0-1.2,0C248,81,247.6,81,247.3,81L247.3,81z"/>
</g>
</svg>
