<?xml version="1.0" encoding="utf-8"?>
<!-- Generator: Adobe Illustrator 18.1.1, SVG Export Plug-In . SVG Version: 6.00 Build 0)  -->
<svg version="1.1" id="Layer_1" xmlns="http://www.w3.org/2000/svg" xmlns:xlink="http://www.w3.org/1999/xlink" x="0px" y="0px"
	 viewBox="0 303 3058 1364" enable-background="new 0 303 3058 1364" xml:space="preserve">
<g>
	<g>
		<path fill="#FF4338" d="M2904.8,424.4c1.3-0.8,2.4-0.5,2.7,0c1.1,1.3,1.9,2.7,2.9,3.7c1.1,1.6,1.9,3.2,3.5,4.8
			c1.6,2.7,3.5,5.1,5.3,7.4c1.1,2.1,2.9,4,4.3,5.9c1.1,1.3,2.1,2.7,2.9,3.7c0.8,1.1,1.9,2.1,2.4,3.7c1.3,1.3,2.1,3.2,3.2,4.8
			c0.5,0.8,1.1,1.6,1.6,2.4c1.9,2.4,3.7,4.8,5.6,7.4c1.6,1.6,2.4,3.5,4,4.8c1.1,1.6,2.1,3.2,3.2,4.8c1.9,2.7,3.7,5.3,5.6,7.7
			c1.3,1.1,1.6,2.7,2.9,4c1.1,1.1,1.9,2.7,2.7,4c1.9,2.1,2.9,4.5,5.1,6.6c1.3,1.9,2.7,3.7,4,5.6c1.3,1.9,2.7,3.7,4,5.6
			c1.1,1.6,2.1,3.2,3.5,4.5c0.3,0.3,0.5,0.5,0.5,0.8c0.3,1.3,1.6,2.4,2.4,3.7c0.8,1.1,1.6,2.1,2.4,3.2c0.5,0.8,1.1,1.6,1.6,2.4
			c0.3,0.8,0.8,1.6,1.3,2.7c0.3,0.5,0.5,1.3,1.1,1.6c1.3,1.1,1.9,2.7,2.9,3.7c2.4,2.9,4.8,6.1,7.2,9c0.5,0.5,1.1,1.3,1.3,1.9
			c0.5,1.1,1.3,1.9,2.1,2.7c0.5,0.5,0.8,1.1,1.3,1.6c1.6,1.9,2.7,4,4.3,5.9c1.6,1.9,2.9,4,4.5,5.9c0.3,0.5,0.8,1.1,1.1,1.6
			c1.1,2.1,2.9,4,4.3,5.9c1.6,2.1,3.2,4,4.5,6.1c0.8,1.1,2.1,1.9,2.4,2.9c0.8,1.1,1.9,2.4,2.7,3.5c0.8,1.1,1.6,2.1,2.4,3.2l0.3,0.3
			c1.1,1.6,1.9,2.9,3.2,4.3c1.3,1.3,2.1,2.9,3.2,4.3c0.8,1.1,1.1,2.4,1.9,3.2c0.8,1.1,1.9,1.9,2.4,2.9c1.1,1.9,2.7,3.7,4,5.3
			c1.3,1.9,2.7,3.7,4.3,5.3c0.5,0.8,1.1,1.6,1.6,2.4c0.5,1.1,1.3,2.1,2.1,3.2c1.1,1.3,2.1,2.4,2.9,3.7c0.8,1.1,1.6,2.4,2.4,3.5
			c1.1,1.3,2.1,2.7,2.9,3.7c1.1,1.3,1.9,2.9,2.9,4.3c1.1,1.3,2.1,2.7,2.9,4c1.1,1.6,2.7,3.2,3.7,5.1c1.3,1.9,2.9,3.5,4,5.6
			c1.3,1.6,2.7,3.5,3.7,5.1c1.1,1.6,2.7,2.9,3.5,4.5c0.3,0.5,0.8,1.1,1.3,1.3c0.5,0.5,1.1,1.1,1.6,1.9s1.1,1.6,1.6,2.4
			c1.9,2.1,2.9,4.5,5.1,6.6c1.3,2.4,3.7,4.5,5.1,7.2c0.3,0.5,0.5,0.8,0.8,1.1c2.7,2.9,4.8,6.1,7.2,9.3c0.8,1.1,1.6,2.4,2.7,3.5
			c0.8,0.8,1.3,1.9,2.1,2.7c1.9,2.4,3.5,5.1,5.3,7.4c0.5,0.5,0.8,1.1,1.1,1.6c0.3,0.5,0.5,1.1,1.1,1.6c1.1,1.3,1.9,2.7,2.9,4
			c0.5,1.6,1.6,2.7,2.7,4c0.8,1.3,1.9,2.7,2.7,4c2.9,4,5.9,8.2,8.8,12.2c1.6,2.1,3.5,4,4.8,6.1c0.8,1.1,1.6,2.1,2.1,3.2
			c0.8,1.1,1.3,2.1,2.4,3.2c0.5,0.5,0.8,1.1,1.1,1.6c2.1,3.5,4.5,6.6,7.2,9.8c0.8,1.1,1.3,2.1,2.1,3.2c0.8,1.1,1.6,2.4,2.7,3.5
			c0.5,0.5,1.1,1.1,1.3,1.6c1.3,2.1,3.2,4,4.5,6.4c0.3,0.3,0,1.1-0.3,1.3c-0.3,0.3-0.5,0.5-0.8,0.5c-0.5,0.3-1.1,0.8-1.9,1.1
			c-3.2,1.6-6.6,3.2-9.6,5.1c-2.1,0.8-4,1.9-6.1,2.9c-5.3,2.7-10.6,5.6-16,8.5c-2.4,1.3-4.8,2.7-7.2,3.7c-2.7,1.3-5.6,2.9-8.2,4.3
			c-0.5,0.3-1.1,0.5-1.3,0.8c-1.6,1.3-3.7,2.4-5.3,4c-0.3,0.3-0.8,0.5-1.3,0.8c-4.3,2.1-8,4.8-11.7,7.4c-0.8,0.5-1.6,0.8-2.1,1.3
			c-0.5,0.3-1.1,0.3-1.3-0.3l-0.3-0.3c-1.1-1.6-2.4-3.2-3.5-4.8c-1.3-2.1-2.9-4-4.3-5.9c-1.6-2.1-3.2-4.3-4.5-6.1
			c-2.7-3.7-5.3-7.2-8-10.9c-0.3-0.5-0.8-1.1-1.3-1.6c-0.8-0.8-1.6-1.9-1.9-2.7c-0.3-0.5-0.8-1.1-1.1-1.6c-2.4-2.7-4.3-5.6-6.4-8.5
			c-1.6-2.1-3.2-4.5-5.1-6.6c-1.3-1.6-2.7-3.2-3.7-5.1c-1.1-1.9-2.4-3.5-3.7-5.1c-0.5-1.1-1.3-1.9-2.1-2.7c-0.5-0.5-1.1-1.3-1.3-1.9
			c-0.5-0.8-1.1-1.6-1.6-2.4c-2.9-3.5-5.6-7.2-8.2-10.9c-1.3-1.9-2.7-3.7-4-5.3c-1.9-2.4-3.5-4.8-5.1-6.9c-0.3-1.1-1.3-1.9-1.9-2.7
			c-1.1-1.9-2.4-3.5-3.5-5.1c-1.1-1.6-2.7-2.9-3.2-4.8c-1.6-2.1-3.2-4-4.8-6.1c-1.6-2.1-2.9-4.3-4.5-6.4c-1.1-1.3-1.9-2.7-2.9-4
			c-0.8-1.3-1.9-2.7-2.7-4c-1.3-1.6-2.7-2.9-3.5-4.8c0-0.3-0.3-0.5-0.5-0.8c-1.9-1.9-3.2-4.3-4.5-6.1c-0.5-0.5-1.1-1.3-1.3-1.9
			c-1.3-2.1-3.2-4-4.5-6.4c-1.3-2.1-2.9-4-4.3-5.9c-1.3-2.1-3.2-4.3-4.5-6.4c-0.8-1.3-1.9-2.7-2.9-4c-0.3-0.3-0.8-0.8-0.8-1.1
			c-1.1-2.4-2.9-4.3-4.5-6.4c-1.3-2.1-2.9-4.3-4.5-6.4c-1.6-2.1-2.9-4.3-4.8-6.1c-1.9-3.5-4.8-6.1-6.4-9.6c-0.5-1.1-1.3-1.9-2.1-2.7
			c-0.5-0.5-1.1-1.3-1.6-1.9c-1.3-2.1-2.9-4.3-4.5-6.4c-1.1-1.1-1.9-2.4-2.7-3.5c-1.6-2.7-3.5-5.1-5.3-7.4c-0.3-0.3-0.5-0.5-0.5-0.8
			c-0.5-1.9-2.1-3.5-3.2-5.3c-0.8-1.6-2.1-3.2-2.9-4.8c-0.8-1.6-2.1-2.9-3.2-4.3c-1.3-1.6-2.4-3.5-3.5-5.3c-1.1-1.9-1.9-3.7-3.7-5.1
			c-0.8-1.3-1.3-2.4-2.4-3.5c-0.8-1.9-2.1-3.5-3.5-5.3c-3.5-5.9-7.2-11.4-11.2-16.8c-0.8-0.8-1.3-1.9-1.9-2.7
			c-1.1-1.3-1.6-3.2-2.7-4.5c-1.1-1.3-2.1-2.9-2.9-4.3c-0.5-1.1-1.1-1.9-1.6-2.9c-0.5-0.8-1.1-1.6-1.6-2.4c-0.3-0.5-0.5-1.1-1.1-1.6
			c-1.3-2.1-2.7-4-4-6.1c-1.1-1.3-1.9-2.9-3.2-4.3c-0.8-1.1-1.6-2.1-1.9-3.2c-0.3-0.8-0.8-1.6-1.6-2.4c-0.5-0.5-1.1-1.3-1.3-1.9
			c-0.8-1.9-2.1-3.5-3.2-5.3c-1.1-1.9-2.1-3.5-2.9-5.3c-0.3-0.5-0.8-1.1-1.1-1.6c-0.5-0.5-0.8-1.1-0.8-1.6c-0.3-0.5-0.5-1.1-1.1-1.6
			c-0.5-0.5-1.1-1.1-1.3-1.9c-0.3-1.1-0.8-1.6-1.3-2.4c-0.5-0.8-0.8-1.6-1.3-2.4c-0.5-0.5-1.1-1.3-1.3-2.1c-0.3-1.1-0.8-2.1-1.3-2.9
			c-0.8-1.6-1.9-2.9-2.9-4.5c-0.8-1.6-1.6-3.2-2.7-4.5c-0.5-0.5-0.8-1.3-1.1-2.1c0-0.5-0.3-0.8-0.5-1.3c-0.3-0.5-0.8-0.8-0.8-1.1
			c-0.5-1.1-1.3-2.1-2.4-3.2c-0.3-1.1-0.5-2.4-1.3-3.5c-0.3-0.5,0.3-1.6,0.8-2.1c1.3-0.8,2.7-1.6,4-2.4c2.4-1.3,5.1-2.4,7.2-4
			c2.1-1.1,4.3-2.4,6.1-3.7c1.3-0.5,2.4-1.1,3.5-2.1c0.3-0.3,0.8-0.5,1.3-0.8c1.6-0.8,3.2-1.6,4.5-2.4c1.6-0.8,3.5-1.9,4.8-2.9
			c1.3-0.8,2.7-1.6,4-2.4c2.9-1.3,5.3-2.9,8-4.5c1.1-0.8,2.1-1.6,3.7-1.9c0.8-0.5,1.9-1.1,2.7-1.6c1.3-0.8,2.4-1.9,4-2.4
			c0.8-0.3,1.1-1.1,2.1-1.6c0.5-0.3,1.3-0.5,1.9-0.8C2903.8,425.2,2904.6,424.6,2904.8,424.4z"/>
		<path fill="#00A887" d="M2493.4,763.4c-0.3,0-0.8,0-1.1-0.3c-0.8-0.3-1.3-0.3-2.1,0c-0.5,0.3-1.3,0.5-1.9,0.8
			c-0.8,0.5-1.6,1.1-2.1,2.1c-0.5,0.8-0.5,1.1-1.6,0.8c-1.1,0-1.9,0-2.4,0.5c-1.1,0.5-2.1,1.3-2.9,1.9s-1.9,0.3-2.4-0.3
			c-0.5-0.5-0.8-1.1-1.3-1.3c-1.1-1.3-1.9-2.7-2.9-4c-0.8-1.1-1.9-2.1-2.7-3.5c-0.3-0.5-0.5-0.8-0.8-1.1c-1.6-1.6-2.7-3.7-4-5.6
			c-0.8-1.1-1.3-2.1-2.4-3.2c-1.3-1.3-2.4-2.7-3.5-4.3c-0.8-1.3-1.9-2.7-2.9-4c-1.9-2.1-3.5-4.3-5.3-6.4c-1.1-1.6-2.4-3.2-3.5-4.5
			c-1.1-1.1-1.9-2.1-2.7-3.5c-0.5-1.1-1.3-1.9-2.1-2.7c-1.9-2.1-3.7-4.3-5.3-6.4c-1.9-2.1-3.5-4.3-5.3-6.4c-0.3-0.3-0.5-0.5-0.5-0.8
			c-1.3-1.6-2.7-3.5-4-5.1c-1.3-1.6-2.9-3.2-4-4.8c-0.3-0.5-0.5-0.8-0.8-1.1c-1.6-1.3-2.9-3.2-4.3-4.8c-3.5-4-7.2-8.2-10.6-12.2
			c-1.6-1.3-2.7-2.9-4-4.3c-0.8-1.1-1.9-1.9-2.9-2.7c-0.8-0.5-1.1-1.1-1.6-1.9c-0.8-1.1-1.9-1.9-2.4-2.9c-0.5-1.1-1.3-1.9-2.1-2.7
			c-0.8-1.1-1.6-2.1-2.7-2.9c-1.9-1.9-3.7-3.7-5.3-5.9c-2.1-2.7-4.5-5.1-6.9-7.7c-1.3-1.3-2.4-2.7-3.7-4c-0.5-0.5-1.1-0.8-1.3-1.3
			c-1.9-2.4-4-4.5-6.1-6.4c-0.3-0.3-0.8-0.8-1.1-1.1c-1.1-2.1-2.9-3.5-4.5-5.1c-0.3-0.3-0.8-0.5-1.3-0.8s-0.8-0.5-1.1-0.8
			c-0.5-0.8-0.8-1.3-1.3-1.9c-0.3-0.5-0.8-1.1-1.3-1.6c-1.6-1.1-2.4-2.7-3.7-4c-0.8-1.3-1.9-2.4-2.9-3.2c-2.9-2.7-5.6-5.6-8.2-8.5
			c-0.5-0.5-1.1-1.1-1.9-1.9c-1.3-1.3-2.9-2.7-4.3-4c-1.6-1.3-2.7-2.9-4.3-4.3c-1.6-1.3-2.9-2.7-4.3-4.3c-1.3-1.6-2.9-3.2-4.5-4.5
			c-0.3-0.3-0.8-0.5-1.1-1.1c-1.9-2.1-4-4-6.1-5.9c-0.3-0.3-0.5-0.5-0.8-0.8c-1.6-2.1-3.7-3.7-5.6-5.6c-0.5-0.5-1.3-1.1-2.1-1.3
			c-0.8-0.3-1.1-0.8-1.3-1.3c-0.5-1.1-1.1-1.9-1.9-2.7c-1.6-1.3-3.2-2.9-4.5-4.5c-1.6-1.9-3.5-3.5-5.3-5.1c-1.3-1.3-2.9-2.7-4.3-4.3
			c-0.8-0.8-1.6-1.6-2.4-2.4c-1.3-1.3-2.7-2.4-3.7-4c-1.6-1.6-3.2-3.2-5.1-4.8c-0.5-0.5-1.3-1.1-1.9-1.6c-0.5-0.5-0.8-1.1-1.1-1.6
			c-1.1-1.1-2.1-1.9-3.2-3.2c-0.3-0.3-0.8-0.5-1.3-0.8c-1.3-0.5-1.9-1.3-2.4-2.4c-0.3-0.8-0.8-1.6-1.6-2.4c-0.5-0.5-0.8-1.1-1.3-1.3
			c-2.4-2.1-4.5-4.3-6.6-6.6c-2.1-2.4-4.5-4.8-6.9-6.9c-1.9-2.4-4.5-4.3-6.4-6.6c-0.5-0.8-1.6-1.6-2.7-2.4c-1.3-1.1-2.4-2.1-3.5-3.5
			c-2.1-2.4-4.3-4.8-6.9-7.2c-1.3-1.3-2.7-2.4-3.7-4c-2.7-2.4-4.5-5.1-7.7-7.2c-0.3,0-0.3-0.3-0.3-0.3c-0.5-1.3-2.1-2.1-2.9-3.2
			c-1.1-1.6-2.4-2.7-3.7-3.7c-1.1-0.8-1.9-1.9-2.7-2.9c-0.3-0.5-0.5-0.8-0.8-1.1c-1.3-1.1-2.4-2.1-4-3.2c-1.3-0.8-2.4-1.9-2.9-3.2
			c-0.3-0.5-0.5-0.8-0.8-1.3c-2.4-2.9-5.1-5.6-7.7-8.2c-0.8-0.8-1.6-1.3-2.4-1.9c-0.5-0.3-0.5-0.8-0.8-1.1c0-0.5-0.3-0.8-0.8-1.3
			c-0.8-1.1-1.9-1.9-2.7-2.9c-0.3-0.3-0.5-0.8-0.3-1.3c0-1.1,0.5-1.9,1.3-2.4c0.5-0.3,0.8-0.5,1.3-0.8c0.5-0.5,1.1-0.8,1.9-0.8
			c0.5,0,1.1-0.3,1.3-0.5c0.5-0.5,1.1-1.1,1.6-1.3c1.1-0.5,1.9-1.3,2.9-1.9c2.7-1.1,5.1-2.4,6.9-4.3c0.8-0.5,1.6-1.1,2.4-1.9
			c0.8-0.5,1.6-1.1,2.7-1.6c2.7-1.3,4.8-3.2,7.4-4.5c0.5-0.3,0.8-0.8,1.1-1.1c0.5-0.5,1.1-0.8,1.6-1.3c6.4-4.3,6.4-4,12.8-9
			c0.3-0.3,0.5-0.5,0.8-0.5c1.9-1.1,3.5-2.1,5.1-3.2c1.3-1.1,3.2-2.1,4.5-3.2c0.5-0.3,1.3-0.3,2.1,0c0.5,0.3,0.8,0.5,1.3,0.8
			c0.3,0.3,0.5,0.5,0.8,0.8c0.8,1.1,2.1,2.1,2.9,3.2c1.9,2.1,4,4,5.9,6.1c1.3,1.3,2.9,2.7,4,4.3c0.3,0.5,0.5,0.8,1.1,1.1
			c1.3,1.1,2.4,2.4,3.5,3.5c1.1,1.1,2.4,2.1,3.5,3.5c0.3,0.3,0.5,0.5,0.8,0.8c1.9,1.3,3.5,3.2,4.8,4.8c0.5,0.5,1.1,1.3,1.9,1.9
			c1.6,1.3,2.9,2.7,4.3,4.3c2.7,2.1,4.5,4.8,6.9,6.9c0.5,0.5,1.1,0.8,1.3,1.3c2.4,2.9,5.3,5.3,8.2,8c1.3,1.3,2.9,2.7,4.3,4.3
			c1.9,1.9,3.7,3.7,5.6,5.6c0.5,0.5,1.3,1.1,1.9,1.9c1.9,2.4,4.3,4.3,6.4,6.4c1.6,1.6,3.5,3.2,4.8,4.8c2.1,2.1,4.3,4,6.4,6.1
			c1.6,1.6,3.2,2.9,4.5,4.5c0.3,0.5,1.1,0.8,1.3,1.3c1.3,1.3,2.7,2.4,4.3,3.7c0.5,0.5,1.1,0.8,1.3,1.3c1.6,1.9,3.5,3.5,5.3,5.3
			c1.9,1.6,3.7,3.5,5.3,5.3c1.1,1.1,2.1,2.1,3.2,3.2c1.3,1.1,2.4,2.1,3.7,3.5c1.1,1.1,2.4,2.4,3.5,3.5c1.1,1.1,2.4,2.4,3.5,3.5
			c1.6,1.6,3.5,3.2,5.1,4.8l0.3,0.3c2.7,1.6,4.3,4,6.4,6.1c2.7,2.4,5.1,4.8,7.7,7.2c1.9,1.9,4,3.5,5.6,5.6c3.2,2.7,5.3,6.1,8.2,9
			c0.8,1.3,1.9,2.4,2.7,3.5c1.6,2.1,3.5,4,5.1,5.9c1.9,2.1,3.7,4.3,5.3,6.4c2.4,2.7,4.5,5.6,7.2,8.2c2.4,2.7,4.5,5.6,6.9,8.2
			c1.1,1.3,2.1,2.4,3.2,3.7c1.9,2.1,3.7,4.3,5.3,6.4c0.8,1.1,1.6,2.1,1.9,3.2c0.3,0.5,0.5,1.1,1.1,1.6c1.9,2.1,3.5,4.3,5.6,6.1
			c0.3,0.3,0.5,0.8,1.1,1.1c2.1,2.9,4.5,5.6,6.9,8.2c2.4,2.7,4.5,5.6,7.4,8c2.4,2.9,5.1,5.6,7.4,8.5c0.5,0.5,0.8,1.1,1.3,1.6
			c1.6,1.6,2.7,3.2,4.3,4.8c2.1,1.9,4,4,5.6,6.1c0.5,1.3,1.9,2.4,2.9,3.5c0.3,0.3,0.8,0.8,1.1,1.1c4.3,3.5,3.5,2.9,6.9,7.7
			c1.3,1.9,2.7,3.7,4,5.6c1.6,2.1,2.9,4.3,4.8,6.1c0.3,0.3,0.5,0.5,0.5,0.8c1.1,2.4,3.2,4.5,4.5,6.9c1.1,1.1,1.6,2.7,2.7,4
			c1.1,1.1,1.6,2.4,2.4,3.5c0.8,1.3,1.6,2.4,2.7,3.5c0.5,0.5,0.8,1.1,1.1,1.6c1.1,1.9,1.9,3.7,3.5,5.3c0.3,0.3,0.5,0.5,0.5,0.8
			c1.3,2.9,3.5,5.3,5.3,8c1.3,2.1,2.9,4.3,4.3,6.4c0.5,0.8,1.1,1.6,1.6,2.4c1.9,2.4,3.5,5.1,4.8,7.7c0.3,0.5,1.1,3.2,1.3,4
			c0,0.3-0.3,0.5-0.3,0.8c-0.3,0.3-0.5,0.5-0.8,0.8c-0.8,0.5-1.6,1.1-2.7,1.6c-1.9,1.1-3.7,2.4-5.9,3.5c-1.9,1.1-3.2,2.4-5.1,3.2
			c-0.8,0.5-1.9,1.1-2.7,1.6c-0.3,0.3-0.5,0.3-0.8,0.5c-1.9,1.1-3.2,2.4-5.1,3.5c-1.9,1.1-3.7,1.9-5.3,3.2c-0.8,0.8-2.1,1.3-3.2,1.9
			c-0.8,0.5-1.9,1.1-2.7,1.6s-1.3,1.1-1.3,1.9c0,0.5-0.3,0.8-0.3,1.3C2494.2,763.2,2493.9,763.4,2493.4,763.4z"/>
		<path fill="#0082CA" d="M2821.1,615.3c0,0.5,0,0.8-0.3,1.1c-0.5,1.1-1.1,2.4-1.9,3.5c-1.1,1.9-2.1,4-3.2,5.9
			c-1.1,2.4-2.7,4.8-3.7,7.2c-0.5,0.8-0.8,1.6-1.3,2.7c-0.8,2.1-1.9,4-2.9,5.9c-1.9,3.2-3.5,6.4-5.1,9.8c-0.3,0.5-0.5,1.1-0.8,1.6
			c-1.9,2.9-3.2,5.9-4.5,8.8c-2.1,4-4.3,8-6.1,11.7c-0.8,1.3-1.6,2.7-2.1,4.3c-0.3,0.8-0.5,1.6-1.1,2.1c-1.1,1.6-1.9,3.5-2.7,5.1
			c-1.1,1.9-2.1,3.7-2.9,5.3c-0.8,1.6-1.9,3.5-2.7,5.1c-0.8,1.9-1.9,3.2-2.7,5.1c-1.3,2.4-2.7,5.1-4,7.7c-0.3,0.5-0.5,1.1-0.8,1.6
			c-2.4,3.5-3.7,6.9-5.6,10.6c-0.5,1.1-0.8,2.1-1.6,2.9c-1.9,2.7-2.9,5.6-4.5,8.5c-1.1,2.1-2.1,4.3-3.2,6.4
			c-1.3,2.7-2.7,5.1-3.7,7.7c-0.8,2.1-2.1,4-3.2,5.9c-1.3,2.7-2.4,5.1-3.7,7.7c-1.3,2.7-2.7,5.1-4,7.4c-1.6,3.2-3.2,6.4-5.1,9.8
			c-0.5,1.1-1.1,1.9-1.6,2.9c-1.3,2.1-2.4,4.5-3.5,6.6c-2.7,5.1-5.1,10.1-8,15.2c-2.1,4-4.5,8-6.6,12.2c0,0.3-0.3,0.3-0.3,0.5
			c-1.6,2.4-2.7,5.1-4.3,7.4c-1.3,2.4-2.9,5.1-4.3,7.4c-0.8,1.3-1.3,2.7-2.1,3.7c-0.8,1.1-1.3,2.1-1.9,3.5c-0.8,1.3-1.3,2.4-2.1,3.7
			c-2.7,4.5-5.1,9.3-7.7,13.8c-1.9,2.9-3.5,6.1-5.3,9c-0.8,1.3-1.6,2.7-2.4,4.3c-2.4,4-4.5,8-6.9,12c-1.3,2.4-2.9,4.5-4.3,6.9
			c-0.3,0.5-0.5,1.1-1.1,1.6c-2.4,3.2-4,6.9-6.4,10.1c-2.1,3.5-4,6.9-6.1,10.4c-1.9,3.2-3.7,6.4-5.9,9.3c-1.6,2.4-2.9,4.5-4.3,6.9
			c-2.7,5.1-6.1,9.8-9,14.6c-1.3,2.1-2.7,4-3.7,6.1c-1.1,1.6-2.1,3.2-2.9,4.8c-0.5,1.1-1.1,2.1-2.1,3.2c-1.3,1.3-2.1,2.9-2.9,4.3
			c-1.3,2.4-2.9,4.5-4.3,6.9c-1.3,2.4-2.9,4.5-4.3,6.9c-1.1,1.9-2.4,3.7-3.5,5.9c-0.8,1.3-1.6,2.4-2.1,3.7c-0.5,1.1-1.3,1.9-1.9,2.7
			c-0.3,0.3-1.1,0.5-1.3,0.3c-0.5-0.3-1.3-0.5-1.9-0.8c-2.7-1.6-5.6-2.7-8.2-4.3c-1.6-0.5-3.2-1.6-4.5-2.4c-1.6-0.8-2.9-1.6-4.5-2.4
			c-2.4-1.1-4.8-2.1-7.2-3.2c-1.6-0.8-3.2-1.9-5.1-2.4c-0.3,0-0.3,0-0.5-0.3c-3.7-2.4-8.2-3.7-12-6.1c-1.1-0.8-2.4-1.1-3.7-1.9
			c-0.5-0.3-1.1-0.8-1.6-1.1c-0.5-0.5-0.8-1.1-0.5-1.6c0.3-1.1,0.5-2.1,1.3-2.9c0.8-1.3,1.3-2.7,1.9-3.7c0-1.3,0.8-2.4,1.3-3.5
			c0.5-0.8,0.8-1.3,1.1-2.1c0.8-2.4,2.4-4.5,3.2-6.9c0.3-0.5,0.5-1.1,1.1-1.6c0.3-0.5,0.8-1.1,1.1-1.6c0.8-1.3,1.6-2.7,2.1-4.3
			c0.3-1.1,0.8-2.1,1.1-3.2c0.3-0.5,0.3-0.8,0.8-1.3c0.8-0.8,1.3-1.6,1.6-2.4c1.3-2.4,2.7-4.8,4-7.2c0.3-0.5,0.5-1.1,0.8-1.6
			c1.1-2.7,2.4-5.1,3.7-7.7c0.8-1.6,1.6-3.5,2.7-5.1c0.3-0.5,0.3-1.1,0.3-1.9c0-0.3-0.3-0.3-0.3-0.5c-0.3-0.8,0-1.6,0.8-2.1
			c0.3,0,0.3-0.3,0.5-0.3c0.8-0.3,1.1-0.5,1.6-1.3c0.5-1.1,1.1-1.9,1.3-2.9c0.5-1.3,1.1-2.9,2.4-4c0.5-0.5,0.5-1.1,0.8-1.9
			c0-0.5,0-1.1,0.5-1.3c1.3-1.9,2.4-3.7,3.2-5.9c1.1-2.4,2.4-4.5,3.5-6.6c0.8-1.6,1.6-3.2,2.4-4.5c1.1-2.1,2.1-4.3,3.2-6.4
			c0.3-0.8,0.5-1.3,0.8-2.1c0-0.5,0.3-1.3,0.8-1.6c0.5-0.5,1.1-1.1,1.6-1.9c2.9-5.9,6.4-11.7,9.8-17.6c0.3-0.5,0.8-1.1,1.1-1.6
			c2.1-4.5,5.1-8.8,7.2-13.3c1.1-1.9,1.9-4,2.9-5.9c0.3-0.3,0.3-0.5,0.3-0.8c1.3-2.1,2.1-4.3,2.9-6.4c0.3-0.5,0.5-1.1,1.1-1.6
			c0.8-0.8,1.3-1.6,1.6-2.4c0.5-1.3,1.3-2.4,2.1-3.7c2.1-3.5,4.5-7.2,6.1-10.9c0.3-0.8,0.8-1.6,1.3-2.4c1.1-1.6,2.1-2.9,2.7-4.5
			c0-0.3,0.3-0.5,0.5-0.8c1.3-0.8,1.9-1.9,2.4-3.2c0.8-1.6,1.6-3.2,2.1-4.8c0.5-1.3,1.3-2.9,2.1-4.3c0.8-1.3,1.1-2.9,1.6-4.5
			c0-0.5,0.3-0.8,0.5-1.3c1.1-0.8,1.3-1.9,1.9-2.9c0.3-1.1,0.8-2.1,1.6-2.9c0.8-1.3,1.3-2.4,1.9-3.7c1.1-2.9,2.9-5.6,3.7-8.5
			c0-0.3,0-0.3,0.3-0.5c2.1-3.2,3.2-6.6,4.8-9.8c1.6-3.5,3.2-7.2,4.8-10.9c0.3-0.5,0.5-1.1,1.1-1.6c0.5-0.8,0.8-1.3,1.1-2.1
			c0.3-0.8,0.8-1.9,1.3-2.7c0.8-1.3,1.3-2.9,1.3-4.5c0-0.3,0-0.5,0.3-0.8c0.3-0.3,0.5-0.5,0.5-0.8c1.3-1.3,2.4-2.7,2.7-4.5
			c0-0.5,2.7-5.1,3.2-5.9c0.5-1.1,1.3-1.9,1.3-2.9c0-0.8,0.8-1.3,1.1-2.1c0.5-1.3,1.1-2.9,1.6-4.5c0.3-0.8,0.8-1.9,1.6-2.4
			c0.5-0.5,0.5-1.1,0.8-1.6c0-0.5,0.3-1.1,0.5-1.3c1.3-1.6,2.4-3.5,2.9-5.3c1.1-3.2,2.9-6.1,4-9c0.3-0.8,0.8-1.6,1.3-2.4
			c0.5-1.1,1.6-2.1,1.9-3.2c0.8-2.1,2.1-4.3,2.7-6.6c0.3-1.1,0.5-1.9,1.1-2.7c0.5-0.8,1.1-1.6,1.6-2.4c0.8-1.1,1.3-2.1,1.6-3.5
			c0.3-0.5,0.3-1.1,0.5-1.9c0.5-0.8,0.5-1.9,0.5-2.7c0-0.5,0-0.8,0.5-1.3c0.3-0.3,0.3-0.5,0.5-0.8c0.8-1.1,1.9-1.9,2.1-3.2
			c0.8-0.8,1.6-1.9,2.1-2.7c0.5-0.5,0.8-1.3,1.1-2.1c0.3-0.5,0.3-1.3,0.5-1.9c1.1-1.3,1.3-2.9,2.1-4.3c0.8-1.3,1.1-2.7,1.9-3.7
			c0.8-1.3,1.3-2.7,1.6-4c0.5-1.9,1.6-3.5,2.4-5.1c1.1-2.4,1.9-5.1,3.7-7.2c0.3-0.8,0.8-1.6,1.3-2.7c1.1-1.9,1.9-4,2.9-6.1
			c0.3-0.5,0.5-1.1,0.5-1.9c0-1.1,0.8-2.1,1.3-2.9c0.5-0.8,1.1-1.6,1.3-2.7c0.3-1.3,1.3-2.1,1.3-3.5c1.9-3.7,3.7-7.2,6.9-10.4
			c0.3-0.3,0.5-0.3,1.1-0.3c1.3,0,2.1,0.8,3.5,1.1c1.1,0.5,2.1,1.1,3.2,1.6c1.1,0.5,2.1,1.1,3.2,1.6c1.6,0.8,2.9,1.6,4.8,2.1
			c0.8,0.3,1.3,0.5,1.9,0.8c1.1,0.8,2.1,1.3,3.2,1.6c1.9,0.5,3.7,1.3,5.1,2.4c0.5,0.3,0.8,0.5,1.3,0.8c2.4,0.8,4.5,1.9,6.6,2.9
			c2.7,1.1,5.3,2.4,8,3.7c3.2,1.6,6.6,2.7,9.8,4.5c2.1,0.5,3.7,1.6,5.9,2.4c1.9,0.8,3.5,1.3,5.3,2.1c1.3,0.5,2.4,1.3,3.7,1.9
			C2820.5,614.5,2820.8,615,2821.1,615.3z"/>
		<path fill="#FFFFFF" d="M2301.1,1147.4c-0.5-0.3-1.1-0.5-1.3-0.8c-0.5-0.5-0.8-1.3-1.1-2.1c0-2.1-1.3-4.3-1.9-6.4
			c-1.3-2.7-1.6-5.3-2.7-8c0-1.3-1.1-2.7-1.3-4c-0.3-1.3-0.8-2.7-1.3-4c-0.8-1.9-1.1-4-2.1-5.9c0-0.3,0-0.3,0-0.5
			c-0.3-2.7-1.6-4.8-2.4-7.2c-0.3-1.1-1.1-1.6-2.1-1.9c-0.3-0.3-0.5-1.1-0.5-1.3c0-0.3,0.3-0.5,0.5-0.8c0.5-0.8,0.5-1.6,0.3-2.1
			c-0.5-1.6-1.3-3.2-1.9-4.8c-1.1-2.7-1.6-5.3-2.9-8c0-1.1-0.5-2.1-1.1-3.2c-0.5-2.4-1.6-4.8-2.4-7.2c-0.8-2.1-1.9-4-1.9-6.4
			c-0.8-1.9-1.3-3.7-2.1-5.9c-0.5-1.3-0.8-2.7-1.3-4c-0.5-2.1-1.3-4.5-2.4-6.6c-0.5-1.1-0.8-2.1-1.1-3.2c-0.3-0.5-0.3-1.3-0.5-1.9
			c-0.8-1.6-1.3-3.2-1.6-4.8c-0.3-0.8-0.5-1.9-0.8-2.7c-1.1-2.4-1.9-5.1-2.9-7.4c-0.5-1.1-1.1-2.4-1.3-3.5c-0.5-2.7-1.9-5.3-2.9-8
			c-0.5-1.6-1.6-3.2-1.6-4.8c0-0.3-0.3-0.5-0.3-0.8c-0.8-1.9-1.6-3.7-2.1-5.9c-0.5-1.9-1.1-3.5-1.9-5.3c-0.5-1.6-1.1-2.9-1.6-4.3
			c-0.8-1.9-1.3-3.7-2.1-5.9c-0.3-1.9-1.1-3.5-1.9-5.3c-0.5-1.1-1.1-2.4-1.6-3.5c-0.3-0.5-0.5-0.8-0.5-1.3c0-1.6-0.8-2.9-1.3-4.5
			c-0.5-1.6-1.3-3.2-2.1-4.8c-1.1-2.4-1.9-5.1-2.9-7.4c-0.3-0.8-0.3-1.6-0.5-2.4c0-0.8-0.3-1.6-0.8-2.1c-0.8-1.3-1.3-2.7-1.9-4
			c-1.1-2.7-2.1-5.3-3.5-7.7c-0.5-1.1-0.8-2.1-1.1-3.2c0-0.5-0.3-0.8-0.5-1.3c-0.3-0.5-0.5-0.8-0.8-1.3c-1.3-2.1-2.1-4.5-3.2-6.9
			c-0.8-2.7-2.1-5.1-2.9-7.4c-0.3-1.1-1.1-2.4-1.6-3.5c-0.5-1.1-0.8-2.1-1.3-3.2c-0.3-0.8-0.8-1.6-1.1-2.7c-0.3-0.8-0.8-1.9-1.1-2.7
			c0-0.3-0.3-0.3-0.3-0.5c-1.1-1.6-1.1-3.5-2.1-5.3c-0.8-1.6-1.6-3.2-2.1-4.8c-0.8-2.4-1.6-4.8-2.9-6.9c-0.3-0.5-0.5-0.8-0.5-1.3
			c-0.3-1.6-1.1-3.2-1.9-4.8c-0.5-1.1-1.1-2.4-1.1-3.5c-0.3-2.1-1.1-4.3-2.1-6.1s-1.9-4-2.7-6.1c-0.5-1.9-1.6-3.5-2.4-5.1
			c-0.3-0.5-0.5-0.8-1.1-1.1c-0.3-0.3-0.5-0.8-0.5-1.3c0-0.8,0-1.6-0.3-2.4c0-0.5-0.3-1.3-0.5-1.9c-0.5-1.3-1.1-2.7-1.6-4
			c-1.3-2.7-2.1-5.6-3.2-8.2c-0.3-1.6-1.1-2.9-1.6-4.5c-0.8-1.6-1.6-3.2-1.9-4.8c-0.8-1.6-1.6-3.5-2.4-5.1c-0.8-1.6-0.8-3.5-1.6-4.8
			c-1.1-1.9-1.6-3.7-2.4-5.6c-0.8-1.9-1.6-3.7-2.1-5.6c-0.3-0.8-0.5-1.6-0.8-2.1c-0.8-1.3-1.6-2.7-1.9-4.3c-0.3-1.3-1.1-2.7-1.6-4
			c-0.3-1.1-0.8-2.4-1.6-3.5c-1.1-1.6-1.3-3.5-2.4-5.1c-0.3-0.3-0.3-0.5-0.3-0.8c0-1.6-0.8-2.9-1.6-4.5c-1.1-2.4-2.1-4.8-3.2-7.4
			c-0.5-1.6-1.1-3.2-2.1-4.8c-0.3-0.3-0.3-0.8-0.5-1.3c0-0.8-0.3-1.6-0.5-2.1c-0.5-1.1-1.1-1.9-1.6-2.9c-0.3-1.9-1.1-3.5-1.9-5.3
			c-0.8-1.6-1.3-3.2-1.9-4.8c-0.3-0.8-0.5-1.9-0.5-2.7c0-0.5,0.3-0.8,0.3-1.3c0.3-0.5,0.5-0.8,1.1-1.1c0.8-0.3,1.6-0.5,2.4-0.8
			c1.9-0.3,3.5-0.3,5.3-0.8c0.8-0.3,1.9-0.3,2.7-0.3c3.5-0.3,6.6-1.3,9.6-2.7c0.3-0.3,0.5-0.3,0.8-0.5c1.3-0.5,2.4-1.1,4-1.1
			c0.8,0,1.3,0,2.1-0.3c0.8,0,1.9-0.3,2.7-0.5c0.5-0.3,1.1-0.3,1.6-0.3c4.3-0.3,4-0.3,7.7-1.6c0.5-0.3,1.3-0.5,2.1-0.5
			c1.9-0.3,3.7-1.1,5.6-1.6c1.3-0.3,2.7-0.8,4-0.8c1.9,0,3.7-1.1,5.6-1.3c0.3,0,0.3,0,0.5-0.3c1.3-0.5,2.7-1.1,3.7-1.6
			c1.3,0,2.7-0.5,4.3-0.8c2.4-0.8,5.3-1.1,7.7-2.1c2.1-0.5,4-0.8,6.1-1.3c0.3,0,1.1,0.3,1.3,0.5c0,0.3,0.3,0.3,0.3,0.5
			c1.1,3.2,2.7,6.1,3.5,9.3c0.3,0.8,0.5,1.6,0.8,2.1c0.5,1.3,1.1,2.7,1.1,4c0.5,1.9,1.3,4,1.9,5.9c0.5,1.3,1.1,2.7,1.3,4
			c0,0.3,0,0.5,0.3,0.8c1.1,1.9,1.6,4.3,2.1,6.1c0.8,2.1,1.3,4.3,2.1,6.4c0.8,2.1,1.3,4.3,2.1,6.1c0,0.3,0,0.3,0.3,0.5
			c0.8,1.6,0.5,3.5,1.3,5.1c0.8,1.6,1.3,3.2,1.9,4.8c0.5,1.6,1.1,2.9,1.6,4.5c0.3,1.6,1.1,2.9,1.3,4.5c0.3,1.6,1.1,2.9,1.3,4.5
			c0.5,1.1,0.8,2.1,1.3,2.9c0.3,0.8,0.5,1.6,0.5,2.1c0.3,0.8,0.3,1.6,0.5,2.1c0.3,0.8,0.5,1.6,0.5,2.1c0.3,1.3,0.5,2.4,1.1,3.5
			c0.8,2.1,1.3,4.3,2.1,6.1c0.5,1.1,0.8,2.1,1.1,3.2c0.3,1.3,1.1,2.7,1.1,4c0,1.3,0.8,2.7,1.3,4c0.3,0.5,0.3,0.8,0.5,1.3
			c0.5,2.7,1.6,5.1,2.4,7.4c0.8,2.1,1.6,4,2.1,6.1c0.3,1.3,0.8,2.4,1.1,3.5c0.5,2.1,1.6,4.3,1.9,6.4c0,0.5,0.5,1.1,0.5,1.9
			c0.3,0.8,0.8,1.9,1.1,2.7c0.8,3.5,2.1,6.9,3.2,10.4c0.8,2.1,1.6,4.5,2.4,6.6c0.3,0.8,0.5,1.9,0.8,2.7c0.5,1.9,1.1,4,1.9,5.9
			c0.3,0.5,0.5,1.1,0.5,1.9c0.3,1.3,1.1,2.7,1.3,4c0.3,1.3,0.8,2.7,1.3,4c0.3,1.3,0.8,2.7,1.3,4c0.3,0.5,0.5,1.1,0.5,1.9
			c0.3,1.6,0.8,2.9,1.3,4.5c0,1.6,0.8,2.9,1.3,4.5c0.3,1.3,1.1,2.7,1.3,4c0.8,2.7,1.3,5.1,2.1,7.7c1.1,3.2,1.9,6.6,2.9,9.8
			c1.1,3.2,1.9,6.4,2.9,9.3c1.1,3.7,2.4,7.4,3.5,11.2c1.3,4.3,2.7,8.8,4,13c0.3,0.8,0.3,1.6,0.8,2.1c0.5,1.1,0.8,2.1,1.1,3.2
			c0.5,1.6,0.5,3.5,1.3,5.1c0.3,1.6,0.8,3.2,1.3,5.1c0.5,1.6,1.1,3.2,1.6,5.1c0.5,2.1,1.1,4.3,1.9,6.4c0.5,1.9,1.3,3.7,1.6,5.9
			c0,0.3,0,0.5,0.3,0.8c0.8,1.3,1.1,2.7,1.3,4s0.8,2.7,1.1,4c0.5,1.6,0.5,2.9,1.6,4.5c0.3,0.3,0.3,0.8,0.3,1.3
			c0.3,0.5,0.3,1.3,0.3,1.9c1.3,3.7,2.4,7.4,3.5,11.2c0.5,1.6,1.1,3.2,1.6,4.8c0,0.3,0.3,0.3,0.3,0.5c1.1,4.8,2.9,9.6,4.3,14.4
			c1.1,3.5,1.9,6.9,3.2,10.4c0.3,0.8,0.3,1.6,0.5,2.4c0.3,0.8,0.5,1.9,1.1,2.7c0.3,0.8,0.5,1.3,0.8,2.1c0.3,1.6,0.8,3.2,1.3,5.1
			c0.8,2.4,1.9,4.8,2.1,7.2c1.1,2.4,1.6,4.8,2.4,7.2c1.6,4.3,2.9,8.5,4.3,12.8c0.3,1.1,0.5,2.1,1.1,3.2c0.5,1.9,1.1,3.7,1.9,5.3
			c0.8,1.6,1.1,3.2,1.3,5.1c0,0.5-0.5,1.3-1.1,1.6c-0.3,0-0.5,0.3-1.1,0.3c-4,1.1-7.7,2.4-11.7,3.2c-0.3,0-0.3,0-0.5,0
			c-2.1,0.5-4,1.3-6.1,1.9c-1.9,0.3-3.7,0.8-5.6,1.6c-2.9,0.8-6.1,1.6-9,2.4c-1.1,0.3-2.4,0.5-3.5,1.1c-0.5,0.3-1.1,0.3-1.6,0.3
			c-0.3,0-0.8,0-1.1,0.3c-1.3,0.5-2.7,0.8-4,1.3c-1.3,0.3-2.7,0.5-4.3,0.8c-2.7,0.5-5.1,1.3-7.7,2.1
			C2302.2,1147.4,2301.7,1147.4,2301.1,1147.4z"/>
		<path fill="#FF4338" d="M2769.2,1096.4c1.1,0.5,2.4,0.8,3.2,1.6c0.8,0.5,1.6,0.8,2.1,1.3c2.4,1.6,4.8,3.2,7.4,4.3
			c2.1,1.1,4,2.4,6.1,3.7c1.3,1.1,2.9,1.6,4.5,2.7c1.3,1.1,2.9,1.6,4.5,2.4c0.8,0.5,1.9,0.8,2.7,1.6c2.4,1.6,5.1,2.9,7.4,4.5
			c1.3,1.1,3.2,1.3,4.5,2.4c2.1,1.1,4,2.7,6.1,3.7c0.5,0.3,0.8,0.8,1.1,1.6c0.3,0.5,0.3,0.8,0,1.3c-0.3,0.5-0.3,0.8-0.8,1.3
			c-2.9,4-5.6,8.2-8.5,12.5c-1.9,2.9-4,5.9-6.1,8.8c-2.1,2.9-4,5.9-6.1,8.8c-1.6,2.1-2.7,4.3-4.3,6.4c-1.6,2.1-2.9,4.3-4.3,6.4
			c-1.3,1.9-2.4,3.7-4,5.6c-0.5,0.5-0.8,1.1-1.1,1.6c-0.5,1.1-1.3,2.1-2.1,3.2c-0.3,0.3-0.5,0.5-0.5,0.8c-2.7,4.5-6.1,8.8-8.5,13.3
			c0,0.3-0.3,0.3-0.3,0.5c-2.7,3.7-4.8,7.4-7.4,11.2c-0.3,0.5-0.8,1.1-1.1,1.6c-1.9,3.2-4,6.1-5.9,9.3c-0.5,0.8-1.1,1.6-1.6,2.4
			c-1.3,2.4-2.9,4.5-4.3,6.9c-0.8,1.1-1.3,2.1-2.1,3.2c-4.8,7.2-8.8,14.4-13.6,21.5c-1.1,1.6-2.1,3.2-2.9,4.8
			c-2.4,4.3-5.3,8.2-7.7,12.8c-2.9,4-5.3,8.5-8,12.5c-0.5,0.8-0.8,1.3-1.3,2.1c-3.7,6.4-7.7,12.5-11.4,18.9
			c-1.9,3.2-3.7,6.4-5.6,9.6c-0.3,0.3-0.3,0.5-0.5,0.8c-2.1,2.9-3.7,6.4-5.6,9.6c-1.1,1.9-2.1,3.5-3.2,5.3c-0.8,1.3-1.6,2.4-2.1,3.7
			c-1.3,2.1-2.9,4.3-3.7,6.6c-1.3,2.1-2.4,4.3-3.7,6.1c-1.1,1.3-1.9,2.7-2.1,4.3c-1.3,2.4-2.4,4.8-3.7,7.2c-0.5,1.1-1.1,1.9-1.6,2.9
			c-0.8,1.6-1.6,3.2-2.7,4.5c-0.3,0.3-0.5,0.8-0.8,1.3c-1.3,2.7-2.7,5.1-4,7.4c-1.3,2.4-2.7,4.8-4,7.2c-1.3,2.4-2.9,5.1-4.3,7.4
			c-1.3,2.1-2.7,4.5-3.7,6.6c-1.1,2.4-2.7,4.5-3.7,6.6c-2.7,4.8-5.6,9.6-8.2,14.6c-1.3,2.4-2.9,5.1-4.5,7.4
			c-0.5,1.1-1.3,2.1-1.9,3.2c-0.8,1.3-1.3,2.4-2.1,3.7c-0.8,1.3-1.9,2.7-2.4,4.3c-0.5,1.3-1.3,2.4-2.1,3.7s-1.9,2.7-2.4,4
			s-1.6,2.4-2.1,3.7c-0.8,1.3-1.6,2.7-2.4,4c-0.8,1.3-1.6,2.4-2.1,3.7c-2.7,4.3-5.3,8.5-8,12.8c-0.5,0.8-1.6,1.1-2.7,0.5
			c-1.6-0.5-3.2-1.3-4.5-2.1c0,0-0.3-0.3-0.5-0.3c-1.6-0.8-3.5-1.3-5.1-2.7c-1.3-1.1-2.9-1.6-4.5-2.7c-1.6-0.8-3.2-1.9-5.1-2.7
			c-2.7-1.3-5.1-2.7-7.7-4.3c-1.3-0.8-2.7-1.3-4.3-2.1c-1.3-0.8-2.7-1.6-4-2.4c-2.1-1.3-4.8-2.1-6.6-3.7c-3.5-1.6-6.6-3.7-10.1-5.3
			c-1.1-0.5-2.1-1.1-2.9-1.9c-0.5-0.5-0.8-1.1-1.1-1.6c-0.3-0.5-0.3-0.8,0-1.3s0.5-0.8,0.8-1.3c1.6-2.1,3.2-4.5,4.3-6.9
			c0.5-1.3,1.6-2.7,2.4-4c1.1-1.3,2.1-2.9,2.7-4.5c1.6-2.7,2.9-5.3,4.8-7.7c0.3-0.3,0.5-0.8,0.8-1.3c0.8-1.9,1.9-3.5,2.9-5.1
			c0.3-0.5,0.8-1.1,0.8-1.6c0-0.5,0.3-1.1,0.8-1.6c0.8-0.8,1.3-1.3,1.9-2.4c0.5-1.1,1.1-1.9,1.6-2.9c0.3-0.5,0.5-1.1,0.8-1.6
			c0.3-0.8,0.5-1.6,1.1-2.1c1.1-1.3,2.1-2.7,2.9-4.5c0.3-0.8,1.1-1.6,1.6-2.4c0.3-0.5,0.8-1.1,1.1-1.6c0.8-1.9,1.6-3.5,2.9-4.8
			c0.3-0.3,0.5-0.8,0.8-1.3c0.8-1.9,1.9-3.7,3.2-5.3c1.3-1.9,2.4-3.7,3.2-5.9c0.3-0.5,0.3-0.8,0.5-1.3c1.1-1.3,2.1-2.9,2.7-4.5
			c0.8-1.6,1.9-2.9,2.7-4.5c0.5-0.8,1.1-1.3,1.3-1.9c0.8-1.3,1.6-2.4,2.1-3.7c0.8-2.1,1.9-4,2.9-5.9c1.3-1.6,1.9-3.7,3.5-5.3
			c0.3-0.3,0.3-0.5,0.5-0.8c1.1-1.6,1.6-3.5,2.7-5.1c1.1-1.3,1.9-2.9,2.7-4.5c0.8-1.3,1.6-2.7,2.4-4.3c0.3-0.5,0-1.1-0.3-1.6
			c-0.5-1.1-0.3-1.9,0.5-2.4c0.5-0.3,0.8-0.5,1.3-0.8c0.8-0.3,1.3-0.5,1.6-1.1c0.8-1.6,1.9-2.9,2.9-4.5c0.8-1.3,1.6-2.7,1.6-4.3
			c0-0.8,0.3-1.6,0.8-2.1c1.1-1.1,1.3-2.4,2.7-3.5c0.3-0.3,0.5-0.5,0.5-0.8c0.8-1.3,1.6-2.7,2.4-4.3c0.5-1.3,1.3-2.9,2.4-4.3
			c0.8-1.1,1.6-2.4,1.9-3.7c0.3-0.8,0.8-1.9,1.3-2.4c1.6-1.9,2.4-4.3,3.7-6.1c1.3-1.9,2.1-4,3.5-5.9c0.3-0.5,0.5-0.8,0.5-1.3
			c0.3-0.8,0.5-1.3,1.1-2.1c0.8-0.8,1.6-1.9,1.6-2.9c1.9-2.7,3.2-5.9,5.1-8.8c0.5-0.8,1.1-1.6,1.3-2.4s1.1-1.6,1.6-2.4
			c0.3-0.5,0.5-1.1,0.8-1.6c0.8-2.1,2.4-4.3,3.7-6.1c1.3-1.9,2.4-3.7,3.7-5.6c0.3-0.5,0.5-1.1,0.8-1.6c0.3-0.8,0.8-1.3,1.1-2.1
			c1.1-1.6,2.4-3.2,3.2-4.8c0.8-1.6,1.9-2.9,2.7-4.5c0.8-1.6,1.9-2.9,2.9-4.3c0.8-1.1,1.6-2.4,2.4-3.5c1.3-2.1,2.7-4,4-6.1
			c1.1-1.6,2.1-3.2,3.2-4.8c1.3-2.4,2.7-4.8,4.3-6.9c0.5-0.8,1.1-1.6,1.3-2.4s0.8-1.3,1.3-1.9c1.1-0.8,1.1-1.9,1.9-2.7
			c0.8-0.8,1.6-1.9,1.9-2.9c0.3-0.5,0.5-0.8,0.8-1.1c0.5-1.1,1.9-1.9,2.4-2.9c0.8-1.1,1.1-2.1,2.1-3.2c0.5-0.8,1.1-1.6,1.6-2.4
			c0.3-0.5,0.5-1.1,1.1-1.6c1.9-2.1,3.2-4.5,4.8-6.6c1.6-2.1,2.9-4.5,4.5-6.9c1.6-2.4,3.2-4.8,5.1-7.2c0.5-0.5,1.1-1.3,1.3-1.9
			c1.1-1.9,2.4-3.5,3.7-5.1c0.5-0.5,1.1-1.3,1.3-2.1c0.5-1.6,1.3-2.7,2.7-3.7c0.5-0.5,0.8-1.1,1.3-1.6c1.9-2.7,3.5-5.3,5.6-8
			c1.9-2.4,3.7-4.8,5.3-7.4c0.3-0.5,0.5-0.8,0.8-1.1c1.1-1.1,1.9-2.7,2.9-3.7c1.1-1.1,1.9-2.4,2.7-3.5c0.5-0.8,1.3-1.6,1.9-2.4
			c0.3-0.5,0.8-1.1,1.1-1.6c0.8-1.6,2.1-3.2,3.5-4.5c0.3-0.3,0.8-0.8,0.8-1.1c0.5-1.3,1.6-2.4,2.7-3.5c1.9-2.1,3.7-4.3,5.6-6.1
			c0.8-0.8,1.1-1.6,1.6-2.4c1.3-1.9,2.7-3.7,4.5-5.1c0.3-0.3,0.5-0.3,1.1-0.3C2768.9,1096.1,2768.9,1096.4,2769.2,1096.4z"/>
		<path fill="#FFFFFF" d="M2806.7,896.9c0.3-0.8,0.5-1.6,1.1-2.1c3.2-2.7,6.4-5.3,9.6-8.2c2.1-1.9,4-3.5,6.1-5.3
			c1.9-1.9,4-3.5,6.1-5.3c1.1-1.1,2.1-1.9,3.2-3.2c0.8-0.8,1.6-1.6,2.7-2.1c0.3-0.3,1.1-0.3,1.6,0c0.3,0,0.3,0.3,0.5,0.3
			c2.7,2.1,5.6,4.3,8.5,6.4c1.6,1.1,3.2,2.7,4.8,3.7c1.6,1.1,2.9,2.1,4.3,3.5c5.1,3.7,10.4,7.4,15.4,11.2c1.6,1.1,2.9,2.1,4.5,3.2
			c1.6,0.8,2.9,1.9,4.3,2.9c1.9,1.6,3.7,2.9,5.6,4.3c0.8,0.5,1.6,1.3,2.4,1.9c0.8,0.5,1.9,1.1,2.7,1.6c1.3,1.1,2.9,1.9,4,2.9
			c1.9,1.6,4,2.7,5.6,4.3c0.5,0.5,1.1,0.8,1.6,1.1c1.6,1.1,2.4,1.3,4,2.9c0.3,0.3,0.5,0.5,0.8,0.5c2.7,1.6,4.8,3.5,7.4,5.1
			c2.1,1.3,3.7,2.9,5.9,4.3c2.7,1.9,5.1,3.7,7.7,5.6c1.9,1.3,4,2.7,5.9,4c3.5,2.1,6.6,4.8,10.1,6.6c0.3,0.3,0.5,0.3,0.8,0.5
			c2.4,1.9,4.5,3.5,7.2,5.1c2.7,1.9,5.3,3.7,8,5.3c1.9,1.1,3.7,2.4,5.3,3.7c1.1,0.8,1.9,1.3,2.9,2.1c3.2,2.4,6.4,4.5,9.3,6.9
			c2.9,2.1,5.9,4,8.5,6.1c4.3,2.7,8.2,5.9,12.2,8.8c0.3,0.3,0.5,0.5,0.8,0.5c2.9,1.9,5.6,4,8.2,5.9c3.7,2.7,7.4,5.3,10.9,8
			c1.6,1.1,2.9,2.1,4.5,3.2c2.4,1.6,4.5,2.9,6.4,4.8c0.5,0.5,1.1,0.8,1.6,1.1c2.1,1.6,4.3,2.9,6.1,4.5c1.3,1.3,2.9,2.4,4.5,3.5
			c2.7,1.9,5.1,4,7.7,5.9c3.5,2.7,6.9,5.3,10.6,7.7c1.9,1.9,4.3,3.2,6.4,5.1c0.8,0.8,1.9,1.3,2.9,2.1c0.8,0.5,1.6,1.3,2.4,1.9
			c1.6,1.3,3.2,2.4,4.8,3.7c2.1,1.9,4.8,3.2,6.6,5.3c2.4,1.1,4,2.9,6.1,4.5c1.6,1.1,3.5,2.1,4.8,3.7c0.5,0.5,1.3,1.1,2.1,1.6
			c2.1,1.6,4.3,2.9,6.1,4.5c0.5,0.5,1.1,0.8,1.6,1.1c3.7,2.7,7.7,5.3,11.2,8.5c0.3,0.3,0.8,0.8,1.1,1.1c1.6,1.1,3.5,2.1,4.8,3.7
			c1.9,1.1,3.2,2.4,4.8,3.7c0.3,0.3,0.8,0.8,1.1,1.1c2.1,1.3,3.7,2.9,5.6,4.3c1.9,1.3,3.5,2.7,5.1,4.3c0.5,0.5,1.3,1.1,1.9,1.6
			c1.1,0.8,2.1,1.6,3.2,2.4c1.3,1.1,2.7,2.4,4.3,3.5c0.3,0.3,0.5,0.3,0.8,0.5c2.7,2.4,5.3,4.5,8.2,6.6c2.7,2.1,5.6,4.5,8.2,6.6
			c1.3,1.1,2.7,2.1,4,2.9c1.1,1.1,2.4,1.9,3.5,2.9c1.1,1.1,2.7,1.6,3.7,2.7c1.1,0.8,1.9,1.9,2.9,2.7c1.3,1.1,2.7,1.9,4,2.9
			c1.1,1.1,2.4,1.9,3.7,2.7c1.1,1.1,2.1,2.1,3.5,2.9c1.3,1.3,2.9,2.7,4.3,4c0.3,0.3,0.3,1.1,0,1.3s-0.5,0.5-0.8,0.8
			c-1.3,0.8-2.4,1.9-3.5,2.9c-0.8,0.5-1.6,1.3-2.4,1.9c-1.9,1.3-3.5,2.7-5.1,4.3c-0.5,0.5-1.3,1.1-1.9,1.6c-0.8,0.5-1.3,1.1-1.9,1.6
			c-1.1,1.1-2.4,2.1-4,3.2c-1.3,0.8-2.4,1.9-3.5,2.9c-1.9,1.6-3.7,3.2-5.9,4.8c-0.8,0.5-1.3,1.1-1.9,1.6c-1.1,1.1-2.4,2.1-3.7,3.5
			c-1.1,1.1-2.4,1.9-3.5,2.9c-1.6,1.1-2.9,2.7-4.8,3.7c-0.5,0.3-1.1,0.8-1.6,1.3c-1.6,1.6-3.5,3.2-5.1,4.8c-0.3,0.3-0.8,0.5-1.3,0.8
			c-0.3,0.3-1.3,0.3-1.6,0c-1.9-1.3-3.7-2.4-5.3-3.7c-3.2-2.7-6.4-4.8-9.3-7.7c-0.8-0.8-1.6-1.1-2.4-1.9c-2.1-1.6-4.5-3.2-6.4-5.1
			c-1.1-1.1-2.4-1.9-3.5-2.7c-2.1-1.3-4-2.9-6.1-4.5c-1.1-1.1-2.4-1.9-3.7-2.7c-1.1-1.1-2.1-2.1-3.5-2.9c-3.2-2.1-5.6-4.8-8.8-6.9
			c-0.3-0.3-0.5-0.5-0.8-0.5c-1.3-0.8-2.1-2.1-3.5-2.9c-1.1-0.8-2.1-1.6-3.2-2.4c-1.3-0.8-2.1-2.1-3.5-2.7c-0.5-0.3-1.1-0.8-1.6-1.3
			c-1.6-1.1-2.7-2.4-4-3.7c-1.3-1.3-3.2-2.1-4.5-3.5c-1.3-1.3-2.7-2.4-4.3-3.5c-0.8-0.5-1.3-1.1-1.9-1.6c-1.9-1.6-4-3.2-5.6-4.8
			c-0.5-0.5-1.1-0.8-1.6-1.3c-2.1-1.6-4-2.9-5.9-4.8c-1.6-1.6-3.5-2.7-5.1-4c-1.9-1.3-3.7-2.9-5.6-4.5c-0.8-0.8-1.9-1.6-2.7-2.1
			c-1.9-1.6-3.7-2.9-5.6-4.3c-1.6-1.3-3.2-2.9-4.8-4.3c-1.9-1.6-3.7-3.5-5.9-4.8c-0.8-0.5-1.6-1.3-2.4-1.9c-1.3-1.1-2.4-2.1-4-3.2
			c-0.8-0.5-1.6-1.3-2.4-1.9c-2.7-2.4-5.3-4.5-8.2-6.6c-0.5-0.3-1.1-0.8-1.6-1.3c-2.4-2.1-4.8-4.3-7.2-6.1c-2.1-1.9-4-3.7-6.4-5.1
			c-1.6-1.6-3.5-2.7-4.8-4.3c-2.9-2.7-6.1-5.1-9.3-7.7c-1.3-1.1-2.9-2.4-4-3.7c-1.3-1.3-2.9-2.7-4.5-4c-3.5-2.9-6.9-6.1-10.6-9.3
			c-4.5-5.1-10.1-9-15.2-13.6c-1.6-1.3-2.9-2.7-4.3-4.3c-1.1-1.1-2.1-2.1-3.2-3.2c-0.3-0.3-0.5-0.5-0.8-0.8
			c-1.9-1.1-3.2-2.4-4.8-3.7c-1.9-1.6-3.7-3.2-5.6-5.1c-0.8-0.8-1.3-1.6-2.1-2.1c-1.9-1.1-3.5-2.7-5.1-4c-1.9-1.6-3.7-2.9-5.6-4.3
			c-1.6-1.3-2.9-2.7-4.5-4c-1.1-1.1-2.1-2.4-3.7-3.2c-0.3-0.3-0.5-0.3-0.8-0.5c-1.6-1.9-3.5-3.2-5.3-4.5c-1.1-0.8-1.9-1.9-2.9-2.7
			c-1.9-1.9-3.7-3.7-6.1-5.1c-0.5-0.3-1.1-0.8-1.6-1.3c-1.9-1.6-3.5-3.5-5.6-4.8c-1.1-0.8-1.9-1.9-2.9-2.7c-1.3-1.3-2.7-2.7-4.3-3.7
			c-0.5-0.3-0.8-0.5-1.1-1.1c-2.4-2.4-5.1-4.8-8-6.9c-1.6-1.3-3.2-2.7-4.5-4c-1.3-1.3-2.9-2.7-4.5-3.7c-0.5-0.3-0.8-0.5-1.1-1.1
			c-1.3-1.6-3.2-2.7-4.3-4.3c-0.5-0.8-1.3-1.3-2.1-1.9c-1.9-1.3-3.7-2.7-5.3-4.5c-0.5-0.5-1.1-1.1-1.9-1.6c-2.9-2.1-5.6-4.5-8.2-6.6
			c-2.7-2.1-5.3-4.5-8-6.9c-0.8-0.8-1.9-1.3-2.9-1.9c-0.3,0-0.5-0.3-0.8-0.5l-0.3-0.3c-0.8-1.3-1.9-2.1-2.9-3.2
			c-0.3-0.3-0.8-0.5-1.3-0.8c-0.5-0.3-0.8-0.5-1.3-0.8c-2.4-2.4-5.1-4.8-7.4-7.2C2807,897.5,2807,897.2,2806.7,896.9z"/>
		<path fill="#00A887" d="M2912,1193.5l0.3-0.3c0.5-0.3,0.8-0.5,1.3-0.8c1.9-0.5,3.7-1.3,5.6-1.6c1.9-0.3,3.2-1.3,5.1-1.6
			c4-1.6,8.2-2.7,12.5-4c1.6-0.8,3.5-0.8,5.1-1.6c1.9-0.8,3.7-1.3,5.6-1.9c1.6-0.5,3.2-1.1,5.1-1.6c1.6-0.5,3.2-1.1,5.1-1.6
			c1.3-0.5,2.7-0.8,4-1.1c0.5-0.3,1.3,0.3,1.9,0.8c0.3,0.3,0.5,0.5,0.5,0.8c0.3,0.5,0.5,1.1,0.8,1.9c1.9,5.6,4.5,11.2,6.4,16.8
			c0.8,2.1,1.9,4,2.4,6.1c0.5,2.1,1.6,4,2.4,6.1c0.5,1.3,0.8,2.7,1.6,4c0.3,0.3,0.3,0.5,0.3,0.8c1.3,4.8,3.7,9.3,5.3,14.1
			c1.3,3.7,2.7,7.7,4.5,11.4c1.3,4,3.2,8,4.8,12c0.5,1.6,1.1,3.2,1.9,4.8c1.1,2.7,2.1,5.3,2.9,8c1.9,4,2.9,8,4.8,11.7
			c0.5,0.8,0.8,1.6,1.1,2.7c1.1,3.5,2.7,6.6,3.7,10.1c1.9,4,2.7,8.2,4.8,12.2c1.1,2.9,2.1,5.9,3.5,8.8c1.1,2.7,1.9,5.6,2.9,8.5
			c1.1,2.4,1.9,4.8,2.7,6.9c1.1,2.4,2.1,4.8,2.9,7.4c0.8,2.4,2.1,5.1,2.9,7.4c0.8,2.4,1.6,4.8,2.7,6.9c0.5,1.1,0.8,2.1,1.3,2.9
			c0.5,1.1,1.1,2.4,1.3,3.5c0.3,0.5,0.3,0.8,0.5,1.3c1.3,2.7,2.1,5.6,3.2,8.2c0.5,1.1,0.8,2.4,1.6,3.5c0.5,0.8,0.5,1.3,0.8,2.1
			c0.8,2.1,1.6,4.3,2.7,6.1c0.5,0.8,0.5,1.3,0.8,2.1c0.3,1.1,0.5,2.1,1.3,2.9c0.3,0.3,0.3,0.5,0.3,0.8c0.5,1.6,1.1,3.2,1.9,4.8
			c0.5,1.6,1.6,3.2,2.1,4.8c0,0.3,0,0.3,0.3,0.5c1.9,3.5,3.5,7.2,4.8,10.9c0.3,0.8,0.8,1.3,1.1,2.1c0.5,1.9,1.6,3.7,2.4,5.6
			c1.1,2.1,1.9,4.3,2.9,6.4c0.8,2.1,1.9,4.3,2.9,6.4c0.8,1.6,1.3,3.5,2.4,5.1c0.5,1.1,1.1,2.4,1.9,3.5c0.8,1.1,0.8,2.4,1.3,3.5
			c0.8,1.9,1.9,3.7,2.7,5.6c0.5,1.1,1.1,1.9,1.3,2.9c1.3,3.2,2.7,6.4,4,9.6c0.5,1.6,1.9,2.9,2.4,4.8c0.5,1.6,1.3,2.9,1.9,4.3
			c1.3,2.7,2.7,5.3,4,8.2c1.1,3.7,3.2,6.9,4.8,10.4c1.6,3.5,3.2,6.9,4.8,10.4c1.9,3.7,3.5,7.4,5.3,11.2c1.6,3.5,3.2,6.9,4.8,10.4
			c1.6,3.5,3.5,6.9,4.8,10.4c0.5,1.1,1.1,2.4,1.6,3.5c1.1,1.9,2.1,3.5,2.7,5.6c2.1,3.2,3.2,6.6,4.8,9.8c0.5,0.8,0.8,1.6,1.1,2.7
			c0.3,0.5,0.3,0.8,0,1.3c0,0.5-0.3,0.8-0.8,1.1c-0.3,0.3-0.5,0.3-1.1,0.3c-4,1.1-7.7,2.4-11.7,3.5c-4.8,1.3-9.6,2.7-14.1,4.3
			c-1.6,0.5-2.9,0.8-4.5,1.3c-5.1,1.6-10.1,2.9-15.2,4.5c-4.8,1.3-9.3,2.9-14.1,4.3c-1.6,0.5-2.9,1.1-4.5,1.3
			c-0.5,0-1.6-0.3-1.9-0.5l-0.3-0.3c-0.3-0.5-0.5-0.8-0.8-1.3c-1.1-2.1-1.9-4.3-2.9-6.4c-1.1-2.1-1.6-4-2.7-6.1
			c-0.8-1.3-1.1-2.7-1.6-4c-0.3-0.8-0.5-1.9-1.1-2.7c-1.3-1.9-1.9-4-2.7-6.1c-0.3-0.8-0.8-1.9-1.1-2.7c-0.5-0.8-0.8-1.6-1.3-2.7
			c-1.1-2.4-1.9-5.1-3.2-7.4c-1.1-2.4-2.1-4.5-3.2-6.9c-1.1-2.4-2.1-4.5-2.9-6.9c-0.8-1.9-1.6-3.5-2.4-5.3c-0.5-1.9-1.6-3.5-2.1-5.3
			c-0.3-0.5-0.5-0.8-0.5-1.3c-1.6-4.5-4-9-5.9-13.3c-0.3-0.5-0.5-1.1-0.8-1.9c-0.5-1.3-1.1-2.7-1.6-4c-0.5-1.1-0.8-2.4-1.3-3.5
			c-0.8-1.6-1.6-3.5-2.1-5.3c-2.4-6.4-4.8-13-7.2-19.4c-3.2-8.8-6.1-17.6-9.3-26.1c-0.8-2.1-1.9-4.3-2.4-6.6
			c-0.5-2.1-1.3-4.3-2.1-6.1c-0.8-2.1-1.3-4.3-2.1-6.1c-0.8-2.1-1.6-4-2.1-6.1c-0.3-1.3-0.8-2.7-1.6-4c-0.8-1.9-1.1-4-2.1-5.9
			c-1.1-3.7-2.7-7.4-4-11.2c-0.3-1.1-0.8-2.1-1.3-2.9c-0.5-1.9-1.3-3.5-1.9-5.3c-0.5-1.6-1.1-3.2-1.9-4.8c-0.8-1.6-1.3-3.2-1.9-4.8
			s-1.1-3.2-1.9-4.8c-1.3-4-2.9-8-4.3-12c-0.8-2.4-1.3-4.8-2.7-7.2c-0.5-2.4-1.6-4.5-2.4-6.6c-0.5-1.6-0.8-3.2-1.6-4.8
			c-0.8-1.6-1.3-3.2-1.9-4.8c-0.5-1.6-1.3-3.2-1.9-4.8c-0.5-1.3-1.1-2.7-1.3-4c-0.5-1.6-1.1-3.2-1.6-4.8c-0.3-0.5-0.5-1.1-0.8-1.9
			c-1.1-4.5-3.2-8.8-4.5-13.3c-0.5-1.9-1.3-3.5-1.9-5.3c-0.5-1.3-1.1-2.7-1.3-4c0-0.5-0.3-0.8-0.5-1.3c-1.6-4.3-2.9-8.5-4.5-12.8
			c-0.5-1.9-1.6-3.7-2.1-5.6c-0.5-1.9-1.1-3.5-1.9-5.3c-0.5-1.6-1.1-2.9-1.6-4.5c-0.8-2.1-1.3-4.5-2.1-6.6s-1.3-4.5-2.4-6.6
			c-2.7-8.2-5.6-16.2-8.2-24.5c-0.8-2.4-1.3-4.8-2.1-7.2c-1.3-4.3-2.7-8.8-4-13c-0.3-0.8-0.8-1.6-1.1-2.7
			C2912,1194,2912,1193.7,2912,1193.5z"/>
	</g>
	<g>
		<g>
			<path fill="#00A887" d="M184,1193.2L184,1193.2L184,1193.2c0-0.3,0-0.3,0-0.3l0,0c0.3-0.3,0.3-0.3,0.3-0.5v-0.3l0,0v-0.3
				c0,0,0-0.3,0.3-0.3v-0.3c0,0,0,0,0-0.3c0,0,0,0,0-0.3v-0.3c0-0.3,0.3-0.3,0.3-0.5c0,0,0,0,0-0.3c0-0.3,0.3-0.3,0.3-0.5l0,0v-0.3
				v-0.3v-0.3c0,0,0,0,0-0.3v-0.3l0,0l0.3-0.3l0,0c0,0,0,0,0-0.3l0,0l0,0v-0.3l0,0c0,0,0.3-0.3,0.3-0.5v-0.3v-0.3l0,0l0.3-0.3
				c0,0,0,0,0-0.3c0.3,0,0.3-0.3,0.3-0.5c0,0,0,0,0-0.3l0,0v-0.3l0,0v-0.3l0,0v-0.3c0,0,0.3-0.3,0-0.3l0,0c0.3-0.3,0.3-0.3,0.3-0.5
				c0-0.3,0.3-0.3,0.3-0.5c0,0,0,0,0.3-0.3l0,0c0,0,0,0,0-0.3l0.3-0.3l0,0v-0.3l0,0c0,0,0,0,0-0.3l0,0c0-0.3,0.3-0.3,0.3-0.5
				c0,0,0,0,0-0.3c0-0.3,0-0.3,0.3-0.5c0,0,0,0,0-0.3c0-0.3,0.3-0.3,0.3-0.5c0,0,0,0,0-0.3c0,0,0-0.3,0.3-0.3l0.3-0.3l0,0l0,0l0,0
				c0,0,0.3-0.3,0.3-0.5l0,0l0,0v-0.3v-0.3c0,0,0-0.3,0.3-0.3l0,0c0-0.3,0.3-0.3,0.3-0.5l0,0l0.3-0.3l0.3-0.3l0.3-0.3
				c0,0,0.3,0,0.3-0.3v-0.3l0,0l0.3-0.3l0,0l0.3-0.3c0,0,0,0,0-0.3c0,0,0,0,0-0.3c0,0,0-0.3,0.3-0.3c0,0,0.3,0,0.3-0.3l0.3-0.3
				c0.3,0,0.3-0.3,0.3-0.5c0,0,0,0,0-0.3l0,0l0.3-0.3c0,0,0,0,0.3-0.3s0.3-0.3,0.5-0.5l0.3-0.3c0,0,0,0,0.3-0.3l0.3-0.3
				c0,0,0,0,0-0.3c0.3-0.3,0.3-0.3,0.5-0.5l0,0c0.3-0.3,0.5-0.5,0.5-0.5l0,0l0.3-0.3l0,0c0-0.3,0.3-0.3,0.3-0.3l0.3-0.3
				c0,0,0.3,0,0.3-0.3l0,0c0,0,0-0.3,0.3-0.3l0,0c0,0,0,0,0-0.3c0,0,0,0,0.3-0.3c0,0,0-0.3,0.3-0.3c0.3-0.3,0.5-0.5,0.8-0.8
				c0,0,0.3,0,0.3-0.3l0.3-0.3l0,0c0.3-0.3,0.3-0.3,0.3-0.3s0.3,0,0.3-0.3l0,0l0.3-0.3l0,0l0,0l0,0l0.3-0.3l0.3-0.3l0.3-0.3l0.3-0.3
				l0.3-0.3l0,0l0.3-0.3c0,0,0.3,0,0.3-0.3h0.3l0,0c0,0,0,0,0.3,0l0.3-0.3c0,0,0,0,0.3,0h0.3l0,0h0.3h0.3l0,0h0.3l0,0
				c0.3,0,0.3,0,0.3,0h0.3h0.3c0.3-0.3,0.5-0.3,0.8-0.3l0,0h0.3c0,0,0.3,0,0.3-0.3h0.3h0.3c0.3,0,0.3-0.3,0.5-0.3s0.5-0.3,0.8-0.3
				c0,0,0.3,0,0.3-0.3c0,0,0.3,0,0.3-0.3h0.3h0.3c0.3,0,0.3,0,0.5,0c0.3,0,0.5,0,0.5-0.3l0,0c0.3,0,0.3,0,0.5-0.3h0.3l0,0
				c0,0,0.3,0,0.3-0.3h0.3h0.3h0.3c0,0,0,0,0-0.3l0,0c0.3,0,0.3,0,0.5,0l0,0l0,0c0.3,0,0.3,0,0.5,0c0,0,0,0,0.3,0c0,0,0,0,0.3,0h0.3
				l0,0c0.3,0,0.3,0,0.5,0l0,0c0.3,0,0.3,0,0.5,0l0,0c0.3,0,0.3,0,0.5,0s0.3,0,0.5,0c0,0,0,0,0.3,0c0.3,0,0.5,0,0.8,0h0.3
				c0,0,0,0,0.3,0c0.3,0,0.3,0,0.5,0h0.3l0,0c0.3,0,0.3,0,0.5,0c0,0,0,0,0.3,0c0.8,0,1.6,0,2.4,0l0,0c0.3,0,0.5,0,0.5,0h0.3h0.3
				c0.3,0,0.5,0,0.8,0h0.3h0.3h0.3l0,0c0.3,0,0.5,0,0.5,0h0.3h0.3h0.3h0.3h0.3c0,0,0,0,0.3,0h0.3h0.3h0.3h0.3c0.3,0,0.5,0,0.5,0
				s0.3,0,0.5,0h0.3h0.3c0,0,0,0,0.3,0c0,0,0,0,0.3,0l0,0c0.3,0,0.3,0,0.5,0c0.3,0,0.5,0,0.8,0.3l0,0c0.3,0,0.3,0,0.3,0h0.3h0.3
				c0,0,0,0,0.3,0c0,0,0,0,0.3,0c0,0,0,0,0.3,0h0.3l0,0h0.3l0,0c0.3,0,0.3,0,0.5,0.3c0.3,0,0.3,0,0.5,0.3c0.3,0,0.3,0,0.3,0
				s0,0,0.3,0h0.3h0.3l0,0c0,0,0.3,0,0.3,0.3h0.3h0.3h0.3c0,0,0,0,0.3,0l0,0l0,0c0.3,0,0.5,0.3,0.8,0.3c0.3,0,0.3,0,0.5,0.3h0.3
				c0,0,0.3,0,0.3,0.3l0,0c0.3,0,0.3,0.3,0.5,0.3c0,0,0.3,0,0.3,0.3c0,0,0.3,0.3,0.3,0h0.3h0.3h0.3l0,0c0,0.3,0,0.3,0.3,0.3l0.3,0.3
				c0,0,0.3,0,0.3,0.3l0,0l0,0c0,0,0,0,0.3,0c0,0,0.3,0,0.3,0.3l0.3,0.3l0,0c0,0,0.3,0,0.3,0.3l0.3,0.3c0,0,0.3,0,0.3,0.3
				c0.3,0.3,0.5,0.3,0.5,0.5l0,0c0,0,0.3,0,0.3,0.3c0,0,0.3,0,0.3,0.3c0,0,0,0,0.3,0.3c0,0,0.3,0,0.3,0.3c0,0,0.3,0,0.3,0.3l0,0
				c0,0,0.3,0,0.3,0.3c0,0.3,0.3,0.3,0.5,0.3l0,0c0.3,0.3,0.3,0.3,0.5,0.5c0,0,0,0,0.3,0.3c0,0,0.3,0,0.3,0.3c0,0,0,0,0.3,0
				c0,0,0,0,0.3,0c0.3,0.3,0.3,0.3,0.5,0.5c0,0,0,0,0.3,0.3c0.3,0,0.3,0.3,0.3,0.3s0,0,0.3,0.3c0,0,0.3,0,0.3,0.3l0,0
				c0,0,0.3,0,0.3,0.3c0,0,0.3,0,0.3,0.3l0,0h0.3l0.3,0.3l0,0c0,0.3,0.3,0.3,0.5,0.3l0.3,0.3l0.3,0.3l0,0l0.3,0.3c0,0,0,0,0.3,0.3
				l0.3,0.3l0.3,0.3c0,0,0.3,0,0.3,0.3c0,0,0.3,0,0.3,0.3c0.3,0,0.3,0.3,0.5,0.3c0,0,0,0,0.3,0l0,0c0,0,0,0,0,0.3c0,0,0.3,0,0.3,0.3
				h0.3l0.3,0.3l0.3,0.3c0,0,0,0,0.3,0c0,0,0.3,0,0.3,0.3c0.3,0.3,0.3,0.3,0.5,0.5l0,0c0,0,0,0,0.3,0.3c0,0,0,0,0.3,0l0,0
				c0,0.3,0.3,0.3,0.3,0.3l0,0l0.3,0.3l0,0c0.3,0,0.3,0.3,0.5,0.3l0,0c0.3,0,0.3,0.3,0.3,0.3s0,0,0.3,0.3c0,0,0,0,0.3,0.3
				c0,0,0.3,0,0.3,0.3c0,0,0,0,0.3,0l0.3,0.3c0,0.3,0,0.3,0.3,0.5c0,0,0,0,0.3,0.3l0,0c0.3,0,0.3,0.3,0.3,0.5c0,0,0,0,0,0.3l0.3,0.3
				c0,0,0,0.3,0.3,0.3c0,0,0,0,0,0.3v0.3c0,0,0,0.3,0.3,0.3c0,0,0,0.3,0.3,0.3c0,0,0,0,0,0.3c0,0.3,0.3,0.3,0.3,0.5c0,0,0,0,0,0.3
				c0,0,0,0.3,0.3,0.3c0,0,0,0,0,0.3c0,0,0,0,0,0.3c0,0,0,0,0.3,0.3c0,0,0,0,0,0.3l0,0c0,0.3,0.3,0.3,0.3,0.5l0.3,0.3
				c0,0.3,0,0.3,0.3,0.5c0,0,0,0.3,0.3,0.3c0,0,0,0,0,0.3c0.3,0,0.3,0.3,0.3,0.3s0,0,0,0.3v0.3l0.3,0.3c0,0.3,0,0.3,0.3,0.3
				c0,0,0,0.3,0.3,0.3v0.3c0,0,0,0,0.3,0.3l0,0c0,0.3,0.3,0.5,0.3,0.5l0,0v0.3c0,0,0,0.3,0.3,0.3c0,0,0,0,0,0.3v0.3c0,0,0,0,0,0.3
				v0.3l0,0c0,0,0,0,0,0.3c0,0.3,0.3,0.3,0.3,0.5l0,0c0,0.3,0,0.3,0.3,0.5l0,0c0,0,0,0,0,0.3l0.3,0.3c0,0,0.3,0.3,0.3,0.5l0,0
				c0,0,0.3,0.3,0.3,0.5c0,0,0,0,0,0.3l0,0l0.3,0.3c0,0,0,0,0,0.3c0,0,0,0,0,0.3s0,0.3,0,0.5l0,0c0,0,0,0.3,0.3,0.3
				c0,0.3,0,0.3,0.3,0.5l0.3,0.3c0,0,0,0,0,0.3c0,0,0,0,0,0.3l0,0c0,0,0,0,0,0.3c0,0,0,0.3,0.3,0.3l0,0l0,0c0,0.3,0,0.3,0,0.5l0,0
				c0,0,0,0.3,0.3,0.3l0,0c0,0,0,0,0,0.3v0.3l0,0c0,0,0,0,0,0.3v0.3c0,0,0,0,0,0.3c0,0,0,0.3,0.3,0.3c0,0,0,0,0,0.3v0.3
				c0,0,0,0.3,0.3,0.3c0.3,0.3,0.3,0.5,0.3,0.5c0,0.3,0,0.3,0.3,0.5c0,0,0,0.3,0.3,0.3l0,0c0,0.3,0.3,0.3,0.3,0.5c0,0,0,0,0,0.3
				c0,0,0,0,0,0.3l0,0c0,0,0,0,0,0.3v0.3l0,0v0.3c0,0,0,0.3,0.3,0.3l0,0c0,0.3,0,0.3,0.3,0.5l0.3,0.3v0.3c0,0,0,0,0,0.3
				c0,0.3,0,0.3,0,0.5v0.3v0.3c0,0,0,0,0,0.3c0,0.3,0,0.3,0,0.5c0,0,0,0,0,0.3l0,0l0,0c0,0,0,0,0,0.3v0.3v0.3v0.3l0,0v0.3v0.3
				c0,0,0,0,0,0.3c0,0.3,0,0.5,0,0.8v0.3v0.3c0,0.5,0,0.8,0,1.3c0,0.3,0,0.3,0,0.5l0,0c0,0,0,0,0,0.3v0.3l0,0v0.3c0,0.5,0,0.8,0,1.3
				v0.3v0.3c0,0.3,0,0.3,0,0.5v0.3v0.3v0.3l0,0c0,0.3,0,0.3,0,0.5v0.3v0.3l0,0c0,0.3,0,0.3,0,0.5l0,0v0.3c0,0.3,0,0.5,0,0.8v0.3
				c0,0.3,0,0.3,0,0.5l0,0v0.3v0.3c0,0,0,0,0,0.3c0,0.3,0,0.5,0,0.8v0.3c0,0,0,0,0,0.3v0.3l0,0c0,0.3,0,0.5,0,0.5l0,0
				c0,0.3,0,0.5,0,0.5s0,0,0,0.3c0,0,0,0.3-0.3,0.3c0,0,0,0.3-0.3,0.3l-0.3,0.3l-0.3,0.3c0,0,0,0,0,0.3v0.3v0.3v0.3
				c0,0,0,0.3-0.3,0.3v0.3v0.3v0.3c0,0,0,0,0,0.3v0.3l0,0c0,0.3,0,0.3,0,0.3v0.3c0,0.3,0,0.3-0.3,0.5c0,0,0,0,0,0.3
				c0,0,0,0.3-0.3,0.3v0.3v0.3v0.3c0,0,0,0.3-0.3,0.3c0,0,0,0,0,0.3v0.3v0.3v0.3c0,0,0,0,0,0.3l0,0c0,0,0,0,0,0.3
				c0,0.3,0,0.3-0.3,0.5c0,0.3,0,0.3-0.3,0.5l0,0c0,0.3-0.3,0.5-0.3,0.5c0,0.3-0.3,0.5-0.3,0.8v0.3l0,0v0.3v0.3l0,0l-0.3,0.3v0.3
				l0,0c0,0-0.3,0-0.3,0.3l0,0v0.3l0,0c0,0,0,0.3-0.3,0.3l0,0c0,0,0,0-0.3,0.3v0.3v0.3l0,0l0,0c0,0.3,0,0.3-0.3,0.3l-0.3,0.3
				c0,0-0.3,0.3,0,0.3l-0.3,0.3c0,0,0,0.3-0.3,0.3c0,0,0,0,0,0.3v0.3c0,0,0,0.3-0.3,0.3l0,0c0,0,0,0,0,0.3c0,0,0,0,0,0.3
				c0,0.3-0.3,0.3-0.3,0.5l0,0c0,0,0,0.3-0.3,0.3c0,0,0,0.3-0.3,0.3l0,0v0.3c0,0-0.3,0-0.3,0.3c0,0,0,0.3-0.3,0.3v0.3c0,0,0,0,0,0.3
				c0,0.3-0.3,0.3-0.3,0.5c0,0,0,0,0,0.3l0,0c0,0,0,0.3-0.3,0.3c0,0,0,0.3-0.3,0.3l-0.3,0.3l-0.3,0.3l0,0c0,0.3-0.3,0.3-0.3,0.5
				c0,0,0,0,0,0.3l0,0l-0.3,0.3c0,0,0,0,0,0.3c0,0,0,0,0,0.3l-0.3,0.3l-0.3,0.3c0,0,0,0,0,0.3l-0.3,0.3c0,0,0,0.3-0.3,0.3
				c0,0,0,0,0,0.3c0,0,0,0.3-0.3,0.3l0,0c0,0.3,0,0.3-0.3,0.3c0,0,0,0.3-0.3,0.3l0,0c0,0,0,0.3-0.3,0.3c0,0,0,0.3-0.3,0.3l0,0
				l-0.3,0.3l0,0c-0.3,0.3-0.3,0.3-0.5,0.3c0,0-0.3,0-0.3,0.3c0,0-0.3,0-0.3,0.3l-0.3,0.3l0,0c0,0.3-0.3,0.3-0.3,0.3l0,0
				c-0.3,0-0.3,0-0.3,0.3c-0.3,0.3-0.3,0.3-0.5,0.5c0,0,0,0,0,0.3c0,0,0,0-0.3,0s-0.3,0.3-0.5,0.3c-0.3,0.3-0.5,0.3-0.8,0.5
				l-0.3,0.3l-0.3,0.3l-0.3,0.3c0,0,0,0-0.3,0c0,0-0.3,0-0.3,0.3c0,0,0,0-0.3,0c0,0-0.3,0-0.3,0.3l0,0l-0.3,0.3
				c-0.3,0-0.3,0.3-0.3,0.3l0,0H250c-0.3,0-0.3,0-0.3,0l0,0l-0.3,0.3l0,0c0,0.3-0.3,0.3-0.5,0.5c-0.3,0-0.3,0.3-0.5,0.3
				c0,0,0,0.3-0.3,0.3l0,0l-0.3,0.3l-0.3,0.3c0,0,0,0-0.3,0c0,0,0,0-0.3,0c-0.3,0-0.3,0.3-0.5,0.3h-0.3c0,0,0,0-0.3,0h-0.3
				c-0.3,0-0.5,0-0.5,0l0,0c-0.3,0-0.5,0-0.5,0.3c-0.3,0-0.3,0.3-0.5,0.3c0,0,0,0-0.3,0s-0.5,0.3-0.5,0.3s0,0-0.3,0c0,0,0,0-0.3,0
				c0,0,0,0-0.3,0s-0.5,0-0.5,0h-0.3l0,0c0,0,0,0-0.3,0h-0.3h-0.3h-0.3c-0.3,0.3-0.3,0.3-0.5,0.3h-0.3c0,0,0,0-0.3,0c0,0,0,0-0.3,0
				c0,0,0,0-0.3,0c0,0-0.3,0-0.3,0.3h-0.3h-0.3H238l0,0h-0.3c-0.3,0-0.3,0-0.5,0.3h-0.3c0,0,0,0-0.3,0h-0.3h-0.3h-0.3h-0.3h-0.3l0,0
				h-0.3c-0.3,0-0.3,0-0.5,0.3h-0.3H234l0,0c-0.3,0-0.3,0-0.5,0s-0.3,0-0.5,0l0,0c-0.3,0-0.3,0-0.5,0l0,0h-0.3c0,0,0,0-0.3,0l0,0
				h-0.3h-0.3h-0.3h-0.3c-0.3,0-0.5,0-1.1,0h-0.3l0,0h-0.3c0,0,0,0-0.3,0c0,0,0,0-0.3,0h-0.3c-0.3,0-0.3,0-0.5,0h-0.3
				c-0.3,0-0.3,0-0.5,0h-0.3c-0.3,0-0.5,0-0.8,0l0,0h-0.3h-0.3h-0.3l0,0c0,0,0,0-0.3,0h-0.3c-0.3,0-0.5,0-0.8,0c-0.3,0-0.3,0-0.5,0
				l0,0h-0.3h-0.3l0,0h-0.3h-0.3l0,0c0,0,0,0-0.3,0c0,0,0,0-0.3,0c-0.3,0-0.5,0-0.8,0h-0.3h-0.3c-0.3,0-0.3,0-0.5,0s-0.3,0-0.5,0
				h-0.3h-0.3h-0.3c-0.3,0-0.3,0-0.5,0s-0.3,0-0.5,0l0,0h-0.3H217h-0.3h-0.3h-0.3h-0.3h-0.3l0,0h-0.3h-0.3h-0.3h-0.3h-0.3h-0.3l0,0
				c-0.3,0-0.5,0-0.8,0H213h-0.3l0,0c0,0-0.3,0-0.5,0l0,0c-0.3,0-0.3,0-0.5,0h-0.3l0,0c0,0,0,0-0.3,0c0,0,0,0-0.3,0h-0.3h-0.3
				c0,0,0,0-0.3,0s-0.3,0-0.5,0l0,0c0,0,0,0-0.3,0c0,0,0,0-0.3,0l0,0h-0.3c-0.3,0-0.3,0-0.5,0l0,0H208c0,0,0,0-0.3,0h-0.3
				c0,0,0,0-0.3,0h-0.3c0,0-0.3,0-0.5,0l0,0h-0.3h-0.3l0,0c0,0-0.3,0-0.3-0.3h-0.3c0,0-0.3,0-0.3-0.3c0,0-0.3,0-0.3-0.3l0,0
				c0,0-0.3,0-0.3-0.3h-0.3c0,0,0,0-0.3-0.3c0,0,0,0-0.3,0l0,0c0,0,0,0-0.3-0.3c-0.3,0-0.3-0.3-0.5-0.3c0,0,0,0-0.3,0c0,0,0,0-0.3,0
				h-0.3c0,0-0.3,0-0.3-0.3l0,0c0,0-0.3,0-0.3-0.3l-0.3-0.3c0,0-0.3,0-0.3-0.3h-0.3c0,0,0,0-0.3-0.3c0,0,0,0-0.3,0l0,0l-0.3-0.3
				c0,0-0.3,0-0.3-0.3l-0.3-0.3c-0.3,0-0.3,0-0.3-0.3l0,0c-0.3-0.3-0.5-0.3-0.8-0.5l0,0c0-0.3-0.3-0.3-0.5-0.3c0,0-0.3,0-0.3-0.3
				l0,0c-0.3,0-0.3-0.3-0.3-0.3l0,0c0,0,0,0-0.3,0l0,0l0,0c0,0-0.3-0.3-0.5-0.3c-0.3,0-0.3-0.3-0.5-0.3l0,0c-0.3,0-0.5-0.3-0.5-0.5
				c0,0-0.3,0-0.3-0.3c0,0-0.3,0-0.3-0.3c0,0-0.3,0-0.3-0.3c0,0-0.3,0-0.3-0.3l-0.3-0.3c0,0-0.3,0-0.3-0.3l-0.3-0.3
				c0,0-0.3,0-0.3-0.3l-0.3-0.3c0,0,0-0.3-0.3-0.3c0,0,0-0.3-0.3-0.3l-0.3-0.3c0,0-0.3,0-0.3-0.3c0,0-0.3,0-0.3-0.3
				c0,0-0.3,0-0.3-0.3l0,0c-0.3,0-0.3-0.3-0.3-0.3l0,0l-0.3-0.3l0,0l-0.3-0.3l0,0l-0.3-0.3c0,0-0.3,0-0.3-0.3c0,0-0.3,0-0.3-0.3
				c0,0,0-0.3-0.3-0.3l0,0l0,0l-0.3-0.3l-0.3-0.3l-0.3-0.3c0,0,0-0.3-0.3-0.3l-0.3-0.3c0,0,0,0,0-0.3c0,0,0,0,0-0.3l0,0l0,0
				c-0.3,0-0.3-0.3-0.3-0.3l-0.3-0.3c0,0,0,0,0-0.3c0,0,0,0-0.3-0.3l0,0c0,0,0,0-0.3-0.3c0,0,0,0,0-0.3l0,0
				c-0.3-0.3-0.3-0.3-0.5-0.5l0,0l0,0c0,0,0-0.3-0.3-0.3c0,0,0,0-0.3-0.3l-0.3-0.3l0,0l0,0c0,0,0-0.3-0.3-0.3l0,0l-0.3-0.3l0,0
				c0,0-0.3,0-0.3-0.3l0,0l-0.3-0.3l-0.3-0.3l0,0l-0.3-0.3c0,0,0,0-0.3,0l0,0c0,0,0-0.3-0.3-0.3c0,0-0.3-0.3-0.3-0.5l0,0l0,0
				c-0.3,0-0.3-0.3-0.3-0.3l0,0l-0.3-0.3l0,0c0,0,0,0,0-0.3l0,0c0,0,0,0,0-0.3l0,0v-0.3l-0.3-0.3l-0.3-0.3l0,0
				c0-0.3-0.3-0.3-0.3-0.5l-0.3-0.3l0,0v-0.3l-0.3-0.3l0,0c0,0,0,0-0.3-0.3c0,0,0,0-0.3-0.3c0,0,0,0-0.3-0.3c0,0,0,0-0.3-0.3
				c0,0,0,0-0.3-0.3l0,0c0,0,0-0.3-0.3-0.3l0,0c0-0.3,0-0.3-0.3-0.5c0-0.3-0.3-0.3-0.3-0.3s0-0.3-0.3-0.3l0,0c0,0,0-0.3-0.3-0.3
				c0,0,0,0,0-0.3s0-0.3-0.3-0.5c0-0.3-0.3-0.5-0.3-0.5v-0.3l0,0v-0.3c0-0.3-0.3-0.3-0.3-0.5c0-0.3,0-0.3-0.3-0.5v-0.3l0,0
				c0,0,0-0.3-0.3-0.3v-0.3v-0.3l0,0c0-0.3,0-0.3,0-0.5l0,0c0-0.3,0-0.3-0.3-0.5c0-0.3,0-0.3-0.3-0.5c0,0,0-0.3-0.3-0.3v-0.3l0,0
				c0-0.3-0.3-0.5-0.3-0.5c0-0.3,0-0.3-0.3-0.5v-0.3v-0.3l0,0v-0.3c0-0.3,0-0.3,0-0.3c0-0.3,0-0.3-0.3-0.5v-0.3c0,0,0,0,0-0.3v-0.3
				c0-0.3,0-0.3,0-0.5c0,0,0,0,0-0.3s0-0.5,0-0.8v-0.3v-0.3v-0.3l0,0v-0.3v-0.3v-0.3v-0.3v-0.3l0,0c0-0.3,0-0.3,0-0.5c0,0,0,0,0-0.3
				s0-0.5,0-1.1v-0.3l0,0v-0.3c0-0.3,0-0.5,0-0.8l0,0c0-0.3,0-0.3,0-0.5c0,0,0,0,0-0.3l0,0c0,0,0,0,0-0.3c0-0.3,0-0.3,0-0.5v-0.3
				v-0.3c0-0.3,0-0.3,0-0.5c0,0,0,0,0-0.3v-0.3v-0.3c0,0,0,0,0-0.3v-0.3l0,0c0-0.3,0-0.3,0-0.5l0,0c0-0.3,0-0.3,0-0.5v-0.3v-0.3
				v-0.3c0,0,0,0,0-0.3v-0.3c0,0,0,0,0-0.3c0-0.3,0-0.3,0-0.5c0,0,0,0,0-0.3v-0.3v-0.3v-0.3l0,0v-0.3l0,0c0-0.3,0-0.3,0-0.5v-0.3
				c0-0.3,0-0.3,0-0.5s0-0.3,0-0.5l0,0c0-0.3,0-0.5,0-0.5s0,0,0-0.3l0,0c0-0.3,0-0.3,0-0.5c0,0,0,0,0-0.3c0,0,0,0,0-0.3v-0.3
				c0-0.3,0-0.3,0-0.5v-0.3c0,0,0-0.3,0-0.5v-0.3v-0.3c0,0,0,0,0-0.3c0,0,0-0.3,0.3-0.3c0,0,0,0,0-0.3c0-0.3,0-0.3,0-0.5
				c0,0,0,0,0-0.3v-0.3v-0.3c0-0.3,0.3-0.5,0.3-0.5s0,0,0-0.3s0.3-0.3,0.3-0.5l0,0v-0.3c0-0.3,0-0.3,0.3-0.5c0,0,0,0,0-0.3
				s0.3-0.5,0.3-0.8c0,0,0-0.3,0.3-0.3v-0.3c0,0,0,0,0-0.3l0,0C183.8,1193.5,184,1193.5,184,1193.2
				C183.8,1193.5,184,1193.2,184,1193.2L184,1193.2L184,1193.2L184,1193.2z M248.4,1253.6C248.7,1253.6,248.7,1253.6,248.4,1253.6
				C248.7,1253.6,248.7,1253.3,248.4,1253.6C248.7,1253.3,248.7,1253.3,248.4,1253.6C248.7,1253.3,248.4,1253.3,248.4,1253.6
				L248.4,1253.6C248.7,1253.6,248.7,1253.6,248.4,1253.6C248.7,1253.6,248.7,1253.6,248.4,1253.6c0.3,0.3,0.3,0.3,0.3,0.3l0,0
				C248.9,1253.6,248.7,1253.6,248.4,1253.6C248.7,1253.6,248.7,1253.6,248.4,1253.6z M183.5,1197.7L183.5,1197.7L183.5,1197.7
				L183.5,1197.7L183.5,1197.7C183.8,1197.7,183.8,1197.7,183.5,1197.7L183.5,1197.7z M187.5,1189.2
				C187.5,1189.2,187.2,1189.2,187.5,1189.2C187.2,1189.2,187.2,1189.2,187.5,1189.2C187.2,1189.2,187.2,1189.2,187.5,1189.2
				C187.2,1189.2,187.2,1189.2,187.5,1189.2C187.2,1189.2,187.5,1189.2,187.5,1189.2z M248.1,1253.8
				C247.9,1253.8,247.9,1253.8,248.1,1253.8C247.9,1253.8,247.9,1254.1,248.1,1253.8C248.1,1254.1,248.1,1253.8,248.1,1253.8
				L248.1,1253.8z M206.6,1167.1L206.6,1167.1L206.6,1167.1C206.4,1167.1,206.4,1167.1,206.6,1167.1
				C206.4,1167.1,206.6,1167.1,206.6,1167.1L206.6,1167.1L206.6,1167.1z M185.4,1195.8C185.4,1195.8,185.1,1196.1,185.4,1195.8
				C185.1,1196.1,185.1,1196.1,185.4,1195.8C185.4,1196.1,185.4,1196.1,185.4,1195.8C185.4,1196.1,185.4,1196.1,185.4,1195.8
				C185.4,1196.1,185.4,1195.8,185.4,1195.8z M190.7,1182L190.7,1182C190.7,1182,190.4,1182,190.7,1182
				C190.4,1182,190.4,1182,190.7,1182C190.4,1182,190.4,1182,190.7,1182C190.4,1182,190.4,1182,190.7,1182L190.7,1182z
				 M184.6,1198.5L184.6,1198.5L184.6,1198.5L184.6,1198.5C184.6,1198.8,184.6,1198.8,184.6,1198.5
				C184.6,1198.8,184.6,1198.8,184.6,1198.5C184.6,1198.8,184.6,1198.5,184.6,1198.5z M207.2,1164.5L207.2,1164.5L207.2,1164.5
				L207.2,1164.5L207.2,1164.5L207.2,1164.5z M184.3,1206.5L184.3,1206.5L184.3,1206.5L184.3,1206.5L184.3,1206.5L184.3,1206.5
				L184.3,1206.5z M181.9,1203L181.9,1203L181.9,1203L181.9,1203L181.9,1203L181.9,1203C181.6,1203,181.9,1203,181.9,1203
				L181.9,1203z M187,1190.5L187,1190.5C187,1190.8,187,1190.8,187,1190.5C187,1190.8,187,1190.5,187,1190.5L187,1190.5z
				 M184.3,1194.5C184.3,1194.5,184,1194.5,184.3,1194.5C184,1194.5,184,1194.5,184.3,1194.5C184,1194.5,184,1194.5,184.3,1194.5
				C184,1194.5,184.3,1194.5,184.3,1194.5z M204.8,1168.7C204.8,1169,204.8,1169,204.8,1168.7C204.8,1169,204.8,1169,204.8,1168.7
				C204.8,1169,204.8,1169,204.8,1168.7C204.8,1169,204.8,1169,204.8,1168.7z M188.5,1191.9L188.5,1191.9L188.5,1191.9L188.5,1191.9
				L188.5,1191.9L188.5,1191.9z M187.2,1190.5L187.2,1190.5L187.2,1190.5L187.2,1190.5L187.2,1190.5z M213.3,1179.1L213.3,1179.1
				L213.3,1179.1L213.3,1179.1L213.3,1179.1z M185.1,1201.4C185.1,1201.4,184.8,1201.4,185.1,1201.4
				C184.8,1201.4,184.8,1201.4,185.1,1201.4C184.8,1201.4,184.8,1201.4,185.1,1201.4C184.8,1201.4,184.8,1201.4,185.1,1201.4z
				 M185.1,1193.2L185.1,1193.2L185.1,1193.2L185.1,1193.2L185.1,1193.2z"/>
			<path fill="#00A887" d="M202.1,1165.8L202.1,1165.8L202.1,1165.8L202.1,1165.8L202.1,1165.8L202.1,1165.8L202.1,1165.8z"/>
			<path fill="#00A887" d="M202.1,1165.8L202.1,1165.8L202.1,1165.8L202.1,1165.8L202.1,1165.8L202.1,1165.8z"/>
		</g>
	</g>
	<path fill="#0082CA" d="M1033.2,1153.3c-1.3,0-2.7,0-4,0c-0.8,0-1.3,0-2.1,0c-0.5,0-1.3-0.3-1.9-0.3c-0.3,0-0.5,0-0.8,0
		c-0.8,0-1.6-0.3-2.4-0.3c-0.8,0-1.6-0.3-2.4-0.3c-1.1-0.3-2.1-0.3-3.2-0.3c-0.3,0-0.3,0-0.5,0c-0.5-0.3-1.3-0.5-1.9-0.8
		c-1.1-0.5-2.1-1.1-3.2-1.6c-0.5-0.3-1.3-0.5-1.9-0.8c-0.5-0.5-1.3-0.8-1.9-1.1s-0.8-0.5-1.3-0.8c-0.3-0.3-0.8-0.5-1.3-0.8
		c-0.3-0.3-0.8-0.5-1.1-0.8c-0.5-0.3-1.1-0.5-1.6-0.8c-0.5-0.5-1.1-0.8-1.6-1.1c-0.5-0.3-1.1-0.5-1.3-0.8c-0.5-0.3-0.8-0.5-1.3-0.8
		c-0.8-0.3-1.3-0.8-2.1-1.3c-0.5-0.5-1.3-0.8-1.9-1.3c-0.5-0.5-1.3-1.1-1.9-1.6c-1.1-1.1-2.4-1.9-3.5-2.9c-0.3-0.3-0.5-0.5-0.8-0.8
		c-0.3-0.3-0.5-0.8-0.8-1.1c-0.8-1.3-1.3-2.4-1.9-3.7c-0.3-0.8-0.8-1.6-1.1-2.4c-0.3-0.5-0.5-1.3-0.8-1.9c-0.3-0.5-0.3-0.8-0.5-1.3
		c-0.3-0.3-0.3-0.5-0.3-0.8c0-0.3,0-0.5-0.3-0.8c-0.3-0.5-0.3-1.1-0.5-1.3c0-0.3-0.3-0.5-0.3-0.5c-0.3-0.5-0.3-1.1-0.5-1.6
		c-0.3-0.5-0.3-1.1-0.5-1.9c0-0.3,0-0.3-0.3-0.5c-0.5-2.1-1.1-4-1.6-6.1c0-0.5-0.3-1.1-0.3-1.9c0-0.3,0-0.3,0-0.5
		c-0.3-0.8-0.3-1.3-0.3-2.1c0-0.5-0.3-1.3-0.3-1.9c0-0.5,0-1.3-0.3-1.9c0-0.8-0.3-1.9-0.3-2.7c0-0.5,0-1.3,0-1.9
		c0-0.3,0.3-0.8,0.3-1.1c0.5-2.9,1.1-5.3,1.9-7.7c0.3-0.5,0.3-1.3,0.5-1.9c0-0.3,0-0.5,0.3-0.8c0.3-0.5,0.5-1.3,0.5-1.9
		s0.3-1.1,0.5-1.9c0.3-1.1,0.8-2.4,1.3-3.5c0-0.3,0.3-0.5,0.3-0.5c0-0.3,0.3-0.5,0.3-0.5c0.3-0.8,0.5-1.3,0.8-1.9
		c0.3-0.5,0.5-1.3,1.1-1.9c0.5-1.1,1.3-2.4,2.1-3.5c0.8-0.8,1.3-1.9,1.9-2.9s1.3-1.9,1.9-2.9c0.5-0.8,1.1-1.3,1.9-1.9
		c0.3-0.3,0.5-0.3,0.5-0.5c0.5-0.5,1.1-1.1,1.6-1.6c0.3-0.3,0.5-0.3,0.8-0.5c0.8-0.5,1.3-1.1,2.1-1.6c0.5-0.3,1.1-0.8,1.9-1.1
		c0.5-0.3,1.1-0.5,1.6-1.1c1.1-0.5,2.1-1.1,3.2-1.6c0.5-0.3,1.1-0.5,1.6-0.5c0.5,0,0.8-0.3,1.3-0.3c0.3,0,0.8-0.3,1.3-0.3
		c0.5,0,1.3-0.3,1.9-0.5c0,0,0,0,0.3,0c0.5,0,1.3-0.3,1.9-0.3c0.5-0.3,1.3-0.3,1.9-0.3c0.5,0,1.3,0,1.9-0.3h0.3c0.3,0,0.5,0,0.8,0
		c0.8-0.3,1.6-0.3,2.4-0.3c0.5,0,0.8,0,1.3-0.3c0.3,0,0.3,0,0.5,0c0.5,0,1.1,0,1.6,0c0.3,0,0.3,0,0.5,0c1.1,0,2.1,0,2.9,0
		c0.8,0,1.3,0,2.1,0c0.5,0,1.3,0,1.9,0.3c0.3,0,0.5,0,0.8,0c0.5,0,1.1,0,1.6,0c1.3,0,2.7,0,4,0.3c0.8,0.3,1.9,0.3,2.7,0.3
		c0.8,0.3,1.6,0.3,2.1,0.5c0.8,0.3,1.6,0.3,2.1,0.3s1.3,0.3,1.9,0.3c0.5,0.3,1.3,0.3,1.9,0.3c0.5,0.3,1.1,0,1.3,0.3
		c0.5,0.3,0.8,0.3,1.3,0.3c0.3,0,0.8,0.3,1.1,0.3c0.3,0,0.8,0,1.1,0.3c0.8,0.3,1.6,0.3,2.1,0.5c0.8,0.3,1.6,0.3,2.1,0.5
		c0.8,0.3,1.9,0.5,2.7,0.8c0.8,0.3,1.6,0.5,2.4,0.5c0.8,0.3,1.3,0.5,2.1,0.8c0.8,0.3,1.3,0.5,2.1,0.8c1.1,0.3,2.1,0.5,2.9,1.1
		c0.3,0,0.3,0,0.5,0.3c0.3,0.5,1.1,1.1,1.3,1.6c0.8,1.1,1.6,2.1,2.4,3.5c0.3,0.5,0.5,1.1,1.1,1.6c0.3,0.3,0.3,0.5,0.5,0.8
		c0.3,0.5,0.8,1.1,1.1,1.6s0.5,1.1,0.8,1.9c0,0,0,0.3,0.3,0.3c0.3,0.5,0.8,1.1,0.8,1.9c0.3,0.5,0.5,1.1,0.8,1.9
		c0.3,0.5,0.5,1.1,0.8,1.9c0,0,0,0,0,0.3c0.3,0.5,0.5,0.8,0.5,1.3c0.3,0.5,0.3,1.1,0.5,1.6s0.3,1.1,0.5,1.6c0.3,0.5,0.3,1.1,0.3,1.9
		v0.3c0.3,0.5,0.5,1.1,0.5,1.6c0,0.3,0.3,0.5,0.3,0.8c0.3,0.8,0.5,1.9,0.5,2.9c0,0.8,0,1.3,0,2.1v0.3c0,0.5,0.3,1.1,0.3,1.3
		c0,0.5,0,1.1,0,1.3c0,0.5,0,1.1,0,1.6c0,1.1,0,1.9,0.3,2.9c0,0.3,0,0.5,0,0.8c0,0.8,0,1.6,0,2.4v0.3c-0.3,1.1,0,2.1,0,3.2
		c0,0.5,0,1.1,0,1.6c0,0.5,0,1.1,0,1.6c0,0.5,0,1.1-0.3,1.6c-0.3,0.5-0.3,1.1-0.5,1.6c0,0.5-0.3,1.1-0.3,1.3c0,0.5-0.5,1.1-0.5,1.6
		c0,0.5-0.3,0.8-0.5,1.3c-0.3,0.5-0.5,1.3-0.8,1.9c0,0.3-0.3,0.5-0.3,0.8c0,0.3,0,0.5-0.3,0.5c-0.5,0.5-0.8,1.3-1.1,2.1
		c-0.3,0.5-0.5,1.1-0.8,1.3c-0.3,0.5-0.5,0.8-0.8,1.1l-0.3,0.3c-0.5,0.8-0.8,1.6-1.3,2.1c-0.5,0.5-0.8,1.3-1.3,1.9
		c-0.5,0.5-0.8,1.3-1.3,1.9c-0.3,0.5-0.8,1.1-1.1,1.6c-0.3,0.3-0.3,0.5-0.5,0.8c-0.8,0.8-1.3,1.6-1.9,2.4c-0.3,0.3-0.5,0.5-0.5,0.8
		c-0.8,0.8-1.9,1.9-2.4,2.7c-0.3,0.5-0.8,0.8-1.1,1.1c-0.5,0.5-0.8,0.8-1.3,1.3c-0.3,0.5-0.8,0.8-1.1,1.1c-0.3,0.3-0.5,0.5-0.8,0.8
		c-0.5,0.5-1.1,1.1-1.3,1.6c-0.3,0.3-0.5,0.5-0.8,1.1c-0.3,0.3-0.5,0.5-0.8,0.8c-0.5,0.5-1.3,1.3-1.9,1.9c-0.3,0.3-0.5,0.5-0.8,0.5
		c-0.5,0.3-0.8,0.5-1.3,0.8c-1.1,0.5-1.9,1.1-2.9,1.3c-0.5,0.3-1.1,0.3-1.6,0.3c-0.5,0.3-1.1,0.3-1.6,0.3c-0.3,0-0.3,0-0.5,0
		c-0.8,0.3-1.6,0.5-2.4,0.5c-0.3,0-0.8,0-1.1,0.3c-1.1,0.3-2.4,0.5-3.2,0.5c-0.5,0-1.1,0-1.3,0c-0.3,0-0.5,0-0.8,0
		c-1.1,0-1.9,0-2.9,0C1035.3,1153.3,1034.2,1153.3,1033.2,1153.3L1033.2,1153.3z"/>
	<path fill="#FF4338" d="M657.7,636.1c-1.3,0-2.7,0-4.3,0c-0.8,0-1.6,0-2.4,0s-1.3-0.3-2.1-0.3c-0.3,0-0.5,0-0.8,0
		c-0.8,0-1.9-0.3-2.7-0.3c-0.8,0-1.6-0.3-2.4-0.3c-1.1-0.3-2.4-0.3-3.5-0.3c-0.3,0-0.3,0-0.5,0c-0.8-0.3-1.3-0.5-2.1-0.8
		c-1.1-0.5-2.4-1.1-3.5-1.6c-0.8-0.3-1.3-0.5-2.1-1.1c-0.5-0.5-1.3-0.8-1.9-1.1s-0.8-0.5-1.3-0.8c-0.3-0.3-0.8-0.5-1.3-0.8
		s-0.8-0.5-1.3-0.8c-0.5-0.3-1.1-0.5-1.6-0.8c-0.5-0.5-1.1-0.8-1.9-1.1c-0.5-0.3-1.1-0.5-1.6-0.8c-0.5-0.3-0.8-0.8-1.3-1.1
		c-0.8-0.5-1.6-0.8-2.1-1.6c-0.5-0.5-1.3-1.1-1.9-1.6s-1.3-1.1-2.1-1.6c-1.3-1.1-2.7-2.1-3.7-3.2c-0.3-0.3-0.5-0.5-0.8-0.8
		c-0.3-0.3-0.8-0.8-1.1-1.3c-0.8-1.3-1.6-2.7-2.1-4.3c-0.3-0.8-0.8-1.9-1.3-2.7c-0.3-0.8-0.8-1.3-1.1-2.1c-0.3-0.5-0.5-1.1-0.8-1.3
		c-0.3-0.3-0.3-0.5-0.3-0.8c0-0.3,0-0.5-0.3-0.8c-0.3-0.5-0.3-1.1-0.5-1.6c-0.3-0.3-0.3-0.5-0.3-0.8c-0.3-0.5-0.3-1.3-0.5-1.9
		s-0.3-1.3-0.5-1.9c0-0.3,0-0.3-0.3-0.5c-0.8-2.1-1.3-4.3-1.6-6.6c-0.3-0.5-0.3-1.3-0.3-1.9c0-0.3,0-0.3,0-0.5
		c-0.3-0.8-0.3-1.6-0.3-2.4c0-0.8-0.3-1.3-0.3-2.1s0-1.3-0.3-2.1c0-1.1-0.3-1.9-0.3-2.9c0-0.5,0-1.3,0-1.9c0-0.3,0.3-0.8,0.3-1.1
		c0.5-2.9,1.3-5.9,1.9-8.5c0.3-0.5,0.5-1.3,0.5-2.1c0-0.3,0-0.5,0.3-0.8c0.3-0.8,0.5-1.3,0.5-2.1c0-0.5,0.3-1.3,0.5-1.9
		c0.3-1.3,0.8-2.4,1.3-3.7c0-0.3,0.3-0.5,0.3-0.8s0.3-0.5,0.3-0.8c0.3-0.8,0.5-1.3,1.1-2.1c0.3-0.8,0.8-1.3,1.1-2.1
		c0.5-1.3,1.3-2.4,2.1-3.7c0.8-0.8,1.3-2.1,2.1-2.9c0.8-1.1,1.3-2.1,2.1-2.9c0.5-0.8,1.1-1.3,1.9-1.9c0.3-0.3,0.5-0.3,0.8-0.5
		c0.5-0.5,1.1-1.3,1.9-1.6c0.3-0.3,0.5-0.3,0.8-0.5c0.8-0.5,1.3-1.3,2.4-1.6c0.8-0.3,1.3-0.8,1.9-1.3c0.5-0.3,1.3-0.8,1.9-1.1
		c1.1-0.5,2.1-1.3,3.5-1.9c0.5-0.3,1.1-0.5,1.9-0.8c0.5-0.3,1.1-0.3,1.3-0.5c0.5,0,0.8-0.3,1.3-0.3c0.8-0.3,1.3-0.3,2.1-0.5
		c0,0,0,0,0.3,0c0.8,0,1.3-0.3,2.1-0.3c0.8-0.3,1.3-0.3,2.1-0.3c0.8-0.3,1.3,0,2.1-0.3h0.3c0.3,0,0.5,0,0.8,0
		c0.8-0.3,1.6-0.3,2.4-0.3c0.5,0,0.8,0,1.3-0.3c0.3,0,0.3,0,0.5,0c0.5,0,1.1,0,1.6,0c0.3,0,0.3,0,0.5,0c1.1,0,2.1,0,3.2,0
		c0.8,0,1.6,0,2.1,0c0.8,0,1.3,0,2.1,0.3c0.3,0,0.5,0,0.8,0c0.5,0,1.1,0,1.6,0c1.3,0,2.9,0.3,4.3,0.3c0.8,0.3,1.9,0.3,2.9,0.5
		c0.8,0.3,1.6,0.3,2.4,0.5s1.6,0.3,2.4,0.5c0.8,0,1.3,0.3,2.1,0.5c0.8,0.3,1.3,0.3,2.1,0.5c0.5,0.3,1.1,0,1.3,0.3
		c0.5,0.3,1.1,0.3,1.6,0.3c0.3,0,0.8,0.3,1.1,0.3s0.8,0,1.1,0.3c0.8,0.3,1.6,0.5,2.4,0.5c0.8,0.3,1.6,0.3,2.4,0.5
		c1.1,0.3,1.9,0.5,2.9,0.8c0.8,0.3,1.6,0.5,2.7,0.8c0.8,0.3,1.6,0.5,2.4,0.8c0.8,0.3,1.6,0.5,2.4,0.8c1.1,0.5,2.1,0.8,3.2,1.3
		c0.3,0,0.3,0,0.5,0.3c0.5,0.5,1.1,1.1,1.6,1.9c0.8,1.1,1.9,2.4,2.4,3.7c0.3,0.5,0.5,1.1,1.1,1.6c0.3,0.3,0.5,0.5,0.5,1.1
		c0.3,0.5,0.8,1.1,1.1,1.9c0.3,0.5,0.5,1.3,0.8,1.9c0,0,0,0.3,0.3,0.3c0.3,0.5,0.8,1.3,1.1,1.9c0.3,0.8,0.5,1.3,1.1,1.9
		c0.3,0.5,0.5,1.3,0.8,1.9c0,0,0,0,0,0.3c0.3,0.5,0.5,0.8,0.5,1.3c0.3,0.5,0.5,1.1,0.8,1.6c0.3,0.5,0.5,1.3,0.8,1.9
		c0.3,0.5,0.3,1.3,0.5,1.9v0.3c0.3,0.5,0.5,1.1,0.8,1.6c0,0.3,0.3,0.5,0.3,0.8c0.3,1.1,0.5,1.9,0.5,2.9c0,0.8,0,1.6,0,2.4v0.3
		c0,0.5,0.3,1.1,0.3,1.6c0,0.5,0,1.1,0,1.6s0,1.1,0,1.9c0,1.1,0,2.1,0.3,3.2c0,0.3,0,0.5,0,0.8c0,0.8,0,1.9,0,2.7v0.3
		c-0.3,1.1,0,2.1,0,3.5c0,0.5,0,1.1-0.3,1.9c0,0.5,0,1.1,0,1.9c0,0.5,0,1.1-0.3,1.9c-0.3,0.5-0.3,1.1-0.5,1.6c0,0.5-0.3,1.1-0.3,1.6
		s-0.5,1.1-0.5,1.6s-0.3,1.1-0.5,1.6c-0.3,0.8-0.5,1.3-0.8,2.1c-0.3,0.3-0.3,0.5-0.3,0.8s-0.3,0.5-0.3,0.8c-0.5,0.8-0.8,1.6-1.1,2.1
		c-0.3,0.5-0.5,1.1-0.8,1.6c-0.3,0.5-0.5,0.8-0.8,1.3l-0.3,0.3c-0.5,0.8-0.8,1.6-1.3,2.4c-0.5,0.8-0.8,1.3-1.3,2.1
		c-0.5,0.8-0.8,1.3-1.3,2.1c-0.5,0.5-0.8,1.1-1.1,1.6c-0.3,0.3-0.5,0.5-0.8,0.8c-0.8,0.8-1.3,1.6-2.1,2.7c-0.3,0.3-0.5,0.5-0.8,0.8
		c-0.8,1.1-1.9,1.9-2.7,2.9c-0.3,0.5-0.8,0.8-1.1,1.3c-0.5,0.5-1.1,0.8-1.3,1.3s-0.8,0.8-1.1,1.3c-0.3,0.3-0.5,0.5-0.8,0.8
		c-0.5,0.5-1.1,1.1-1.6,1.6c-0.3,0.3-0.5,0.8-0.8,1.1c-0.3,0.3-0.5,0.5-0.8,0.8c-0.5,0.8-1.3,1.3-1.9,2.1c-0.3,0.3-0.5,0.5-0.8,0.8
		c-0.5,0.3-1.1,0.5-1.3,0.8c-1.1,0.8-2.1,1.1-3.2,1.6c-0.5,0.3-1.3,0.3-1.9,0.5s-1.1,0.3-1.6,0.3c-0.3,0-0.3,0-0.5,0
		c-0.8,0.3-1.6,0.5-2.7,0.5c-0.3,0-0.8,0-1.1,0.3c-1.1,0.3-2.4,0.5-3.5,0.5c-0.5,0-1.1,0-1.6,0.3c-0.3,0-0.5,0-1.1,0
		c-1.1,0-2.1,0-3.2,0C659.5,636.1,658.5,636.1,657.7,636.1L657.7,636.1z"/>
</g>
</svg>
