<?xml version="1.0" encoding="utf-8"?>
<!-- Generator: Adobe Illustrator 18.1.1, SVG Export Plug-In . SVG Version: 6.00 Build 0)  -->
<svg version="1.1" id="Layer_1" xmlns="http://www.w3.org/2000/svg" xmlns:xlink="http://www.w3.org/1999/xlink" x="0px" y="0px"
	 viewBox="0 0 2000 800" enable-background="new 0 0 2000 800" xml:space="preserve">
<g>
	<g>
		<path fill="#FF4338" d="M1979.1,54c0.9-0.6,1.7-0.4,1.9,0c0.8,0.9,1.3,1.9,2,2.6c0.8,1.1,1.3,2.2,2.5,3.4c1.1,1.9,2.5,3.6,3.7,5.2
			c0.8,1.5,2,2.8,3,4.1c0.8,0.9,1.5,1.9,2,2.6c0.6,0.8,1.3,1.5,1.7,2.6c0.9,0.9,1.5,2.2,2.2,3.4c0.4,0.6,0.8,1.1,1.1,1.7
			c1.3,1.7,2.6,3.4,3.9,5.2c1.1,1.1,1.7,2.5,2.8,3.4c0.8,1.1,1.5,2.2,2.2,3.4c1.3,1.9,2.6,3.7,3.9,5.4c0.9,0.8,1.1,1.9,2,2.8
			c0.8,0.8,1.3,1.9,1.9,2.8c1.3,1.5,2,3.2,3.6,4.6c0.9,1.3,1.9,2.6,2.8,3.9s1.9,2.6,2.8,3.9c0.8,1.1,1.5,2.2,2.5,3.2
			c0.2,0.2,0.4,0.4,0.4,0.6c0.2,0.9,1.1,1.7,1.7,2.6c0.6,0.8,1.1,1.5,1.7,2.2c0.4,0.6,0.8,1.1,1.1,1.7c0.2,0.6,0.6,1.1,0.9,1.9
			c0.2,0.4,0.4,0.9,0.8,1.1c0.9,0.8,1.3,1.9,2,2.6c1.7,2,3.4,4.3,5,6.3c0.4,0.4,0.8,0.9,0.9,1.3c0.4,0.8,0.9,1.3,1.5,1.9
			c0.4,0.4,0.6,0.8,0.9,1.1c1.1,1.3,1.9,2.8,3,4.1c1.1,1.3,2,2.8,3.2,4.1c0.2,0.4,0.6,0.8,0.8,1.1c0.8,1.5,2,2.8,3,4.1
			c1.1,1.5,2.2,2.8,3.2,4.3c0.6,0.8,1.5,1.3,1.7,2c0.6,0.8,1.3,1.7,1.9,2.5c0.6,0.8,1.1,1.5,1.7,2.2l0.2,0.2c0.8,1.1,1.3,2,2.2,3
			c0.9,0.9,1.5,2,2.2,3c0.6,0.8,0.8,1.7,1.3,2.2c0.6,0.8,1.3,1.3,1.7,2c0.8,1.3,1.9,2.6,2.8,3.7c0.9,1.3,1.9,2.6,3,3.7
			c0.4,0.6,0.8,1.1,1.1,1.7c0.4,0.8,0.9,1.5,1.5,2.2c0.8,0.9,1.5,1.7,2,2.6c0.6,0.8,1.1,1.7,1.7,2.5c0.8,0.9,1.5,1.9,2,2.6
			c0.8,0.9,1.3,2,2,3c0.8,0.9,1.5,1.9,2,2.8c0.8,1.1,1.9,2.2,2.6,3.6c0.9,1.3,2,2.5,2.8,3.9c0.9,1.1,1.9,2.5,2.6,3.6
			c0.8,1.1,1.9,2,2.5,3.2c0.2,0.4,0.6,0.8,0.9,0.9c0.4,0.4,0.8,0.8,1.1,1.3c0.4,0.6,0.8,1.1,1.1,1.7c1.3,1.5,2,3.2,3.6,4.6
			c0.9,1.7,2.6,3.2,3.6,5c0.2,0.4,0.4,0.6,0.6,0.8c1.9,2,3.4,4.3,5,6.5c0.6,0.8,1.1,1.7,1.9,2.5c0.6,0.6,0.9,1.3,1.5,1.9
			c1.3,1.7,2.5,3.6,3.7,5.2c0.4,0.4,0.6,0.8,0.8,1.1c0.2,0.4,0.4,0.8,0.8,1.1c0.8,0.9,1.3,1.9,2,2.8c0.4,1.1,1.1,1.9,1.9,2.8
			c0.6,0.9,1.3,1.9,1.9,2.8c2,2.8,4.1,5.7,6.2,8.5c1.1,1.5,2.5,2.8,3.4,4.3c0.6,0.8,1.1,1.5,1.5,2.2c0.6,0.8,0.9,1.5,1.7,2.2
			c0.4,0.4,0.6,0.8,0.8,1.1c1.5,2.5,3.2,4.6,5,6.9c0.6,0.8,0.9,1.5,1.5,2.2c0.6,0.8,1.1,1.7,1.9,2.5c0.4,0.4,0.8,0.8,0.9,1.1
			c0.9,1.5,2.2,2.8,3.2,4.5c0.2,0.2,0,0.8-0.2,0.9c-0.2,0.2-0.4,0.4-0.6,0.4c-0.4,0.2-0.8,0.6-1.3,0.8c-2.2,1.1-4.6,2.2-6.7,3.6
			c-1.5,0.6-2.8,1.3-4.3,2c-3.7,1.9-7.4,3.9-11.2,6c-1.7,0.9-3.4,1.9-5,2.6c-1.9,0.9-3.9,2-5.7,3c-0.4,0.2-0.8,0.4-0.9,0.6
			c-1.1,0.9-2.6,1.7-3.7,2.8c-0.2,0.2-0.6,0.4-0.9,0.6c-3,1.5-5.6,3.4-8.2,5.2c-0.6,0.4-1.1,0.6-1.5,0.9c-0.4,0.2-0.8,0.2-0.9-0.2
			l-0.2-0.2c-0.8-1.1-1.7-2.2-2.5-3.4c-0.9-1.5-2-2.8-3-4.1c-1.1-1.5-2.2-3-3.2-4.3c-1.9-2.6-3.7-5-5.6-7.6
			c-0.2-0.4-0.6-0.8-0.9-1.1c-0.6-0.6-1.1-1.3-1.3-1.9c-0.2-0.4-0.6-0.8-0.8-1.1c-1.7-1.9-3-3.9-4.5-6c-1.1-1.5-2.2-3.2-3.6-4.6
			c-0.9-1.1-1.9-2.2-2.6-3.6c-0.8-1.3-1.7-2.5-2.6-3.6c-0.4-0.8-0.9-1.3-1.5-1.9c-0.4-0.4-0.8-0.9-0.9-1.3c-0.4-0.6-0.8-1.1-1.1-1.7
			c-2-2.5-3.9-5-5.7-7.6c-0.9-1.3-1.9-2.6-2.8-3.7c-1.3-1.7-2.5-3.4-3.6-4.8c-0.2-0.8-0.9-1.3-1.3-1.9c-0.8-1.3-1.7-2.5-2.5-3.6
			s-1.9-2-2.2-3.4c-1.1-1.5-2.2-2.8-3.4-4.3c-1.1-1.5-2-3-3.2-4.5c-0.8-0.9-1.3-1.9-2-2.8c-0.6-0.9-1.3-1.9-1.9-2.8
			c-0.9-1.1-1.9-2-2.5-3.4c0-0.2-0.2-0.4-0.4-0.6c-1.3-1.3-2.2-3-3.2-4.3c-0.4-0.4-0.8-0.9-0.9-1.3c-0.9-1.5-2.2-2.8-3.2-4.5
			c-0.9-1.5-2-2.8-3-4.1c-0.9-1.5-2.2-3-3.2-4.5c-0.6-0.9-1.3-1.9-2-2.8c-0.2-0.2-0.6-0.6-0.6-0.8c-0.8-1.7-2-3-3.2-4.5
			c-0.9-1.5-2-3-3.2-4.5c-1.1-1.5-2-3-3.4-4.3c-1.3-2.5-3.4-4.3-4.5-6.7c-0.4-0.8-0.9-1.3-1.5-1.9c-0.4-0.4-0.8-0.9-1.1-1.3
			c-0.9-1.5-2-3-3.2-4.5c-0.8-0.8-1.3-1.7-1.9-2.5c-1.1-1.9-2.5-3.6-3.7-5.2c-0.2-0.2-0.4-0.4-0.4-0.6c-0.4-1.3-1.5-2.5-2.2-3.7
			c-0.6-1.1-1.5-2.2-2-3.4c-0.6-1.1-1.5-2-2.2-3c-0.9-1.1-1.7-2.5-2.5-3.7c-0.8-1.3-1.3-2.6-2.6-3.6c-0.6-0.9-0.9-1.7-1.7-2.5
			c-0.6-1.3-1.5-2.5-2.5-3.7c-2.5-4.1-5-8-7.8-11.8c-0.6-0.6-0.9-1.3-1.3-1.9c-0.8-0.9-1.1-2.2-1.9-3.2c-0.8-0.9-1.5-2-2-3
			c-0.4-0.8-0.8-1.3-1.1-2c-0.4-0.6-0.8-1.1-1.1-1.7c-0.2-0.4-0.4-0.8-0.8-1.1c-0.9-1.5-1.9-2.8-2.8-4.3c-0.8-0.9-1.3-2-2.2-3
			c-0.6-0.8-1.1-1.5-1.3-2.2c-0.2-0.6-0.6-1.1-1.1-1.7c-0.4-0.4-0.8-0.9-0.9-1.3c-0.6-1.3-1.5-2.5-2.2-3.7c-0.8-1.3-1.5-2.5-2-3.7
			c-0.2-0.4-0.6-0.8-0.8-1.1c-0.4-0.4-0.6-0.8-0.6-1.1c-0.2-0.4-0.4-0.8-0.8-1.1c-0.4-0.4-0.8-0.8-0.9-1.3c-0.2-0.8-0.6-1.1-0.9-1.7
			c-0.4-0.6-0.6-1.1-0.9-1.7c-0.4-0.4-0.8-0.9-0.9-1.5c-0.2-0.8-0.6-1.5-0.9-2c-0.6-1.1-1.3-2-2-3.2c-0.6-1.1-1.1-2.2-1.9-3.2
			c-0.4-0.4-0.6-0.9-0.8-1.5c0-0.4-0.2-0.6-0.4-0.9c-0.2-0.4-0.6-0.6-0.6-0.8c-0.4-0.8-0.9-1.5-1.7-2.2c-0.2-0.8-0.4-1.7-0.9-2.5
			c-0.2-0.4,0.2-1.1,0.6-1.5c0.9-0.6,1.9-1.1,2.8-1.7c1.7-0.9,3.6-1.7,5-2.8c1.5-0.8,3-1.7,4.3-2.6c0.9-0.4,1.7-0.8,2.5-1.5
			c0.2-0.2,0.6-0.4,0.9-0.6c1.1-0.6,2.2-1.1,3.2-1.7c1.1-0.6,2.5-1.3,3.4-2c0.9-0.6,1.9-1.1,2.8-1.7c2-0.9,3.7-2,5.6-3.2
			c0.8-0.6,1.5-1.1,2.6-1.3c0.6-0.4,1.3-0.8,1.9-1.1c0.9-0.6,1.7-1.3,2.8-1.7c0.6-0.2,0.8-0.8,1.5-1.1c0.4-0.2,0.9-0.4,1.3-0.6
			C1978.4,54.5,1978.9,54,1979.1,54z"/>
		<path fill="#00A887" d="M1691,291.2c-0.2,0-0.6,0-0.8-0.2c-0.6-0.2-0.9-0.2-1.5,0c-0.4,0.2-0.9,0.4-1.3,0.6
			c-0.6,0.4-1.1,0.8-1.5,1.5c-0.4,0.6-0.4,0.8-1.1,0.6c-0.8,0-1.3,0-1.7,0.4c-0.8,0.4-1.5,0.9-2,1.3c-0.6,0.4-1.3,0.2-1.7-0.2
			c-0.4-0.4-0.6-0.8-0.9-0.9c-0.8-0.9-1.3-1.9-2-2.8c-0.6-0.8-1.3-1.5-1.9-2.5c-0.2-0.4-0.4-0.6-0.6-0.8c-1.1-1.1-1.9-2.6-2.8-3.9
			c-0.6-0.8-0.9-1.5-1.7-2.2c-0.9-0.9-1.7-1.9-2.5-3c-0.6-0.9-1.3-1.9-2-2.8c-1.3-1.5-2.5-3-3.7-4.5c-0.8-1.1-1.7-2.2-2.5-3.2
			c-0.8-0.8-1.3-1.5-1.9-2.5c-0.4-0.8-0.9-1.3-1.5-1.9c-1.3-1.5-2.6-3-3.7-4.5c-1.3-1.5-2.5-3-3.7-4.5c-0.2-0.2-0.4-0.4-0.4-0.6
			c-0.9-1.1-1.9-2.5-2.8-3.6s-2-2.2-2.8-3.4c-0.2-0.4-0.4-0.6-0.6-0.8c-1.1-0.9-2-2.2-3-3.4c-2.5-2.8-5-5.7-7.4-8.5
			c-1.1-0.9-1.9-2-2.8-3c-0.6-0.8-1.3-1.3-2-1.9c-0.6-0.4-0.8-0.8-1.1-1.3c-0.6-0.8-1.3-1.3-1.7-2c-0.4-0.8-0.9-1.3-1.5-1.9
			c-0.6-0.8-1.1-1.5-1.9-2c-1.3-1.3-2.6-2.6-3.7-4.1c-1.5-1.9-3.2-3.6-4.8-5.4c-0.9-0.9-1.7-1.9-2.6-2.8c-0.4-0.4-0.8-0.6-0.9-0.9
			c-1.3-1.7-2.8-3.2-4.3-4.5c-0.2-0.2-0.6-0.6-0.8-0.8c-0.8-1.5-2-2.5-3.2-3.6c-0.2-0.2-0.6-0.4-0.9-0.6c-0.4-0.2-0.6-0.4-0.8-0.6
			c-0.4-0.6-0.6-0.9-0.9-1.3c-0.2-0.4-0.6-0.8-0.9-1.1c-1.1-0.8-1.7-1.9-2.6-2.8c-0.6-0.9-1.3-1.7-2-2.2c-2-1.9-3.9-3.9-5.7-6
			c-0.4-0.4-0.8-0.8-1.3-1.3c-0.9-0.9-2-1.9-3-2.8c-1.1-0.9-1.9-2-3-3c-1.1-0.9-2-1.9-3-3c-0.9-1.1-2-2.2-3.2-3.2
			c-0.2-0.2-0.6-0.4-0.8-0.8c-1.3-1.5-2.8-2.8-4.3-4.1c-0.2-0.2-0.4-0.4-0.6-0.6c-1.1-1.5-2.6-2.6-3.9-3.9c-0.4-0.4-0.9-0.8-1.5-0.9
			c-0.6-0.2-0.8-0.6-0.9-0.9c-0.4-0.8-0.8-1.3-1.3-1.9c-1.1-0.9-2.2-2-3.2-3.2c-1.1-1.3-2.5-2.5-3.7-3.6c-0.9-0.9-2-1.9-3-3
			c-0.6-0.6-1.1-1.1-1.7-1.7c-0.9-0.9-1.9-1.7-2.6-2.8c-1.1-1.1-2.2-2.2-3.6-3.4c-0.4-0.4-0.9-0.8-1.3-1.1c-0.4-0.4-0.6-0.8-0.8-1.1
			c-0.8-0.8-1.5-1.3-2.2-2.2c-0.2-0.2-0.6-0.4-0.9-0.6c-0.9-0.4-1.3-0.9-1.7-1.7c-0.2-0.6-0.6-1.1-1.1-1.7c-0.4-0.4-0.6-0.8-0.9-0.9
			c-1.7-1.5-3.2-3-4.6-4.6c-1.5-1.7-3.2-3.4-4.8-4.8c-1.3-1.7-3.2-3-4.5-4.6c-0.4-0.6-1.1-1.1-1.9-1.7c-0.9-0.8-1.7-1.5-2.5-2.5
			c-1.5-1.7-3-3.4-4.8-5c-0.9-0.9-1.9-1.7-2.6-2.8c-1.9-1.7-3.2-3.6-5.4-5c-0.2,0-0.2-0.2-0.2-0.2c-0.4-0.9-1.5-1.5-2-2.2
			c-0.8-1.1-1.7-1.9-2.6-2.6c-0.8-0.6-1.3-1.3-1.9-2c-0.2-0.4-0.4-0.6-0.6-0.8c-0.9-0.8-1.7-1.5-2.8-2.2c-0.9-0.6-1.7-1.3-2-2.2
			c-0.2-0.4-0.4-0.6-0.6-0.9c-1.7-2-3.6-3.9-5.4-5.7c-0.6-0.6-1.1-0.9-1.7-1.3c-0.4-0.2-0.4-0.6-0.6-0.8c0-0.4-0.2-0.6-0.6-0.9
			c-0.6-0.8-1.3-1.3-1.9-2c-0.2-0.2-0.4-0.6-0.2-0.9c0-0.8,0.4-1.3,0.9-1.7c0.4-0.2,0.6-0.4,0.9-0.6c0.4-0.4,0.8-0.6,1.3-0.6
			c0.4,0,0.8-0.2,0.9-0.4c0.4-0.4,0.8-0.8,1.1-0.9c0.8-0.4,1.3-0.9,2-1.3c1.9-0.8,3.6-1.7,4.8-3c0.6-0.4,1.1-0.8,1.7-1.3
			c0.6-0.4,1.1-0.8,1.9-1.1c1.9-0.9,3.4-2.2,5.2-3.2c0.4-0.2,0.6-0.6,0.8-0.8c0.4-0.4,0.8-0.6,1.1-0.9c4.5-3,4.5-2.8,9-6.3
			c0.2-0.2,0.4-0.4,0.6-0.4c1.3-0.8,2.5-1.5,3.6-2.2c0.9-0.8,2.2-1.5,3.2-2.2c0.4-0.2,0.9-0.2,1.5,0c0.4,0.2,0.6,0.4,0.9,0.6
			c0.2,0.2,0.4,0.4,0.6,0.6c0.6,0.8,1.5,1.5,2,2.2c1.3,1.5,2.8,2.8,4.1,4.3c0.9,0.9,2,1.9,2.8,3c0.2,0.4,0.4,0.6,0.8,0.8
			c0.9,0.8,1.7,1.7,2.5,2.5c0.8,0.8,1.7,1.5,2.5,2.5c0.2,0.2,0.4,0.4,0.6,0.6c1.3,0.9,2.5,2.2,3.4,3.4c0.4,0.4,0.8,0.9,1.3,1.3
			c1.1,0.9,2,1.9,3,3c1.9,1.5,3.2,3.4,4.8,4.8c0.4,0.4,0.8,0.6,0.9,0.9c1.7,2,3.7,3.7,5.7,5.6c0.9,0.9,2,1.9,3,3
			c1.3,1.3,2.6,2.6,3.9,3.9c0.4,0.4,0.9,0.8,1.3,1.3c1.3,1.7,3,3,4.5,4.5c1.1,1.1,2.5,2.2,3.4,3.4c1.5,1.5,3,2.8,4.5,4.3
			c1.1,1.1,2.2,2,3.2,3.2c0.2,0.4,0.8,0.6,0.9,0.9c0.9,0.9,1.9,1.7,3,2.6c0.4,0.4,0.8,0.6,0.9,0.9c1.1,1.3,2.5,2.5,3.7,3.7
			c1.3,1.1,2.6,2.5,3.7,3.7c0.8,0.8,1.5,1.5,2.2,2.2c0.9,0.8,1.7,1.5,2.6,2.5c0.8,0.8,1.7,1.7,2.5,2.5s1.7,1.7,2.5,2.5
			c1.1,1.1,2.5,2.2,3.6,3.4l0.2,0.2c1.9,1.1,3,2.8,4.5,4.3c1.9,1.7,3.6,3.4,5.4,5c1.3,1.3,2.8,2.5,3.9,3.9c2.2,1.9,3.7,4.3,5.7,6.3
			c0.6,0.9,1.3,1.7,1.9,2.5c1.1,1.5,2.5,2.8,3.6,4.1c1.3,1.5,2.6,3,3.7,4.5c1.7,1.9,3.2,3.9,5,5.7c1.7,1.9,3.2,3.9,4.8,5.7
			c0.8,0.9,1.5,1.7,2.2,2.6c1.3,1.5,2.6,3,3.7,4.5c0.6,0.8,1.1,1.5,1.3,2.2c0.2,0.4,0.4,0.8,0.8,1.1c1.3,1.5,2.5,3,3.9,4.3
			c0.2,0.2,0.4,0.6,0.8,0.8c1.5,2,3.2,3.9,4.8,5.7c1.7,1.9,3.2,3.9,5.2,5.6c1.7,2,3.6,3.9,5.2,6c0.4,0.4,0.6,0.8,0.9,1.1
			c1.1,1.1,1.9,2.2,3,3.4c1.5,1.3,2.8,2.8,3.9,4.3c0.4,0.9,1.3,1.7,2,2.5c0.2,0.2,0.6,0.6,0.8,0.8c3,2.5,2.5,2,4.8,5.4
			c0.9,1.3,1.9,2.6,2.8,3.9c1.1,1.5,2,3,3.4,4.3c0.2,0.2,0.4,0.4,0.4,0.6c0.8,1.7,2.2,3.2,3.2,4.8c0.8,0.8,1.1,1.9,1.9,2.8
			c0.8,0.8,1.1,1.7,1.7,2.5c0.6,0.9,1.1,1.7,1.9,2.5c0.4,0.4,0.6,0.8,0.8,1.1c0.8,1.3,1.3,2.6,2.5,3.7c0.2,0.2,0.4,0.4,0.4,0.6
			c0.9,2,2.5,3.7,3.7,5.6c0.9,1.5,2,3,3,4.5c0.4,0.6,0.8,1.1,1.1,1.7c1.3,1.7,2.5,3.6,3.4,5.4c0.2,0.4,0.8,2.2,0.9,2.8
			c0,0.2-0.2,0.4-0.2,0.6c-0.2,0.2-0.4,0.4-0.6,0.6c-0.6,0.4-1.1,0.8-1.9,1.1c-1.3,0.8-2.6,1.7-4.1,2.5c-1.3,0.8-2.2,1.7-3.6,2.2
			c-0.6,0.4-1.3,0.8-1.9,1.1c-0.2,0.2-0.4,0.2-0.6,0.4c-1.3,0.8-2.2,1.7-3.6,2.5c-1.3,0.8-2.6,1.3-3.7,2.2c-0.6,0.6-1.5,0.9-2.2,1.3
			c-0.6,0.4-1.3,0.8-1.9,1.1s-0.9,0.8-0.9,1.3c0,0.4-0.2,0.6-0.2,0.9C1691.5,291.1,1691.3,291.2,1691,291.2z"/>
		<path fill="#0082CA" d="M1920.4,187.6c0,0.4,0,0.6-0.2,0.8c-0.4,0.8-0.8,1.7-1.3,2.5c-0.8,1.3-1.5,2.8-2.2,4.1
			c-0.8,1.7-1.9,3.4-2.6,5c-0.4,0.6-0.6,1.1-0.9,1.9c-0.6,1.5-1.3,2.8-2,4.1c-1.3,2.2-2.5,4.5-3.6,6.9c-0.2,0.4-0.4,0.8-0.6,1.1
			c-1.3,2-2.2,4.1-3.2,6.2c-1.5,2.8-3,5.6-4.3,8.2c-0.6,0.9-1.1,1.9-1.5,3c-0.2,0.6-0.4,1.1-0.8,1.5c-0.8,1.1-1.3,2.5-1.9,3.6
			c-0.8,1.3-1.5,2.6-2,3.7c-0.6,1.1-1.3,2.5-1.9,3.6c-0.6,1.3-1.3,2.2-1.9,3.6c-0.9,1.7-1.9,3.6-2.8,5.4c-0.2,0.4-0.4,0.8-0.6,1.1
			c-1.7,2.5-2.6,4.8-3.9,7.4c-0.4,0.8-0.6,1.5-1.1,2c-1.3,1.9-2,3.9-3.2,6c-0.8,1.5-1.5,3-2.2,4.5c-0.9,1.9-1.9,3.6-2.6,5.4
			c-0.6,1.5-1.5,2.8-2.2,4.1c-0.9,1.9-1.7,3.6-2.6,5.4c-0.9,1.9-1.9,3.6-2.8,5.2c-1.1,2.2-2.2,4.5-3.6,6.9c-0.4,0.8-0.8,1.3-1.1,2
			c-0.9,1.5-1.7,3.2-2.5,4.6c-1.9,3.6-3.6,7.1-5.6,10.6c-1.5,2.8-3.2,5.6-4.6,8.5c0,0.2-0.2,0.2-0.2,0.4c-1.1,1.7-1.9,3.6-3,5.2
			c-0.9,1.7-2,3.6-3,5.2c-0.6,0.9-0.9,1.9-1.5,2.6c-0.6,0.8-0.9,1.5-1.3,2.5c-0.6,0.9-0.9,1.7-1.5,2.6c-1.9,3.2-3.6,6.5-5.4,9.7
			c-1.3,2-2.5,4.3-3.7,6.3c-0.6,0.9-1.1,1.9-1.7,3c-1.7,2.8-3.2,5.6-4.8,8.4c-0.9,1.7-2,3.2-3,4.8c-0.2,0.4-0.4,0.8-0.8,1.1
			c-1.7,2.2-2.8,4.8-4.5,7.1c-1.5,2.5-2.8,4.8-4.3,7.3c-1.3,2.2-2.6,4.5-4.1,6.5c-1.1,1.7-2,3.2-3,4.8c-1.9,3.6-4.3,6.9-6.3,10.2
			c-0.9,1.5-1.9,2.8-2.6,4.3c-0.8,1.1-1.5,2.2-2,3.4c-0.4,0.8-0.8,1.5-1.5,2.2c-0.9,0.9-1.5,2-2,3c-0.9,1.7-2,3.2-3,4.8
			c-0.9,1.7-2,3.2-3,4.8c-0.8,1.3-1.7,2.6-2.5,4.1c-0.6,0.9-1.1,1.7-1.5,2.6c-0.4,0.8-0.9,1.3-1.3,1.9c-0.2,0.2-0.8,0.4-0.9,0.2
			c-0.4-0.2-0.9-0.4-1.3-0.6c-1.9-1.1-3.9-1.9-5.7-3c-1.1-0.4-2.2-1.1-3.2-1.7c-1.1-0.6-2-1.1-3.2-1.7c-1.7-0.8-3.4-1.5-5-2.2
			c-1.1-0.6-2.2-1.3-3.6-1.7c-0.2,0-0.2,0-0.4-0.2c-2.6-1.7-5.7-2.6-8.4-4.3c-0.8-0.6-1.7-0.8-2.6-1.3c-0.4-0.2-0.8-0.6-1.1-0.8
			c-0.4-0.4-0.6-0.8-0.4-1.1c0.2-0.8,0.4-1.5,0.9-2c0.6-0.9,0.9-1.9,1.3-2.6c0-0.9,0.6-1.7,0.9-2.5c0.4-0.6,0.6-0.9,0.8-1.5
			c0.6-1.7,1.7-3.2,2.2-4.8c0.2-0.4,0.4-0.8,0.8-1.1c0.2-0.4,0.6-0.8,0.8-1.1c0.6-0.9,1.1-1.9,1.5-3c0.2-0.8,0.6-1.5,0.8-2.2
			c0.2-0.4,0.2-0.6,0.6-0.9c0.6-0.6,0.9-1.1,1.1-1.7c0.9-1.7,1.9-3.4,2.8-5c0.2-0.4,0.4-0.8,0.6-1.1c0.8-1.9,1.7-3.6,2.6-5.4
			c0.6-1.1,1.1-2.5,1.9-3.6c0.2-0.4,0.2-0.8,0.2-1.3c0-0.2-0.2-0.2-0.2-0.4c-0.2-0.6,0-1.1,0.6-1.5c0.2,0,0.2-0.2,0.4-0.2
			c0.6-0.2,0.8-0.4,1.1-0.9c0.4-0.8,0.8-1.3,0.9-2c0.4-0.9,0.8-2,1.7-2.8c0.4-0.4,0.4-0.8,0.6-1.3c0-0.4,0-0.8,0.4-0.9
			c0.9-1.3,1.7-2.6,2.2-4.1c0.8-1.7,1.7-3.2,2.5-4.6c0.6-1.1,1.1-2.2,1.7-3.2c0.8-1.5,1.5-3,2.2-4.5c0.2-0.6,0.4-0.9,0.6-1.5
			c0-0.4,0.2-0.9,0.6-1.1c0.4-0.4,0.8-0.8,1.1-1.3c2-4.1,4.5-8.2,6.9-12.3c0.2-0.4,0.6-0.8,0.8-1.1c1.5-3.2,3.6-6.2,5-9.3
			c0.8-1.3,1.3-2.8,2-4.1c0.2-0.2,0.2-0.4,0.2-0.6c0.9-1.5,1.5-3,2-4.5c0.2-0.4,0.4-0.8,0.8-1.1c0.6-0.6,0.9-1.1,1.1-1.7
			c0.4-0.9,0.9-1.7,1.5-2.6c1.5-2.5,3.2-5,4.3-7.6c0.2-0.6,0.6-1.1,0.9-1.7c0.8-1.1,1.5-2,1.9-3.2c0-0.2,0.2-0.4,0.4-0.6
			c0.9-0.6,1.3-1.3,1.7-2.2c0.6-1.1,1.1-2.2,1.5-3.4c0.4-0.9,0.9-2,1.5-3c0.6-0.9,0.8-2,1.1-3.2c0-0.4,0.2-0.6,0.4-0.9
			c0.8-0.6,0.9-1.3,1.3-2c0.2-0.8,0.6-1.5,1.1-2c0.6-0.9,0.9-1.7,1.3-2.6c0.8-2,2-3.9,2.6-6c0-0.2,0-0.2,0.2-0.4
			c1.5-2.2,2.2-4.6,3.4-6.9c1.1-2.5,2.2-5,3.4-7.6c0.2-0.4,0.4-0.8,0.8-1.1c0.4-0.6,0.6-0.9,0.8-1.5c0.2-0.6,0.6-1.3,0.9-1.9
			c0.6-0.9,0.9-2,0.9-3.2c0-0.2,0-0.4,0.2-0.6s0.4-0.4,0.4-0.6c0.9-0.9,1.7-1.9,1.9-3.2c0-0.4,1.9-3.6,2.2-4.1
			c0.4-0.8,0.9-1.3,0.9-2c0-0.6,0.6-0.9,0.8-1.5c0.4-0.9,0.8-2,1.1-3.2c0.2-0.6,0.6-1.3,1.1-1.7c0.4-0.4,0.4-0.8,0.6-1.1
			c0-0.4,0.2-0.8,0.4-0.9c0.9-1.1,1.7-2.5,2-3.7c0.8-2.2,2-4.3,2.8-6.3c0.2-0.6,0.6-1.1,0.9-1.7c0.4-0.8,1.1-1.5,1.3-2.2
			c0.6-1.5,1.5-3,1.9-4.6c0.2-0.8,0.4-1.3,0.8-1.9c0.4-0.6,0.8-1.1,1.1-1.7c0.6-0.8,0.9-1.5,1.1-2.5c0.2-0.4,0.2-0.8,0.4-1.3
			c0.4-0.6,0.4-1.3,0.4-1.9c0-0.4,0-0.6,0.4-0.9c0.2-0.2,0.2-0.4,0.4-0.6c0.6-0.8,1.3-1.3,1.5-2.2c0.6-0.6,1.1-1.3,1.5-1.9
			c0.4-0.4,0.6-0.9,0.8-1.5c0.2-0.4,0.2-0.9,0.4-1.3c0.8-0.9,0.9-2,1.5-3c0.6-0.9,0.8-1.9,1.3-2.6c0.6-0.9,0.9-1.9,1.1-2.8
			c0.4-1.3,1.1-2.5,1.7-3.6c0.8-1.7,1.3-3.6,2.6-5c0.2-0.6,0.6-1.1,0.9-1.9c0.8-1.3,1.3-2.8,2-4.3c0.2-0.4,0.4-0.8,0.4-1.3
			c0-0.8,0.6-1.5,0.9-2c0.4-0.6,0.8-1.1,0.9-1.9c0.2-0.9,0.9-1.5,0.9-2.5c1.3-2.6,2.6-5,4.8-7.3c0.2-0.2,0.4-0.2,0.8-0.2
			c0.9,0,1.5,0.6,2.5,0.8c0.8,0.4,1.5,0.8,2.2,1.1c0.8,0.4,1.5,0.8,2.2,1.1c1.1,0.6,2,1.1,3.4,1.5c0.6,0.2,0.9,0.4,1.3,0.6
			c0.8,0.6,1.5,0.9,2.2,1.1c1.3,0.4,2.6,0.9,3.6,1.7c0.4,0.2,0.6,0.4,0.9,0.6c1.7,0.6,3.2,1.3,4.6,2c1.9,0.8,3.7,1.7,5.6,2.6
			c2.2,1.1,4.6,1.9,6.9,3.2c1.5,0.4,2.6,1.1,4.1,1.7c1.3,0.6,2.5,0.9,3.7,1.5c0.9,0.4,1.7,0.9,2.6,1.3
			C1920,187.1,1920.2,187.4,1920.4,187.6z"/>
		<path fill="#FFFFFF" d="M1556.3,560.1c-0.4-0.2-0.8-0.4-0.9-0.6c-0.4-0.4-0.6-0.9-0.8-1.5c0-1.5-0.9-3-1.3-4.5
			c-0.9-1.9-1.1-3.7-1.9-5.6c0-0.9-0.8-1.9-0.9-2.8c-0.2-0.9-0.6-1.9-0.9-2.8c-0.6-1.3-0.8-2.8-1.5-4.1c0-0.2,0-0.2,0-0.4
			c-0.2-1.9-1.1-3.4-1.7-5c-0.2-0.8-0.8-1.1-1.5-1.3c-0.2-0.2-0.4-0.8-0.4-0.9c0-0.2,0.2-0.4,0.4-0.6c0.4-0.6,0.4-1.1,0.2-1.5
			c-0.4-1.1-0.9-2.2-1.3-3.4c-0.8-1.9-1.1-3.7-2-5.6c0-0.8-0.4-1.5-0.8-2.2c-0.4-1.7-1.1-3.4-1.7-5c-0.6-1.5-1.3-2.8-1.3-4.5
			c-0.6-1.3-0.9-2.6-1.5-4.1c-0.4-0.9-0.6-1.9-0.9-2.8c-0.4-1.5-0.9-3.2-1.7-4.6c-0.4-0.8-0.6-1.5-0.8-2.2c-0.2-0.4-0.2-0.9-0.4-1.3
			c-0.6-1.1-0.9-2.2-1.1-3.4c-0.2-0.6-0.4-1.3-0.6-1.9c-0.8-1.7-1.3-3.6-2-5.2c-0.4-0.8-0.8-1.7-0.9-2.5c-0.4-1.9-1.3-3.7-2-5.6
			c-0.4-1.1-1.1-2.2-1.1-3.4c0-0.2-0.2-0.4-0.2-0.6c-0.6-1.3-1.1-2.6-1.5-4.1c-0.4-1.3-0.8-2.5-1.3-3.7c-0.4-1.1-0.8-2-1.1-3
			c-0.6-1.3-0.9-2.6-1.5-4.1c-0.2-1.3-0.8-2.5-1.3-3.7c-0.4-0.8-0.8-1.7-1.1-2.5c-0.2-0.4-0.4-0.6-0.4-0.9c0-1.1-0.6-2-0.9-3.2
			c-0.4-1.1-0.9-2.2-1.5-3.4c-0.8-1.7-1.3-3.6-2-5.2c-0.2-0.6-0.2-1.1-0.4-1.7c0-0.6-0.2-1.1-0.6-1.5c-0.6-0.9-0.9-1.9-1.3-2.8
			c-0.8-1.9-1.5-3.7-2.5-5.4c-0.4-0.8-0.6-1.5-0.8-2.2c0-0.4-0.2-0.6-0.4-0.9c-0.2-0.4-0.4-0.6-0.6-0.9c-0.9-1.5-1.5-3.2-2.2-4.8
			c-0.6-1.9-1.5-3.6-2-5.2c-0.2-0.8-0.8-1.7-1.1-2.5c-0.4-0.8-0.6-1.5-0.9-2.2c-0.2-0.6-0.6-1.1-0.8-1.9c-0.2-0.6-0.6-1.3-0.8-1.9
			c0-0.2-0.2-0.2-0.2-0.4c-0.8-1.1-0.8-2.5-1.5-3.7c-0.6-1.1-1.1-2.2-1.5-3.4c-0.6-1.7-1.1-3.4-2-4.8c-0.2-0.4-0.4-0.6-0.4-0.9
			c-0.2-1.1-0.8-2.2-1.3-3.4c-0.4-0.8-0.8-1.7-0.8-2.5c-0.2-1.5-0.8-3-1.5-4.3s-1.3-2.8-1.9-4.3c-0.4-1.3-1.1-2.5-1.7-3.6
			c-0.2-0.4-0.4-0.6-0.8-0.8c-0.2-0.2-0.4-0.6-0.4-0.9c0-0.6,0-1.1-0.2-1.7c0-0.4-0.2-0.9-0.4-1.3c-0.4-0.9-0.8-1.9-1.1-2.8
			c-0.9-1.9-1.5-3.9-2.2-5.7c-0.2-1.1-0.8-2-1.1-3.2c-0.6-1.1-1.1-2.2-1.3-3.4c-0.6-1.1-1.1-2.5-1.7-3.6s-0.6-2.5-1.1-3.4
			c-0.8-1.3-1.1-2.6-1.7-3.9s-1.1-2.6-1.5-3.9c-0.2-0.6-0.4-1.1-0.6-1.5c-0.6-0.9-1.1-1.9-1.3-3c-0.2-0.9-0.8-1.9-1.1-2.8
			c-0.2-0.8-0.6-1.7-1.1-2.5c-0.8-1.1-0.9-2.5-1.7-3.6c-0.2-0.2-0.2-0.4-0.2-0.6c0-1.1-0.6-2-1.1-3.2c-0.8-1.7-1.5-3.4-2.2-5.2
			c-0.4-1.1-0.8-2.2-1.5-3.4c-0.2-0.2-0.2-0.6-0.4-0.9c0-0.6-0.2-1.1-0.4-1.5c-0.4-0.8-0.8-1.3-1.1-2c-0.2-1.3-0.8-2.5-1.3-3.7
			c-0.6-1.1-0.9-2.2-1.3-3.4c-0.2-0.6-0.4-1.3-0.4-1.9c0-0.4,0.2-0.6,0.2-0.9c0.2-0.4,0.4-0.6,0.8-0.8c0.6-0.2,1.1-0.4,1.7-0.6
			c1.3-0.2,2.5-0.2,3.7-0.6c0.6-0.2,1.3-0.2,1.9-0.2c2.5-0.2,4.6-0.9,6.7-1.9c0.2-0.2,0.4-0.2,0.6-0.4c0.9-0.4,1.7-0.8,2.8-0.8
			c0.6,0,0.9,0,1.5-0.2c0.6,0,1.3-0.2,1.9-0.4c0.4-0.2,0.8-0.2,1.1-0.2c3-0.2,2.8-0.2,5.4-1.1c0.4-0.2,0.9-0.4,1.5-0.4
			c1.3-0.2,2.6-0.8,3.9-1.1c0.9-0.2,1.9-0.6,2.8-0.6c1.3,0,2.6-0.8,3.9-0.9c0.2,0,0.2,0,0.4-0.2c0.9-0.4,1.9-0.8,2.6-1.1
			c0.9,0,1.9-0.4,3-0.6c1.7-0.6,3.7-0.8,5.4-1.5c1.5-0.4,2.8-0.6,4.3-0.9c0.2,0,0.8,0.2,0.9,0.4c0,0.2,0.2,0.2,0.2,0.4
			c0.8,2.2,1.9,4.3,2.5,6.5c0.2,0.6,0.4,1.1,0.6,1.5c0.4,0.9,0.8,1.9,0.8,2.8c0.4,1.3,0.9,2.8,1.3,4.1c0.4,0.9,0.8,1.9,0.9,2.8
			c0,0.2,0,0.4,0.2,0.6c0.8,1.3,1.1,3,1.5,4.3c0.6,1.5,0.9,3,1.5,4.5s0.9,3,1.5,4.3c0,0.2,0,0.2,0.2,0.4c0.6,1.1,0.4,2.5,0.9,3.6
			c0.6,1.1,0.9,2.2,1.3,3.4c0.4,1.1,0.8,2,1.1,3.2c0.2,1.1,0.8,2,0.9,3.2c0.2,1.1,0.8,2,0.9,3.2c0.4,0.8,0.6,1.5,0.9,2
			c0.2,0.6,0.4,1.1,0.4,1.5c0.2,0.6,0.2,1.1,0.4,1.5c0.2,0.6,0.4,1.1,0.4,1.5c0.2,0.9,0.4,1.7,0.8,2.5c0.6,1.5,0.9,3,1.5,4.3
			c0.4,0.8,0.6,1.5,0.8,2.2c0.2,0.9,0.8,1.9,0.8,2.8s0.6,1.9,0.9,2.8c0.2,0.4,0.2,0.6,0.4,0.9c0.4,1.9,1.1,3.6,1.7,5.2
			c0.6,1.5,1.1,2.8,1.5,4.3c0.2,0.9,0.6,1.7,0.8,2.5c0.4,1.5,1.1,3,1.3,4.5c0,0.4,0.4,0.8,0.4,1.3c0.2,0.6,0.6,1.3,0.8,1.9
			c0.6,2.5,1.5,4.8,2.2,7.3c0.6,1.5,1.1,3.2,1.7,4.6c0.2,0.6,0.4,1.3,0.6,1.9c0.4,1.3,0.8,2.8,1.3,4.1c0.2,0.4,0.4,0.8,0.4,1.3
			c0.2,0.9,0.8,1.9,0.9,2.8c0.2,0.9,0.6,1.9,0.9,2.8c0.2,0.9,0.6,1.9,0.9,2.8c0.2,0.4,0.4,0.8,0.4,1.3c0.2,1.1,0.6,2,0.9,3.2
			c0,1.1,0.6,2,0.9,3.2c0.2,0.9,0.8,1.9,0.9,2.8c0.6,1.9,0.9,3.6,1.5,5.4c0.8,2.2,1.3,4.6,2,6.9c0.8,2.2,1.3,4.5,2,6.5
			c0.8,2.6,1.7,5.2,2.5,7.8c0.9,3,1.9,6.2,2.8,9.1c0.2,0.6,0.2,1.1,0.6,1.5c0.4,0.8,0.6,1.5,0.8,2.2c0.4,1.1,0.4,2.5,0.9,3.6
			c0.2,1.1,0.6,2.2,0.9,3.6c0.4,1.1,0.8,2.2,1.1,3.6c0.4,1.5,0.8,3,1.3,4.5c0.4,1.3,0.9,2.6,1.1,4.1c0,0.2,0,0.4,0.2,0.6
			c0.6,0.9,0.8,1.9,0.9,2.8s0.6,1.9,0.8,2.8c0.4,1.1,0.4,2,1.1,3.2c0.2,0.2,0.2,0.6,0.2,0.9c0.2,0.4,0.2,0.9,0.2,1.3
			c0.9,2.6,1.7,5.2,2.5,7.8c0.4,1.1,0.8,2.2,1.1,3.4c0,0.2,0.2,0.2,0.2,0.4c0.8,3.4,2,6.7,3,10.1c0.8,2.5,1.3,4.8,2.2,7.3
			c0.2,0.6,0.2,1.1,0.4,1.7c0.2,0.6,0.4,1.3,0.8,1.9c0.2,0.6,0.4,0.9,0.6,1.5c0.2,1.1,0.6,2.2,0.9,3.6c0.6,1.7,1.3,3.4,1.5,5
			c0.8,1.7,1.1,3.4,1.7,5c1.1,3,2,6,3,9c0.2,0.8,0.4,1.5,0.8,2.2c0.4,1.3,0.8,2.6,1.3,3.7c0.6,1.1,0.8,2.2,0.9,3.6
			c0,0.4-0.4,0.9-0.8,1.1c-0.2,0-0.4,0.2-0.8,0.2c-2.8,0.8-5.4,1.7-8.2,2.2c-0.2,0-0.2,0-0.4,0c-1.5,0.4-2.8,0.9-4.3,1.3
			c-1.3,0.2-2.6,0.6-3.9,1.1c-2,0.6-4.3,1.1-6.3,1.7c-0.8,0.2-1.7,0.4-2.5,0.8c-0.4,0.2-0.8,0.2-1.1,0.2c-0.2,0-0.6,0-0.8,0.2
			c-0.9,0.4-1.9,0.6-2.8,0.9c-0.9,0.2-1.9,0.4-3,0.6c-1.9,0.4-3.6,0.9-5.4,1.5C1557.1,560.1,1556.8,560.1,1556.3,560.1z"/>
		<path fill="#FF4338" d="M1844.1,494.5c0.8,0.4,1.7,0.6,2.2,1.1c0.6,0.4,1.1,0.6,1.5,0.9c1.7,1.1,3.4,2.2,5.2,3
			c1.5,0.8,2.8,1.7,4.3,2.6c0.9,0.8,2,1.1,3.2,1.9c0.9,0.8,2,1.1,3.2,1.7c0.6,0.4,1.3,0.6,1.9,1.1c1.7,1.1,3.6,2,5.2,3.2
			c0.9,0.8,2.2,0.9,3.2,1.7c1.5,0.8,2.8,1.9,4.3,2.6c0.4,0.2,0.6,0.6,0.8,1.1c0.2,0.4,0.2,0.6,0,0.9c-0.2,0.4-0.2,0.6-0.6,0.9
			c-2,2.8-3.9,5.7-6,8.8c-1.3,2-2.8,4.1-4.3,6.2c-1.5,2-2.8,4.1-4.3,6.2c-1.1,1.5-1.9,3-3,4.5s-2,3-3,4.5c-0.9,1.3-1.7,2.6-2.8,3.9
			c-0.4,0.4-0.6,0.8-0.8,1.1c-0.4,0.8-0.9,1.5-1.5,2.2c-0.2,0.2-0.4,0.4-0.4,0.6c-1.9,3.2-4.3,6.2-6,9.3c0,0.2-0.2,0.2-0.2,0.4
			c-1.9,2.6-3.4,5.2-5.2,7.8c-0.2,0.4-0.6,0.8-0.8,1.1c-1.3,2.2-2.8,4.3-4.1,6.5c-0.4,0.6-0.8,1.1-1.1,1.7c-0.9,1.7-2,3.2-3,4.8
			c-0.6,0.8-0.9,1.5-1.5,2.2c-3.4,5-6.2,10.1-9.5,15.1c-0.8,1.1-1.5,2.2-2,3.4c-1.7,3-3.7,5.7-5.4,9c-2,2.8-3.7,6-5.6,8.8
			c-0.4,0.6-0.6,0.9-0.9,1.5c-2.6,4.5-5.4,8.8-8,13.2c-1.3,2.2-2.6,4.5-3.9,6.7c-0.2,0.2-0.2,0.4-0.4,0.6c-1.5,2-2.6,4.5-3.9,6.7
			c-0.8,1.3-1.5,2.5-2.2,3.7c-0.6,0.9-1.1,1.7-1.5,2.6c-0.9,1.5-2,3-2.6,4.6c-0.9,1.5-1.7,3-2.6,4.3c-0.8,0.9-1.3,1.9-1.5,3
			c-0.9,1.7-1.7,3.4-2.6,5c-0.4,0.8-0.8,1.3-1.1,2c-0.6,1.1-1.1,2.2-1.9,3.2c-0.2,0.2-0.4,0.6-0.6,0.9c-0.9,1.9-1.9,3.6-2.8,5.2
			c-0.9,1.7-1.9,3.4-2.8,5s-2,3.6-3,5.2c-0.9,1.5-1.9,3.2-2.6,4.6c-0.8,1.7-1.9,3.2-2.6,4.6c-1.9,3.4-3.9,6.7-5.7,10.2
			c-0.9,1.7-2,3.6-3.2,5.2c-0.4,0.8-0.9,1.5-1.3,2.2c-0.6,0.9-0.9,1.7-1.5,2.6c-0.6,0.9-1.3,1.9-1.7,3c-0.4,0.9-0.9,1.7-1.5,2.6
			c-0.6,0.9-1.3,1.9-1.7,2.8c-0.4,0.9-1.1,1.7-1.5,2.6c-0.6,0.9-1.1,1.9-1.7,2.8c-0.6,0.9-1.1,1.7-1.5,2.6c-1.9,3-3.7,6-5.6,9
			c-0.4,0.6-1.1,0.8-1.9,0.4c-1.1-0.4-2.2-0.9-3.2-1.5c0,0-0.2-0.2-0.4-0.2c-1.1-0.6-2.5-0.9-3.6-1.9c-0.9-0.8-2-1.1-3.2-1.9
			c-1.1-0.6-2.2-1.3-3.6-1.9c-1.9-0.9-3.6-1.9-5.4-3c-0.9-0.6-1.9-0.9-3-1.5c-0.9-0.6-1.9-1.1-2.8-1.7c-1.5-0.9-3.4-1.5-4.6-2.6
			c-2.5-1.1-4.6-2.6-7.1-3.7c-0.8-0.4-1.5-0.8-2-1.3c-0.4-0.4-0.6-0.8-0.8-1.1c-0.2-0.4-0.2-0.6,0-0.9s0.4-0.6,0.6-0.9
			c1.1-1.5,2.2-3.2,3-4.8c0.4-0.9,1.1-1.9,1.7-2.8c0.8-0.9,1.5-2,1.9-3.2c1.1-1.9,2-3.7,3.4-5.4c0.2-0.2,0.4-0.6,0.6-0.9
			c0.6-1.3,1.3-2.5,2-3.6c0.2-0.4,0.6-0.8,0.6-1.1c0-0.4,0.2-0.8,0.6-1.1c0.6-0.6,0.9-0.9,1.3-1.7s0.8-1.3,1.1-2
			c0.2-0.4,0.4-0.8,0.6-1.1c0.2-0.6,0.4-1.1,0.8-1.5c0.8-0.9,1.5-1.9,2-3.2c0.2-0.6,0.8-1.1,1.1-1.7c0.2-0.4,0.6-0.8,0.8-1.1
			c0.6-1.3,1.1-2.5,2-3.4c0.2-0.2,0.4-0.6,0.6-0.9c0.6-1.3,1.3-2.6,2.2-3.7c0.9-1.3,1.7-2.6,2.2-4.1c0.2-0.4,0.2-0.6,0.4-0.9
			c0.8-0.9,1.5-2,1.9-3.2c0.6-1.1,1.3-2,1.9-3.2c0.4-0.6,0.8-0.9,0.9-1.3c0.6-0.9,1.1-1.7,1.5-2.6c0.6-1.5,1.3-2.8,2-4.1
			c0.9-1.1,1.3-2.6,2.5-3.7c0.2-0.2,0.2-0.4,0.4-0.6c0.8-1.1,1.1-2.5,1.9-3.6c0.8-0.9,1.3-2,1.9-3.2c0.6-0.9,1.1-1.9,1.7-3
			c0.2-0.4,0-0.8-0.2-1.1c-0.4-0.8-0.2-1.3,0.4-1.7c0.4-0.2,0.6-0.4,0.9-0.6c0.6-0.2,0.9-0.4,1.1-0.8c0.6-1.1,1.3-2,2-3.2
			c0.6-0.9,1.1-1.9,1.1-3c0-0.6,0.2-1.1,0.6-1.5c0.8-0.8,0.9-1.7,1.9-2.5c0.2-0.2,0.4-0.4,0.4-0.6c0.6-0.9,1.1-1.9,1.7-3
			c0.4-0.9,0.9-2,1.7-3c0.6-0.8,1.1-1.7,1.3-2.6c0.2-0.6,0.6-1.3,0.9-1.7c1.1-1.3,1.7-3,2.6-4.3s1.5-2.8,2.5-4.1
			c0.2-0.4,0.4-0.6,0.4-0.9c0.2-0.6,0.4-0.9,0.8-1.5c0.6-0.6,1.1-1.3,1.1-2c1.3-1.9,2.2-4.1,3.6-6.2c0.4-0.6,0.8-1.1,0.9-1.7
			s0.8-1.1,1.1-1.7c0.2-0.4,0.4-0.8,0.6-1.1c0.6-1.5,1.7-3,2.6-4.3s1.7-2.6,2.6-3.9c0.2-0.4,0.4-0.8,0.6-1.1
			c0.2-0.6,0.6-0.9,0.8-1.5c0.8-1.1,1.7-2.2,2.2-3.4s1.3-2,1.9-3.2c0.6-1.1,1.3-2,2-3c0.6-0.8,1.1-1.7,1.7-2.5
			c0.9-1.5,1.9-2.8,2.8-4.3c0.8-1.1,1.5-2.2,2.2-3.4c0.9-1.7,1.9-3.4,3-4.8c0.4-0.6,0.8-1.1,0.9-1.7c0.1-0.6,0.6-0.9,0.9-1.3
			c0.8-0.6,0.8-1.3,1.3-1.9c0.6-0.6,1.1-1.3,1.3-2c0.2-0.4,0.4-0.6,0.6-0.8c0.4-0.8,1.3-1.3,1.7-2c0.6-0.8,0.8-1.5,1.5-2.2
			c0.4-0.6,0.8-1.1,1.1-1.7c0.2-0.4,0.4-0.8,0.8-1.1c1.3-1.5,2.2-3.2,3.4-4.6s2-3.2,3.2-4.8c1.1-1.7,2.2-3.4,3.6-5
			c0.4-0.4,0.8-0.9,0.9-1.3c0.8-1.3,1.7-2.5,2.6-3.6c0.4-0.4,0.8-0.9,0.9-1.5c0.4-1.1,0.9-1.9,1.9-2.6c0.4-0.4,0.6-0.8,0.9-1.1
			c1.3-1.9,2.5-3.7,3.9-5.6c1.3-1.7,2.6-3.4,3.7-5.2c0.2-0.4,0.4-0.6,0.6-0.8c0.8-0.8,1.3-1.9,2-2.6c0.8-0.8,1.3-1.7,1.9-2.5
			c0.4-0.6,0.9-1.1,1.3-1.7c0.2-0.4,0.6-0.8,0.8-1.1c0.6-1.1,1.5-2.2,2.5-3.2c0.2-0.2,0.6-0.6,0.6-0.8c0.4-0.9,1.1-1.7,1.9-2.5
			c1.3-1.5,2.6-3,3.9-4.3c0.6-0.6,0.8-1.1,1.1-1.7c0.9-1.3,1.9-2.6,3.2-3.6c0.2-0.2,0.4-0.2,0.8-0.2
			C1843.9,494.2,1843.9,494.5,1844.1,494.5z"/>
		<path fill="#FFFFFF" d="M1910.4,384.8c0.2-0.6,0.4-1.1,0.8-1.5c2.2-1.9,4.5-3.7,6.7-5.7c1.5-1.3,2.8-2.5,4.3-3.7
			c1.3-1.3,2.8-2.5,4.3-3.7c0.8-0.8,1.5-1.3,2.2-2.2c0.6-0.6,1.1-1.1,1.9-1.5c0.2-0.2,0.8-0.2,1.1,0c0.2,0,0.2,0.2,0.4,0.2
			c1.9,1.5,3.9,3,6,4.5c1.1,0.8,2.2,1.9,3.4,2.6c1.1,0.8,2,1.5,3,2.5c3.6,2.6,7.3,5.2,10.8,7.8c1.1,0.8,2,1.5,3.2,2.2
			c1.1,0.6,2,1.3,3,2c1.3,1.1,2.6,2,3.9,3c0.6,0.4,1.1,0.9,1.7,1.3s1.3,0.8,1.9,1.1c0.9,0.8,2,1.3,2.8,2c1.3,1.1,2.8,1.9,3.9,3
			c0.4,0.4,0.8,0.6,1.1,0.8c1.1,0.8,1.7,0.9,2.8,2c0.2,0.2,0.4,0.4,0.6,0.4c1.9,1.1,3.4,2.5,5.2,3.6c1.5,0.9,2.6,2,4.1,3
			c1.9,1.3,3.6,2.6,5.4,3.9c1.3,0.9,2.8,1.9,4.1,2.8c2.5,1.5,4.6,3.4,7.1,4.6c0.2,0.2,0.4,0.2,0.6,0.4c1.7,1.3,3.2,2.5,5,3.6
			c1.9,1.3,3.7,2.6,5.6,3.7c1.3,0.8,2.6,1.7,3.7,2.6c0.8,0.6,1.3,0.9,2,1.5c2.2,1.7,4.5,3.2,6.5,4.8c2,1.5,4.1,2.8,6,4.3
			c3,1.9,5.7,4.1,8.5,6.2c0.2,0.2,0.4,0.4,0.6,0.4c2,1.3,3.9,2.8,5.7,4.1c2.6,1.9,5.2,3.7,7.6,5.6c1.1,0.8,2,1.5,3.2,2.2
			c1.7,1.1,3.2,2,4.5,3.4c0.4,0.4,0.8,0.6,1.1,0.8c1.5,1.1,3,2,4.3,3.2c0.9,0.9,2,1.7,3.2,2.5c1.9,1.3,3.6,2.8,5.4,4.1
			c2.5,1.9,4.8,3.7,7.4,5.4c1.3,1.3,3,2.2,4.5,3.6c0.6,0.6,1.3,0.9,2,1.5c0.6,0.4,1.1,0.9,1.7,1.3c1.1,0.9,2.2,1.7,3.4,2.6
			c1.5,1.3,3.4,2.2,4.6,3.7c1.7,0.8,2.8,2,4.3,3.2c1.1,0.8,2.5,1.5,3.4,2.6c0.4,0.4,0.9,0.8,1.5,1.1c1.5,1.1,3,2,4.3,3.2
			c0.4,0.4,0.8,0.6,1.1,0.8c2.6,1.9,5.4,3.7,7.8,6c0.2,0.2,0.6,0.6,0.8,0.8c1.1,0.8,2.5,1.5,3.4,2.6c1.3,0.8,2.2,1.7,3.4,2.6
			c0.2,0.2,0.6,0.6,0.8,0.8c1.5,0.9,2.6,2,3.9,3c1.3,0.9,2.5,1.9,3.6,3c0.4,0.4,0.9,0.8,1.3,1.1c0.8,0.6,1.5,1.1,2.2,1.7
			c0.9,0.8,1.9,1.7,3,2.5c0.2,0.2,0.4,0.2,0.6,0.4c1.9,1.7,3.7,3.2,5.7,4.6c1.9,1.5,3.9,3.2,5.7,4.6c0.9,0.8,1.9,1.5,2.8,2
			c0.8,0.8,1.7,1.3,2.5,2c0.8,0.8,1.9,1.1,2.6,1.9c0.8,0.6,1.3,1.3,2,1.9c0.9,0.8,1.9,1.3,2.8,2c0.8,0.8,1.7,1.3,2.6,1.9
			c0.8,0.8,1.5,1.5,2.5,2c0.9,0.9,2,1.9,3,2.8c0.2,0.2,0.2,0.8,0,0.9c-0.2,0.1-0.4,0.4-0.6,0.6c-0.9,0.6-1.7,1.3-2.5,2
			c-0.6,0.4-1.1,0.9-1.7,1.3c-1.3,0.9-2.5,1.9-3.6,3c-0.4,0.4-0.9,0.8-1.3,1.1c-0.6,0.4-0.9,0.8-1.3,1.1c-0.8,0.8-1.7,1.5-2.8,2.2
			c-0.9,0.6-1.7,1.3-2.5,2c-1.3,1.1-2.6,2.2-4.1,3.4c-0.6,0.4-0.9,0.8-1.3,1.1c-0.8,0.8-1.7,1.5-2.6,2.5c-0.8,0.8-1.7,1.3-2.5,2
			c-1.1,0.8-2,1.9-3.4,2.6c-0.4,0.2-0.8,0.6-1.1,0.9c-1.1,1.1-2.5,2.2-3.6,3.4c-0.2,0.2-0.6,0.4-0.9,0.6c-0.2,0.2-0.9,0.2-1.1,0
			c-1.3-0.9-2.6-1.7-3.7-2.6c-2.2-1.9-4.5-3.4-6.5-5.4c-0.6-0.6-1.1-0.8-1.7-1.3c-1.5-1.1-3.2-2.2-4.5-3.6c-0.8-0.8-1.7-1.3-2.5-1.9
			c-1.5-0.9-2.8-2-4.3-3.2c-0.8-0.8-1.7-1.3-2.6-1.9c-0.8-0.8-1.5-1.5-2.5-2c-2.2-1.5-3.9-3.4-6.2-4.8c-0.2-0.2-0.4-0.4-0.6-0.4
			c-0.9-0.6-1.5-1.5-2.5-2c-0.8-0.6-1.5-1.1-2.2-1.7c-0.9-0.6-1.5-1.5-2.5-1.9c-0.4-0.2-0.8-0.6-1.1-0.9c-1.1-0.8-1.9-1.7-2.8-2.6
			c-0.9-0.9-2.2-1.5-3.2-2.5c-0.9-0.9-1.9-1.7-3-2.5c-0.6-0.4-0.9-0.8-1.3-1.1c-1.3-1.1-2.8-2.2-3.9-3.4c-0.4-0.4-0.8-0.6-1.1-0.9
			c-1.5-1.1-2.8-2-4.1-3.4c-1.1-1.1-2.5-1.9-3.6-2.8c-1.3-0.9-2.6-2-3.9-3.2c-0.6-0.6-1.3-1.1-1.9-1.5c-1.3-1.1-2.6-2-3.9-3
			c-1.1-0.9-2.2-2-3.4-3c-1.3-1.1-2.6-2.5-4.1-3.4c-0.6-0.4-1.1-0.9-1.7-1.3c-0.9-0.8-1.7-1.5-2.8-2.2c-0.6-0.4-1.1-0.9-1.7-1.3
			c-1.9-1.7-3.7-3.2-5.7-4.6c-0.3-0.2-0.8-0.6-1.1-0.9c-1.7-1.5-3.4-3-5-4.3c-1.5-1.3-2.8-2.6-4.5-3.6c-1.1-1.1-2.5-1.9-3.4-3
			c-2-1.9-4.3-3.6-6.5-5.4c-0.9-0.8-2-1.7-2.8-2.6c-0.9-0.9-2-1.9-3.2-2.8c-2.5-2-4.8-4.3-7.4-6.5c-3.2-3.6-7.1-6.3-10.6-9.5
			c-1.1-0.9-2-1.9-3-3c-0.8-0.8-1.5-1.5-2.2-2.2c-0.2-0.2-0.4-0.4-0.6-0.6c-1.3-0.8-2.2-1.7-3.4-2.6c-1.3-1.1-2.6-2.2-3.9-3.6
			c-0.6-0.6-0.9-1.1-1.5-1.5c-1.3-0.8-2.5-1.9-3.6-2.8c-1.3-1.1-2.6-2-3.9-3c-1.1-0.9-2-1.9-3.2-2.8c-0.8-0.8-1.5-1.7-2.6-2.2
			c-0.2-0.2-0.4-0.2-0.6-0.4c-1.1-1.3-2.5-2.2-3.7-3.2c-0.8-0.6-1.3-1.3-2-1.9c-1.3-1.3-2.6-2.6-4.3-3.6c-0.4-0.2-0.8-0.6-1.1-0.9
			c-1.3-1.1-2.5-2.5-3.9-3.4c-0.8-0.6-1.3-1.3-2-1.9c-0.9-0.9-1.9-1.9-3-2.6c-0.4-0.2-0.6-0.4-0.8-0.8c-1.7-1.7-3.6-3.4-5.6-4.8
			c-1.1-0.9-2.2-1.9-3.2-2.8c-0.9-0.9-2-1.9-3.2-2.6c-0.4-0.2-0.6-0.4-0.8-0.8c-0.9-1.1-2.2-1.9-3-3c-0.4-0.6-0.9-0.9-1.5-1.3
			c-1.3-0.9-2.6-1.9-3.7-3.2c-0.4-0.4-0.8-0.8-1.3-1.1c-2-1.5-3.9-3.2-5.7-4.6c-1.9-1.5-3.7-3.2-5.6-4.8c-0.6-0.6-1.3-0.9-2-1.3
			c-0.2,0-0.4-0.2-0.6-0.4l-0.2-0.2c-0.6-0.9-1.3-1.5-2-2.2c-0.2-0.2-0.6-0.4-0.9-0.6s-0.6-0.4-0.9-0.6c-1.7-1.7-3.6-3.4-5.2-5
			C1910.6,385.1,1910.6,384.9,1910.4,384.8z"/>
		<path fill="#00A887" d="M1910.9,609l0.1-0.2c0.3-0.3,0.5-0.6,0.7-0.8c1.1-0.8,2.2-1.6,3.4-2.2c1.2-0.6,1.8-1.5,3.1-2.1
			c2.4-1.9,4.9-3.5,7.6-5.2c0.9-0.9,2.2-1.3,3.1-2.1c1.1-1,2.2-1.6,3.4-2.4c0.9-0.7,1.9-1.4,3.1-2.1c0.9-0.7,1.9-1.4,3.1-2.1
			c0.7-0.6,1.6-1.1,2.4-1.6c0.3-0.3,0.9-0.1,1.4,0.2c0.2,0.1,0.5,0.3,0.6,0.5c0.3,0.3,0.6,0.6,1,1.1c2.4,3.4,5.3,6.5,7.7,10
			c1,1.3,2.1,2.3,2.9,3.6c0.8,1.3,1.9,2.4,2.9,3.6c0.6,0.7,1.1,1.6,1.9,2.4c0.2,0.1,0.3,0.3,0.4,0.5c1.9,3,4.4,5.5,6.4,8.4
			c1.6,2.2,3.4,4.6,5.4,6.7c1.7,2.4,3.7,4.7,5.7,7c0.7,0.9,1.4,1.9,2.2,2.9c1.3,1.6,2.5,3.1,3.5,4.8c2.1,2.3,3.5,4.8,5.6,6.9
			c0.6,0.5,0.9,0.9,1.3,1.6c1.5,2.2,3.2,3.8,4.6,6c2.1,2.3,3.5,4.9,5.7,7.1c1.3,1.7,2.6,3.5,4.2,5.2c1.3,1.6,2.4,3.4,3.7,5.2
			c1.3,1.4,2.2,2.9,3.2,4c1.3,1.4,2.4,2.8,3.4,4.4c1.1,1.5,2.5,3,3.4,4.4c1.1,1.5,2,2.9,3.2,4c0.6,0.6,1,1.3,1.4,1.7
			c0.6,0.6,1.3,1.4,1.6,2.1c0.3,0.3,0.4,0.5,0.6,0.7c1.4,1.6,2.6,3.3,3.8,4.8c0.6,0.6,1.1,1.5,1.8,2.1c0.6,0.5,0.6,0.7,1,1.3
			c1,1.3,1.9,2.5,3.1,3.6c0.6,0.5,0.6,0.7,1,1.3c0.4,0.7,0.8,1.3,1.4,1.7c0.2,0.1,0.3,0.3,0.4,0.5c0.7,0.9,1.4,1.9,2.2,2.9
			c0.7,0.9,1.7,1.8,2.4,2.8c0.1,0.2,0.1,0.2,0.3,0.3c2,2,3.8,4.1,5.5,6.3c0.4,0.5,0.8,0.7,1.2,1.2c0.8,1.1,1.8,2.2,2.8,3.2
			c1.2,1.2,2.1,2.5,3.2,3.7c1,1.3,2.1,2.5,3.2,3.7c0.9,0.9,1.6,2.1,2.7,2.9c0.6,0.6,1.3,1.4,2,2c0.8,0.6,1.1,1.5,1.6,2.1
			c1,1.1,2,2.1,3,3.2c0.6,0.6,1.1,1,1.4,1.7c1.5,1.8,3.1,3.8,4.6,5.6c0.7,0.9,1.8,1.5,2.6,2.8c0.7,0.9,1.4,1.7,2.1,2.5
			c1.4,1.6,2.9,3,4.3,4.6c1.5,2.3,3.5,4,5.4,6c1.9,2,3.5,4,5.4,6c2,2.1,3.9,4.2,5.8,6.4c1.8,2.1,3.5,4,5.4,6c1.9,2,3.8,3.9,5.4,6
			c0.6,0.6,1.3,1.4,1.8,2.1c1.1,1,2.2,2,3,3.2c2.1,1.7,3.4,3.8,5.3,5.6c0.6,0.5,0.9,0.9,1.3,1.6c0.3,0.3,0.4,0.5,0.3,0.9
			c0.1,0.4,0,0.6-0.3,0.9c-0.1,0.2-0.3,0.3-0.7,0.4c-2.4,1.6-4.7,3.2-7.1,4.8c-3,1.9-5.9,3.8-8.6,5.8c-0.9,0.7-1.7,1.2-2.8,1.8
			c-3.1,2.1-6.2,4-9.2,6.1c-3,1.9-5.6,3.8-8.6,5.8c-0.9,0.7-1.7,1.3-2.8,1.8c-0.4,0.1-1.1,0.1-1.4,0l-0.2-0.1
			c-0.3-0.3-0.6-0.5-0.8-0.7c-1.2-1.2-2.1-2.5-3.2-3.7c-1.2-1.2-1.9-2.4-3.1-3.6c-0.8-0.7-1.3-1.6-1.9-2.4c-0.4-0.5-0.8-1.1-1.3-1.6
			c-1.2-1-2.1-2.3-3.1-3.6c-0.4-0.5-1-1.1-1.3-1.6c-0.6-0.5-0.9-0.9-1.4-1.6c-1.3-1.4-2.3-3.1-3.6-4.3c-1.3-1.4-2.4-2.6-3.5-4
			c-1.1-1.3-2.4-2.6-3.3-4c-1-1.1-1.8-2.1-2.7-3c-0.8-1.1-1.8-2.1-2.5-3.1c-0.3-0.3-0.6-0.5-0.6-0.7c-2-2.7-4.5-5.2-6.6-7.7
			c-0.3-0.3-0.6-0.6-1-1.1c-0.6-0.7-1.3-1.6-1.9-2.4c-0.6-0.6-1.1-1.5-1.6-2.1c-0.9-0.9-1.8-2.1-2.5-3.1c-2.9-3.8-5.9-7.7-8.7-11.6
			c-3.9-5.3-7.7-10.5-11.6-15.6c-1-1.3-2.1-2.5-3-3.9c-0.8-1.3-1.7-2.6-2.7-3.7c-1-1.3-1.7-2.6-2.7-3.7c-1-1.3-1.9-2.4-2.7-3.7
			c-0.5-0.8-1.1-1.6-1.9-2.4c-1-1.1-1.6-2.4-2.6-3.5c-1.5-2.3-3.3-4.4-5-6.6c-0.4-0.7-1-1.3-1.4-1.7c-0.8-1.1-1.6-2.1-2.3-3.2
			c-0.7-0.9-1.4-1.9-2.2-2.9c-0.9-0.9-1.5-1.8-2.2-2.9c-0.7-1-1.4-1.9-2.2-2.9c-1.7-2.4-3.5-4.8-5.3-7.2c-1.1-1.5-1.9-3-3.3-4.2
			c-0.9-1.5-2-2.7-3-3.9c-0.7-0.9-1.2-1.9-2-2.9c-0.9-0.9-1.5-1.8-2.2-2.9c-0.7-0.9-1.5-1.8-2.2-2.9c-0.6-0.7-1.3-1.6-1.7-2.4
			c-0.7-0.9-1.4-1.9-2-2.9c-0.3-0.3-0.6-0.6-1-1.1c-1.7-2.8-3.9-5.3-5.8-8c-0.8-1.1-1.6-2.1-2.3-3.2c-0.6-0.7-1.3-1.6-1.7-2.4
			c-0.1-0.4-0.4-0.5-0.6-0.7c-1.9-2.5-3.7-5.2-5.7-7.7c-0.8-1.1-1.8-2.2-2.6-3.3c-0.8-1.1-1.5-2.2-2.3-3.2c-0.7-0.9-1.3-1.7-2-2.7
			c-1-1.3-1.8-2.8-2.8-4c-1-1.3-1.8-2.8-3-3.9c-3.5-4.9-7-9.7-10.5-14.8c-1.1-1.5-1.9-3-2.9-4.3c-1.7-2.6-3.6-5.4-5.3-7.9
			c-0.4-0.5-0.9-0.9-1.3-1.6C1911,609.4,1910.9,609.1,1910.9,609z"/>
	</g>
	<g>
		<g>
			<path fill="#00A887" d="M73.9,542.2L73.9,542.2L73.9,542.2c0-0.2,0-0.2,0-0.2l0,0c0.2-0.2,0.2-0.2,0.2-0.4v-0.2l0,0v-0.2
				c0,0,0-0.2,0.2-0.2v-0.2c0,0,0,0,0-0.2c0,0,0,0,0-0.2v-0.2c0-0.2,0.2-0.2,0.2-0.4c0,0,0,0,0-0.2s0.2-0.2,0.2-0.4l0,0V539v-0.2
				v-0.2c0,0,0,0,0-0.2v-0.2l0,0L75,538l0,0c0,0,0,0,0-0.2l0,0l0,0v-0.2l0,0c0,0,0.2-0.2,0.2-0.4V537v-0.2l0,0l0.2-0.2
				c0,0,0,0,0-0.2c0.2,0,0.2-0.2,0.2-0.4c0,0,0,0,0-0.2l0,0v-0.2l0,0v-0.2l0,0v-0.2c0,0,0.2-0.2,0-0.2l0,0c0.2-0.2,0.2-0.2,0.2-0.4
				s0.2-0.2,0.2-0.4c0,0,0,0,0.2-0.2l0,0c0,0,0,0,0-0.2l0.2-0.2l0,0v-0.2l0,0c0,0,0,0,0-0.2l0,0c0-0.2,0.2-0.2,0.2-0.4
				c0,0,0,0,0-0.2s0-0.2,0.2-0.4c0,0,0,0,0-0.2s0.2-0.2,0.2-0.4c0,0,0,0,0-0.2c0,0,0-0.2,0.2-0.2l0.2-0.2l0,0l0,0l0,0
				c0,0,0.2-0.2,0.2-0.4l0,0l0,0v-0.2v-0.2c0,0,0-0.2,0.2-0.2l0,0c0-0.2,0.2-0.2,0.2-0.4l0,0l0.2-0.2l0.2-0.2l0.2-0.2
				c0,0,0.2,0,0.2-0.2v-0.2l0,0l0.2-0.2l0,0l0.2-0.2c0,0,0,0,0-0.2c0,0,0,0,0-0.2c0,0,0-0.2,0.2-0.2c0,0,0.2,0,0.2-0.2l0.2-0.2
				c0.2,0,0.2-0.2,0.2-0.4c0,0,0,0,0-0.2l0,0l0.2-0.2c0,0,0,0,0.2-0.2s0.2-0.2,0.4-0.4l0.2-0.2c0,0,0,0,0.2-0.2l0.2-0.2
				c0,0,0,0,0-0.2c0.2-0.2,0.2-0.2,0.4-0.4l0,0c0.2-0.2,0.4-0.4,0.4-0.4l0,0l0.2-0.2l0,0c0-0.2,0.2-0.2,0.2-0.2l0.2-0.2
				c0,0,0.2,0,0.2-0.2l0,0c0,0,0-0.2,0.2-0.2l0,0c0,0,0,0,0-0.2c0,0,0,0,0.2-0.2c0,0,0-0.2,0.2-0.2c0.2-0.2,0.4-0.4,0.6-0.6
				c0,0,0.2,0,0.2-0.2l0.2-0.2l0,0c0.2-0.2,0.2-0.2,0.2-0.2s0.2,0,0.2-0.2l0,0l0.2-0.2l0,0l0,0l0,0l0.2-0.2l0.2-0.2l0.2-0.2l0.2-0.2
				l0.2-0.2l0,0l0.2-0.2c0,0,0.2,0,0.2-0.2h0.2l0,0c0,0,0,0,0.2,0l0.2-0.2c0,0,0,0,0.2,0h0.2l0,0h0.2H88l0,0h0.2l0,0
				c0.2,0,0.2,0,0.2,0H89h0.2c0.2-0.2,0.4-0.2,0.6-0.2l0,0H90c0,0,0.2,0,0.2-0.2h0.2h0.2c0.2,0,0.2-0.2,0.4-0.2s0.4-0.2,0.6-0.2
				c0,0,0.2,0,0.2-0.2c0,0,0.2,0,0.2-0.2h0.2h0.2c0.2,0,0.2,0,0.4,0c0.2,0,0.4,0,0.4-0.2l0,0c0.2,0,0.2,0,0.4-0.2h0.2l0,0
				c0,0,0.2,0,0.2-0.2h0h0.2h0.2c0,0,0,0,0-0.2l0,0c0.2,0,0.2,0,0.4,0l0,0l0,0c0.2,0,0.2,0,0.4,0c0,0,0,0,0.2,0c0,0,0,0,0.2,0h0.2
				l0,0c0.2,0,0.2,0,0.4,0l0,0c0.2,0,0.2,0,0.4,0l0,0c0.2,0,0.2,0,0.4,0c0.1,0,0.2,0,0.4,0c0,0,0,0,0.2,0s0.4,0,0.6,0h0.2
				c0,0,0,0,0.2,0s0.2,0,0.4,0h0.2l0,0c0.2,0,0.2,0,0.4,0c0,0,0,0,0.2,0c0.6,0,1.1,0,1.7,0l0,0c0.2,0,0.4,0,0.4,0h0.2h0.2
				c0.2,0,0.4,0,0.6,0h0.2h0.2h0.2l0,0c0.2,0,0.4,0,0.4,0h0.2h0.2h0.2h0.2h0.2c0,0,0,0,0.2,0h0.2h0.2h0.2h0.2c0.2,0,0.4,0,0.4,0
				s0.2,0,0.4,0h0.2h0.2c0,0,0,0,0.2,0c0,0,0,0,0.2,0l0,0c0.2,0,0.2,0,0.4,0c0.2,0,0.4,0,0.6,0.2l0,0c0.2,0,0.2,0,0.2,0h0.2h0.2
				c0,0,0,0,0.2,0c0,0,0,0,0.2,0c0,0,0,0,0.2,0h0.2l0,0h0.2l0,0c0.2,0,0.2,0,0.4,0.2c0.2,0,0.2,0,0.4,0.2c0.2,0,0.2,0,0.2,0
				s0,0,0.2,0h0.2h0.2l0,0c0,0,0.2,0,0.2,0.2h0.2h0.2h0.2c0,0,0,0,0.2,0l0,0l0,0c0.2,0,0.4,0.2,0.6,0.2s0.2,0,0.4,0.2h0.2
				c0,0,0.2,0,0.2,0.2l0,0c0.2,0,0.2,0.2,0.4,0.2c0,0,0.2,0,0.2,0.2c0,0,0.2,0.2,0.2,0h0.2h0.2h0.2l0,0c0,0.2,0,0.2,0.2,0.2l0.2,0.2
				c0,0,0.2,0,0.2,0.2l0,0l0,0c0,0,0,0,0.2,0c0,0,0.2,0,0.2,0.2l0.2,0.2l0,0c0,0,0.2,0,0.2,0.2l0.2,0.2c0,0,0.2,0,0.2,0.2
				c0.2,0.2,0.4,0.2,0.4,0.4l0,0c0,0,0.2,0,0.2,0.2c0,0,0.2,0,0.2,0.2c0,0,0,0,0.2,0.2c0,0,0.2,0,0.2,0.2c0,0,0.2,0,0.2,0.2l0,0
				c0,0,0.2,0,0.2,0.2s0.2,0.2,0.4,0.2l0,0c0.2,0.2,0.2,0.2,0.4,0.4c0,0,0,0,0.2,0.2c0,0,0.2,0,0.2,0.2c0,0,0,0,0.2,0c0,0,0,0,0.2,0
				c0.2,0.2,0.2,0.2,0.4,0.4c0,0,0,0,0.2,0.2c0.2,0,0.2,0.2,0.2,0.2s0,0,0.2,0.2c0,0,0.2,0,0.2,0.2l0,0c0,0,0.2,0,0.2,0.2
				c0,0,0.2,0,0.2,0.2l0,0h0.2l0.2,0.2l0,0c0,0.2,0.2,0.2,0.4,0.2l0.2,0.2l0.2,0.2l0,0l0.2,0.2c0,0,0,0,0.2,0.2l0.2,0.2l0.2,0.2
				c0,0,0.2,0,0.2,0.2c0,0,0.2,0,0.2,0.2c0.2,0,0.2,0.2,0.4,0.2c0,0,0,0,0.2,0l0,0c0,0,0,0,0,0.2c0,0,0.2,0,0.2,0.2h0.2l0.2,0.2
				l0.2,0.2c0,0,0,0,0.2,0c0,0,0.2,0,0.2,0.2c0.2,0.2,0.2,0.2,0.4,0.4l0,0c0,0,0,0,0.2,0.2c0,0,0,0,0.2,0l0,0c0,0.2,0.2,0.2,0.2,0.2
				l0,0l0.2,0.2l0,0c0.2,0,0.2,0.2,0.4,0.2l0,0c0.2,0,0.2,0.2,0.2,0.2s0,0,0.2,0.2c0,0,0,0,0.2,0.2c0,0,0.2,0,0.2,0.2c0,0,0,0,0.2,0
				l0.2,0.2c0,0.2,0,0.2,0.2,0.4c0,0,0,0,0.2,0.2l0,0c0.2,0,0.2,0.2,0.2,0.4c0,0,0,0,0,0.2l0.2,0.2c0,0,0,0.2,0.2,0.2c0,0,0,0,0,0.2
				v0.2c0,0,0,0.2,0.2,0.2c0,0,0,0.2,0.2,0.2c0,0,0,0,0,0.2s0.2,0.2,0.2,0.4c0,0,0,0,0,0.2c0,0,0,0.2,0.2,0.2c0,0,0,0,0,0.2
				c0,0,0,0,0,0.2c0,0,0,0,0.2,0.2c0,0,0,0,0,0.2l0,0c0,0.2,0.2,0.2,0.2,0.4l0.2,0.2c0,0.2,0,0.2,0.2,0.4c0,0,0,0.2,0.2,0.2
				c0,0,0,0,0,0.2c0.2,0,0.2,0.2,0.2,0.2s0,0,0,0.2v0.2l0.2,0.2c0,0.2,0,0.2,0.2,0.2c0,0,0,0.2,0.2,0.2v0.2c0,0,0,0,0.2,0.2l0,0
				c0,0.2,0.2,0.4,0.2,0.4l0,0v0.2c0,0,0,0.2,0.2,0.2c0,0,0,0,0,0.2v0.2c0,0,0,0,0,0.2v0.2l0,0c0,0,0,0,0,0.2s0.2,0.2,0.2,0.4l0,0
				c0,0.2,0,0.2,0.2,0.4l0,0c0,0,0,0,0,0.2l0.2,0.2c0,0,0.2,0.2,0.2,0.4l0,0c0,0,0.2,0.2,0.2,0.4c0,0,0,0,0,0.2l0,0l0.2,0.2
				c0,0,0,0,0,0.2c0,0,0,0,0,0.2s0,0.2,0,0.4l0,0c0,0,0,0.2,0.2,0.2c0,0.2,0,0.2,0.2,0.4l0.2,0.2c0,0,0,0,0,0.2c0,0,0,0,0,0.2l0,0
				c0,0,0,0,0,0.2c0,0,0,0.2,0.2,0.2l0,0l0,0c0,0.2,0,0.2,0,0.4l0,0c0,0,0,0.2,0.2,0.2l0,0c0,0,0,0,0,0.2v0.2l0,0c0,0,0,0,0,0.2v0.2
				c0,0,0,0,0,0.2c0,0,0,0.2,0.2,0.2c0,0,0,0,0,0.2v0.2c0,0,0,0.2,0.2,0.2c0.2,0.2,0.2,0.4,0.2,0.4c0,0.2,0,0.2,0.2,0.4
				c0,0,0,0.2,0.2,0.2l0,0c0,0.2,0.2,0.2,0.2,0.4c0,0,0,0,0,0.2c0,0,0,0,0,0.2l0,0c0,0,0,0,0,0.2v0.2l0,0v0.2c0,0,0,0.2,0.2,0.2l0,0
				c0,0.2,0,0.2,0.2,0.4l0.2,0.2v0.2c0,0,0,0,0,0.2s0,0.2,0,0.4v0.2v0.2c0,0,0,0,0,0.2s0,0.2,0,0.4c0,0,0,0,0,0.2l0,0l0,0
				c0,0,0,0,0,0.2v0.2v0.2v0.2l0,0v0.2v0.2c0,0,0,0,0,0.2s0,0.4,0,0.6v0.2v0.2c0,0.4,0,0.6,0,0.9c0,0.2,0,0.2,0,0.4l0,0
				c0,0,0,0,0,0.2v0.2l0,0v0.2c0,0.4,0,0.6,0,0.9v0.2v0.2c0,0.2,0,0.2,0,0.4v0.2v0.2v0.2l0,0c0,0.2,0,0.2,0,0.4v0.2v0.2l0,0
				c0,0.2,0,0.2,0,0.4l0,0v0.2c0,0.2,0,0.4,0,0.6v0.2c0,0.2,0,0.2,0,0.4l0,0v0.2v0.2c0,0,0,0,0,0.2s0,0.4,0,0.6v0.2c0,0,0,0,0,0.2
				v0.2l0,0c0,0.2,0,0.4,0,0.4l0,0c0,0.2,0,0.4,0,0.4s0,0,0,0.2c0,0,0,0.2-0.2,0.2c0,0,0,0.2-0.2,0.2l-0.2,0.2l-0.2,0.2
				c0,0,0,0,0,0.2v0.2v0.2v0.2c0,0,0,0.2-0.2,0.2v0.2v0.2v0.2c0,0,0,0,0,0.2v0.2l0,0c0,0.2,0,0.2,0,0.2v0.2c0,0.2,0,0.2-0.2,0.4
				c0,0,0,0,0,0.2c0,0,0,0.2-0.2,0.2v0.2v0.2v0.2c0,0,0,0.2-0.2,0.2c0,0,0,0,0,0.2v0.2v0.2v0.2c0,0,0,0,0,0.2l0,0c0,0,0,0,0,0.2
				s0,0.2-0.2,0.4c0,0.2,0,0.2-0.2,0.4l0,0c0,0.2-0.2,0.4-0.2,0.4c0,0.2-0.2,0.4-0.2,0.6v0.2l0,0v0.2v0.2l0,0l-0.2,0.2v0.2l0,0
				c0,0-0.2,0-0.2,0.2l0,0v0.2l0,0c0,0,0,0.2-0.2,0.2l0,0c0,0,0,0-0.2,0.2v0.2v0.2l0,0l0,0c0,0.2,0,0.2-0.2,0.2l-0.2,0.2
				c0,0-0.2,0.2,0,0.2l-0.2,0.2c0,0,0,0.2-0.2,0.2c0,0,0,0,0,0.2v0.2c0,0,0,0.2-0.2,0.2l0,0c0,0,0,0,0,0.2c0,0,0,0,0,0.2
				s-0.2,0.2-0.2,0.4l0,0c0,0,0,0.2-0.2,0.2c0,0,0,0.2-0.2,0.2l0,0v0.2c0,0-0.2,0-0.2,0.2c0,0,0,0.2-0.2,0.2v0.2c0,0,0,0,0,0.2
				s-0.2,0.2-0.2,0.4c0,0,0,0,0,0.2l0,0c0,0,0,0.2-0.2,0.2c0,0,0,0.2-0.2,0.2L131,579l-0.2,0.2l0,0c0,0.2-0.2,0.2-0.2,0.4
				c0,0,0,0,0,0.2l0,0l-0.2,0.2c0,0,0,0,0,0.2c0,0,0,0,0,0.2l-0.2,0.2l-0.2,0.2c0,0,0,0,0,0.2l-0.2,0.2c0,0,0,0.2-0.2,0.2
				c0,0,0,0,0,0.2c0,0,0,0.2-0.2,0.2l0,0c0,0.2,0,0.2-0.2,0.2c0,0,0,0.2-0.2,0.2l0,0c0,0,0,0.2-0.2,0.2c0,0,0,0.2-0.2,0.2l0,0
				l-0.2,0.2l0,0c-0.2,0.2-0.2,0.2-0.4,0.2c0,0-0.2,0-0.2,0.2c0,0-0.2,0-0.2,0.2l-0.2,0.2l0,0c0,0.2-0.2,0.2-0.2,0.2l0,0
				c-0.2,0-0.2,0-0.2,0.2c-0.2,0.2-0.2,0.2-0.4,0.4c0,0,0,0,0,0.2c0,0,0,0-0.2,0s-0.2,0.2-0.4,0.2c-0.2,0.2-0.4,0.2-0.6,0.4
				l-0.2,0.2l-0.2,0.2l-0.2,0.2c0,0,0,0-0.2,0c0,0-0.2,0-0.2,0.2c0,0,0,0-0.2,0c0,0-0.2,0-0.2,0.2l0,0l-0.2,0.2
				c-0.2,0-0.2,0.2-0.2,0.2l0,0h-3.4c-0.2,0-0.2,0-0.2,0l0,0l-0.2,0.2l0,0c0,0.2-0.2,0.2-0.4,0.4c-0.2,0-0.2,0.2-0.4,0.2
				c0,0,0,0.2-0.2,0.2l0,0l-0.2,0.2l-0.2,0.2c0,0,0,0-0.2,0c0,0,0,0-0.2,0s-0.2,0.2-0.4,0.2h-0.2c0,0,0,0-0.2,0H117
				c-0.2,0-0.4,0-0.4,0l0,0c-0.2,0-0.4,0-0.4,0.2c-0.2,0-0.2,0.2-0.4,0.2c0,0,0,0-0.2,0s-0.4,0.2-0.4,0.2s0,0-0.2,0c0,0,0,0-0.2,0
				c0,0,0,0-0.2,0s-0.4,0-0.4,0H114l0,0c0,0,0,0-0.2,0h-0.2h-0.2h-0.2c-0.2,0.2-0.2,0.2-0.4,0.2h-0.2c0,0,0,0-0.2,0c0,0,0,0-0.2,0
				c0,0,0,0-0.2,0c0,0-0.2,0-0.2,0.2h-0.2h-0.2h0.2l0,0h-0.2c-0.2,0-0.2,0-0.4,0.2h0c0,0,0,0-0.2,0h-0.2h-0.2h-0.2H110h-0.2l0,0
				h-0.2c-0.2,0-0.2,0-0.4,0.2H109l0,0l0,0c-0.2,0-0.2,0-0.4,0c-0.1,0-0.2,0-0.4,0l0,0c-0.2,0-0.2,0-0.4,0l0,0h-0.2c0,0,0,0-0.2,0
				l0,0h-0.2H107h-0.2h-0.2c-0.2,0-0.4,0-0.8,0h-0.2l0,0h-0.2c0,0,0,0-0.2,0c0,0,0,0-0.2,0h-0.2c-0.2,0-0.2,0-0.4,0h-0.2
				c-0.2,0-0.2,0-0.4,0h-0.2c-0.2,0-0.4,0-0.6,0l0,0h-0.2h-0.2h-0.2l0,0c0,0,0,0-0.2,0H102c-0.2,0-0.4,0-0.6,0s-0.2,0-0.4,0l0,0
				h-0.2h-0.2l0,0h-0.2h-0.2l0,0c0,0,0,0-0.2,0c0,0,0,0-0.2,0s-0.4,0-0.6,0H99h-0.2c-0.2,0-0.2,0-0.4,0c-0.1,0-0.2,0-0.4,0h0h-0.2
				h-0.2c-0.2,0-0.2,0-0.4,0c-0.1,0-0.2,0-0.4,0l0,0h-0.2H97h-0.2h-0.2h-0.2h-0.2H96l0,0h-0.2h-0.2h-0.2h-0.2H95h-0.2l0,0
				c-0.2,0-0.4,0-0.6,0h0.1H94l0,0c0,0-0.2,0-0.4,0l0,0c-0.2,0-0.2,0-0.4,0H93l0,0c0,0,0,0-0.2,0c0,0,0,0-0.2,0h-0.2h-0.2
				c0,0,0,0-0.2,0s-0.2,0-0.4,0l0,0c0,0,0,0-0.2,0c0,0,0,0-0.2,0l0,0H91c-0.2,0-0.2,0-0.4,0l0,0l0,0c0,0,0,0-0.2,0h-0.2
				c0,0,0,0-0.2,0h-0.2c0,0-0.2,0-0.4,0l0,0h-0.2H89l0,0c0,0-0.2,0-0.2-0.2h-0.2c0,0-0.2,0-0.2-0.2c0,0-0.2,0-0.2-0.2l0,0
				c0,0-0.2,0-0.2-0.2h-0.2c0,0,0,0-0.2-0.2c0,0,0,0-0.2,0l0,0c0,0,0,0-0.2-0.2c-0.2,0-0.2-0.2-0.4-0.2c0,0,0,0-0.2,0c0,0,0,0-0.2,0
				h-0.2c0,0-0.2,0-0.2-0.2l0,0c0,0-0.2,0-0.2-0.2l-0.2-0.2c0,0-0.2,0-0.2-0.2h-0.2c0,0,0,0-0.2-0.2c0,0,0,0-0.2,0l0,0l-0.2-0.2
				c0,0-0.2,0-0.2-0.2l-0.2-0.2c-0.2,0-0.2,0-0.2-0.2l0,0c-0.2-0.2-0.4-0.2-0.6-0.4l0,0c0-0.2-0.2-0.2-0.4-0.2c0,0-0.2,0-0.2-0.2
				l0,0c-0.2,0-0.2-0.2-0.2-0.2l0,0c0,0,0,0-0.2,0l0,0l0,0c0,0-0.2-0.2-0.4-0.2c-0.2,0-0.2-0.2-0.4-0.2l0,0c-0.2,0-0.4-0.2-0.4-0.4
				c0,0-0.2,0-0.2-0.2c0,0-0.2,0-0.2-0.2c0,0-0.2,0-0.2-0.2c0,0-0.2,0-0.2-0.2l-0.2-0.2c0,0-0.2,0-0.2-0.2l-0.2-0.2
				c0,0-0.2,0-0.2-0.2l-0.2-0.2c0,0,0-0.2-0.2-0.2c0,0,0-0.2-0.2-0.2l-0.2-0.2c0,0-0.2,0-0.2-0.2c0,0-0.2,0-0.2-0.2
				c0,0-0.2,0-0.2-0.2l0,0c-0.2,0-0.2-0.2-0.2-0.2l0,0l-0.2-0.2l0,0l-0.2-0.2l0,0l-0.2-0.2c0,0-0.2,0-0.2-0.2c0,0-0.2,0-0.2-0.2
				c0,0,0-0.2-0.2-0.2l0,0l0,0l-0.2-0.2l-0.2-0.2l-0.2-0.2c0,0,0-0.2-0.2-0.2l-0.2-0.2c0,0,0,0,0-0.2c0,0,0,0,0-0.2l0,0l0,0
				c-0.2,0-0.2-0.2-0.2-0.2l-0.2-0.2c0,0,0,0,0-0.2c0,0,0,0-0.2-0.2l0,0c0,0,0,0-0.2-0.2c0,0,0,0,0-0.2l0,0
				c-0.2-0.2-0.2-0.2-0.4-0.4l0,0l0,0c0,0,0-0.2-0.2-0.2c0,0,0,0-0.2-0.2l-0.2-0.2l0,0l0,0c0,0,0-0.2-0.2-0.2l0,0l-0.2-0.2l0,0
				c0,0-0.2,0-0.2-0.2l0,0l-0.2-0.2l-0.2-0.2l0,0l-0.2-0.2c0,0,0,0-0.2,0l0,0c0,0,0-0.2-0.2-0.2c0,0-0.2-0.2-0.2-0.4l0,0l0,0
				c-0.2,0-0.2-0.2-0.2-0.2l0,0l-0.2-0.2l0,0c0,0,0,0,0-0.2l0,0c0,0,0,0,0-0.2l0,0v-0.2l-0.2-0.2l-0.2-0.2l0,0
				c0-0.2-0.2-0.2-0.2-0.4l-0.2-0.2l0,0v-0.2l-0.2-0.2l0,0c0,0,0,0-0.2-0.2c0,0,0,0-0.2-0.2c0,0,0,0-0.2-0.2c0,0,0,0-0.2-0.2
				c0,0,0,0-0.2-0.2l0,0c0,0,0-0.2-0.2-0.2l0,0c0-0.2,0-0.2-0.2-0.4c0-0.2-0.2-0.2-0.2-0.2s0-0.2-0.2-0.2l0,0c0,0,0-0.2-0.2-0.2
				c0,0,0,0,0-0.2s0-0.2-0.2-0.4c0-0.2-0.2-0.4-0.2-0.4V569l0,0v-0.2c0-0.2-0.2-0.2-0.2-0.4s0-0.2-0.2-0.4v-0.2l0,0
				c0,0,0-0.2-0.2-0.2v-0.2V567l0,0c0-0.2,0-0.2,0-0.4l0,0c0-0.2,0-0.2-0.2-0.4c0-0.2,0-0.2-0.2-0.4c0,0,0-0.2-0.2-0.2v-0.2l0,0
				c0-0.2-0.2-0.4-0.2-0.4c0-0.2,0-0.2-0.2-0.4v-0.2v-0.2l0,0V564c0-0.2,0-0.2,0-0.2c0-0.2,0-0.2-0.2-0.4v-0.2c0,0,0,0,0-0.2v0
				c0-0.2,0-0.2,0-0.4c0,0,0,0,0-0.2s0-0.4,0-0.6v-0.2v-0.2v-0.2l0,0V561v-0.2v-0.2v-0.2v-0.2l0,0c0-0.2,0-0.2,0-0.4c0,0,0,0,0-0.2
				s0-0.4,0-0.8v-0.2l0,0v-0.2c0-0.2,0-0.4,0-0.6l0,0c0-0.2,0-0.2,0-0.4c0,0,0,0,0-0.2l0,0c0,0,0,0,0-0.2s0-0.2,0-0.4v-0.2v-0.2
				c0-0.2,0-0.2,0-0.4c0,0,0,0,0-0.2v-0.2v-0.2c0,0,0,0,0-0.2v-0.2l0,0c0-0.2,0-0.2,0-0.4l0,0c0-0.2,0-0.2,0-0.4v0v-0.2v-0.2
				c0,0,0,0,0-0.2v-0.2c0,0,0,0,0-0.2s0-0.2,0-0.4c0,0,0,0,0-0.2v-0.2V552v-0.2l0,0v-0.2l0,0c0-0.2,0-0.2,0-0.4V551
				c0-0.2,0-0.2,0-0.4s0-0.2,0-0.4l0,0c0-0.2,0-0.4,0-0.4s0,0,0-0.2l0,0c0-0.2,0-0.2,0-0.4c0,0,0,0,0-0.2c0,0,0,0,0-0.2v-0.2
				c0-0.2,0-0.2,0-0.4V548c0,0,0-0.2,0-0.4v-0.2v-0.2c0,0,0,0,0-0.2c0,0,0-0.2,0.2-0.2c0,0,0,0,0-0.2s0-0.2,0-0.4c0,0,0,0,0-0.2v0
				v-0.2c0-0.2,0.2-0.4,0.2-0.4s0,0,0-0.2s0.2-0.2,0.2-0.4l0,0v-0.2c0-0.2,0-0.2,0.2-0.4c0,0,0,0,0-0.2s0.2-0.4,0.2-0.6
				c0,0,0-0.2,0.2-0.2V543c0,0,0,0,0-0.2l0,0C73.8,542.5,73.9,542.5,73.9,542.2C73.8,542.5,73.9,542.2,73.9,542.2L73.9,542.2
				L73.9,542.2L73.9,542.2z M119,584.5C119.2,584.5,119.2,584.5,119,584.5C119.2,584.5,119.2,584.3,119,584.5
				C119.2,584.3,119.2,584.3,119,584.5C119.2,584.3,119,584.3,119,584.5L119,584.5C119.2,584.5,119.2,584.5,119,584.5
				C119.2,584.5,119.2,584.5,119,584.5c0.2,0.2,0.2,0.2,0.2,0.2l0,0C119.4,584.5,119.2,584.5,119,584.5
				C119.2,584.5,119.2,584.5,119,584.5z M73.6,545.3L73.6,545.3L73.6,545.3L73.6,545.3L73.6,545.3C73.8,545.3,73.8,545.3,73.6,545.3
				L73.6,545.3z M76.4,539.5C76.4,539.5,76.2,539.5,76.4,539.5C76.2,539.5,76.2,539.5,76.4,539.5C76.2,539.5,76.2,539.5,76.4,539.5
				C76.2,539.5,76.2,539.5,76.4,539.5C76.2,539.5,76.4,539.5,76.4,539.5z M118.8,584.6C118.7,584.6,118.7,584.6,118.8,584.6
				C118.7,584.6,118.7,584.8,118.8,584.6C118.8,584.8,118.8,584.6,118.8,584.6L118.8,584.6z M89.7,524L89.7,524L89.7,524
				C89.6,524,89.6,524,89.7,524C89.6,524,89.7,524,89.7,524L89.7,524L89.7,524z M74.9,544C74.9,544,74.7,544.2,74.9,544
				C74.7,544.2,74.7,544.2,74.9,544C74.9,544.2,74.9,544.2,74.9,544C74.9,544.2,74.9,544.2,74.9,544C74.9,544.2,74.9,544,74.9,544z
				 M78.6,534.5L78.6,534.5C78.6,534.5,78.4,534.5,78.6,534.5C78.4,534.5,78.4,534.5,78.6,534.5C78.4,534.5,78.4,534.5,78.6,534.5
				C78.4,534.5,78.4,534.5,78.6,534.5L78.6,534.5z M74.3,546L74.3,546L74.3,546L74.3,546C74.3,546.1,74.3,546.1,74.3,546
				C74.3,546.1,74.3,546.1,74.3,546C74.3,546.1,74.3,546,74.3,546z M90.2,522.1L90.2,522.1L90.2,522.1L90.2,522.1L90.2,522.1
				L90.2,522.1z M74.1,551.5L74.1,551.5L74.1,551.5L74.1,551.5L74.1,551.5L74.1,551.5L74.1,551.5z M72.4,549.1L72.4,549.1
				L72.4,549.1L72.4,549.1L72.4,549.1L72.4,549.1C72.2,549.1,72.4,549.1,72.4,549.1L72.4,549.1z M76,540.3L76,540.3
				C76,540.5,76,540.5,76,540.3C76,540.5,76,540.3,76,540.3L76,540.3z M74.1,543.1C74.1,543.1,73.9,543.1,74.1,543.1
				C73.9,543.1,73.9,543.1,74.1,543.1C73.9,543.1,73.9,543.1,74.1,543.1C73.9,543.1,74.1,543.1,74.1,543.1z M88.5,525
				C88.5,525.2,88.5,525.2,88.5,525C88.5,525.2,88.5,525.2,88.5,525C88.5,525.2,88.5,525.2,88.5,525C88.5,525.2,88.5,525.2,88.5,525
				z M77.1,541.3L77.1,541.3L77.1,541.3L77.1,541.3L77.1,541.3L77.1,541.3z M76.2,540.3L76.2,540.3L76.2,540.3L76.2,540.3
				L76.2,540.3z M94.4,532.3L94.4,532.3L94.4,532.3L94.4,532.3L94.4,532.3z M74.7,548C74.7,548,74.5,548,74.7,548
				C74.5,548,74.5,548,74.7,548C74.5,548,74.5,548,74.7,548C74.5,548,74.5,548,74.7,548z M74.7,542.2L74.7,542.2L74.7,542.2
				L74.7,542.2L74.7,542.2z"/>
			<path fill="#00A887" d="M86.6,523L86.6,523L86.6,523L86.6,523L86.6,523L86.6,523L86.6,523z"/>
			<path fill="#00A887" d="M86.6,523L86.6,523L86.6,523L86.6,523L86.6,523L86.6,523z"/>
		</g>
	</g>
	<path fill="#0082CA" d="M668.5,514.3c-0.9,0-1.9,0-2.8,0c-0.6,0-0.9,0-1.5,0c-0.4,0-0.9-0.2-1.3-0.2c-0.2,0-0.4,0-0.6,0
		c-0.6,0-1.1-0.2-1.7-0.2c-0.6,0-1.1-0.2-1.7-0.2c-0.8-0.2-1.5-0.2-2.2-0.2c-0.2,0-0.2,0-0.4,0c-0.4-0.2-0.9-0.4-1.3-0.6
		c-0.8-0.4-1.5-0.8-2.2-1.1c-0.4-0.2-0.9-0.4-1.3-0.6c-0.4-0.4-0.9-0.6-1.3-0.8s-0.6-0.4-0.9-0.6c-0.2-0.2-0.6-0.4-0.9-0.6
		c-0.2-0.2-0.6-0.4-0.8-0.6c-0.4-0.2-0.8-0.4-1.1-0.6c-0.4-0.4-0.8-0.6-1.1-0.8c-0.4-0.2-0.8-0.4-0.9-0.6c-0.4-0.2-0.6-0.4-0.9-0.6
		c-0.6-0.2-0.9-0.6-1.5-0.9c-0.4-0.4-0.9-0.6-1.3-0.9c-0.4-0.4-0.9-0.8-1.3-1.1c-0.8-0.8-1.7-1.3-2.5-2c-0.2-0.2-0.4-0.4-0.6-0.6
		c-0.2-0.2-0.4-0.6-0.6-0.8c-0.6-0.9-0.9-1.7-1.3-2.6c-0.2-0.6-0.6-1.1-0.8-1.7c-0.2-0.4-0.4-0.9-0.6-1.3c-0.2-0.4-0.2-0.6-0.4-0.9
		c-0.2-0.2-0.2-0.4-0.2-0.6c0-0.2,0-0.4-0.2-0.6c-0.2-0.4-0.2-0.8-0.4-0.9c0-0.2-0.2-0.4-0.2-0.4c-0.2-0.4-0.2-0.8-0.4-1.1
		c-0.2-0.4-0.2-0.8-0.4-1.3c0-0.2,0-0.2-0.2-0.4c-0.4-1.5-0.8-2.8-1.1-4.3c0-0.4-0.2-0.8-0.2-1.3c0-0.2,0-0.2,0-0.4
		c-0.2-0.6-0.2-0.9-0.2-1.5c0-0.4-0.2-0.9-0.2-1.3c0-0.4,0-0.9-0.2-1.3c0-0.6-0.2-1.3-0.2-1.9c0-0.4,0-0.9,0-1.3
		c0-0.2,0.2-0.6,0.2-0.8c0.4-2,0.8-3.7,1.3-5.4c0.2-0.4,0.2-0.9,0.4-1.3c0-0.2,0-0.4,0.2-0.6c0.2-0.4,0.4-0.9,0.4-1.3
		s0.2-0.8,0.4-1.3c0.2-0.8,0.6-1.7,0.9-2.5c0-0.2,0.2-0.4,0.2-0.4c0-0.2,0.2-0.4,0.2-0.4c0.2-0.6,0.4-0.9,0.6-1.3
		c0.2-0.4,0.4-0.9,0.8-1.3c0.4-0.8,0.9-1.7,1.5-2.5c0.6-0.6,0.9-1.3,1.3-2c0.4-0.7,0.9-1.3,1.3-2c0.4-0.6,0.8-0.9,1.3-1.3
		c0.2-0.2,0.4-0.2,0.4-0.4c0.4-0.4,0.8-0.8,1.1-1.1c0.2-0.2,0.4-0.2,0.6-0.4c0.6-0.4,0.9-0.8,1.5-1.1c0.4-0.2,0.8-0.6,1.3-0.8
		c0.4-0.2,0.8-0.4,1.1-0.8c0.8-0.4,1.5-0.8,2.2-1.1c0.4-0.2,0.8-0.4,1.1-0.4s0.6-0.2,0.9-0.2c0.2,0,0.6-0.2,0.9-0.2s0.9-0.2,1.3-0.4
		c0,0,0,0,0.2,0c0.4,0,0.9-0.2,1.3-0.2c0.4-0.2,0.9-0.2,1.3-0.2c0.4,0,0.9,0,1.3-0.2h0.2c0.2,0,0.4,0,0.6,0c0.6-0.2,1.1-0.2,1.7-0.2
		c0.4,0,0.6,0,0.9-0.2c0.2,0,0.2,0,0.4,0c0.4,0,0.8,0,1.1,0c0.2,0,0.2,0,0.4,0c0.8,0,1.5,0,2,0c0.6,0,0.9,0,1.5,0
		c0.4,0,0.9,0,1.3,0.2c0.2,0,0.4,0,0.6,0c0.4,0,0.8,0,1.1,0c0.9,0,1.9,0,2.8,0.2c0.6,0.2,1.3,0.2,1.9,0.2c0.6,0.2,1.1,0.2,1.5,0.4
		c0.6,0.2,1.1,0.2,1.5,0.2s0.9,0.2,1.3,0.2c0.4,0.2,0.9,0.2,1.3,0.2c0.4,0.2,0.8,0,0.9,0.2c0.4,0.2,0.6,0.2,0.9,0.2
		c0.2,0,0.6,0.2,0.8,0.2s0.6,0,0.8,0.2c0.6,0.2,1.1,0.2,1.5,0.4c0.6,0.2,1.1,0.2,1.5,0.4c0.6,0.2,1.3,0.4,1.9,0.6
		c0.6,0.2,1.1,0.4,1.7,0.4c0.6,0.2,0.9,0.4,1.5,0.6s0.9,0.4,1.5,0.6c0.8,0.2,1.5,0.4,2,0.8c0.2,0,0.2,0,0.4,0.2
		c0.2,0.4,0.8,0.8,0.9,1.1c0.6,0.8,1.1,1.5,1.7,2.5c0.2,0.4,0.4,0.8,0.8,1.1c0.2,0.2,0.2,0.4,0.4,0.6c0.2,0.4,0.6,0.8,0.8,1.1
		c0.2,0.4,0.4,0.8,0.6,1.3c0,0,0,0.2,0.2,0.2c0.2,0.4,0.6,0.8,0.6,1.3c0.2,0.4,0.4,0.8,0.6,1.3c0.2,0.4,0.4,0.8,0.6,1.3
		c0,0,0,0,0,0.2c0.2,0.4,0.4,0.6,0.4,0.9c0.2,0.4,0.2,0.8,0.4,1.1c0.1,0.4,0.2,0.8,0.4,1.1c0.2,0.4,0.2,0.8,0.2,1.3v0.2
		c0.2,0.4,0.4,0.8,0.4,1.1c0,0.2,0.2,0.4,0.2,0.6c0.2,0.6,0.4,1.3,0.4,2c0,0.6,0,0.9,0,1.5v0.2c0,0.4,0.2,0.8,0.2,0.9
		c0,0.4,0,0.8,0,0.9c0,0.4,0,0.8,0,1.1c0,0.8,0,1.3,0.2,2c0,0.2,0,0.4,0,0.6c0,0.6,0,1.1,0,1.7v0.2c-0.2,0.8,0,1.5,0,2.2
		c0,0.4,0,0.8,0,1.1s0,0.8,0,1.1s0,0.8-0.2,1.1s-0.2,0.8-0.4,1.1c0,0.4-0.2,0.8-0.2,0.9c0,0.4-0.4,0.8-0.4,1.1s-0.2,0.6-0.4,0.9
		c-0.2,0.4-0.4,0.9-0.6,1.3c0,0.2-0.2,0.4-0.2,0.6s0,0.4-0.2,0.4c-0.4,0.4-0.6,0.9-0.8,1.5c-0.2,0.4-0.4,0.8-0.6,0.9
		c-0.2,0.4-0.4,0.6-0.6,0.8l-0.2,0.2c-0.4,0.6-0.6,1.1-0.9,1.5s-0.6,0.9-0.9,1.3c-0.4,0.4-0.6,0.9-0.9,1.3c-0.2,0.4-0.6,0.8-0.8,1.1
		c-0.2,0.2-0.2,0.4-0.4,0.6c-0.6,0.6-0.9,1.1-1.3,1.7c-0.2,0.2-0.4,0.4-0.4,0.6c-0.6,0.6-1.3,1.3-1.7,1.9c-0.2,0.4-0.6,0.6-0.8,0.8
		c-0.4,0.4-0.6,0.6-0.9,0.9c-0.2,0.4-0.6,0.6-0.8,0.8s-0.4,0.4-0.6,0.6c-0.4,0.4-0.8,0.8-0.9,1.1c-0.2,0.2-0.4,0.4-0.6,0.8
		c-0.2,0.2-0.4,0.4-0.6,0.6c-0.4,0.4-0.9,0.9-1.3,1.3c-0.2,0.2-0.4,0.4-0.6,0.4c-0.4,0.2-0.6,0.4-0.9,0.6c-0.8,0.4-1.3,0.8-2,0.9
		c-0.4,0.2-0.8,0.2-1.1,0.2c-0.4,0.2-0.8,0.2-1.1,0.2c-0.2,0-0.2,0-0.4,0c-0.6,0.2-1.1,0.4-1.7,0.4c-0.2,0-0.6,0-0.8,0.2
		c-0.8,0.2-1.7,0.4-2.2,0.4c-0.4,0-0.8,0-0.9,0c-0.2,0-0.4,0-0.6,0c-0.8,0-1.3,0-2,0C670,514.3,669.2,514.3,668.5,514.3L668.5,514.3
		z"/>
	<path fill="#FF4338" d="M405.6,152.2c-0.9,0-1.9,0-3,0c-0.6,0-1.1,0-1.7,0s-0.9-0.2-1.5-0.2c-0.2,0-0.4,0-0.6,0
		c-0.6,0-1.3-0.2-1.9-0.2s-1.1-0.2-1.7-0.2c-0.8-0.2-1.7-0.2-2.5-0.2c-0.2,0-0.2,0-0.4,0c-0.6-0.2-0.9-0.4-1.5-0.6
		c-0.8-0.4-1.7-0.8-2.5-1.1c-0.6-0.2-0.9-0.4-1.5-0.8c-0.4-0.4-0.9-0.6-1.3-0.8s-0.6-0.4-0.9-0.6c-0.2-0.2-0.6-0.4-0.9-0.6
		s-0.6-0.4-0.9-0.6c-0.4-0.2-0.8-0.4-1.1-0.6c-0.4-0.4-0.8-0.6-1.3-0.8c-0.4-0.2-0.8-0.4-1.1-0.6c-0.4-0.2-0.6-0.6-0.9-0.8
		c-0.6-0.4-1.1-0.6-1.5-1.1c-0.4-0.4-0.9-0.8-1.3-1.1s-0.9-0.8-1.5-1.1c-0.9-0.8-1.9-1.5-2.6-2.2c-0.2-0.2-0.4-0.4-0.6-0.6
		s-0.6-0.6-0.8-0.9c-0.6-0.9-1.1-1.9-1.5-3c-0.2-0.6-0.6-1.3-0.9-1.9c-0.2-0.6-0.6-0.9-0.8-1.5c-0.2-0.4-0.4-0.8-0.6-0.9
		c-0.2-0.2-0.2-0.4-0.2-0.6s0-0.4-0.2-0.6c-0.2-0.4-0.2-0.8-0.4-1.1c-0.2-0.2-0.2-0.4-0.2-0.6c-0.2-0.4-0.2-0.9-0.4-1.3
		c-0.1-0.4-0.2-0.9-0.4-1.3c0-0.2,0-0.2-0.2-0.4c-0.6-1.5-0.9-3-1.1-4.6c-0.2-0.4-0.2-0.9-0.2-1.3c0-0.2,0-0.2,0-0.4
		c-0.2-0.6-0.2-1.1-0.2-1.7c0-0.6-0.2-0.9-0.2-1.5s0-0.9-0.2-1.5c0-0.8-0.2-1.3-0.2-2c0-0.4,0-0.9,0-1.3c0-0.2,0.2-0.6,0.2-0.8
		c0.4-2,0.9-4.1,1.3-6c0.2-0.4,0.4-0.9,0.4-1.5c0-0.2,0-0.4,0.2-0.6c0.2-0.6,0.4-0.9,0.4-1.5c0-0.4,0.2-0.9,0.4-1.3
		c0.2-0.9,0.6-1.7,0.9-2.6c0-0.2,0.2-0.4,0.2-0.6c0-0.2,0.2-0.4,0.2-0.6c0.2-0.6,0.4-0.9,0.8-1.5c0.2-0.6,0.6-0.9,0.8-1.5
		c0.4-0.9,0.9-1.7,1.5-2.6c0.6-0.6,0.9-1.5,1.5-2c0.6-0.8,0.9-1.5,1.5-2c0.4-0.6,0.8-0.9,1.3-1.3c0.2-0.2,0.4-0.2,0.6-0.4
		c0.4-0.4,0.8-0.9,1.3-1.1c0.2-0.2,0.4-0.2,0.6-0.4c0.6-0.4,0.9-0.9,1.7-1.1c0.6-0.2,0.9-0.6,1.3-0.9c0.4-0.2,0.9-0.6,1.3-0.8
		c0.8-0.4,1.5-0.9,2.5-1.3c0.4-0.2,0.8-0.4,1.3-0.6c0.4-0.2,0.8-0.2,0.9-0.4c0.4,0,0.6-0.2,0.9-0.2c0.6-0.2,0.9-0.2,1.5-0.4
		c0,0,0,0,0.2,0c0.6,0,0.9-0.2,1.5-0.2c0.6-0.2,0.9-0.2,1.5-0.2c0.6-0.2,0.9,0,1.5-0.2h0.2c0.2,0,0.4,0,0.6,0
		c0.6-0.2,1.1-0.2,1.7-0.2c0.4,0,0.6,0,0.9-0.2c0.2,0,0.2,0,0.4,0c0.4,0,0.8,0,1.1,0c0.2,0,0.2,0,0.4,0c0.8,0,1.5,0,2.2,0
		c0.6,0,1.1,0,1.5,0c0.6,0,0.9,0,1.5,0.2c0.2,0,0.4,0,0.6,0c0.4,0,0.8,0,1.1,0c0.9,0,2,0.2,3,0.2c0.6,0.2,1.3,0.2,2,0.4
		c0.6,0.2,1.1,0.2,1.7,0.4c0.6,0.1,1.1,0.2,1.7,0.4c0.6,0,0.9,0.2,1.5,0.4c0.6,0.2,0.9,0.2,1.5,0.4c0.4,0.2,0.8,0,0.9,0.2
		c0.4,0.2,0.8,0.2,1.1,0.2c0.2,0,0.6,0.2,0.8,0.2s0.6,0,0.8,0.2c0.6,0.2,1.1,0.4,1.7,0.4c0.6,0.2,1.1,0.2,1.7,0.4
		c0.8,0.2,1.3,0.4,2,0.6c0.6,0.2,1.1,0.4,1.9,0.6c0.6,0.2,1.1,0.4,1.7,0.6s1.1,0.4,1.7,0.6c0.8,0.4,1.5,0.6,2.2,0.9
		c0.2,0,0.2,0,0.4,0.2c0.4,0.4,0.8,0.8,1.1,1.3c0.6,0.8,1.3,1.7,1.7,2.6c0.2,0.4,0.4,0.8,0.8,1.1c0.2,0.2,0.4,0.4,0.4,0.8
		c0.2,0.4,0.6,0.8,0.8,1.3c0.2,0.4,0.4,0.9,0.6,1.3c0,0,0,0.2,0.2,0.2c0.2,0.4,0.6,0.9,0.8,1.3c0.2,0.6,0.4,0.9,0.8,1.3
		c0.2,0.4,0.4,0.9,0.6,1.3c0,0,0,0,0,0.2c0.2,0.4,0.4,0.6,0.4,0.9c0.2,0.4,0.4,0.8,0.6,1.1c0.2,0.4,0.4,0.9,0.6,1.3
		c0.2,0.4,0.2,0.9,0.4,1.3v0.2c0.2,0.4,0.4,0.8,0.6,1.1c0,0.2,0.2,0.4,0.2,0.6c0.2,0.8,0.4,1.3,0.4,2c0,0.6,0,1.1,0,1.7v0.2
		c0,0.4,0.2,0.8,0.2,1.1s0,0.8,0,1.1c0,0.4,0,0.8,0,1.3c0,0.8,0,1.5,0.2,2.2c0,0.2,0,0.4,0,0.6c0,0.6,0,1.3,0,1.9v0.2
		c-0.2,0.8,0,1.5,0,2.5c0,0.4,0,0.8-0.2,1.3c0,0.4,0,0.8,0,1.3c0,0.4,0,0.8-0.2,1.3c-0.2,0.4-0.2,0.8-0.4,1.1c0,0.4-0.2,0.8-0.2,1.1
		c0,0.4-0.4,0.8-0.4,1.1s-0.2,0.8-0.4,1.1c-0.2,0.6-0.4,0.9-0.6,1.5c-0.2,0.2-0.2,0.4-0.2,0.6s-0.2,0.4-0.2,0.6
		c-0.4,0.6-0.6,1.1-0.8,1.5c-0.2,0.4-0.4,0.8-0.6,1.1c-0.2,0.4-0.4,0.6-0.6,0.9l-0.2,0.2c-0.4,0.6-0.6,1.1-0.9,1.7
		c-0.4,0.6-0.6,0.9-0.9,1.5c-0.4,0.6-0.6,0.9-0.9,1.5c-0.4,0.4-0.6,0.8-0.8,1.1c-0.2,0.2-0.4,0.4-0.6,0.6c-0.6,0.6-0.9,1.1-1.5,1.9
		c-0.2,0.2-0.4,0.4-0.6,0.6c-0.6,0.8-1.3,1.3-1.9,2c-0.2,0.4-0.6,0.6-0.8,0.9c-0.4,0.4-0.8,0.6-0.9,0.9c-0.1,0.4-0.6,0.6-0.8,0.9
		c-0.2,0.2-0.4,0.4-0.6,0.6c-0.4,0.4-0.8,0.8-1.1,1.1c-0.2,0.2-0.4,0.6-0.6,0.8s-0.4,0.4-0.6,0.6c-0.4,0.6-0.9,0.9-1.3,1.5
		c-0.2,0.2-0.4,0.4-0.6,0.6c-0.4,0.2-0.8,0.4-0.9,0.6c-0.8,0.6-1.5,0.8-2.2,1.1c-0.4,0.2-0.9,0.2-1.3,0.4c-0.4,0.1-0.8,0.2-1.1,0.2
		c-0.2,0-0.2,0-0.4,0c-0.6,0.2-1.1,0.4-1.9,0.4c-0.2,0-0.6,0-0.8,0.2c-0.8,0.2-1.7,0.4-2.5,0.4c-0.4,0-0.8,0-1.1,0.2
		c-0.2,0-0.4,0-0.8,0c-0.8,0-1.5,0-2.2,0C406.9,152.2,406.2,152.2,405.6,152.2L405.6,152.2z"/>
</g>
</svg>
